<?xml version="1.0" encoding="utf-8"?>
<!-- Generator: Adobe Illustrator 23.0.5, SVG Export Plug-In . SVG Version: 6.00 Build 0)  -->
<svg version="1.1" id="Capa_1" xmlns="http://www.w3.org/2000/svg" xmlns:xlink="http://www.w3.org/1999/xlink" x="0px" y="0px"
	 viewBox="0 0 16 16" style="enable-background:new 0 0 16 16;" xml:space="preserve">
<style type="text/css">
	.st0{opacity:0.18;fill:#FFFFFF;}
	.st1{fill:#F7D7C7;}
	.st2{fill:#FFFFFF;}
	.st3{fill:#FAD6BF;}
	.st4{display:none;}
	.st5{display:inline;fill:url(#XMLID_2_);}
	.st6{display:inline;fill:#FFFFFF;}
	.st7{display:inline;fill:url(#XMLID_3_);}
</style>
<circle class="st0" cx="8" cy="8" r="8"/>
<g id="XMLID_233_">
	<g id="XMLID_300_">
		<g id="XMLID_301_">
			<path id="XMLID_5199_" class="st1" d="M7.63,4.4c0,0-0.71-0.08-2.28,0.54C4.01,5.46,3.33,4.82,3.33,4.82S1.97,3.58,1.3,3.81
				C0.53,4.07,0.25,6.72,0.25,6.72s4.73,3.89,6.15,4.78c1.42,0.89,1.7,1.02,2.03,0.66c0.47-0.51-0.05-0.83-0.78-1.36
				c0,0,1.06,0.82,1.42,0.89c0.4,0.08,1-0.46,0.58-0.92c-0.42-0.46-1.22-1.16-1.22-1.16s1.45,1.25,1.74,1.35
				c0.29,0.09,0.61-0.16,0.76-0.41c0.3-0.51-0.27-0.89-0.77-1.37C9.86,8.87,9.42,8.5,9.42,8.5s1.17,1.14,1.68,1.17
				c0.59,0.04,0.85-0.59,0.65-0.97c-0.2-0.37-1.07-1.29-2.11-2.4C8.86,5.48,8.28,4.47,7.63,4.4z"/>
			<path id="XMLID_5196_" class="st2" d="M8.06,12.43c-0.31,0.01-0.76-0.26-1.72-0.86c-1.41-0.89-3.91-2.86-3.93-2.88
				C2.4,8.68,2.39,8.66,2.39,8.65c0-0.02-2.23-1.99-2.23-1.99c0.15-0.81,0.52-2.67,1.1-2.88C1.91,3.54,3.27,4.76,3.3,4.76
				c0.02-0.01,0.05,0,0.06,0.02c0,0,0.35,0.32,1.02,0.3C4.67,5.07,4.98,5,5.31,4.87c1.16-0.46,1.86-0.54,2.17-0.55
				c0.09,0,0.14,0,0.15,0c0.49,0.06,0.92,0.58,1.42,1.19c0.2,0.24,0.4,0.5,0.63,0.73l0.17,0.18c0.98,1.05,1.76,1.88,1.95,2.23
				c0.11,0.21,0.1,0.49-0.03,0.72c-0.13,0.22-0.35,0.35-0.61,0.36l0,0c-0.02,0-0.05,0-0.07,0c-0.09-0.01-0.2-0.04-0.34-0.11
				c0.28,0.29,0.46,0.59,0.24,0.95c-0.13,0.22-0.4,0.46-0.68,0.47c-0.05,0-0.11-0.01-0.16-0.02c-0.08-0.02-0.22-0.12-0.4-0.25
				c0.13,0.17,0.15,0.36,0.07,0.54c-0.11,0.25-0.39,0.44-0.66,0.45c-0.04,0-0.07,0-0.11-0.01c-0.1-0.02-0.24-0.09-0.44-0.2
				c0.04,0.06,0.06,0.13,0.06,0.2c0.01,0.15-0.05,0.3-0.19,0.46C8.33,12.36,8.21,12.42,8.06,12.43z M0.31,6.57
				c0.24,0.19,4.78,4.04,6.11,4.87c0.91,0.57,1.37,0.84,1.64,0.84c0.11,0,0.2-0.05,0.3-0.16c0.12-0.13,0.17-0.24,0.16-0.35
				c-0.02-0.19-0.22-0.38-0.54-0.62c-0.22-0.16-0.38-0.28-0.38-0.28c-0.03-0.02-0.04-0.07-0.01-0.1c0.02-0.03,0.07-0.04,0.1-0.01
				l0.15,0.11c0.08,0.06,0.16,0.12,0.23,0.17c0.49,0.35,0.85,0.56,1,0.59c0.02,0,0.05,0.01,0.08,0.01c0.21-0.01,0.45-0.17,0.53-0.36
				c0.05-0.11,0.07-0.27-0.09-0.44c-0.41-0.45-1.21-1.14-1.22-1.15C8.34,9.64,8.33,9.6,8.36,9.57c0.03-0.03,0.07-0.03,0.1-0.01v0
				l0,0l0,0c0.58,0.5,1.52,1.27,1.72,1.33c0.04,0.01,0.08,0.02,0.11,0.02c0.22-0.01,0.45-0.2,0.57-0.4
				c0.21-0.36-0.05-0.64-0.51-1.05c-0.08-0.07-0.16-0.15-0.24-0.23c-0.04-0.04-0.08-0.08-0.13-0.12C9.64,8.83,9.35,8.55,9.35,8.55
				c-0.03-0.03-0.03-0.07,0-0.1c0.03-0.03,0.07-0.03,0.1-0.01c0,0,0.34,0.29,0.63,0.56c0.46,0.37,0.82,0.59,1.01,0.6
				c0.32,0.02,0.49-0.18,0.55-0.29c0.11-0.18,0.12-0.41,0.03-0.58c-0.18-0.34-0.99-1.2-1.93-2.2L9.56,6.35
				C9.34,6.11,9.13,5.85,8.93,5.61C8.45,5.02,8.04,4.52,7.61,4.47c0,0-0.04,0-0.13,0C7.24,4.47,6.54,4.54,5.36,5
				C5.02,5.14,4.69,5.21,4.38,5.22C3.84,5.23,3.49,5.04,3.35,4.94c-0.6-0.23-1.31-1.28-1.97-1.05C0.8,4.09,0.29,6.47,0.31,6.57z"/>
		</g>
		<g id="XMLID_302_">
			<g id="XMLID_303_">
				<path id="XMLID_5194_" class="st3" d="M14.74,4.32c0,0-4.21,0.38-4.97,0.22c-0.65-0.14-1.75-0.46-2.03-0.4
					C7.46,4.19,7.25,4.22,6.74,4.76c-0.5,0.54-0.95,1.08-1.1,1.2C5.5,6.07,5.96,6.44,6.58,6.38c0.63-0.06,1.08-0.53,1.4-0.89
					c0.33-0.36,1.18,0.49,1.74,1c0.6,0.56,1.29,1.36,1.65,1.68c0.43,0.38,0.78,0.29,0.78,0.29S15.4,8.4,15.56,8
					C15.79,7.38,15.14,5.14,14.74,4.32z"/>
				<path id="XMLID_5191_" class="st2" d="M12.07,8.54L12.07,8.54c-0.14,0-0.42-0.03-0.74-0.32c-0.16-0.15-0.39-0.39-0.65-0.67
					c-0.31-0.33-0.67-0.71-0.99-1.01L9.55,6.42C9.12,6.02,8.52,5.46,8.18,5.47c-0.06,0-0.11,0.02-0.14,0.06
					C7.67,5.94,7.22,6.39,6.59,6.45C6.05,6.5,5.62,6.25,5.56,6.07C5.53,6,5.55,5.94,5.6,5.9c0.08-0.06,0.28-0.29,0.52-0.55
					c0.17-0.19,0.37-0.41,0.57-0.64c0.5-0.54,0.72-0.59,1-0.65l0.03-0.01c0.21-0.05,0.83,0.1,1.42,0.25
					C9.38,4.37,9.6,4.42,9.78,4.46c0.42,0.09,1.01,0.1,1.44,0.09c0.35-0.01,0.62-0.03,0.62-0.03c0.03,0,2.96-0.27,2.98-0.24
					c0.39,0.82,1.7,3.06,0.96,3.8c-0.64,0.62-3.54,0.35-3.55,0.39c0,0.03-0.03,0.05-0.05,0.06C12.17,8.53,12.13,8.54,12.07,8.54z
					 M8.18,5.33c0.39-0.01,0.99,0.54,1.47,0.99l0.13,0.12c0.33,0.31,0.69,0.68,1,1.02c0.26,0.28,0.49,0.52,0.64,0.66
					c0.28,0.25,0.52,0.29,0.64,0.28l0,0c0.01,0,0.02,0,0.03,0c0.02-0.12,3.07,0.13,3.52-0.34c0.88-0.91-0.58-2.84-0.95-3.67
					c-0.09,0.01-3.16,0.29-3.43,0.3c-0.43,0.01-1.04,0-1.47-0.09C9.57,4.56,9.34,4.51,9.11,4.45C8.57,4.32,7.94,4.16,7.75,4.2
					L7.72,4.21C7.47,4.26,7.27,4.3,6.8,4.81C6.59,5.03,6.4,5.25,6.22,5.44c-0.26,0.29-0.44,0.5-0.54,0.57c0,0,0.01,0.02,0.04,0.06
					c0.11,0.11,0.43,0.27,0.85,0.23c0.58-0.06,1-0.48,1.36-0.87C8,5.37,8.08,5.33,8.18,5.33z"/>
			</g>
			<g id="XMLID_304_">
				<path id="XMLID_5189_" class="st3" d="M3.93,9.78C3.76,9.94,3.48,9.93,3.32,9.75L3.15,9.57C2.99,9.39,3,9.12,3.18,8.96
					l0.85-0.77C4.2,8.03,4.48,8.04,4.64,8.22L4.81,8.4c0.16,0.18,0.15,0.45-0.03,0.61L3.93,9.78z"/>
				<path id="XMLID_5186_" class="st2" d="M3.65,9.97c-0.15,0-0.29-0.06-0.39-0.17L3.1,9.61C2.91,9.41,2.93,9.09,3.13,8.9l0.85-0.77
					C4.07,8.05,4.18,8.01,4.31,8c0.15,0,0.29,0.06,0.39,0.16l0.17,0.19c0.19,0.21,0.17,0.52-0.03,0.71L3.98,9.84
					C3.89,9.92,3.78,9.96,3.65,9.97z M4.31,8.14c-0.09,0-0.17,0.04-0.24,0.09L3.23,9.01C3.08,9.14,3.07,9.37,3.2,9.52l0.17,0.19
					C3.5,9.85,3.74,9.86,3.89,9.73l0.85-0.77C4.88,8.83,4.89,8.6,4.76,8.45L4.59,8.26C4.52,8.19,4.41,8.14,4.31,8.14z"/>
			</g>
			<g id="XMLID_305_">
				<path id="XMLID_5184_" class="st3" d="M4.66,10.75c-0.18,0.16-0.45,0.15-0.61-0.03l-0.17-0.19c-0.16-0.18-0.15-0.45,0.03-0.61
					l0.85-0.77c0.18-0.16,0.45-0.15,0.61,0.03l0.17,0.19C5.7,9.55,5.68,9.82,5.51,9.98L4.66,10.75z"/>
				<path id="XMLID_5181_" class="st2" d="M4.38,10.93c-0.15,0-0.29-0.06-0.39-0.16l-0.17-0.19c-0.19-0.21-0.17-0.52,0.03-0.71
					L4.71,9.1C4.8,9.02,4.91,8.98,5.03,8.97c0.15,0,0.29,0.06,0.39,0.16l0.17,0.19c0.19,0.21,0.17,0.52-0.03,0.71L4.71,10.8
					C4.62,10.89,4.5,10.93,4.38,10.93z M5.04,9.11c-0.09,0-0.17,0.04-0.23,0.09L3.96,9.98c-0.15,0.13-0.16,0.36-0.02,0.51l0.17,0.19
					c0.13,0.14,0.37,0.15,0.51,0.02l0.85-0.77C5.61,9.8,5.62,9.57,5.48,9.42L5.31,9.23C5.24,9.15,5.14,9.11,5.04,9.11z"/>
			</g>
			<g id="XMLID_306_">
				<path id="XMLID_5179_" class="st3" d="M5.69,11.48c-0.18,0.16-0.45,0.15-0.61-0.03L4.9,11.26c-0.16-0.18-0.15-0.45,0.03-0.61
					l0.85-0.77c0.18-0.16,0.45-0.15,0.61,0.03l0.17,0.19c0.16,0.18,0.15,0.45-0.03,0.61L5.69,11.48z"/>
				<path id="XMLID_5176_" class="st2" d="M5.41,11.66c-0.15,0-0.29-0.06-0.39-0.16l-0.17-0.19c-0.09-0.1-0.14-0.23-0.13-0.36
					c0.01-0.13,0.06-0.26,0.16-0.35l0.85-0.77C5.82,9.75,5.94,9.7,6.06,9.7c0.15,0,0.29,0.06,0.38,0.17l0.17,0.19
					c0.19,0.21,0.17,0.52-0.03,0.71l-0.85,0.77C5.64,11.61,5.53,11.66,5.41,11.66z M6.06,9.84c-0.09,0-0.17,0.04-0.23,0.09
					L4.98,10.7c-0.07,0.07-0.11,0.15-0.12,0.25c0,0.1,0.03,0.19,0.09,0.26l0.17,0.19c0.13,0.14,0.37,0.15,0.51,0.02l0.85-0.77
					c0.15-0.13,0.16-0.36,0.02-0.51L6.34,9.96C6.27,9.88,6.17,9.84,6.06,9.84z"/>
			</g>
			<g id="XMLID_307_">
				<path id="XMLID_5174_" class="st3" d="M6.74,12.15c-0.18,0.16-0.45,0.15-0.61-0.03l-0.17-0.19c-0.16-0.18-0.15-0.45,0.03-0.61
					l0.85-0.77c0.18-0.16,0.45-0.15,0.61,0.03l0.17,0.19c0.16,0.18,0.15,0.45-0.03,0.61L6.74,12.15z"/>
				<path id="XMLID_5105_" class="st2" d="M6.46,12.34c-0.15,0-0.29-0.06-0.39-0.16L5.9,11.99c-0.09-0.1-0.14-0.23-0.13-0.36
					c0.01-0.13,0.06-0.26,0.16-0.35l0.85-0.77c0.09-0.08,0.21-0.13,0.33-0.13c0.15,0,0.29,0.06,0.39,0.16l0.17,0.19
					c0.09,0.1,0.14,0.23,0.13,0.36c-0.01,0.13-0.06,0.26-0.16,0.35l-0.85,0.77C6.7,12.29,6.58,12.34,6.46,12.34z M7.11,10.52
					c-0.09,0-0.17,0.04-0.23,0.09l-0.85,0.77c-0.07,0.07-0.11,0.15-0.12,0.25c0,0.1,0.03,0.19,0.09,0.26l0.17,0.19
					c0.13,0.14,0.37,0.15,0.51,0.02l0.85-0.77c0.07-0.07,0.11-0.15,0.12-0.25c0.01-0.1-0.03-0.19-0.09-0.26l-0.17-0.19
					C7.32,10.56,7.22,10.51,7.11,10.52z"/>
			</g>
		</g>
		<g id="XMLID_308_" class="st4">
			
				<radialGradient id="XMLID_2_" cx="3.9504" cy="8.4457" r="10.4401" gradientTransform="matrix(0.9997 0.0255 -0.0255 0.9997 -5.6831 -2.6155)" gradientUnits="userSpaceOnUse">
				<stop  offset="0.2182" style="stop-color:#595A5C"/>
				<stop  offset="0.3089" style="stop-color:#626264"/>
				<stop  offset="0.454" style="stop-color:#797A7B"/>
				<stop  offset="0.6354" style="stop-color:#9F9FA1"/>
				<stop  offset="0.8438" style="stop-color:#D3D3D4"/>
				<stop  offset="1" style="stop-color:#FFFFFF"/>
			</radialGradient>
			<polygon id="XMLID_5102_" class="st5" points="4.13,4.71 2.5,9.24 -0.64,8.13 0.96,3.64 			"/>
			<path id="XMLID_5098_" class="st6" d="M2.51,9.31c-0.01,0-0.02,0-0.03,0l-3.15-1.11C-0.69,8.19-0.7,8.18-0.71,8.16
				c-0.01-0.02-0.01-0.04,0-0.05l1.6-4.48C0.9,3.58,0.94,3.56,0.98,3.58l3.18,1.06C4.17,4.65,4.19,4.66,4.2,4.68
				c0.01,0.02,0.01,0.04,0,0.05L2.57,9.27C2.56,9.3,2.53,9.31,2.51,9.31z M-0.55,8.08l3.01,1.07l1.58-4.4L1,3.73L-0.55,8.08z"/>
		</g>
		<g id="XMLID_309_" class="st4">
			
				<radialGradient id="XMLID_3_" cx="22.5623" cy="7.883" r="7.4225" gradientTransform="matrix(0.9997 0.0255 -0.0255 0.9997 -5.6831 -2.6155)" gradientUnits="userSpaceOnUse">
				<stop  offset="0.2182" style="stop-color:#595A5C"/>
				<stop  offset="0.3089" style="stop-color:#626264"/>
				<stop  offset="0.454" style="stop-color:#797A7B"/>
				<stop  offset="0.6354" style="stop-color:#9F9FA1"/>
				<stop  offset="0.8438" style="stop-color:#D3D3D4"/>
				<stop  offset="1" style="stop-color:#FFFFFF"/>
			</radialGradient>
			<polygon id="XMLID_4712_" class="st7" points="14.72,3.78 15.4,8.55 12.09,9.04 11.41,4.33 			"/>
			<path id="XMLID_3547_" class="st6" d="M12.09,9.11c-0.02,0-0.03,0-0.04-0.01c-0.01-0.01-0.03-0.03-0.03-0.05l-0.68-4.71
				c-0.01-0.04,0.02-0.07,0.06-0.08l3.3-0.55c0.02,0,0.04,0,0.05,0.01c0.02,0.01,0.03,0.03,0.03,0.05l0.68,4.77
				c0.01,0.04-0.02,0.07-0.06,0.08L12.09,9.11C12.1,9.11,12.1,9.11,12.09,9.11z M11.49,4.38l0.66,4.57l3.16-0.47l-0.66-4.63
				L11.49,4.38z"/>
		</g>
	</g>
</g>
</svg>
