<svg xmlns="http://www.w3.org/2000/svg" viewBox="0 0 1759.23 471.03"><defs><style>.cls-1{isolation:isolate;}.cls-2{fill:#f7d7c7;}.cls-3{fill:#fff;}.cls-4{fill:#fad6bf;mix-blend-mode:multiply;}.cls-5{fill:#1e1e1e;}</style></defs><title>logo_1</title><g class="cls-1"><g id="Capa_1" data-name="Capa 1"><path class="cls-2" d="M453,44.65s-38.59-4.33-123.7,29.26c-72.66,28.69-109.72-6-109.72-6s-74-67.5-110-55.17C67.3,27.19,52.17,171,52.17,171S309.05,382,386.09,430.53s92.41,55.4,110.26,35.83c25.32-27.79-2.87-44.82-42.26-73.95,0,0,57.76,44.45,76.85,48.07,21.81,4.14,54.48-24.82,31.64-49.94s-66.29-62.84-66.29-62.84,78.87,68.1,94.6,73.09,33.3-8.69,41.38-22.37c16.42-27.86-14.73-48.12-41.53-74.38-16.69-16.34-40.91-36.69-40.91-36.69s63.72,61.81,91.06,63.48c31.93,1.95,46.24-32.07,35.07-52.84-10.68-19.84-58.1-70-114.5-130.12C519.89,103.51,488.45,48.63,453,44.65Z" transform="translate(-47.45 -9.5)"/><path class="cls-3" d="M476.46,480.52c-16.85.4-41.38-13.91-93.33-46.64C306.79,385.81,171.05,278.62,169.7,277.54a3.69,3.69,0,0,1-1.37-2.19c-.25-1.12-120.88-108-120.88-108,8-43.79,28.17-144.72,59.8-156.19,35.26-12.79,109.27,53.39,110.53,53.1a3.81,3.81,0,0,1,3.47.93c.18.18,19,17.2,55.26,16.33,15.85-.38,32.81-4.1,50.4-11C390,45.58,427.7,41.18,444.6,40.77a62.63,62.63,0,0,1,7.88.18c26.68,3,50,31.58,76.93,64.67,10.75,13.23,21.91,26.91,33.93,39.75l9.16,9.74c53.42,57,95.61,102,105.92,121.18,6.14,11.43,5.5,26.75-1.62,39a38.67,38.67,0,0,1-33.15,19.55h0c-1.26,0-2.57,0-3.91-.08-4.92-.29-11.06-2.3-18.35-6,15.28,15.81,24.89,32,13.28,51.71-7,11.93-21.68,24.94-37.17,25.31a26.49,26.49,0,0,1-8.71-1.21c-4.2-1.34-12.2-6.56-21.93-13.67,6.86,9.08,8.28,19.44,4,29.5C565,434,549.66,444.49,535.1,444.83a27.2,27.2,0,0,1-5.81-.46c-5.22-1-13.2-4.67-23.88-11a27.6,27.6,0,0,1,3.4,10.7c.74,8.19-2.69,16.37-10.57,25C491.14,476.89,484.62,480.31,476.46,480.52ZM55.4,162.84c13.26,10.45,259.53,219,331.83,264.54,49.45,31.16,74.37,45.8,89,45.45,5.93-.14,10.64-2.73,16.3-8.94,6.31-6.95,9.13-13.2,8.59-19.11-1-10.39-12-20.65-29.51-33.84-11.91-8.51-20.83-15.38-20.83-15.38a3.84,3.84,0,0,1,4.63-6.13l8.36,6.15c4.39,3.21,8.56,6.27,12.47,9.22,26.65,19,46,30.44,54.45,32a19.53,19.53,0,0,0,4.19.32c11.36-.27,24.3-9.14,28.83-19.79,2.49-5.78,3.64-14.67-4.94-24.13-22.42-24.67-65.53-62.13-66-62.5a3.85,3.85,0,1,1,5-5.81h0c31.44,27.17,82.24,68.84,93.2,72.33a19,19,0,0,0,6.21.86c12-.29,24.53-11.06,30.71-21.54,11.61-19.64-2.92-34.52-27.62-57.19-4.39-4.05-8.88-8.19-13.28-12.5-2.2-2.13-4.51-4.35-6.92-6.58-18.45-15.05-33.81-29.92-34-30.08a3.82,3.82,0,0,1-.19-5.33,3.86,3.86,0,0,1,5.32-.36c.2.16,18.47,15.54,34.08,30.16,24.83,20.2,44.34,31.79,54.77,32.42,17.38,1.06,26.38-9.56,29.94-15.67,5.8-10,6.39-22.38,1.48-31.52-9.83-18.31-53.83-65.22-104.75-119.54l-9.14-9.76c-12.22-13-23.45-26.81-34.3-40.14-25.89-31.79-48.26-59.25-71.83-61.89a53.56,53.56,0,0,0-6.85-.14c-13.19.32-50.79,3.79-115,29.16-18.43,7.27-36.28,11.17-53,11.58-29.62.71-48.41-9.5-56.37-15C187.79,61.9,149.39,4.94,113.47,17.31,82.36,28,54.43,157.05,55.4,162.84Z" transform="translate(-47.45 -9.5)"/><path class="cls-4" d="M838.93,40.35S610.45,61,568.94,52.08C533.6,44.48,474,26.89,458.75,30.2s-26.63,4.92-53.92,34.24-51.62,58.84-59.68,64.92,17.06,26.06,51,22.78,58.45-28.77,76.17-48.28,64.15,26.42,94.5,54.39c32.7,30.15,70.14,73.88,89.35,91.1,23.22,20.86,42.32,15.84,42.32,15.84s176.38-3.31,184.67-25C895.9,206.82,860.32,85.08,838.93,40.35Z" transform="translate(-47.45 -9.5)"/><path class="cls-3" d="M693.86,269.54h0c-7.61.19-23-1.82-40.24-17.32-8.84-7.93-21.2-21.07-35.5-36.3-16.94-18-36.12-38.46-53.89-54.85l-6.9-6.38c-23.68-22-56.07-52.1-74.3-51.67a10.36,10.36,0,0,0-7.85,3.44C455,128.68,430.54,152.66,396.52,156c-29.21,2.81-52.73-10.81-56.19-20.71a7.58,7.58,0,0,1,2.49-8.94c4.48-3.37,15.41-15.71,28.09-30,9.34-10.55,19.95-22.49,31.13-34.51,27.19-29.21,39.19-31.79,54.38-35l1.51-.33c11.46-2.47,44.84,5.64,77.17,13.64,12.64,3.11,24.57,6.08,34.65,8.24,22.8,4.91,55,5.27,78.08,4.73,19.23-.47,33.56-1.62,33.71-1.62,1.81-.12,160.83-14.58,161.54-13.15,21.27,44.51,92.43,166.25,51.85,206-34.57,33.88-192.29,19.16-192.62,21.44a3.92,3.92,0,0,1-2.87,3.16A25.09,25.09,0,0,1,693.86,269.54Zm-211-174.2c21.34-.51,53.72,29.55,79.74,53.72l6.86,6.37c18,16.56,37.26,37.11,54.28,55.24,14.19,15.08,26.41,28.12,35,35.82,15.33,13.74,28.46,15.53,35,15.38h0c.53,0,1,0,1.37-.07.83-6.59,166.37,6.91,190.81-18.19,48-49.29-31.33-154.17-51.77-199.11C829,44.87,662.6,60.37,648,60.72c-23.46.56-56.35.17-79.91-4.89C558,53.65,546,50.68,533.25,47.53,503.82,40.25,469.93,31.7,459.57,34l-1.54.33c-13.87,3-24.84,5.32-50.37,32.77-11.12,12-21.7,23.86-31,34.36-14,15.79-24.1,27.17-29.18,31a7.85,7.85,0,0,0,2.19,3.23c5.77,6,23.41,14.87,46.15,12.65,31.3-3,54.45-25.87,73.72-47A18,18,0,0,1,482.84,95.34Z" transform="translate(-47.45 -9.5)"/><path class="cls-4" d="M252.3,337a23.52,23.52,0,0,1-33.23-1.58l-9.2-10.14a23.52,23.52,0,0,1,1.58-33.2l45.89-41.71A23.52,23.52,0,0,1,290.55,252l9.22,10.14a23.51,23.51,0,0,1-1.59,33.2Z" transform="translate(-47.45 -9.5)"/><path class="cls-3" d="M237.13,347a27.36,27.36,0,0,1-20.9-9L207,327.89a27.37,27.37,0,0,1,1.82-38.63l45.9-41.7a27.35,27.35,0,0,1,38.64,1.83l9.21,10.15a27.37,27.37,0,0,1-1.83,38.62l-45.91,41.7A27.26,27.26,0,0,1,237.13,347Zm35.55-98.84a19.73,19.73,0,0,0-12.77,5.11L214,294.94a19.7,19.7,0,0,0-1.32,27.78l9.22,10.14c7,7.71,20,8.35,27.77,1.33l45.89-41.71a19.67,19.67,0,0,0,1.33-27.77l-9.21-10.14A19.64,19.64,0,0,0,272.68,248.13Z" transform="translate(-47.45 -9.5)"/><path class="cls-4" d="M291.8,389.6A23.47,23.47,0,0,1,258.63,388l-9.2-10.15a23.51,23.51,0,0,1,1.54-33.2l45.9-41.7a23.5,23.5,0,0,1,33.21,1.59l9.22,10.13a23.52,23.52,0,0,1-1.57,33.19Z" transform="translate(-47.45 -9.5)"/><path class="cls-3" d="M276.68,399.54a27.35,27.35,0,0,1-20.91-9l-9.23-10.15a27.43,27.43,0,0,1,1.85-38.63l45.9-41.7A27.39,27.39,0,0,1,332.94,302l9.21,10.15a27.38,27.38,0,0,1-1.86,38.62l-45.87,41.71A27.53,27.53,0,0,1,276.68,399.54Zm35.54-98.84a19.56,19.56,0,0,0-12.75,5.1l-45.89,41.7a19.74,19.74,0,0,0-1.35,27.79l9.24,10.14c7,7.71,20,8.35,27.76,1.32L335.14,345a19.71,19.71,0,0,0,1.32-27.78l-9.22-10.13A19.65,19.65,0,0,0,312.22,300.7Z" transform="translate(-47.45 -9.5)"/><path class="cls-4" d="M347.39,429.11a23.51,23.51,0,0,1-33.2-1.58L305,417.38a23.52,23.52,0,0,1,1.57-33.2l45.9-41.71a23.51,23.51,0,0,1,33.21,1.59l9.2,10.14a23.49,23.49,0,0,1-1.55,33.19Z" transform="translate(-47.45 -9.5)"/><path class="cls-3" d="M332.25,439.05a27.41,27.41,0,0,1-20.93-8.95L302.15,420A27.3,27.3,0,0,1,304,381.34l45.89-41.71a27.32,27.32,0,0,1,38.63,1.85l9.22,10.13a27.39,27.39,0,0,1-1.84,38.63L350,432A27.28,27.28,0,0,1,332.25,439.05Zm35.52-98.84a19.65,19.65,0,0,0-12.75,5.1L309.13,387a19.61,19.61,0,0,0-1.33,27.76L317,424.94c7,7.72,20.05,8.35,27.78,1.32l45.89-41.7A19.69,19.69,0,0,0,392,356.78l-9.22-10.14A19.7,19.7,0,0,0,367.77,340.21Z" transform="translate(-47.45 -9.5)"/><path class="cls-4" d="M404.53,465.79a23.53,23.53,0,0,1-33.22-1.59L362.09,454a23.49,23.49,0,0,1,1.6-33.19l45.88-41.71a23.53,23.53,0,0,1,33.22,1.58L452,390.87a23.48,23.48,0,0,1-1.6,33.19Z" transform="translate(-47.45 -9.5)"/><path class="cls-3" d="M389.39,475.72a27.23,27.23,0,0,1-20.9-8.94l-9.23-10.15A27.3,27.3,0,0,1,361.11,418L407,376.3a27.33,27.33,0,0,1,38.61,1.84l9.21,10.15A27.31,27.31,0,0,1,453,426.91l-45.88,41.71A27.38,27.38,0,0,1,389.39,475.72Zm35.52-98.84A19.61,19.61,0,0,0,412.17,382l-45.91,41.7A19.65,19.65,0,0,0,365,451.46l9.22,10.15c7,7.73,20,8.36,27.79,1.32l45.87-41.69a19.65,19.65,0,0,0,1.31-27.77l-9.2-10.16A19.72,19.72,0,0,0,424.91,376.88Z" transform="translate(-47.45 -9.5)"/><path class="cls-5" d="M1013.19,125.41c-3.39-11.69-8.79-23.52-26.87-23.52-14.36,0-20,9.63-20,19,0,11.84,8.25,18,24.44,25.7,22.72,10.75,33.31,19.13,33.31,36.18,0,19.11-17.81,33.55-43.2,33.55-11.72,0-21.93-3-30-5.81-1.48-4.83-4-18.09-5.32-27.48l6.26-1.46c3.86,11.8,12.77,28,32.64,28,13.52,0,21.77-8.52,21.77-20.06,0-13.1-7.74-18.72-24.59-27.17-20.24-10.12-31.94-18.73-31.94-35.64,0-16.36,14.56-31.29,40.67-31.29,11.26,0,21.78,2.67,25.86,3.35.78,6.44,1.65,14,3.2,25.46Z" transform="translate(-47.45 -9.5)"/><path class="cls-5" d="M1141.66,185c-1.12,4.66-6.37,23.39-8.26,28.67h-95v-5.24c17.89-1.32,19.2-2.79,19.2-17.46V121.05c0-15.72-2.16-16.64-16.39-17.85V97.92H1101c18.53,0,25.92-.18,28.3-.35.2,4.22,1,17.8,1.78,27.53l-6.11.89a51.66,51.66,0,0,0-6.24-14.08c-3.16-5.46-7.25-6.67-18.52-6.67h-17.3c-6.22,0-6.68.5-6.68,5.82v39h21c13.81,0,15-2.67,17.37-14.87h6.26v37.22h-6.26c-2.61-12.88-4.16-14.73-17.57-14.73H1076.2v34.57c0,12.44,3.55,14,13.62,14.16H1107c11.6,0,13.7-1.53,18-6.2,3.88-4,7.9-11.16,10.67-16.63Z" transform="translate(-47.45 -9.5)"/><path class="cls-5" d="M1270.24,215c-2.27,0-4.42-.15-6.9-.33-16-.92-23.43-4.56-31.43-15-7.25-9.21-14-20.36-20.2-29.73-3.69-5.54-6.23-6.61-15.42-6.61l-6.23,0V191c0,15,2.08,16,17.35,17.42v5.28h-52.89v-5.28c15.78-1.57,17.2-2.41,17.2-17.42V120.44c0-15-2.09-15.74-17.2-17.24V97.92H1205c14.65,0,24.17,1.64,31.61,6.18,7.88,4.67,13.1,12.65,13.1,23.54,0,15.41-10.76,24.8-24.77,30.31,3.37,5.49,11.53,17.35,17.33,25.4,7.07,9.5,10.84,14,15.14,18.37,5.08,5.07,9.1,6.93,13.75,8.13Zm-71.65-57.94c9.73,0,16.1-1.39,20.82-5.07,7.32-5.13,10.34-12.19,10.34-21.71,0-19-13.36-25.93-27.49-25.93-5.53,0-8.68.71-10,1.78-1.67,1.21-2.21,3.06-2.21,7.5v43.43Z" transform="translate(-47.45 -9.5)"/><path class="cls-5" d="M1394,103.2c-12.9,1.54-16.29,3.14-23.31,19.32-5.35,12.11-30.77,69-41.1,93.11h-7.13c-10.32-26-28.45-71.17-38.93-96.18-5.51-13.21-8.65-15.18-20.57-16.25V97.92h50.81l0,5.28c-14.25,1.49-14.88,3.46-12.11,10.21,5,13.35,19.2,49,30.35,76.07,10.48-23.42,22.8-51.58,31-72.06,4.35-10.68,2.21-12.47-13.69-14.22V97.92H1394Z" transform="translate(-47.45 -9.5)"/><path class="cls-5" d="M1401.6,213.67v-5.28c15.62-1.54,17.2-2.31,17.2-17.42V120.79c0-15.25-1.62-16.09-17.2-17.59V97.92h53.15v5.28c-15.74,1.54-17.35,2.34-17.35,17.59V191c0,15.22,1.58,15.85,17.35,17.42v5.28Z" transform="translate(-47.45 -9.5)"/><path class="cls-5" d="M1589,184.79c-2.7,8.61-7.72,21.56-10.65,27.21-5.49,1.07-20.69,4.34-35.36,4.34-47.18,0-70.35-28.76-70.35-59.41,0-36.42,30-61.5,73.83-61.5,16.63,0,30.39,3.3,36.48,4.13.81,8.07,2.16,19.21,3.67,27.92l-6.3,1.25c-3.89-12.29-8.74-19.46-18.65-23.2-5-2.07-12.69-3.22-19.64-3.22-31.16,0-47.47,21.69-47.47,50.81,0,34,19.1,56.13,49.5,56.13,19.06,0,28.92-8.27,38.87-26.4Z" transform="translate(-47.45 -9.5)"/><path class="cls-5" d="M1607,213.67v-5.28c15.62-1.54,17.2-2.31,17.2-17.42V120.79c0-15.25-1.62-16.09-17.2-17.59V97.92h53.16v5.28c-15.75,1.54-17.36,2.34-17.36,17.59V191c0,15.22,1.58,15.85,17.36,17.42v5.28Z" transform="translate(-47.45 -9.5)"/><path class="cls-5" d="M1743.71,95.43c33.5,0,63,23.45,63,58.83,0,38.22-28.39,62.08-64.08,62.08-37.34,0-64.54-26-64.54-59.64C1678.05,125.09,1702.39,95.43,1743.71,95.43Zm-3.69,6.81c-21.27,0-40,16.93-40,49.91,0,32.58,18.47,57.23,45.64,57.23,22.46,0,39.43-16.09,39.43-50.14C1785.07,122.23,1764.79,102.24,1740,102.24Z" transform="translate(-47.45 -9.5)"/><path class="cls-5" d="M1130.55,289.59c-3.38-11.69-8.79-23.52-26.87-23.52-14.36,0-20,9.63-20,19,0,11.84,8.25,18,24.44,25.7,22.72,10.75,33.31,19.13,33.31,36.18,0,19.11-17.81,33.55-43.2,33.55-11.72,0-21.93-3-30-5.81-1.48-4.83-4-18.09-5.32-27.48l6.26-1.46c3.86,11.8,12.77,28,32.64,28,13.52,0,21.77-8.52,21.77-20.06,0-13.1-7.74-18.72-24.59-27.17-20.24-10.12-31.94-18.73-31.94-35.64,0-16.36,14.57-31.29,40.67-31.29,11.26,0,21.78,2.67,25.87,3.35.77,6.44,1.64,14,3.19,25.46Z" transform="translate(-47.45 -9.5)"/><path class="cls-5" d="M1226.58,259.61c33.5,0,63,23.46,63,58.83,0,38.22-28.39,62.08-64.08,62.08-37.34,0-64.54-26-64.54-59.64C1160.92,289.27,1185.26,259.61,1226.58,259.61Zm-3.69,6.81c-21.27,0-40,16.93-40,49.91,0,32.58,18.47,57.23,45.64,57.23,22.45,0,39.43-16.09,39.43-50.14C1267.94,286.41,1247.66,266.42,1222.89,266.42Z" transform="translate(-47.45 -9.5)"/><path class="cls-5" d="M1426.88,349c-2.71,8.61-7.73,21.56-10.66,27.21-5.49,1.07-20.69,4.34-35.36,4.34-47.18,0-70.34-28.76-70.34-59.41,0-36.42,30-61.5,73.82-61.5,16.63,0,30.39,3.3,36.48,4.13.81,8.08,2.16,19.21,3.67,27.92l-6.3,1.25c-3.89-12.29-8.73-19.46-18.65-23.2-5-2.07-12.69-3.22-19.64-3.22-31.16,0-47.47,21.69-47.47,50.81,0,34.05,19.1,56.13,49.5,56.13,19.07,0,28.93-8.27,38.88-26.4Z" transform="translate(-47.45 -9.5)"/><path class="cls-5" d="M1444.83,377.85v-5.28c15.62-1.53,17.2-2.31,17.2-17.41V285c0-15.25-1.61-16.09-17.2-17.59V262.1H1498v5.28c-15.74,1.54-17.36,2.34-17.36,17.59v70.19c0,15.21,1.58,15.84,17.36,17.41v5.28Z" transform="translate(-47.45 -9.5)"/><path class="cls-5" d="M1584.28,377.85v-5.28c12.48-1.45,13.74-3.27,11-10.19-2.41-6.66-6.13-15.4-10-25.88h-41c-2.92,7.56-5.78,14.47-8.34,21.46-4.21,11.5-1.16,12.93,14.56,14.61v5.28h-45.14v-5.28c12.16-1.42,15.25-2.73,22-18.57l40-93.23,6.73-1.16c12.2,30.55,25.49,63.85,37.72,94.46,6.35,15.69,8.09,17.08,21.58,18.5v5.28Zm-18.89-93.15c-6.07,14.87-12.43,30.3-18,44.18h35.12Z" transform="translate(-47.45 -9.5)"/><path class="cls-5" d="M1738.83,348c-1.23,5.9-6.95,24.49-8.85,29.88h-90.84v-5.28c17.46-1.5,19-2.46,19-17.56V284.83c0-15.11-1.93-16.09-17.2-17.45V262.1h53.26v5.28c-15.37,1.39-17.46,2.2-17.46,17.45v71.86c0,10.67,1.34,13.52,12.27,13.7.23,0,13.22.18,14.31.18,10.06,0,13-1.27,17.43-5.78s8.84-11.66,11.84-18.37Z" transform="translate(-47.45 -9.5)"/></g></g></svg>