<?xml version="1.0" encoding="utf-8"?>
<!-- Generator: Adobe Illustrator 23.0.5, SVG Export Plug-In . SVG Version: 6.00 Build 0)  -->
<svg version="1.1" id="Capa_1" xmlns="http://www.w3.org/2000/svg" xmlns:xlink="http://www.w3.org/1999/xlink" x="0px" y="0px"
	 viewBox="0 0 349.46 202.48" style="enable-background:new 0 0 349.46 202.48;" xml:space="preserve">
<style type="text/css">
	.st0{opacity:0.07;fill:#FFFFFF;}
	.st1{opacity:0.0831;fill:#FDFDFD;}
	.st2{opacity:0.0962;fill:#FCFCFC;}
	.st3{opacity:0.1093;fill:#FAFAFA;}
	.st4{opacity:0.1224;fill:#F9F9F9;}
	.st5{opacity:0.1355;fill:#F7F7F7;}
	.st6{opacity:0.1486;fill:#F5F5F5;}
	.st7{opacity:0.1617;fill:#F4F4F4;}
	.st8{opacity:0.1748;fill:#F2F2F2;}
	.st9{opacity:0.1879;fill:#F0F0F0;}
	.st10{opacity:0.201;fill:#EFEFEF;}
	.st11{opacity:0.2141;fill:#EDEDED;}
	.st12{opacity:0.2272;fill:#ECECEC;}
	.st13{opacity:0.2403;fill:#EAEAEA;}
	.st14{opacity:0.2534;fill:#E8E8E8;}
	.st15{opacity:0.2665;fill:#E7E7E7;}
	.st16{opacity:0.2796;fill:#E5E5E5;}
	.st17{opacity:0.2927;fill:#E4E4E4;}
	.st18{opacity:0.3058;fill:#E2E2E2;}
	.st19{opacity:0.3189;fill:#E0E0E0;}
	.st20{opacity:0.332;fill:#DFDFDF;}
	.st21{opacity:0.3451;fill:#DDDDDD;}
	.st22{opacity:0.3582;fill:#DBDBDB;}
	.st23{opacity:0.3713;fill:#DADADA;}
	.st24{opacity:0.3844;fill:#D8D8D8;}
	.st25{opacity:0.3975;fill:#D7D7D7;}
	.st26{opacity:0.4106;fill:#D5D5D5;}
	.st27{opacity:0.4237;fill:#D3D3D3;}
	.st28{opacity:0.4368;fill:#D2D2D2;}
	.st29{opacity:0.4499;fill:#D0D0D0;}
	.st30{opacity:0.463;fill:#CFCFCF;}
	.st31{opacity:0.4761;fill:#CDCDCD;}
	.st32{opacity:0.4892;fill:#CBCBCB;}
	.st33{opacity:0.5023;fill:#CACACA;}
	.st34{opacity:0.5154;fill:#C8C8C8;}
	.st35{opacity:0.5285;fill:#C6C6C6;}
	.st36{opacity:0.5415;fill:#C5C5C5;}
	.st37{opacity:0.5546;fill:#C3C3C3;}
	.st38{opacity:0.5677;fill:#C2C2C2;}
	.st39{opacity:0.5808;fill:#C0C0C0;}
	.st40{opacity:0.5939;fill:#BEBEBE;}
	.st41{opacity:0.607;fill:#BDBDBD;}
	.st42{opacity:0.6201;fill:#BBBBBB;}
	.st43{opacity:0.6332;fill:#BABABA;}
	.st44{opacity:0.6463;fill:#B8B8B8;}
	.st45{opacity:0.6594;fill:#B6B6B6;}
	.st46{opacity:0.6725;fill:#B5B5B5;}
	.st47{opacity:0.6856;fill:#B3B3B3;}
	.st48{opacity:0.6987;fill:#B1B1B1;}
	.st49{opacity:0.7118;fill:#B0B0B0;}
	.st50{opacity:0.7249;fill:#AEAEAE;}
	.st51{opacity:0.738;fill:#ADADAD;}
	.st52{opacity:0.7511;fill:#ABABAB;}
	.st53{opacity:0.7642;fill:#A9A9A9;}
	.st54{opacity:0.7773;fill:#A8A8A8;}
	.st55{opacity:0.7904;fill:#A6A6A6;}
	.st56{opacity:0.8035;fill:#A4A4A4;}
	.st57{opacity:0.8166;fill:#A3A3A3;}
	.st58{opacity:0.8297;fill:#A1A1A1;}
	.st59{opacity:0.8428;fill:#A0A0A0;}
	.st60{opacity:0.8559;fill:#9E9E9E;}
	.st61{opacity:0.869;fill:#9C9C9C;}
	.st62{opacity:0.8821;fill:#9B9B9B;}
	.st63{opacity:0.8952;fill:#999999;}
	.st64{opacity:0.9083;fill:#989898;}
	.st65{opacity:0.9214;fill:#969696;}
	.st66{opacity:0.9345;fill:#949494;}
	.st67{opacity:0.9476;fill:#939393;}
	.st68{opacity:0.9607;fill:#919191;}
	.st69{opacity:0.9738;fill:#8F8F8F;}
	.st70{opacity:0.9869;fill:#8E8E8E;}
	.st71{fill:#8C8C8C;}
	.st72{fill:#FFFFFF;}
	.st73{fill:url(#SVGID_1_);}
	.st74{opacity:0.28;fill:#59266F;}
	.st75{fill:#754A98;}
	.st76{fill:#EFB4D3;}
	.st77{fill:#F7D6E8;}
	.st78{fill:#DC6FA9;}
	.st79{opacity:0.35;}
	.st80{fill:#EF9A57;}
	.st81{fill:#F5BB8E;}
	.st82{fill:#5F2574;}
	.st83{fill:#020203;}
	.st84{fill:#DB0B81;}
	.st85{fill:#59266F;}
	.st86{fill:#3D4596;}
	.st87{fill:#FCC12D;}
	.st88{opacity:0.57;}
</style>
<g>
	<g>
		<g>
			<path class="st0" d="M338.13,0.58l-326.81,0C5.1,0.58,0,5.68,0,11.91v179.82c0,6.23,5.1,11.33,11.33,11.33l326.81,0
				c6.23,0,11.33-5.1,11.33-11.33l0-179.82C349.46,5.68,344.36,0.58,338.13,0.58z"/>
			<path class="st1" d="M337.85,0.85l-326.25,0c-6.23,0-11.33,5.1-11.33,11.33l0,179.28c0,6.23,5.1,11.33,11.33,11.33l326.25,0
				c6.23,0,11.33-5.1,11.33-11.33l0-179.28C349.18,5.95,344.08,0.85,337.85,0.85z"/>
			<path class="st2" d="M337.57,1.13l-325.69,0c-6.23,0-11.33,5.1-11.33,11.33l0,178.74c0,6.23,5.1,11.33,11.33,11.33l325.69,0
				c6.23,0,11.33-5.1,11.33-11.33l0-178.74C348.9,6.22,343.8,1.13,337.57,1.13z"/>
			<path class="st3" d="M337.3,1.4l-325.13,0c-6.23,0-11.33,5.1-11.33,11.33l0,178.2c0,6.23,5.1,11.33,11.33,11.33l325.13,0
				c6.23,0,11.33-5.1,11.33-11.33l0-178.2C348.62,6.49,343.52,1.4,337.3,1.4z"/>
			<path class="st4" d="M337.02,1.67l-324.57,0c-6.23,0-11.33,5.1-11.33,11.33l0,177.65c0,6.23,5.1,11.33,11.33,11.33l324.57,0
				c6.23,0,11.33-5.1,11.33-11.33l0-177.65C348.34,6.76,343.25,1.67,337.02,1.67z"/>
			<path class="st5" d="M336.74,1.94l-324.02,0c-6.23,0-11.33,5.1-11.33,11.33l0,177.11c0,6.23,5.1,11.33,11.33,11.33l324.02,0
				c6.23,0,11.33-5.1,11.33-11.33l0-177.11C348.06,7.04,342.97,1.94,336.74,1.94z"/>
			<path class="st6" d="M336.46,2.21L13,2.21c-6.23,0-11.33,5.1-11.33,11.33l0,176.57c0,6.23,5.1,11.33,11.33,11.33l323.46,0
				c6.23,0,11.33-5.1,11.33-11.33l0-176.57C347.78,7.31,342.69,2.21,336.46,2.21z"/>
			<path class="st7" d="M336.18,2.48l-322.9,0c-6.23,0-11.33,5.1-11.33,11.33l0,176.02c0,6.23,5.1,11.33,11.33,11.33l322.9,0
				c6.23,0,11.33-5.1,11.33-11.33l0-176.02C347.51,7.58,342.41,2.48,336.18,2.48z"/>
			<path class="st8" d="M335.9,2.75l-322.34,0c-6.23,0-11.33,5.1-11.33,11.33l0,175.48c0,6.23,5.1,11.33,11.33,11.33l322.34,0
				c6.23,0,11.33-5.1,11.33-11.33l0-175.48C347.23,7.85,342.13,2.75,335.9,2.75z"/>
			<path class="st9" d="M335.62,3.03l-321.79,0c-6.23,0-11.33,5.1-11.33,11.33l0,174.94c0,6.23,5.1,11.33,11.33,11.33l321.79,0
				c6.23,0,11.33-5.1,11.33-11.33l0-174.94C346.95,8.12,341.85,3.03,335.62,3.03z"/>
			<path class="st10" d="M335.34,3.3l-321.23,0c-6.23,0-11.33,5.1-11.33,11.33l0,174.4c0,6.23,5.1,11.33,11.33,11.33l321.23,0
				c6.23,0,11.33-5.1,11.33-11.33l0-174.4C346.67,8.39,341.57,3.3,335.34,3.3z"/>
			<path class="st11" d="M335.06,3.57l-320.67,0c-6.23,0-11.33,5.1-11.33,11.33l0,173.85c0,6.23,5.1,11.33,11.33,11.33l320.67,0
				c6.23,0,11.33-5.1,11.33-11.33l0-173.85C346.39,8.66,341.29,3.57,335.06,3.57z"/>
			<path class="st12" d="M334.78,3.84l-320.11,0c-6.23,0-11.33,5.1-11.33,11.33l0,173.31c0,6.23,5.1,11.33,11.33,11.33l320.11,0
				c6.23,0,11.33-5.1,11.33-11.33l0-173.31C346.11,8.94,341.01,3.84,334.78,3.84z"/>
			<path class="st13" d="M334.51,4.11l-319.55,0c-6.23,0-11.33,5.1-11.33,11.33l0,172.77c0,6.23,5.1,11.33,11.33,11.33l319.55,0
				c6.23,0,11.33-5.1,11.33-11.33l0-172.77C345.83,9.21,340.74,4.11,334.51,4.11z"/>
			<path class="st14" d="M334.23,4.38l-319,0C9,4.38,3.91,9.48,3.91,15.71l0,172.22c0,6.23,5.1,11.33,11.33,11.33l319,0
				c6.23,0,11.33-5.1,11.33-11.33l0-172.22C345.55,9.48,340.46,4.38,334.23,4.38z"/>
			<path class="st15" d="M333.95,4.65l-318.44,0c-6.23,0-11.33,5.1-11.33,11.33l0,171.68c0,6.23,5.1,11.33,11.33,11.33l318.44,0
				c6.23,0,11.33-5.1,11.33-11.33l0-171.68C345.27,9.75,340.18,4.65,333.95,4.65z"/>
			<path class="st16" d="M333.67,4.92l-317.88,0c-6.23,0-11.33,5.1-11.33,11.33l0,171.14c0,6.23,5.1,11.33,11.33,11.33l317.88,0
				c6.23,0,11.33-5.1,11.33-11.33l0-171.14C345,10.02,339.9,4.92,333.67,4.92z"/>
			<path class="st17" d="M333.39,5.2l-317.32,0c-6.23,0-11.33,5.1-11.33,11.33l0,170.6c0,6.23,5.1,11.33,11.33,11.33l317.32,0
				c6.23,0,11.33-5.1,11.33-11.33l0-170.6C344.72,10.29,339.62,5.2,333.39,5.2z"/>
			<path class="st18" d="M333.11,5.47l-316.76,0c-6.23,0-11.33,5.1-11.33,11.33l0,170.05c0,6.23,5.1,11.33,11.33,11.33l316.76,0
				c6.23,0,11.33-5.1,11.33-11.33l0-170.05C344.44,10.56,339.34,5.47,333.11,5.47z"/>
			<path class="st19" d="M332.83,5.74l-316.21,0c-6.23,0-11.33,5.1-11.33,11.33l0,169.51c0,6.23,5.1,11.33,11.33,11.33l316.21,0
				c6.23,0,11.33-5.1,11.33-11.33l0-169.51C344.16,10.84,339.06,5.74,332.83,5.74z"/>
			<path class="st20" d="M332.55,6.01l-315.65,0c-6.23,0-11.33,5.1-11.33,11.33l0,168.97c0,6.23,5.1,11.33,11.33,11.33l315.65,0
				c6.23,0,11.33-5.1,11.33-11.33l0-168.97C343.88,11.11,338.78,6.01,332.55,6.01z"/>
			<path class="st21" d="M332.27,6.28l-315.09,0c-6.23,0-11.33,5.1-11.33,11.33l0,168.43c0,6.23,5.1,11.33,11.33,11.33l315.09,0
				c6.23,0,11.33-5.1,11.33-11.33l0-168.43C343.6,11.38,338.5,6.28,332.27,6.28z"/>
			<path class="st22" d="M332,6.55l-314.53,0c-6.23,0-11.33,5.1-11.33,11.33l0,167.88c0,6.23,5.1,11.33,11.33,11.33l314.53,0
				c6.23,0,11.33-5.1,11.33-11.33l0-167.88C343.32,11.65,338.22,6.55,332,6.55z"/>
			<path class="st23" d="M331.72,6.82l-313.97,0c-6.23,0-11.33,5.1-11.33,11.33l0,167.34c0,6.23,5.1,11.33,11.33,11.33l313.97,0
				c6.23,0,11.33-5.1,11.33-11.33l0-167.34C343.04,11.92,337.95,6.82,331.72,6.82z"/>
			<path class="st24" d="M331.44,7.1l-313.42,0c-6.23,0-11.33,5.1-11.33,11.33l0,166.8c0,6.23,5.1,11.33,11.33,11.33l313.42,0
				c6.23,0,11.33-5.1,11.33-11.33l0-166.8C342.76,12.19,337.67,7.1,331.44,7.1z"/>
			<path class="st25" d="M331.16,7.37l-312.86,0c-6.23,0-11.33,5.1-11.33,11.33l0,166.25c0,6.23,5.1,11.33,11.33,11.33l312.86,0
				c6.23,0,11.33-5.1,11.33-11.33l0-166.25C342.48,12.46,337.39,7.37,331.16,7.37z"/>
			<path class="st26" d="M330.88,7.64l-312.3,0c-6.23,0-11.33,5.1-11.33,11.33l0,165.71c0,6.23,5.1,11.33,11.33,11.33l312.3,0
				c6.23,0,11.33-5.1,11.33-11.33l0-165.71C342.21,12.74,337.11,7.64,330.88,7.64z"/>
			<path class="st27" d="M330.6,7.91l-311.74,0c-6.23,0-11.33,5.1-11.33,11.33l0,165.17c0,6.23,5.1,11.33,11.33,11.33l311.74,0
				c6.23,0,11.33-5.1,11.33-11.33l0-165.17C341.93,13.01,336.83,7.91,330.6,7.91z"/>
			<path class="st28" d="M330.32,8.18l-311.19,0c-6.23,0-11.33,5.1-11.33,11.33l0,164.63c0,6.23,5.1,11.33,11.33,11.33l311.19,0
				c6.23,0,11.33-5.1,11.33-11.33l0-164.63C341.65,13.28,336.55,8.18,330.32,8.18z"/>
			<path class="st29" d="M330.04,8.45l-310.63,0c-6.23,0-11.33,5.1-11.33,11.33l0,164.08c0,6.23,5.1,11.33,11.33,11.33l310.63,0
				c6.23,0,11.33-5.1,11.33-11.33l0-164.08C341.37,13.55,336.27,8.45,330.04,8.45z"/>
			<path class="st30" d="M329.76,8.72l-310.07,0c-6.23,0-11.33,5.1-11.33,11.33l0,163.54c0,6.23,5.1,11.33,11.33,11.33l310.07,0
				c6.23,0,11.33-5.1,11.33-11.33l0-163.54C341.09,13.82,335.99,8.72,329.76,8.72z"/>
			<path class="st31" d="M329.48,9L19.97,9c-6.23,0-11.33,5.1-11.33,11.33l0,163c0,6.23,5.1,11.33,11.33,11.33l309.51,0
				c6.23,0,11.33-5.1,11.33-11.33l0-163C340.81,14.09,335.71,9,329.48,9z"/>
			<path class="st32" d="M329.21,9.27l-308.95,0c-6.23,0-11.33,5.1-11.33,11.33l0,162.45c0,6.23,5.1,11.33,11.33,11.33l308.95,0
				c6.23,0,11.33-5.1,11.33-11.33l0-162.45C340.53,14.36,335.44,9.27,329.21,9.27z"/>
			<path class="st33" d="M328.93,9.54l-308.4,0c-6.23,0-11.33,5.1-11.33,11.33l0,161.91c0,6.23,5.1,11.33,11.33,11.33l308.4,0
				c6.23,0,11.33-5.1,11.33-11.33l0-161.91C340.25,14.64,335.16,9.54,328.93,9.54z"/>
			<path class="st34" d="M328.65,9.81l-307.84,0c-6.23,0-11.33,5.1-11.33,11.33l0,161.37c0,6.23,5.1,11.33,11.33,11.33l307.84,0
				c6.23,0,11.33-5.1,11.33-11.33l0-161.37C339.97,14.91,334.88,9.81,328.65,9.81z"/>
			<path class="st35" d="M328.37,10.08l-307.28,0c-6.23,0-11.33,5.1-11.33,11.33l0,160.83c0,6.23,5.1,11.33,11.33,11.33l307.28,0
				c6.23,0,11.33-5.1,11.33-11.33l0-160.83C339.7,15.18,334.6,10.08,328.37,10.08z"/>
			<path class="st36" d="M328.09,10.35l-306.72,0c-6.23,0-11.33,5.1-11.33,11.33l0,160.28c0,6.23,5.1,11.33,11.33,11.33l306.72,0
				c6.23,0,11.33-5.1,11.33-11.33l0-160.28C339.42,15.45,334.32,10.35,328.09,10.35z"/>
			<path class="st37" d="M327.81,10.62l-306.16,0c-6.23,0-11.33,5.1-11.33,11.33l0,159.74c0,6.23,5.1,11.33,11.33,11.33l306.16,0
				c6.23,0,11.33-5.1,11.33-11.33l0-159.74C339.14,15.72,334.04,10.62,327.81,10.62z"/>
			<path class="st38" d="M327.53,10.9l-305.61,0c-6.23,0-11.33,5.1-11.33,11.33l0,159.2c0,6.23,5.1,11.33,11.33,11.33l305.61,0
				c6.23,0,11.33-5.1,11.33-11.33l0-159.2C338.86,15.99,333.76,10.9,327.53,10.9z"/>
			<path class="st39" d="M327.25,11.17l-305.05,0c-6.23,0-11.33,5.1-11.33,11.33l0,158.65c0,6.23,5.1,11.33,11.33,11.33l305.05,0
				c6.23,0,11.33-5.1,11.33-11.33l0-158.65C338.58,16.26,333.48,11.17,327.25,11.17z"/>
			<path class="st40" d="M326.97,11.44l-304.49,0c-6.23,0-11.33,5.1-11.33,11.33l0,158.11c0,6.23,5.1,11.33,11.33,11.33l304.49,0
				c6.23,0,11.33-5.1,11.33-11.33l0-158.11C338.3,16.54,333.2,11.44,326.97,11.44z"/>
			<path class="st41" d="M326.7,11.71l-303.93,0c-6.23,0-11.33,5.1-11.33,11.33l0,157.57c0,6.23,5.1,11.33,11.33,11.33l303.93,0
				c6.23,0,11.33-5.1,11.33-11.33l0-157.57C338.02,16.81,332.92,11.71,326.7,11.71z"/>
			<path class="st42" d="M326.42,11.98l-303.37,0c-6.23,0-11.33,5.1-11.33,11.33l0,157.03c0,6.23,5.1,11.33,11.33,11.33l303.37,0
				c6.23,0,11.33-5.1,11.33-11.33l0-157.03C337.74,17.08,332.65,11.98,326.42,11.98z"/>
			<path class="st43" d="M326.14,12.25l-302.82,0c-6.23,0-11.33,5.1-11.33,11.33l0,156.48c0,6.23,5.1,11.33,11.33,11.33l302.82,0
				c6.23,0,11.33-5.1,11.33-11.33l0-156.48C337.46,17.35,332.37,12.25,326.14,12.25z"/>
			<path class="st44" d="M325.86,12.52l-302.26,0c-6.23,0-11.33,5.1-11.33,11.33l0,155.94c0,6.23,5.1,11.33,11.33,11.33l302.26,0
				c6.23,0,11.33-5.1,11.33-11.33l0-155.94C337.18,17.62,332.09,12.52,325.86,12.52z"/>
			<path class="st45" d="M325.58,12.8l-301.7,0c-6.23,0-11.33,5.1-11.33,11.33l0,155.4c0,6.23,5.1,11.33,11.33,11.33l301.7,0
				c6.23,0,11.33-5.1,11.33-11.33l0-155.4C336.91,17.89,331.81,12.8,325.58,12.8z"/>
			<path class="st46" d="M325.3,13.07l-301.14,0c-6.23,0-11.33,5.1-11.33,11.33l0,154.86c0,6.23,5.1,11.33,11.33,11.33l301.14,0
				c6.23,0,11.33-5.1,11.33-11.33l0-154.86C336.63,18.16,331.53,13.07,325.3,13.07z"/>
			<path class="st47" d="M325.02,13.34l-300.59,0c-6.23,0-11.33,5.1-11.33,11.33l0,154.31c0,6.23,5.1,11.33,11.33,11.33l300.59,0
				c6.23,0,11.33-5.1,11.33-11.33l0-154.31C336.35,18.43,331.25,13.34,325.02,13.34z"/>
			<path class="st48" d="M324.74,13.61l-300.03,0c-6.23,0-11.33,5.1-11.33,11.33l0,153.77c0,6.23,5.1,11.33,11.33,11.33l300.03,0
				c6.23,0,11.33-5.1,11.33-11.33l0-153.77C336.07,18.71,330.97,13.61,324.74,13.61z"/>
			<path class="st49" d="M324.46,13.88l-299.47,0c-6.23,0-11.33,5.1-11.33,11.33l0,153.23c0,6.23,5.1,11.33,11.33,11.33l299.47,0
				c6.23,0,11.33-5.1,11.33-11.33l0-153.23C335.79,18.98,330.69,13.88,324.46,13.88z"/>
			<path class="st50" d="M324.18,14.15l-298.91,0c-6.23,0-11.33,5.1-11.33,11.33l0,152.68c0,6.23,5.1,11.33,11.33,11.33l298.91,0
				c6.23,0,11.33-5.1,11.33-11.33l0-152.68C335.51,19.25,330.41,14.15,324.18,14.15z"/>
			<path class="st51" d="M323.91,14.42l-298.35,0c-6.23,0-11.33,5.1-11.33,11.33l0,152.14c0,6.23,5.1,11.33,11.33,11.33l298.35,0
				c6.23,0,11.33-5.1,11.33-11.33V25.75C335.23,19.52,330.14,14.42,323.91,14.42z"/>
			<path class="st52" d="M323.63,14.7l-297.8,0c-6.23,0-11.33,5.1-11.33,11.33l0,151.6c0,6.23,5.1,11.33,11.33,11.33l297.8,0
				c6.23,0,11.33-5.1,11.33-11.33l0-151.6C334.95,19.79,329.86,14.7,323.63,14.7z"/>
			<path class="st53" d="M323.35,14.97l-297.24,0c-6.23,0-11.33,5.1-11.33,11.33l0,151.06c0,6.23,5.1,11.33,11.33,11.33l297.24,0
				c6.23,0,11.33-5.1,11.33-11.33l0-151.06C334.67,20.06,329.58,14.97,323.35,14.97z"/>
			<path class="st54" d="M323.07,15.24l-296.68,0c-6.23,0-11.33,5.1-11.33,11.33l0,150.51c0,6.23,5.1,11.33,11.33,11.33l296.68,0
				c6.23,0,11.33-5.1,11.33-11.33V26.56C334.4,20.33,329.3,15.24,323.07,15.24z"/>
			<path class="st55" d="M322.79,15.51l-296.12,0c-6.23,0-11.33,5.1-11.33,11.33l0,149.97c0,6.23,5.1,11.33,11.33,11.33l296.12,0
				c6.23,0,11.33-5.1,11.33-11.33l0-149.97C334.12,20.61,329.02,15.51,322.79,15.51z"/>
			<path class="st56" d="M322.51,15.78l-295.56,0c-6.23,0-11.33,5.1-11.33,11.33l0,149.43c0,6.23,5.1,11.33,11.33,11.33l295.56,0
				c6.23,0,11.33-5.1,11.33-11.33l0-149.43C333.84,20.88,328.74,15.78,322.51,15.78z"/>
			<path class="st57" d="M322.23,16.05l-295.01,0c-6.23,0-11.33,5.1-11.33,11.33l0,148.88c0,6.23,5.1,11.33,11.33,11.33l295.01,0
				c6.23,0,11.33-5.1,11.33-11.33V27.38C333.56,21.15,328.46,16.05,322.23,16.05z"/>
			<path class="st58" d="M321.95,16.32l-294.45,0c-6.23,0-11.33,5.1-11.33,11.33l0,148.34c0,6.23,5.1,11.33,11.33,11.33l294.45,0
				c6.23,0,11.33-5.1,11.33-11.33V27.65C333.28,21.42,328.18,16.32,321.95,16.32z"/>
			<path class="st59" d="M321.67,16.59l-293.89,0c-6.23,0-11.33,5.1-11.33,11.33l0,147.8c0,6.23,5.1,11.33,11.33,11.33l293.89,0
				c6.23,0,11.33-5.1,11.33-11.33l0-147.8C333,21.69,327.9,16.59,321.67,16.59z"/>
			<path class="st60" d="M321.4,16.87l-293.33,0c-6.23,0-11.33,5.1-11.33,11.33l0,147.26c0,6.23,5.1,11.33,11.33,11.33l293.33,0
				c6.23,0,11.33-5.1,11.33-11.33V28.19C332.72,21.96,327.62,16.87,321.4,16.87z"/>
			<path class="st61" d="M321.12,17.14l-292.78,0c-6.23,0-11.33,5.1-11.33,11.33l0,146.71c0,6.23,5.1,11.33,11.33,11.33l292.78,0
				c6.23,0,11.33-5.1,11.33-11.33V28.46C332.44,22.23,327.35,17.14,321.12,17.14z"/>
			<path class="st62" d="M320.84,17.41l-292.22,0c-6.23,0-11.33,5.1-11.33,11.33l0,146.17c0,6.23,5.1,11.33,11.33,11.33l292.22,0
				c6.23,0,11.33-5.1,11.33-11.33l0-146.17C332.16,22.51,327.07,17.41,320.84,17.41z"/>
			<path class="st63" d="M320.56,17.68l-291.66,0c-6.23,0-11.33,5.1-11.33,11.33l0,145.63c0,6.23,5.1,11.33,11.33,11.33l291.66,0
				c6.23,0,11.33-5.1,11.33-11.33V29.01C331.88,22.78,326.79,17.68,320.56,17.68z"/>
			<path class="st64" d="M320.28,17.95l-291.1,0c-6.23,0-11.33,5.1-11.33,11.33l0,145.09c0,6.23,5.1,11.33,11.33,11.33h291.1
				c6.23,0,11.33-5.1,11.33-11.33V29.28C331.61,23.05,326.51,17.95,320.28,17.95z"/>
			<path class="st65" d="M320,18.22l-290.54,0c-6.23,0-11.33,5.1-11.33,11.33l0,144.54c0,6.23,5.1,11.33,11.33,11.33H320
				c6.23,0,11.33-5.1,11.33-11.33V29.55C331.33,23.32,326.23,18.22,320,18.22z"/>
			<path class="st66" d="M319.72,18.49l-289.99,0c-6.23,0-11.33,5.1-11.33,11.33l0,144c0,6.23,5.1,11.33,11.33,11.33h289.99
				c6.23,0,11.33-5.1,11.33-11.33v-144C331.05,23.59,325.95,18.49,319.72,18.49z"/>
			<path class="st67" d="M319.44,18.77l-289.43,0c-6.23,0-11.33,5.1-11.33,11.33l0,143.46c0,6.23,5.1,11.33,11.33,11.33l289.43,0
				c6.23,0,11.33-5.1,11.33-11.33V30.09C330.77,23.86,325.67,18.77,319.44,18.77z"/>
			<path class="st68" d="M319.16,19.04l-288.87,0c-6.23,0-11.33,5.1-11.33,11.33l0,142.91c0,6.23,5.1,11.33,11.33,11.33l288.87,0
				c6.23,0,11.33-5.1,11.33-11.33V30.36C330.49,24.13,325.39,19.04,319.16,19.04z"/>
			<path class="st69" d="M318.89,19.31l-288.31,0c-6.23,0-11.33,5.1-11.33,11.33l0,142.37c0,6.23,5.1,11.33,11.33,11.33h288.31
				c6.23,0,11.33-5.1,11.33-11.33V30.63C330.21,24.41,325.11,19.31,318.89,19.31z"/>
			<path class="st70" d="M318.61,19.58l-287.75,0c-6.23,0-11.33,5.1-11.33,11.33l0,141.83c0,6.23,5.1,11.33,11.33,11.33h287.75
				c6.23,0,11.33-5.1,11.33-11.33V30.91C329.93,24.68,324.84,19.58,318.61,19.58z"/>
			<path class="st71" d="M318.33,19.85H31.13c-6.23,0-11.33,5.1-11.33,11.33l0,141.29c0,6.23,5.1,11.33,11.33,11.33h287.2
				c6.23,0,11.33-5.1,11.33-11.33V31.18C329.65,24.95,324.56,19.85,318.33,19.85z"/>
		</g>
	</g>
	<rect x="7.54" y="10.21" class="st72" width="334.38" height="183.23"/>
	<linearGradient id="SVGID_1_" gradientUnits="userSpaceOnUse" x1="184.0668" y1="173.7345" x2="340.8021" y2="60.6077">
		<stop  offset="0" style="stop-color:#8C9BCF"/>
		<stop  offset="0.187" style="stop-color:#8997CC"/>
		<stop  offset="0.4125" style="stop-color:#7F8BC4"/>
		<stop  offset="0.658" style="stop-color:#6F77B8"/>
		<stop  offset="0.9158" style="stop-color:#5B5DA6"/>
		<stop  offset="1" style="stop-color:#5453A0"/>
	</linearGradient>
	<path class="st73" d="M342.64,193.43h-92.76c-26.46-1-56.46-7.98-79.53-34.29c-17.06-19.46-30.17-62.13-15.62-87.9
		c22.1-39.15,76.04-61.03,132.03-61.03l55.89,0V193.43z"/>
	<g>
		<path class="st74" d="M205.1,155.4c20.81-2.24,97.02-0.87,104.92,6.16c7.89,7.03-9.99,18.34-20.13,16.23
			c-10.14-2.11-27.91-12.25-48.63-9.63C220.55,170.78,184.13,157.65,205.1,155.4z"/>
		<g>
			<g>
				<g>
					<path class="st72" d="M204.02,149.35h82.49c2.29,0,4.15-1.86,4.15-4.15V98.42c0-2.29-1.86-4.15-4.15-4.15h-82.49
						c-2.29,0-4.15,1.86-4.15,4.15v46.79C199.88,147.49,201.73,149.35,204.02,149.35z"/>
				</g>
				<g>
					<path class="st75" d="M205,142.63h80.53c0.96,0,1.74-0.78,1.74-1.74V98.56c0-0.96-0.78-1.74-1.74-1.74H205
						c-0.96,0-1.74,0.78-1.74,1.74v42.33C203.26,141.86,204.04,142.63,205,142.63z"/>
				</g>
				<g>
					<path class="st76" d="M247.42,146.26c0,1.19-0.96,2.15-2.15,2.15c-1.19,0-2.15-0.96-2.15-2.15c0-1.19,0.96-2.15,2.15-2.15
						C246.46,144.11,247.42,145.07,247.42,146.26z"/>
				</g>
				<g>
					<g>
						<path class="st77" d="M210.29,137.2h39.94c1.19,0,2.16-0.97,2.16-2.16v-21.81c0-1.19-0.97-2.16-2.16-2.16h-39.94
							c-1.19,0-2.16,0.97-2.16,2.16v21.81C208.12,136.23,209.09,137.2,210.29,137.2z"/>
					</g>
					<g>
						<path class="st76" d="M232.56,129.67h-19.82c-0.75,0-1.35,0.61-1.35,1.35v1.11c0,0.75,0.61,1.35,1.35,1.35h19.82
							c0.75,0,1.35-0.61,1.35-1.35v-1.11C233.91,130.27,233.31,129.67,232.56,129.67z"/>
					</g>
					<g>
						<path class="st76" d="M232.56,124.71h-19.82c-0.75,0-1.35,0.61-1.35,1.35v0.73c0,0.75,0.61,1.35,1.35,1.35h19.82
							c0.75,0,1.35-0.61,1.35-1.35v-0.73C233.91,125.31,233.31,124.71,232.56,124.71z"/>
					</g>
					<g>
						<path class="st76" d="M232.56,119.83h-19.82c-0.75,0-1.35,0.61-1.35,1.35v0.73c0,0.75,0.61,1.35,1.35,1.35h19.82
							c0.75,0,1.35-0.61,1.35-1.35v-0.73C233.91,120.44,233.31,119.83,232.56,119.83z"/>
					</g>
					<g>
						<path class="st76" d="M232.56,114.96h-19.82c-0.75,0-1.35,0.61-1.35,1.35v0.73c0,0.75,0.61,1.35,1.35,1.35h19.82
							c0.75,0,1.35-0.61,1.35-1.35v-0.73C233.91,115.56,233.31,114.96,232.56,114.96z"/>
					</g>
				</g>
				<g>
					<g>
						<path class="st78" d="M241.12,126.53h39.94c1.19,0,2.16-0.97,2.16-2.16v-21.81c0-1.19-0.97-2.16-2.16-2.16h-39.94
							c-1.19,0-2.16,0.97-2.16,2.16v21.81C238.95,125.56,239.92,126.53,241.12,126.53z"/>
					</g>
					<g>
						<path class="st76" d="M266.62,110.01h12.97c0.75,0,1.35-0.61,1.35-1.35v-4.93c0-0.75-0.61-1.35-1.35-1.35h-12.97
							c-0.75,0-1.35,0.61-1.35,1.35v4.93C265.27,109.4,265.87,110.01,266.62,110.01z"/>
					</g>
					<g>
						<path class="st76" d="M266.62,114.97h12.97c0.75,0,1.35-0.61,1.35-1.35v-0.73c0-0.75-0.61-1.35-1.35-1.35h-12.97
							c-0.75,0-1.35,0.61-1.35,1.35v0.73C265.27,114.37,265.87,114.97,266.62,114.97z"/>
					</g>
					<g>
						<path class="st76" d="M266.62,119.85h12.97c0.75,0,1.35-0.61,1.35-1.35v-0.73c0-0.75-0.61-1.35-1.35-1.35h-12.97
							c-0.75,0-1.35,0.61-1.35,1.35v0.73C265.27,119.24,265.87,119.85,266.62,119.85z"/>
					</g>
					<g>
						<path class="st76" d="M266.62,124.72h12.97c0.75,0,1.35-0.61,1.35-1.35v-0.73c0-0.75-0.61-1.35-1.35-1.35h-12.97
							c-0.75,0-1.35,0.61-1.35,1.35v0.73C265.27,124.12,265.87,124.72,266.62,124.72z"/>
					</g>
					<g>
						<path class="st76" d="M243.81,114.97h12.97c0.75,0,1.35-0.61,1.35-1.35v-0.73c0-0.75-0.61-1.35-1.35-1.35h-12.97
							c-0.75,0-1.35,0.61-1.35,1.35v0.73C242.46,114.37,243.07,114.97,243.81,114.97z"/>
					</g>
					<g>
						<path class="st76" d="M243.81,119.85h12.97c0.75,0,1.35-0.61,1.35-1.35v-0.73c0-0.75-0.61-1.35-1.35-1.35h-12.97
							c-0.75,0-1.35,0.61-1.35,1.35v0.73C242.46,119.24,243.07,119.85,243.81,119.85z"/>
					</g>
					<g>
						<path class="st76" d="M243.81,124.72h12.97c0.75,0,1.35-0.61,1.35-1.35v-0.73c0-0.75-0.61-1.35-1.35-1.35h-12.97
							c-0.75,0-1.35,0.61-1.35,1.35v0.73C242.46,124.12,243.07,124.72,243.81,124.72z"/>
					</g>
				</g>
			</g>
			
				<rect x="234.2" y="149.35" transform="matrix(-1 -1.224647e-16 1.224647e-16 -1 490.5407 304.8364)" class="st72" width="22.13" height="6.14"/>
			<path class="st72" d="M224.09,161.45h42.36c1.16,0,2.11-0.94,2.11-2.11c0-3.03-2.45-5.48-5.48-5.48h-35.62
				c-3.03,0-5.48,2.45-5.48,5.48C221.98,160.51,222.93,161.45,224.09,161.45z"/>
			<g class="st79">
				<path class="st72" d="M231.52,113.6c-0.48-0.55-1.06-1.05-1.59-1.56c-1.14-1.12-2.29-2.23-3.43-3.35
					c-3.89-3.82-8.02-7.66-11.57-11.87h4.24c2.97,2.58,5.78,5.38,8.63,8.03c2.14,1.99,4.37,3.97,6.38,6.1
					c1.54,1.63,2.18,4,0.41,5.75c-1.64,1.63-4.17,1.63-6.31,1.76c-1.08,0.06-2.43,0.34-3.59,0.32c0.34,0.45,0.65,1,0.9,1.31
					c3.55,4.54,6.98,9.17,10.24,13.92c1.94,2.83,3.88,5.7,5.72,8.63h-4.89c-0.9-1.42-1.8-2.83-2.74-4.23
					c-3.22-4.8-6.54-9.53-10.03-14.14c-0.81-1.08-1.64-2.15-2.47-3.21c-0.8-1.02-1.68-1.98-1.55-3.36c0.26-2.65,3.23-2.79,5.26-2.9
					c1.43-0.07,2.86-0.14,4.29-0.22c0.51-0.03,2.18,0,2.49-0.53C231.87,114.13,231.72,113.83,231.52,113.6z"/>
				<path class="st72" d="M278.29,142.63h-25.86c-7.89-9.44-16.75-20.73-15.47-21.68c2.19-1.64,16.1-2.79,15.84-4.28
					c-0.18-1.01-13.19-12.38-21.43-19.86h21.86c0.03,0.03,0.05,0.06,0.08,0.09c14.84,14.52,19.7,22.23,18.99,23.73
					c-0.71,1.5-12.84,1.16-13.21,2.49C258.87,123.92,269.81,134.08,278.29,142.63z"/>
			</g>
		</g>
		<g>
			<path class="st80" d="M288.35,117.38c-3.55,1.26-6.31,26.18-6.15,27.38c0.3,2.2,15.45,22.24,15.45,22.24l2.37-2.93l-8.91-19.26
				c0,0,7.25-18.37,7.58-21.37C299.02,120.45,298.83,113.65,288.35,117.38z"/>
			<path class="st81" d="M299.02,116.07c4.4,2.6,2.33,13.49,0.83,17.98c-1.5,4.5-4.33,7.83-3.5,9.66c0.83,1.83,2.5,7.99,1.66,11.16
				c-0.83,3.16-3.66,13.65-3.66,13.65h-3.16c0,0-1.33-19.82-1.83-22.31c-0.5-2.5-2-21.65,0-26.98
				C290.19,117,295.35,113.91,299.02,116.07z"/>
			<path class="st82" d="M294.9,85.38c4.93,1.1,7.33,5.84,5.15,11.84c-2.47,6.79-0.13,20.15-0.13,20.15s-4.49,1.49-7.23,1.37
				c-2.74-0.12-5.96-2.01-5.96-2.01s-1.12-14.12-2.99-18.85C281.87,93.15,284.31,83.01,294.9,85.38z"/>
			<path class="st83" d="M285.77,108.69c3.05,1.5,9.97,0.93,13.31-0.71c2.67,8.18,4.64,21.71,3.97,25.7c-0.67,4-0.94,6.02-1.46,6.47
				c-0.12,0.1-0.72,0.16-1.58,0.18c-0.4,0.01-0.05-4.65-0.53-4.65c-0.32,0-1.45,4.67-1.78,4.66c-3.02-0.03-6.68-0.19-6.68-0.19
				s-10.49-1.81-11.06-2.33c-0.57-0.52,3.24-9.31,4.78-12.63C286.57,121.25,285.77,108.69,285.77,108.69z"/>
			<path class="st82" d="M288.12,85.8c-4.88,2.09-7.6,8.75-7.57,11.58c0.03,2.83,0,2,0,2l5.02-0.83L288.12,85.8z"/>
			<path class="st82" d="M292.01,85.02c5.67,0,8.84,3.17,10.17,8.72c0.74,3.08,1.21,4.8,1.21,4.8h-6.49L292.01,85.02z"/>
			<path class="st84" d="M292.76,84.53c0.82,0.06,1.1,1.22,1.21,2.17c0.11,0.95-1.63,4.83-1.95,4.83c-0.32,0-1.93-2.05-1.93-2.05
				l-1.95,2.31c0,0-0.79-5.17-0.64-5.68C287.64,85.59,288.44,84.19,292.76,84.53z"/>
			<path class="st80" d="M289.89,88.64c2.12,0.68,2.34-0.67,2.83-1.63c0.5-0.96-0.57-7.03-1.18-7.4c-0.62-0.37-2.24,0.52-2.54,1.04
				C288.71,81.17,287.6,87.9,289.89,88.64z"/>
			<path class="st80" d="M280.87,100.29c-0.15,2.34,0.22,8.78,0.81,9.37c0.59,0.59,2.93-8.73,2.93-8.73L280.87,100.29z"/>
			<g>
				<path class="st84" d="M290.53,109.02c-0.06-0.67-0.05-1.5-0.04-2.38c0.02-1.44,0.03-2.93-0.23-3.96l-0.15-0.61
					c-0.59-2.34-0.86-3.41-1.17-6.08c-0.14-1.23,0.07-3.36,0.17-4.23c0.05-0.41,0.05-0.73,0.05-1.02c0.01-0.75,0.01-1.21,0.81-2.05
					l0.29,0.27c-0.69,0.74-0.69,1.09-0.7,1.79c0,0.28-0.01,0.63-0.05,1.06c-0.1,0.85-0.3,2.95-0.17,4.14
					c0.31,2.64,0.57,3.7,1.16,6.03l0.16,0.61c0.27,1.07,0.25,2.59,0.24,4.06c-0.01,0.87-0.02,1.7,0.04,2.35L290.53,109.02z"/>
			</g>
			<path class="st84" d="M284.06,98.8l0.55,2.13c0,0-4.03,0.92-4.06,0.84c-0.03-0.08-0.14-2.16,0-2.39
				C280.69,99.16,284.06,98.8,284.06,98.8z"/>
			<path class="st81" d="M282.8,101.04c0.72-4.02,4.44-8.37,3.82-10.1c-0.09-0.26-0.11-0.56-0.07-0.89
				c-0.34-0.74-0.48-1.54-0.4-2.37c0.02-0.19,0.17-0.34,0.37-0.28c0.45,0.13,0.47,0.63,0.56,1.03c0.79-1.41,2.19-2.72,2.98-2.2
				c1.25,0.82,0.56,3.7-0.37,4.47c-0.94,0.76-1.19,2.42-1.31,5.95c-0.09,2.53-2.39,14.44-5.41,14.36
				C279.94,110.91,282.44,103.06,282.8,101.04z"/>
			<path class="st80" d="M303.13,100.48c0.31,1.08,1.39,9.25-0.03,10.49c-1.42,1.24-16.74,0.31-18.65,0.24
				c-4.28-0.15-5.28-2.54-4.87-2.89c0.42-0.35,1.05,0.84,2.28,0.92c0.93,0.07,1.88,0.15,2.33,0.18c1.05,0.07-1.83-1.02-1.79-1.45
				c0.04-0.43,2.29,0,3.06,0.71c1.21,1.12,12.51-0.35,13.13-1.11c0.62-0.76-0.09-7.3-0.09-7.3L303.13,100.48z"/>
			<path class="st83" d="M286,76.69c-1.62-3.82,2.85-8.35,7.29-6.83c3.54,1.21,4.69,4.5,4.69,4.5s2.54-3.05,5.64-1.65
				c5.17,2.35,0.6,9.35-1.24,10.89c-1.84,1.53-0.56,5.88-0.56,5.88s-3.53-0.7-4.08-3.96c-0.56-3.26,2.77-7.22,2.78-8.33
				c0.01-1.95-2.81-1.57-2.81-1.57s0.14,3.35-0.7,4.74c-0.84,1.39-4.03,2.11-4.03,2.11L286,76.69z"/>
			<path class="st84" d="M297.93,99.07c0.08-0.31,0.35-0.52,0.67-0.52c1.19,0,4.01,0.01,4.63,0c0.79-0.02,0.59,1.91,0.48,2.2
				c-0.08,0.22-3.52,0.19-5.26,0.15c-0.51-0.01-0.87-0.49-0.74-0.98L297.93,99.07z"/>
			<path class="st81" d="M288.55,84.2c-1.8-0.49-3.63-3.26-2.71-7.23c0.92-3.97,2.89-6.5,6.17-5.54c3.28,0.96,4.28,2.69,4.04,6.08
				C295.82,80.9,290.92,84.84,288.55,84.2z"/>
			<path class="st81" d="M295.9,77.12c1.27-0.08,1.49,0.12,1.06,1.39c-0.43,1.27-1.83,1.11-1.83,1.11L295.9,77.12z"/>
			<path class="st83" d="M291.09,70.96c-0.64,1.73,1.2,4.7,2.37,5.7c1.17,1.01,2.74,0.31,2.74,0.31l0.59-1.77l-1.66-3.15l-2.82-1.74
				L291.09,70.96z"/>
			<path class="st83" d="M291.09,70.96c0,0-0.65,1.78-1.64,2.66c-0.99,0.88-2.95,1.21-2.95,1.21s1.26-3.45,2.52-3.85
				C290.28,70.57,291.09,70.96,291.09,70.96z"/>
			<path class="st80" d="M287.91,77.23c0.13,0.21,0.3,4.08-0.03,4.2c-0.33,0.12-1.48,0.07-1.69-0.19
				C285.98,80.98,287.63,76.79,287.91,77.23z"/>
			<path class="st84" d="M294.61,167.57c0,0-0.72,0.48-1.61,0.48s-1.88-0.48-1.88-0.48s0.1,2.92-1.23,3.52
				c-1.33,0.59-3.77,1.26-3.92,1.78c-0.15,0.52,0,0.96,0,0.96s7.25,0.52,8.14,0C295,173.31,294.61,167.57,294.61,167.57z"/>
			<path class="st84" d="M299.47,162.89c0.83,0.65,3.08,3.13,2.86,4.11c-0.22,0.98-4.96,6.08-5.4,5.94
				c-0.21-0.07-0.42-0.38-0.59-0.68c-0.2-0.37-0.16-0.82,0.11-1.14c0.62-0.75,1.71-2.15,1.66-2.59c-0.07-0.62-1.19-2.49-1.19-2.49
				s0.67-0.43,1.48-1.09C299.22,164.28,299.47,162.89,299.47,162.89z"/>
		</g>
		<g>
			<path class="st83" d="M215.09,42.94c0.76,0.08,4.99,1.5,4.2,2.32c-0.8,0.81-0.45,2.51,0.62,3.03c1.07,0.52,1.78,2.21,1.16,2.93
				c-0.62,0.72-1.97,2.28-1.16,2.8c0.81,0.53,0.76,3.19,0,3.16c-0.76-0.02-1.28,0.33-1.02,1.72c0.26,1.39,0.06,1.81-0.69,2.43
				c-0.75,0.62-8.32,1.39-8.9,0c-0.58-1.39-4.72,0.41-5.07-0.21c-0.35-0.63-2.28-3.56-2.62-3.5c-0.34,0.06-1.1-0.75-0.91-1.98
				c0.18-1.22,1.12-3.32,0.91-4.42c-0.21-1.11-0.25-2.67,0.75-3.85c1-1.17,1.13-0.58,1.26-2.12c0.13-1.54,0.16-2.16,1.58-2.37
				c1.42-0.21,1.59-0.86,2.48-1.51c0.89-0.65,1.99-1.44,3.07-0.65C211.83,41.5,213.89,42.81,215.09,42.94z"/>
			<path class="st72" d="M212.16,58.6c3.69-0.34,14.87,12.87,13.36,14.13c-1.51,1.26-6.28-1.28-9.07-5.13
				C213.67,63.75,212.16,58.6,212.16,58.6z"/>
			<path class="st72" d="M208.97,57.63c-5.17,0.23-4.8,8.73-4.38,11.99c0.98,7.5-2.94,12.4-2.22,20.19c0.14,1.54,16,0.56,17.1-1.01
				c0.61-0.87-2.95-4.7-3.25-9.71c-0.24-4.06,1.65-6.89,1.57-10.58C217.72,65.19,215.86,57.32,208.97,57.63z"/>
			<path class="st85" d="M204.64,86.5c-2.72,1.6,8.55,5.6,9.49,7.79c0.94,2.19,16.29,2.82,19.11,2.35c2.82-0.47,6.89-1.26,5.48-4.86
				c-0.75-1.9-13.74-5.7-18.83-5.68C212.92,86.12,205.9,85.77,204.64,86.5z"/>
			<path class="st85" d="M203.8,86.77c-2.72,1.6-0.94,5.33,0,7.52c0.94,2.19,16.29,2.82,19.11,2.35c2.82-0.47,6.89-1.26,5.48-4.86
				C226.98,88.19,206.46,85.21,203.8,86.77z"/>
			<path class="st85" d="M220.91,96.55c0.93-5.72,6.87-6.3,7.69-4.49c1.11,2.43,0.11,12.2-0.87,19.16c-2.14-0.02-4.3-0.23-6.41-0.62
				C220.75,105.63,220.41,99.65,220.91,96.55z"/>
			<path class="st81" d="M226.26,111.22c-0.56,3.96,0.37,7.01,0.22,7.27c-0.42,0.73-2.58,1.18-3.56,0.26
				c-0.45-0.42-1.1-3.93-1.59-8.15C223.44,110.99,224.12,111.21,226.26,111.22z"/>
			<path class="st81" d="M239,118.22c-0.34,0.77-2.22,0.7-3.29-0.13c-0.47-0.37-1.47-3.47-2.38-7.3c2.2-0.38,3.22-0.54,5.21-1.45
				C238.37,114.25,239.15,117.89,239,118.22z"/>
			<path class="st85" d="M231.37,96.91c0.38-5.79,6.24-6.93,7.23-5.2c1.21,2.1,1.27,10.41,1.04,17.17
				c-1.99,0.91-4.11,1.53-6.31,1.91C232.19,106.02,231.16,100.11,231.37,96.91z"/>
			<path class="st84" d="M222.52,119.28c-0.55,2.77,1.34,2.26,2.04,2.49c1.35,0.44,8.28,0.3,8.52-0.55
				c0.55-1.92-4.51-3.17-6.18-3.46C225.22,117.47,222.65,118.61,222.52,119.28z"/>
			<path class="st81" d="M208,84.9c0.13,0.11,0.23,0.2,0.27,0.24c0.56,0.54,1.48-0.45,2.6-0.62c1.13-0.17,2.93,1.48,2.83,2.36
				c-0.11,0.88-3.7,0.74-4.48,0.51c-0.14-0.04-0.7-0.28-1.51-0.65C207.65,86.17,207.93,85.53,208,84.9z"/>
			<path class="st72" d="M195.82,76.76c0.23-0.75,4.58-11.81,7.93-15.98c1.62-2.02,5.81-0.63,4.34,3.66
				c-0.46,1.33-6.51,11.36-6.52,12.01c-0.01,0.59,5.87,7.4,7.13,8.84c-0.15,0.61-1.15,1.06-1.16,1.63
				C204.14,84.76,195.63,77.37,195.82,76.76z"/>
			<path class="st84" d="M235.96,118.33c-1.37,2.46,1.01,2.28,1.91,2.56c1.36,0.41,7.25,2.53,7.74,1.79
				c1.11-1.66-5.09-5.18-6.68-5.77C238.45,116.74,236.29,117.73,235.96,118.33z"/>
			<path class="st80" d="M208.59,58.26c-0.08,1.34,1.81,2.35,2.52,2.23c0.71-0.12,1.68-0.42,1.74-1.11
				c0.07-0.84,0.38-5.94-0.68-6.76C211.11,51.8,208.83,54.42,208.59,58.26z"/>
			<g>
				<path class="st81" d="M228.69,59.99c0.34-1.54,0.17-2.36,0.43-3.47c0.08-0.36,0.42-1.77,0.22-1.9c-0.2-0.13-0.58,1.51-0.66,1.39
					c-0.07-0.11,0.51-2.27,0.3-2.37c-0.2-0.1-0.76,1.95-0.83,1.87c-0.11-0.12,0.46-2.42,0.27-2.45c-0.31-0.05-0.62,2.32-0.75,2.28
					c-0.09-0.03,0.29-1.82,0.01-1.93c-0.28-0.11-0.72,2.71-0.72,3.02c0,0.31-1.1-1.45-1.53-1.09c-0.22,0.19,0.55,1.46,1.29,2.27
					c0.57,0.63-0.05,1.32-0.43,2.29c-0.22,0.58,2.32,0.51,2.32,0.51L228.69,59.99z"/>
			</g>
			<path class="st84" d="M212.08,56.7c0.11,0.35,0.39,1.02,0.6,1.53c0.62,1.47-0.87,1.52-0.52,2.18c0.32,0.62,0.96,0.83,1.6,0.89
				c0.94,0.09-0.14-4.1-0.77-4.46C212.14,56.36,212.08,56.7,212.08,56.7z"/>
			<g>
				<path class="st72" d="M228.3,62.81c0.4-2.77,0.58-3.92,0.58-3.92l-2.17-0.61c0,0-2.91,8.31-3.42,10.13
					c-0.51,1.82-0.52,4.46,1.01,4.96C226.87,74.12,227.89,65.58,228.3,62.81z"/>
			</g>
			<path class="st81" d="M207.05,50.15c-0.68,3.24,1.06,6.35,3.9,6.95c2.83,0.59,4.57-1.78,5.26-5.03c0.68-3.24,0.04-6.12-2.79-6.71
				C210.58,44.76,207.73,46.91,207.05,50.15z"/>
			<path class="st80" d="M215.35,52c-0.49-0.1-2.31,3.34-2.28,3.66c0.03,0.32,1.03,0.6,1.5,0.29C215.05,55.64,215.35,52,215.35,52z"
				/>
			<path class="st83" d="M216.46,47.37c-0.14,1.02-0.97,1.89-1.68,1.63c-0.72-0.26-1.08-0.72-1.48,0c-0.41,0.72-0.6,1.04-1.26,1.11
				c-0.65,0.07-1.14-0.78-1.74,0c-0.6,0.78-1.03-1.37-1.7-1.37c-0.67,0-1.45,2.08-0.8,2.47c0.65,0.39,0.85,1.19,0.2,1.18
				c-0.65-0.01-0.52,0.71-1.08,0.78c-0.55,0.07-1.71-0.71-1.71-0.71v-2.48l1.29-2.61l2.1-2.68l1.71-0.85l1.39-0.46l4.59,1.24
				l0.46,2.74H216.46z"/>
			<g>
				<path class="st84" d="M213.92,86.09c-0.05-0.36-0.13-0.77-0.21-1.22c-0.36-1.98-0.87-4.69-0.18-7.86
					c0.56-2.59,0.39-5.32,0.23-7.97l-0.02-0.32c-0.14-2.32-0.58-5.66-1.87-8.4l0.42-0.2c1.33,2.8,1.77,6.2,1.91,8.56l0.02,0.32
					c0.16,2.68,0.33,5.44-0.24,8.09c-0.67,3.08-0.17,5.74,0.18,7.68c0.08,0.46,0.16,0.87,0.21,1.24L213.92,86.09z"/>
			</g>
			<path class="st84" d="M208.92,56.25c0.92,0.98,3.7,2.8,3.1,4.54c-0.2,0.59-0.2,1.25-0.54,1.04c-0.93-0.59-3.43-2.77-3.07-4.2
				C208.6,56.88,208.92,56.25,208.92,56.25z"/>
		</g>
		<g class="st79">
			<path class="st72" d="M227.25,154.62c1.19-1.25,2.96-1.03,4.53-1c1.74,0.03,3.74,0.07,5.48,0c0.62-0.02,0.5-1.18-0.18-1.15
				c-3.2,0.14-4.36-0.04-6.67,0.04c-1.38,0.05-3.21,0.14-3.84,1.59C226.39,154.51,226.88,155.01,227.25,154.62L227.25,154.62z"/>
		</g>
		<g class="st79">
			<path class="st72" d="M239.39,153.62c1.74,0.01,3.74,0.07,5.48,0c0.62-0.02,0.5-1.18-0.18-1.15c-3.2,0.14-3.02,0-5.33,0
				C238.28,152.46,238.39,153.61,239.39,153.62z"/>
		</g>
		<g>
			<path class="st86" d="M326.88,94.45c1.49,0.24,2.62,0.57,3.4,0.99c0.78,0.42,1.64,1.14,2.6,2.16c0.92,0.98,1.59,1.91,2.02,2.81
				c0.97,1.93,1.28,3.95,0.94,6.04c-0.29,1.77-0.92,3.3-1.89,4.59c-0.97,1.29-2.42,2.36-4.33,3.2c-1.25,0.58-2.14,1.1-2.67,1.55
				c-0.53,0.45-1,1.06-1.41,1.82c-0.35,0.65-0.64,1.04-0.88,1.19c-0.23,0.15-0.63,0.18-1.19,0.09c-0.44-0.07-1.62-0.39-3.54-0.95
				c-1.91-0.56-3.05-0.91-3.4-1.05c-0.35-0.14-0.56-0.34-0.65-0.6c-0.08-0.26-0.1-0.51-0.06-0.75c0.06-0.36,0.48-1.31,1.27-2.83
				c0.78-1.53,1.39-2.48,1.83-2.87c0.49-0.46,1.3-0.86,2.43-1.22c1.04-0.33,1.81-0.67,2.3-1.02c0.49-0.35,0.83-0.85,1.01-1.48
				l0.1-0.23l0.03-0.18c0.17-1.05-0.27-1.66-1.32-1.83c-0.85-0.14-2.16,0.7-3.94,2.52c-0.59,0.61-1.01,0.89-1.25,0.85
				c-0.08-0.01-0.14-0.04-0.17-0.09l-0.18-0.03c-0.75-0.25-2.01-1.5-3.79-3.78c-0.61-0.8-0.89-1.4-0.82-1.81
				c0.07-0.4,0.41-1.01,1.04-1.82c1.05-1.36,2.5-2.56,4.37-3.6c1.86-1.04,3.66-1.65,5.38-1.82
				C324.95,94.24,325.88,94.29,326.88,94.45z M319.11,119.42c1.37,0.22,2.47,0.81,3.31,1.78c0.84,0.96,1.12,2.27,0.85,3.92
				c-0.11,0.69-0.28,1.19-0.5,1.53c-0.42,0.8-1.14,1.42-2.16,1.85c-1.02,0.43-2.01,0.57-2.98,0.41c-1.41-0.23-2.48-0.86-3.2-1.88
				c-0.72-1.03-0.98-2.31-0.77-3.85l0.07-0.42c0.12-0.76,0.42-1.34,0.9-1.71c0.9-0.97,1.96-1.52,3.18-1.65
				C318.19,119.33,318.63,119.34,319.11,119.42z"/>
		</g>
		<g>
			<path class="st72" d="M311.19,61.02c0.91-0.3,1.65-0.45,2.21-0.44c0.56,0.01,1.26,0.16,2.1,0.46c0.8,0.28,1.46,0.61,1.96,0.99
				c1.11,0.81,1.88,1.85,2.3,3.13c0.36,1.08,0.45,2.13,0.28,3.14c-0.17,1.01-0.67,2.04-1.5,3.08c-0.54,0.7-0.89,1.25-1.05,1.66
				c-0.17,0.41-0.25,0.89-0.26,1.44c-0.01,0.47-0.06,0.78-0.14,0.93c-0.09,0.15-0.3,0.28-0.65,0.4c-0.27,0.09-1.03,0.26-2.27,0.5
				c-1.24,0.25-1.98,0.38-2.22,0.4c-0.24,0.02-0.42-0.03-0.54-0.15c-0.12-0.12-0.21-0.26-0.26-0.41c-0.07-0.22-0.11-0.88-0.12-1.97
				c-0.01-1.09,0.06-1.81,0.19-2.15c0.14-0.4,0.48-0.87,1.01-1.4c0.49-0.49,0.83-0.91,1-1.25c0.17-0.34,0.22-0.72,0.14-1.13
				l-0.01-0.16l-0.04-0.11c-0.21-0.64-0.64-0.85-1.28-0.64c-0.52,0.17-1.01,1.03-1.48,2.58c-0.16,0.52-0.31,0.8-0.46,0.85
				c-0.05,0.02-0.09,0.02-0.12,0l-0.11,0.04c-0.49,0.08-1.57-0.26-3.24-1.02c-0.58-0.27-0.91-0.53-0.99-0.78
				c-0.08-0.25-0.06-0.69,0.05-1.33c0.19-1.07,0.66-2.18,1.41-3.31c0.75-1.13,1.58-2,2.5-2.6
				C310.04,61.47,310.57,61.22,311.19,61.02z M314.13,77.37c0.84-0.28,1.63-0.27,2.39,0.03c0.75,0.3,1.3,0.95,1.63,1.96
				c0.14,0.42,0.19,0.75,0.17,1.01c0,0.57-0.23,1.13-0.68,1.68c-0.45,0.54-0.97,0.91-1.56,1.11c-0.86,0.28-1.65,0.24-2.35-0.12
				c-0.71-0.37-1.23-1.01-1.56-1.94l-0.09-0.26c-0.15-0.47-0.15-0.88,0-1.23c0.22-0.81,0.66-1.43,1.31-1.86
				C313.58,77.59,313.83,77.47,314.13,77.37z"/>
		</g>
		<g>
			<path class="st86" d="M329.93,35.93c0.63,0.24,1.1,0.48,1.41,0.73c0.31,0.25,0.62,0.64,0.95,1.18c0.32,0.51,0.53,0.98,0.64,1.41
				c0.25,0.93,0.21,1.85-0.12,2.74c-0.28,0.75-0.69,1.37-1.24,1.85c-0.54,0.48-1.27,0.82-2.18,1.02c-0.6,0.15-1.04,0.29-1.31,0.45
				c-0.27,0.15-0.53,0.38-0.78,0.67c-0.21,0.25-0.38,0.4-0.49,0.45c-0.11,0.04-0.29,0.02-0.53-0.07c-0.19-0.07-0.68-0.31-1.47-0.73
				c-0.79-0.41-1.26-0.67-1.4-0.76c-0.14-0.09-0.22-0.2-0.23-0.32c-0.01-0.12,0-0.23,0.04-0.34c0.06-0.15,0.33-0.53,0.81-1.13
				c0.48-0.6,0.83-0.97,1.06-1.1c0.25-0.16,0.65-0.26,1.17-0.32c0.49-0.05,0.85-0.13,1.1-0.24c0.25-0.11,0.44-0.3,0.58-0.56
				l0.06-0.09l0.03-0.08c0.17-0.44,0.03-0.75-0.42-0.92c-0.36-0.13-1.01,0.12-1.95,0.76c-0.31,0.21-0.52,0.3-0.63,0.26
				c-0.03-0.01-0.06-0.03-0.07-0.05l-0.08-0.03c-0.31-0.17-0.75-0.84-1.33-1.99c-0.2-0.41-0.27-0.69-0.2-0.87
				c0.06-0.17,0.27-0.41,0.62-0.71c0.58-0.5,1.32-0.9,2.23-1.2c0.91-0.29,1.75-0.4,2.52-0.33C329.1,35.67,329.5,35.77,329.93,35.93z
				 M324.32,46.2c0.58,0.22,1.01,0.58,1.3,1.07c0.28,0.5,0.29,1.09,0.03,1.8c-0.11,0.29-0.23,0.5-0.35,0.63
				c-0.25,0.31-0.63,0.52-1.11,0.62c-0.49,0.1-0.93,0.07-1.35-0.08c-0.6-0.22-1.01-0.59-1.24-1.11c-0.23-0.51-0.23-1.1,0-1.76
				l0.07-0.18c0.12-0.32,0.3-0.55,0.55-0.67c0.48-0.35,0.99-0.49,1.54-0.45C323.93,46.09,324.11,46.13,324.32,46.2z"/>
		</g>
		<g>
			<path class="st72" d="M173.26,87.1c0.71-0.31,1.19-0.46,1.44-0.42c0.14-0.01,0.3,0.2,0.49,0.63c0.35,0.79,0.91,2.44,1.68,4.93
				c3.56,10.72,5.55,18.02,5.98,21.9l0.08,1.31l-3.5,1.55l-2.17,1.03c-0.75,0.33-1.32,0.47-1.69,0.43
				c-0.38-0.05-0.72-0.33-1.05-0.85c-0.32-0.52-0.79-1.47-1.4-2.86l-0.84-1.9c-1.31-2.97-2.78-6.43-4.41-10.39
				c-1.63-3.96-2.61-6.41-2.93-7.36c-0.33-0.85-0.45-1.5-0.37-1.96c0.22-0.9,1.58-2.09,4.09-3.58
				C170.46,88.47,171.99,87.66,173.26,87.1z M178.49,119.18c1.82-0.8,3.43-0.95,4.84-0.44c1.41,0.51,2.47,1.58,3.19,3.2
				c0.77,1.74,0.81,3.47,0.13,5.19c-0.68,1.72-1.88,2.96-3.58,3.71c-0.63,0.28-1.2,0.44-1.71,0.47c-1.25,0.17-2.56-0.06-3.93-0.71
				c-1.37-0.65-2.28-1.46-2.71-2.45c-0.54-1.23-0.64-2.57-0.29-4.02c0.35-1.45,1.07-2.71,2.17-3.76
				C177.03,119.95,177.66,119.55,178.49,119.18z"/>
		</g>
		<g>
			<path class="st86" d="M188.77,60.82c0.36,0.1,0.59,0.19,0.67,0.28c0.06,0.04,0.05,0.17-0.01,0.39c-0.11,0.4-0.4,1.19-0.86,2.37
				c-1.92,5.12-3.38,8.48-4.39,10.07l-0.37,0.52l-1.79-0.48l-1.13-0.27c-0.38-0.1-0.64-0.22-0.77-0.35
				c-0.13-0.13-0.17-0.34-0.14-0.64c0.04-0.29,0.15-0.79,0.34-1.5l0.26-0.97c0.41-1.52,0.9-3.27,1.49-5.26
				c0.59-1.99,0.96-3.21,1.13-3.66c0.13-0.42,0.29-0.7,0.46-0.85c0.35-0.27,1.23-0.31,2.63-0.11
				C187.3,60.49,188.12,60.65,188.77,60.82z M181,74.5c0.93,0.25,1.58,0.68,1.96,1.31c0.37,0.62,0.45,1.35,0.23,2.17
				c-0.24,0.89-0.75,1.55-1.53,2c-0.78,0.44-1.6,0.54-2.47,0.31c-0.32-0.09-0.59-0.2-0.79-0.34c-0.52-0.31-0.94-0.8-1.27-1.46
				c-0.32-0.66-0.41-1.24-0.28-1.75c0.17-0.63,0.54-1.16,1.11-1.6c0.57-0.44,1.23-0.69,1.96-0.76
				C180.22,74.35,180.58,74.39,181,74.5z"/>
		</g>
	</g>
	<g>
		<g>
			<path class="st87" d="M254.7,81l1.62-4.76c0.34-1.76,1.46-3.3,3.06-4.12c4.07-2.08,7.18-5.94,8.13-10.78
				c1.69-8.67-4.25-17.06-13.14-18.23c-7.49-0.98-14.72,3.75-16.79,11.02c-1.49,5.24-0.12,10.5,3.09,14.27
				c1.19,1.4,1.71,3.25,1.36,5.05l-0.29,5.01C245.82,79.62,250.3,80.79,254.7,81z"/>
			<path class="st72" d="M259.46,60.52c-0.08-0.15-0.27-0.2-0.42-0.12l-8.13,4.64l-5.32-7.25c-0.1-0.14-0.3-0.17-0.43-0.07
				c-0.14,0.1-0.17,0.3-0.07,0.43l5.4,7.37l-1.92,9.81c-0.03,0.17,0.08,0.33,0.25,0.36c0.17,0.03,0.33-0.08,0.36-0.25l1.91-9.81
				l8.25-4.7C259.49,60.86,259.54,60.67,259.46,60.52z"/>
			<path class="st87" d="M241.74,78.47l-0.24,4.16c-0.57,2.94,1.34,5.78,4.28,6.36l1.22,0.24c2.94,0.57,5.78-1.34,6.36-4.28
				L254.7,81C250.3,80.79,245.82,79.62,241.74,78.47z"/>
			<g>
				<path class="st72" d="M255.56,78.63l-13.72-2.68c-0.79-0.15-1.31-0.92-1.15-1.72l0.31-1.6c0.15-0.79,0.92-1.31,1.72-1.15
					l13.72,2.68c0.79,0.15,1.31,0.92,1.15,1.71l-0.31,1.6C257.12,78.27,256.35,78.79,255.56,78.63z"/>
				<path class="st72" d="M254.75,82.78l-13.72-2.68c-0.79-0.15-1.31-0.92-1.15-1.71l0.31-1.6c0.15-0.79,0.92-1.31,1.72-1.15
					l13.72,2.68c0.79,0.15,1.31,0.92,1.15,1.72l-0.31,1.6C256.31,82.42,255.54,82.94,254.75,82.78z"/>
				<path class="st72" d="M253.94,86.94l-13.72-2.68c-0.79-0.15-1.31-0.92-1.15-1.72l0.31-1.6c0.15-0.79,0.92-1.31,1.72-1.15
					l13.72,2.68c0.79,0.15,1.31,0.92,1.15,1.72l-0.31,1.6C255.5,86.58,254.73,87.09,253.94,86.94z"/>
				<path class="st87" d="M256.66,74.23c0.04,0.18,0.04,0.37,0,0.57l-0.31,1.6c-0.15,0.79-0.92,1.31-1.72,1.15l-13.72-2.68
					c-0.08-0.02-0.15-0.04-0.23-0.07c0.11,0.56,0.55,1.03,1.15,1.15l13.72,2.68c0.79,0.15,1.56-0.36,1.72-1.15l0.31-1.6
					C257.72,75.17,257.32,74.48,256.66,74.23z"/>
				<path class="st87" d="M255.85,78.38c0.04,0.18,0.04,0.37,0,0.57l-0.31,1.6c-0.15,0.79-0.92,1.31-1.72,1.15l-13.72-2.68
					c-0.08-0.02-0.15-0.04-0.23-0.07c0.11,0.56,0.55,1.03,1.15,1.15l13.72,2.68c0.79,0.15,1.56-0.36,1.72-1.15l0.31-1.6
					C256.92,79.31,256.51,78.62,255.85,78.38z"/>
				<path class="st87" d="M255.04,82.53c0.04,0.18,0.04,0.37,0,0.57l-0.31,1.6c-0.15,0.79-0.92,1.31-1.72,1.15l-13.72-2.68
					c-0.08-0.02-0.15-0.04-0.23-0.07c0.11,0.56,0.55,1.03,1.15,1.15l13.72,2.68c0.79,0.15,1.56-0.36,1.72-1.15l0.31-1.6
					C256.11,83.46,255.7,82.77,255.04,82.53z"/>
			</g>
			<g>
				<path class="st72" d="M246.6,57.47c0.18-0.26,0.25-0.2,0.45,0.01c0.41,0.43,0.08,0.04,0.19,0.39c0.02,0.07,0.02,0.14,0.05,0.21
					c0.09,0.18,0.29,0.29,0.49,0.32c0.7,0.11,1.28-0.79,1.7-1.21c0.08-0.08,0.21-0.25,0.31-0.29c0.17-0.06,0.12-0.06,0.14,0.05
					c0.03,0.13-0.15,0.44-0.2,0.57c-0.14,0.42-0.25,0.84-0.26,1.29c-0.01,0.7,0.23,1.37,0.79,1.82c0.47,0.37,1.1,0.52,1.64,0.22
					c0.58-0.32,0.78-0.95,0.99-1.53c0.11-0.29,0.21-0.64,0.44-0.86c0.23-0.23,0.33-0.22,0.32,0.09c-0.01,0.24-0.08,0.48-0.08,0.73
					c-0.02,0.63,0.34,1.35,1.04,1.37c0.28,0.01,0.53-0.11,0.74-0.29c0.21-0.19,0.35-0.56,0.59-0.71c0.53-0.34,1.28,1.26,1.89,0.37
					c0.1-0.15,0.02-0.33-0.17-0.33c-0.73-0.03-0.95-1.08-1.8-0.83c-0.4,0.12-1.02,1.22-1.39,0.89c-0.55-0.49,0.35-1.6-0.38-2.09
					c-0.51-0.35-1.14,0.05-1.44,0.47c-0.38,0.52-0.42,1.21-0.8,1.72c-0.66,0.88-1.55-0.15-1.58-0.91c-0.02-0.46,0.1-0.94,0.21-1.38
					c0.08-0.31,0.22-0.66,0.09-0.99c-0.21-0.53-0.79-0.38-1.14-0.08c-0.41,0.36-0.69,0.92-1.13,1.25c-0.09,0.04-0.17,0.08-0.26,0.12
					c-0.2,0.2-0.31,0.18-0.34-0.07c-0.12-0.23-0.04-0.15-0.09-0.31c-0.04-0.12-0.06-0.23-0.14-0.33c-0.33-0.41-0.88-0.28-1.09,0.17
					C246.34,57.45,246.51,57.59,246.6,57.47L246.6,57.47z"/>
			</g>
			<path class="st72" d="M247.57,47.33c0.44-0.57-0.14-1.37-0.81-1.12c-2.05,0.76-4.69,2.14-6.23,4.54
				c-2.79,4.32,0.78,5.96,3.08,2.49C245.04,51.08,246.36,48.88,247.57,47.33z"/>
		</g>
	</g>
	<g>
		<g>
			<path class="st86" d="M30.42,62.02l-2.58-10.56h2.06l1.01,4.8c0.26,1.29,0.51,2.63,0.69,3.68c0.2-1.1,0.49-2.37,0.8-3.7
				l1.14-4.77h2.03l1.05,4.86c0.26,1.25,0.48,2.43,0.64,3.57c0.22-1.17,0.47-2.37,0.75-3.66l1.1-4.77h1.97l-2.85,10.56h-2.06
				l-1.09-4.97c-0.27-1.19-0.46-2.2-0.59-3.34c-0.21,1.13-0.41,2.14-0.73,3.35l-1.23,4.97H30.42z"/>
			<path class="st86" d="M43.03,58.74c0.05,1.38,1.12,1.99,2.36,1.99c0.89,0,1.52-0.14,2.11-0.35l0.29,1.33
				c-0.65,0.28-1.56,0.48-2.67,0.48c-2.48,0-3.93-1.53-3.93-3.87c0-2.11,1.28-4.1,3.73-4.1c2.48,0,3.29,2.04,3.29,3.71
				c0,0.36-0.03,0.65-0.07,0.81H43.03z M46.38,57.4c0.01-0.71-0.3-1.86-1.59-1.86c-1.19,0-1.68,1.08-1.77,1.86H46.38z"/>
			<path class="st86" d="M54.15,54.39l0.8,3.46c0.18,0.81,0.35,1.64,0.49,2.47c0.19-0.82,0.43-1.67,0.65-2.46l1-3.47h1.56l0.95,3.39
				c0.24,0.89,0.45,1.72,0.61,2.54c0.16-0.82,0.33-1.66,0.54-2.55l0.85-3.38h1.89l-2.39,7.63h-1.79l-0.91-3.11
				c-0.23-0.8-0.41-1.52-0.58-2.44c-0.19,0.94-0.39,1.69-0.61,2.44l-0.97,3.11h-1.8l-2.26-7.63H54.15z"/>
			<path class="st86" d="M66.78,52.26c0,0.58-0.42,1.04-1.1,1.04c-0.64,0-1.06-0.46-1.06-1.04c0-0.59,0.43-1.04,1.08-1.04
				C66.36,51.22,66.77,51.67,66.78,52.26z M64.74,62.02v-7.63h1.93v7.63H64.74z"/>
			<path class="st86" d="M68.75,50.9h1.93v11.13h-1.93V50.9z"/>
			<path class="st86" d="M72.78,50.9h1.93v11.13h-1.93V50.9z"/>
			<path class="st86" d="M79.95,60.25c0.43,0.26,1.26,0.56,1.95,0.56c0.85,0,1.23-0.36,1.23-0.86c0-0.52-0.32-0.78-1.25-1.11
				c-1.49-0.51-2.11-1.32-2.11-2.23c0-1.34,1.11-2.39,2.89-2.39c0.84,0,1.58,0.21,2.02,0.46l-0.38,1.35
				c-0.32-0.18-0.94-0.44-1.61-0.44c-0.69,0-1.07,0.34-1.07,0.81c0,0.48,0.37,0.72,1.33,1.07c1.39,0.49,2.03,1.2,2.04,2.32
				c0,1.39-1.08,2.4-3.1,2.4c-0.92,0-1.76-0.22-2.32-0.53L79.95,60.25z"/>
			<path class="st86" d="M93.83,58.13c0,2.8-1.97,4.06-3.92,4.06c-2.15,0-3.82-1.49-3.82-3.93c0-2.5,1.65-4.04,3.95-4.04
				C92.31,54.22,93.83,55.82,93.83,58.13z M88.07,58.22c0,1.47,0.73,2.58,1.9,2.58c1.11,0,1.87-1.07,1.87-2.6
				c0-1.2-0.53-2.57-1.86-2.57C88.63,55.62,88.07,56.94,88.07,58.22z"/>
			<path class="st86" d="M95.42,50.9h1.93v11.13h-1.93V50.9z"/>
			<path class="st86" d="M100.66,54.39l1.24,3.87c0.22,0.67,0.38,1.29,0.52,1.91c0.19-0.63,0.36-1.23,0.57-1.91l1.21-3.87h2.03
				l-2.91,7.63h-1.9l-2.83-7.63H100.66z"/>
			<path class="st86" d="M108.56,58.74c0.05,1.38,1.12,1.99,2.36,1.99c0.89,0,1.52-0.14,2.1-0.35l0.29,1.33
				c-0.65,0.28-1.56,0.48-2.67,0.48c-2.48,0-3.93-1.53-3.93-3.87c0-2.11,1.28-4.1,3.73-4.1c2.48,0,3.29,2.04,3.29,3.71
				c0,0.36-0.03,0.65-0.07,0.81H108.56z M111.91,57.4c0.01-0.71-0.3-1.86-1.59-1.86c-1.19,0-1.68,1.08-1.77,1.86H111.91z"/>
			<path class="st86" d="M30.93,70.63l1.38,4.09c0.15,0.47,0.32,1.06,0.43,1.48c0.16-0.43,0.31-1,0.45-1.5l1.19-4.07h2.06
				l-1.91,5.21c-1.05,2.85-1.75,4.11-2.65,4.9c-0.76,0.66-1.54,0.91-2.02,0.97l-0.43-1.62c0.32-0.08,0.73-0.25,1.11-0.53
				c0.37-0.24,0.79-0.69,1.06-1.22c0.08-0.13,0.12-0.24,0.12-0.34c0-0.08-0.02-0.2-0.1-0.38l-2.8-7H30.93z"/>
			<path class="st86" d="M44.61,74.37c0,2.8-1.97,4.06-3.92,4.06c-2.15,0-3.82-1.49-3.82-3.93c0-2.5,1.65-4.04,3.95-4.04
				C43.09,70.46,44.61,72.06,44.61,74.37z M38.85,74.46c0,1.47,0.73,2.58,1.9,2.58c1.11,0,1.87-1.07,1.87-2.6
				c0-1.2-0.53-2.57-1.86-2.57C39.41,71.86,38.85,73.18,38.85,74.46z"/>
			<path class="st86" d="M53.02,75.98c0,0.91,0.03,1.66,0.06,2.28H51.4l-0.09-1.15c-0.37,0.54-1.12,1.33-2.49,1.33
				c-1.39,0-2.66-0.84-2.66-3.33v-4.47h1.93v4.15c0,1.27,0.4,2.08,1.42,2.08c0.77,0,1.27-0.54,1.47-1.03c0.06-0.17,0.1-0.37,0.1-0.6
				v-4.6h1.93V75.98z"/>
			<path class="st86" d="M55.11,73.09c0-1.02-0.02-1.77-0.06-2.45h1.67l0.07,1.45h0.05c0.38-1.07,1.26-1.62,2.09-1.62
				c0.19,0,0.3,0.01,0.45,0.04v1.82c-0.16-0.03-0.33-0.05-0.57-0.05c-0.92,0-1.56,0.58-1.73,1.46c-0.03,0.17-0.05,0.37-0.05,0.58
				v3.96h-1.93V73.09z"/>
			<path class="st86" d="M63.93,73.16c0-0.99-0.03-1.81-0.06-2.53h1.69l0.1,1.17c0.59-0.86,1.48-1.34,2.65-1.34
				c1.75,0,3.2,1.5,3.2,3.88c0,2.77-1.73,4.09-3.47,4.09c-0.96,0-1.75-0.4-2.14-1.02c-0.03,0-0.03,3.95-0.03,3.95h-1.93V73.16z
				 M65.86,75.07c0,0.19,0.02,0.36,0.05,0.53c0.2,0.78,0.88,1.35,1.69,1.35c1.22,0,1.94-1.02,1.94-2.51c0-1.35-0.66-2.45-1.9-2.45
				c-0.79,0-1.53,0.58-1.72,1.43c-0.04,0.15-0.07,0.33-0.07,0.49V75.07z"/>
			<path class="st86" d="M73.1,73.09c0-1.02-0.02-1.77-0.06-2.45h1.67l0.07,1.45h0.05c0.38-1.07,1.26-1.62,2.09-1.62
				c0.19,0,0.3,0.01,0.45,0.04v1.82c-0.16-0.03-0.33-0.05-0.57-0.05c-0.92,0-1.56,0.58-1.73,1.46c-0.03,0.17-0.05,0.37-0.05,0.58
				v3.96H73.1V73.09z"/>
			<path class="st86" d="M85.79,74.37c0,2.8-1.97,4.06-3.92,4.06c-2.15,0-3.82-1.49-3.82-3.93c0-2.5,1.65-4.04,3.95-4.04
				C84.27,70.46,85.79,72.06,85.79,74.37z M80.04,74.46c0,1.47,0.73,2.58,1.9,2.58c1.11,0,1.87-1.07,1.87-2.6
				c0-1.2-0.53-2.57-1.86-2.57C80.59,71.86,80.04,73.18,80.04,74.46z"/>
			<path class="st86" d="M87.31,78.26c0.04-0.51,0.06-1.36,0.06-2.14v-8.99h1.93v4.55c0.5-0.75,1.33-1.22,2.47-1.22
				c1.86,0,3.19,1.54,3.18,3.87c0,2.74-1.74,4.11-3.46,4.11c-0.98,0-1.85-0.38-2.4-1.32c-0.04,0-0.12,1.15-0.12,1.15H87.31z
				 M89.31,75.11c0,0.16,0.02,0.32,0.05,0.46c0.2,0.78,0.87,1.35,1.7,1.35c1.21,0,1.94-0.96,1.94-2.5c0-1.34-0.65-2.45-1.92-2.45
				c-0.78,0-1.5,0.56-1.71,1.41c-0.04,0.15-0.06,0.32-0.06,0.5V75.11z"/>
			<path class="st86" d="M96.55,67.14h1.93v11.12h-1.93V67.14z"/>
			<path class="st86" d="M101.93,74.98c0.05,1.38,1.12,1.99,2.36,1.99c0.89,0,1.52-0.14,2.1-0.35l0.29,1.33
				c-0.65,0.28-1.56,0.48-2.67,0.48c-2.48,0-3.93-1.53-3.93-3.87c0-2.11,1.28-4.1,3.73-4.1c2.48,0,3.29,2.04,3.29,3.71
				c0,0.36-0.03,0.65-0.07,0.81H101.93z M105.28,73.64c0.01-0.71-0.3-1.86-1.59-1.86c-1.19,0-1.68,1.08-1.77,1.86H105.28z"/>
			<path class="st86" d="M108.66,72.9c0-0.88-0.03-1.61-0.06-2.27h1.65l0.09,1.12c0.41-0.59,1.11-1.29,2.39-1.29
				c1.01,0,1.79,0.56,2.12,1.41c0.3-0.42,0.62-0.74,0.96-0.96c0.43-0.29,0.91-0.45,1.55-0.45c1.26,0,2.55,0.86,2.55,3.31v4.49h-1.88
				v-4.22c0-1.27-0.44-2.02-1.36-2.02c-0.66,0-1.14,0.47-1.34,1.02c-0.06,0.18-0.1,0.43-0.1,0.64v4.58h-1.88v-4.41
				c0-1.07-0.43-1.83-1.32-1.83c-0.72,0-1.21,0.57-1.39,1.09c-0.07,0.19-0.1,0.42-0.1,0.64v4.51h-1.88V72.9z"/>
			<path class="st86" d="M121.85,76.49c0.43,0.26,1.26,0.56,1.95,0.56c0.85,0,1.23-0.36,1.23-0.86c0-0.52-0.32-0.78-1.25-1.11
				c-1.49-0.51-2.11-1.32-2.11-2.23c0-1.34,1.11-2.39,2.89-2.39c0.84,0,1.58,0.21,2.02,0.46l-0.38,1.35
				c-0.32-0.18-0.94-0.44-1.61-0.44c-0.69,0-1.07,0.34-1.07,0.81c0,0.48,0.37,0.72,1.33,1.07c1.39,0.49,2.03,1.2,2.04,2.32
				c0,1.39-1.08,2.39-3.1,2.39c-0.92,0-1.76-0.22-2.32-0.53L121.85,76.49z"/>
		</g>
		<g>
			<path class="st87" d="M81.91,155.31H43.73c-7.35,0-13.36-6.01-13.36-13.36c0-7.35,6.01-13.36,13.36-13.36h38.18
				c7.35,0,13.36,6.01,13.36,13.36C95.27,149.3,89.25,155.31,81.91,155.31z"/>
			<g>
				<path class="st72" d="M38.35,138.66c0.51-0.09,1.27-0.15,2.11-0.15c1.04,0,1.77,0.16,2.28,0.56c0.42,0.33,0.65,0.83,0.65,1.47
					c0,0.89-0.64,1.51-1.24,1.73c0.49,0.23,0.76,0.7,0.94,1.34c0.22,0.8,0.43,1.71,0.57,1.99h-1.63c-0.11-0.2-0.28-0.77-0.48-1.64
					c-0.2-0.88-0.49-1.11-1.15-1.12h-0.47v2.76h-1.58V138.66z M39.93,141.68h0.62c0.79,0,1.26-0.4,1.26-1.01
					c0-0.64-0.44-0.97-1.17-0.98c-0.38,0-0.6,0.02-0.72,0.05V141.68z"/>
				<path class="st72" d="M45.73,143.55c0.05,0.66,0.7,0.97,1.44,0.97c0.54,0,0.98-0.07,1.41-0.22l0.21,1.07
					c-0.53,0.22-1.17,0.32-1.85,0.32c-1.73,0-2.72-1.01-2.72-2.6c0-1.3,0.81-2.73,2.57-2.73c1.66,0,2.28,1.29,2.28,2.55
					c0,0.28-0.03,0.51-0.06,0.63H45.73z M47.59,142.46c0-0.38-0.17-1.04-0.89-1.04c-0.67,0-0.94,0.61-0.99,1.04H47.59z"/>
				<path class="st72" d="M52.92,145.6l-0.09-0.51c-0.37,0.41-0.89,0.62-1.49,0.62c-1.04,0-1.65-0.75-1.65-1.56
					c0-1.33,1.19-1.96,3-1.96v-0.06c0-0.27-0.15-0.66-0.94-0.66c-0.52,0-1.07,0.18-1.41,0.38l-0.29-1.02
					c0.36-0.2,1.05-0.46,1.99-0.46c1.7,0,2.24,1.01,2.24,2.21v1.78c0,0.49,0.03,0.95,0.08,1.24H52.92z M52.73,143.18
					c-0.84,0-1.48,0.2-1.48,0.81c0,0.41,0.27,0.61,0.63,0.61c0.39,0,0.72-0.26,0.82-0.59c0.02-0.08,0.03-0.18,0.03-0.27V143.18z"/>
				<path class="st72" d="M60.47,138.18v5.89c0,0.58,0.02,1.18,0.04,1.53H59.1l-0.07-0.75c-0.34,0.57-0.96,0.86-1.62,0.86
					c-1.21,0-2.18-1.04-2.18-2.62c-0.01-1.72,1.07-2.72,2.29-2.72c0.63,0,1.11,0.22,1.34,0.58c0.02,0,0.02-2.76,0.02-2.76H60.47z
					 M58.88,142.65c0-0.09,0-0.2-0.02-0.29c-0.09-0.43-0.44-0.78-0.92-0.78c-0.73,0-1.1,0.65-1.1,1.45c0,0.86,0.42,1.4,1.09,1.4
					c0.45,0,0.82-0.31,0.92-0.76c0.03-0.11,0.03-0.23,0.03-0.36V142.65z"/>
				<path class="st72" d="M63.84,142.12c0-0.64-0.02-1.17-0.04-1.63h1.34l0.07,0.69c0.25-0.32,0.71-0.81,1.57-0.81
					c0.66,0,1.18,0.34,1.4,0.88c0.21-0.27,0.44-0.48,0.68-0.62c0.28-0.17,0.59-0.25,0.97-0.25c0.98,0,1.72,0.69,1.72,2.22v3.01
					h-1.54v-2.78c0-0.74-0.24-1.17-0.75-1.17c-0.37,0-0.62,0.25-0.73,0.55c-0.04,0.11-0.06,0.28-0.06,0.4v2.99h-1.55v-2.86
					c0-0.64-0.23-1.08-0.74-1.08c-0.41,0-0.65,0.31-0.74,0.57c-0.05,0.12-0.06,0.27-0.06,0.4v2.97h-1.55V142.12z"/>
				<path class="st72" d="M77.86,142.99c0,1.87-1.32,2.72-2.69,2.72c-1.49,0-2.64-0.98-2.64-2.63c0-1.65,1.09-2.71,2.73-2.71
					C76.82,140.37,77.86,141.45,77.86,142.99z M74.16,143.04c0,0.87,0.37,1.53,1.05,1.53c0.62,0,1.01-0.62,1.01-1.54
					c0-0.75-0.29-1.53-1.01-1.53C74.45,141.51,74.16,142.28,74.16,143.04z"/>
				<path class="st72" d="M78.83,142.17c0-0.75-0.01-1.24-0.04-1.68h1.36l0.06,0.95c0.3-0.75,0.92-1.06,1.42-1.06
					c0.15,0,0.22,0,0.34,0.03v1.49c-0.12-0.03-0.25-0.04-0.43-0.04c-0.58,0-0.98,0.31-1.09,0.81c-0.02,0.1-0.03,0.22-0.03,0.35v2.59
					h-1.59V142.17z"/>
				<path class="st72" d="M83.94,143.55c0.05,0.66,0.7,0.97,1.44,0.97c0.54,0,0.98-0.07,1.41-0.22l0.21,1.07
					c-0.53,0.22-1.17,0.32-1.85,0.32c-1.73,0-2.72-1.01-2.72-2.6c0-1.3,0.81-2.73,2.57-2.73c1.66,0,2.28,1.29,2.28,2.55
					c0,0.28-0.03,0.51-0.06,0.63H83.94z M85.81,142.46c0-0.38-0.17-1.04-0.89-1.04c-0.67,0-0.94,0.61-0.99,1.04H85.81z"/>
			</g>
			<g class="st88">
				<path class="st86" d="M29.64,91.88h0.96v4.45h2.16v0.81h-3.12V91.88z"/>
				<path class="st86" d="M36.97,95.2c0,1.39-0.98,2.02-1.95,2.02c-1.07,0-1.9-0.74-1.9-1.95c0-1.24,0.82-2.01,1.96-2.01
					C36.22,93.25,36.97,94.05,36.97,95.2z M34.11,95.24c0,0.73,0.36,1.28,0.94,1.28c0.55,0,0.93-0.53,0.93-1.29
					c0-0.6-0.26-1.28-0.93-1.28C34.39,93.95,34.11,94.6,34.11,95.24z"/>
				<path class="st86" d="M37.77,94.56c0-0.51-0.01-0.88-0.03-1.22h0.83l0.04,0.72c0.21-0.53,0.66-0.81,1.07-0.81
					c0.09,0,0.15,0,0.23,0.02v0.9c-0.08-0.02-0.17-0.03-0.28-0.03c-0.46,0-0.77,0.29-0.86,0.73c-0.02,0.08-0.02,0.19-0.02,0.29v1.97
					h-0.96V94.56z"/>
				<path class="st86" d="M41.15,95.5c0.03,0.69,0.56,0.99,1.17,0.99c0.44,0,0.76-0.07,1.05-0.18l0.14,0.66
					c-0.33,0.14-0.78,0.24-1.33,0.24c-1.23,0-1.95-0.76-1.95-1.92c0-1.05,0.64-2.04,1.86-2.04c1.23,0,1.63,1.01,1.63,1.85
					c0,0.18-0.02,0.32-0.03,0.4H41.15z M42.82,94.83c0-0.35-0.15-0.92-0.79-0.92c-0.59,0-0.84,0.54-0.88,0.92H42.82z"/>
				<path class="st86" d="M44.5,94.46c0-0.44-0.01-0.8-0.03-1.13h0.82l0.04,0.56c0.21-0.29,0.55-0.64,1.19-0.64
					c0.5,0,0.89,0.28,1.05,0.7c0.15-0.21,0.31-0.37,0.48-0.48c0.22-0.15,0.45-0.22,0.77-0.22c0.63,0,1.27,0.43,1.27,1.65v2.23h-0.94
					v-2.1c0-0.63-0.22-1-0.68-1c-0.33,0-0.57,0.23-0.67,0.5c-0.03,0.09-0.05,0.21-0.05,0.32v2.28h-0.94v-2.19
					c0-0.53-0.21-0.91-0.65-0.91c-0.36,0-0.6,0.28-0.69,0.54c-0.03,0.1-0.05,0.21-0.05,0.32v2.24H44.5V94.46z"/>
				<path class="st86" d="M53.74,92.27c0,0.29-0.21,0.52-0.55,0.52c-0.32,0-0.53-0.23-0.53-0.52c0-0.29,0.21-0.52,0.54-0.52
					C53.53,91.76,53.74,91.98,53.74,92.27z M52.73,97.13v-3.79h0.96v3.79H52.73z"/>
				<path class="st86" d="M54.72,94.59c0-0.49-0.01-0.9-0.03-1.26h0.84l0.05,0.58c0.29-0.43,0.74-0.67,1.32-0.67
					c0.87,0,1.59,0.74,1.59,1.93c0,1.38-0.86,2.04-1.73,2.04c-0.48,0-0.87-0.2-1.07-0.51c-0.02,0-0.02,1.96-0.02,1.96h-0.96V94.59z
					 M55.68,95.54c0,0.09,0.01,0.18,0.03,0.26c0.1,0.39,0.43,0.67,0.84,0.67c0.61,0,0.97-0.51,0.97-1.25c0-0.67-0.33-1.22-0.94-1.22
					c-0.39,0-0.76,0.29-0.86,0.71c-0.02,0.08-0.03,0.16-0.03,0.24V95.54z"/>
				<path class="st86" d="M59.24,96.25c0.21,0.13,0.62,0.28,0.97,0.28c0.42,0,0.61-0.18,0.61-0.43c0-0.26-0.16-0.39-0.62-0.55
					c-0.74-0.25-1.05-0.66-1.05-1.11c0-0.67,0.55-1.19,1.44-1.19c0.42,0,0.78,0.1,1.01,0.23l-0.19,0.67
					c-0.16-0.09-0.47-0.22-0.8-0.22c-0.34,0-0.53,0.17-0.53,0.4c0,0.24,0.18,0.36,0.66,0.53c0.69,0.24,1.01,0.6,1.01,1.16
					c0,0.69-0.54,1.19-1.54,1.19c-0.46,0-0.88-0.11-1.16-0.27L59.24,96.25z"/>
				<path class="st86" d="M65.93,95.99c0,0.45,0.01,0.83,0.03,1.14h-0.84l-0.05-0.57c-0.18,0.27-0.56,0.66-1.24,0.66
					c-0.69,0-1.32-0.42-1.32-1.65v-2.23h0.96v2.06c0,0.63,0.2,1.03,0.71,1.03c0.38,0,0.63-0.27,0.73-0.51
					c0.03-0.08,0.05-0.19,0.05-0.3v-2.29h0.96V95.99z"/>
				<path class="st86" d="M66.97,94.46c0-0.44-0.01-0.8-0.03-1.13h0.82l0.04,0.56c0.21-0.29,0.55-0.64,1.19-0.64
					c0.5,0,0.89,0.28,1.05,0.7c0.15-0.21,0.31-0.37,0.48-0.48c0.22-0.15,0.46-0.22,0.77-0.22c0.63,0,1.27,0.43,1.27,1.65v2.23h-0.94
					v-2.1c0-0.63-0.22-1-0.68-1c-0.33,0-0.57,0.23-0.67,0.5c-0.03,0.09-0.05,0.21-0.05,0.32v2.28H69.3v-2.19
					c0-0.53-0.21-0.91-0.65-0.91c-0.36,0-0.6,0.28-0.69,0.54c-0.03,0.1-0.05,0.21-0.05,0.32v2.24h-0.94V94.46z"/>
				<path class="st86" d="M78.7,91.6v4.47c0,0.39,0.01,0.81,0.03,1.06h-0.85l-0.04-0.6c-0.24,0.43-0.7,0.69-1.25,0.69
					c-0.91,0-1.62-0.77-1.62-1.94c-0.01-1.27,0.79-2.03,1.7-2.03c0.52,0,0.89,0.21,1.06,0.49c0.02,0,0.02-2.15,0.02-2.15H78.7z
					 M77.74,94.92c0-0.08,0-0.17-0.02-0.25c-0.08-0.37-0.39-0.67-0.82-0.67c-0.62,0-0.96,0.55-0.96,1.25c0,0.7,0.35,1.21,0.95,1.21
					c0.39,0,0.73-0.27,0.83-0.68c0.02-0.09,0.03-0.18,0.03-0.28V94.92z"/>
				<path class="st86" d="M83.34,95.2c0,1.39-0.98,2.02-1.95,2.02c-1.07,0-1.9-0.74-1.9-1.95c0-1.24,0.82-2.01,1.96-2.01
					C82.58,93.25,83.34,94.05,83.34,95.2z M80.47,95.24c0,0.73,0.36,1.28,0.94,1.28c0.55,0,0.93-0.53,0.93-1.29
					c0-0.6-0.26-1.28-0.93-1.28C80.75,93.95,80.47,94.6,80.47,95.24z"/>
				<path class="st86" d="M84.13,91.6h0.96v5.53h-0.96V91.6z"/>
				<path class="st86" d="M89.74,95.2c0,1.39-0.98,2.02-1.95,2.02c-1.07,0-1.9-0.74-1.9-1.95c0-1.24,0.82-2.01,1.96-2.01
					C88.98,93.25,89.74,94.05,89.74,95.2z M86.88,95.24c0,0.73,0.36,1.28,0.94,1.28c0.55,0,0.93-0.53,0.93-1.29
					c0-0.6-0.26-1.28-0.93-1.28C87.15,93.95,86.88,94.6,86.88,95.24z"/>
				<path class="st86" d="M90.53,94.56c0-0.51-0.01-0.88-0.03-1.22h0.83l0.04,0.72c0.21-0.53,0.66-0.81,1.07-0.81
					c0.09,0,0.15,0,0.23,0.02v0.9c-0.08-0.02-0.17-0.03-0.28-0.03c-0.46,0-0.77,0.29-0.86,0.73c-0.02,0.08-0.02,0.19-0.02,0.29v1.97
					h-0.96V94.56z"/>
				<path class="st86" d="M94.88,96.25c0.21,0.13,0.62,0.28,0.97,0.28c0.42,0,0.61-0.18,0.61-0.43c0-0.26-0.16-0.39-0.62-0.55
					c-0.74-0.25-1.05-0.66-1.05-1.11c0-0.67,0.55-1.19,1.44-1.19c0.42,0,0.78,0.1,1.01,0.23l-0.19,0.67
					c-0.16-0.09-0.47-0.22-0.8-0.22c-0.34,0-0.53,0.17-0.53,0.4c0,0.24,0.18,0.36,0.66,0.53c0.69,0.24,1.01,0.6,1.01,1.16
					c0,0.69-0.54,1.19-1.54,1.19c-0.46,0-0.88-0.11-1.16-0.27L94.88,96.25z"/>
				<path class="st86" d="M99.19,92.27c0,0.29-0.21,0.52-0.55,0.52c-0.32,0-0.53-0.23-0.53-0.52c0-0.29,0.21-0.52,0.54-0.52
					C98.98,91.76,99.19,91.98,99.19,92.27z M98.17,97.13v-3.79h0.96v3.79H98.17z"/>
				<path class="st86" d="M101.27,92.25v1.09h0.91v0.71h-0.91v1.67c0,0.46,0.12,0.7,0.49,0.7c0.16,0,0.29-0.02,0.37-0.04l0.02,0.73
					c-0.14,0.05-0.4,0.1-0.7,0.1c-0.35,0-0.65-0.12-0.82-0.31c-0.21-0.22-0.3-0.57-0.3-1.06v-1.78h-0.54v-0.71h0.54v-0.86
					L101.27,92.25z"/>
				<path class="st86" d="M106.66,97.13l-0.07-0.42c-0.25,0.3-0.65,0.51-1.14,0.51c-0.77,0-1.2-0.55-1.2-1.13
					c0-0.96,0.85-1.44,2.25-1.44v-0.06c0-0.25-0.1-0.66-0.77-0.66c-0.37,0-0.76,0.12-1.02,0.28l-0.19-0.62
					c0.29-0.17,0.78-0.34,1.38-0.34c1.22,0,1.56,0.77,1.56,1.6v1.37c0,0.34,0.02,0.68,0.06,0.91H106.66z M106.53,95.27
					c-0.68-0.01-1.32,0.13-1.32,0.71c0,0.37,0.24,0.55,0.55,0.55c0.38,0,0.66-0.25,0.75-0.53c0.02-0.07,0.03-0.14,0.03-0.21V95.27z"
					/>
				<path class="st86" d="M108.48,94.46c0-0.44-0.01-0.8-0.03-1.13h0.82l0.04,0.56c0.21-0.29,0.55-0.64,1.19-0.64
					c0.5,0,0.89,0.28,1.05,0.7c0.15-0.21,0.31-0.37,0.48-0.48c0.22-0.15,0.45-0.22,0.77-0.22c0.63,0,1.27,0.43,1.27,1.65v2.23h-0.94
					v-2.1c0-0.63-0.22-1-0.68-1c-0.33,0-0.57,0.23-0.67,0.5c-0.03,0.09-0.05,0.21-0.05,0.32v2.28h-0.94v-2.19
					c0-0.53-0.21-0.91-0.65-0.91c-0.36,0-0.6,0.28-0.69,0.54c-0.03,0.1-0.05,0.21-0.05,0.32v2.24h-0.94V94.46z"/>
				<path class="st86" d="M115.77,95.5c0.03,0.69,0.56,0.99,1.17,0.99c0.44,0,0.76-0.07,1.05-0.18l0.14,0.66
					c-0.33,0.14-0.78,0.24-1.33,0.24c-1.23,0-1.95-0.76-1.95-1.92c0-1.05,0.64-2.04,1.86-2.04c1.23,0,1.63,1.01,1.63,1.85
					c0,0.18-0.02,0.32-0.03,0.4H115.77z M117.44,94.83c0-0.35-0.15-0.92-0.79-0.92c-0.59,0-0.84,0.54-0.88,0.92H117.44z"/>
				<path class="st86" d="M120.22,92.25v1.09h0.91v0.71h-0.91v1.67c0,0.46,0.12,0.7,0.49,0.7c0.16,0,0.29-0.02,0.37-0.04l0.02,0.73
					c-0.14,0.05-0.4,0.1-0.7,0.1c-0.35,0-0.65-0.12-0.82-0.31c-0.21-0.22-0.3-0.57-0.3-1.06v-1.78h-0.54v-0.71h0.54v-0.86
					L120.22,92.25z"/>
				<path class="st86" d="M121.36,98.07c0.21-0.59,0.42-1.41,0.52-2.06l1.01-0.08c-0.22,0.74-0.57,1.57-0.88,2.08L121.36,98.07z"/>
				<path class="st86" d="M32.4,106.37c-0.2,0.09-0.59,0.2-1.07,0.2c-1.19,0-1.96-0.76-1.96-1.94c0-1.14,0.78-2.02,2.11-2.02
					c0.35,0,0.71,0.08,0.93,0.17l-0.17,0.72c-0.15-0.08-0.38-0.15-0.73-0.15c-0.73,0-1.17,0.53-1.16,1.23
					c0,0.78,0.51,1.22,1.17,1.22c0.33,0,0.57-0.07,0.75-0.15L32.4,106.37z"/>
				<path class="st86" d="M36.65,104.55c0,1.39-0.98,2.02-1.95,2.02c-1.07,0-1.9-0.74-1.9-1.95c0-1.24,0.82-2.01,1.96-2.01
					C35.89,102.61,36.65,103.4,36.65,104.55z M33.79,104.6c0,0.73,0.36,1.28,0.94,1.28c0.55,0,0.93-0.53,0.93-1.29
					c0-0.6-0.26-1.28-0.93-1.28C34.06,103.31,33.79,103.96,33.79,104.6z"/>
				<path class="st86" d="M37.44,103.82c0-0.44-0.01-0.8-0.03-1.13h0.84l0.05,0.57c0.19-0.29,0.6-0.66,1.23-0.66
					c0.66,0,1.35,0.43,1.35,1.63v2.25h-0.96v-2.14c0-0.54-0.2-0.96-0.72-0.96c-0.38,0-0.65,0.27-0.75,0.56
					c-0.03,0.08-0.04,0.2-0.04,0.3v2.23h-0.96V103.82z"/>
				<path class="st86" d="M41.86,105.61c0.21,0.13,0.62,0.28,0.97,0.28c0.42,0,0.61-0.18,0.61-0.43c0-0.26-0.16-0.39-0.62-0.55
					c-0.74-0.25-1.05-0.66-1.05-1.11c0-0.67,0.55-1.19,1.44-1.19c0.42,0,0.78,0.1,1.01,0.23l-0.19,0.67
					c-0.16-0.09-0.47-0.22-0.8-0.22c-0.34,0-0.53,0.17-0.53,0.4c0,0.24,0.18,0.36,0.66,0.53c0.69,0.24,1.01,0.6,1.01,1.16
					c0,0.69-0.54,1.19-1.54,1.19c-0.46,0-0.88-0.11-1.16-0.27L41.86,105.61z"/>
				<path class="st86" d="M45.83,104.86c0.03,0.69,0.56,0.99,1.17,0.99c0.44,0,0.76-0.07,1.05-0.18l0.14,0.66
					c-0.33,0.14-0.78,0.24-1.33,0.24c-1.23,0-1.95-0.76-1.95-1.92c0-1.05,0.64-2.04,1.86-2.04c1.23,0,1.63,1.01,1.63,1.85
					c0,0.18-0.02,0.32-0.03,0.4H45.83z M47.5,104.19c0-0.35-0.15-0.92-0.79-0.92c-0.59,0-0.84,0.54-0.88,0.92H47.5z"/>
				<path class="st86" d="M51.96,106.37c-0.2,0.09-0.6,0.2-1.07,0.2c-1.19,0-1.96-0.76-1.96-1.94c0-1.14,0.78-2.02,2.11-2.02
					c0.35,0,0.71,0.08,0.93,0.17l-0.17,0.72c-0.15-0.08-0.38-0.15-0.73-0.15c-0.73,0-1.17,0.53-1.16,1.23
					c0,0.78,0.51,1.22,1.17,1.22c0.33,0,0.57-0.07,0.75-0.15L51.96,106.37z"/>
				<path class="st86" d="M53.89,101.61v1.09h0.91v0.71h-0.91v1.67c0,0.46,0.12,0.7,0.49,0.7c0.16,0,0.29-0.02,0.37-0.04l0.02,0.73
					c-0.14,0.05-0.4,0.1-0.7,0.1c-0.35,0-0.65-0.12-0.82-0.31c-0.21-0.22-0.3-0.57-0.3-1.06v-1.78h-0.54v-0.71h0.54v-0.86
					L53.89,101.61z"/>
				<path class="st86" d="M56.16,104.86c0.03,0.69,0.56,0.99,1.17,0.99c0.44,0,0.76-0.07,1.05-0.18l0.14,0.66
					c-0.33,0.14-0.78,0.24-1.33,0.24c-1.23,0-1.95-0.76-1.95-1.92c0-1.05,0.64-2.04,1.86-2.04c1.23,0,1.63,1.01,1.63,1.85
					c0,0.18-0.02,0.32-0.03,0.4H56.16z M57.83,104.19c0-0.35-0.15-0.92-0.79-0.92c-0.59,0-0.84,0.54-0.88,0.92H57.83z"/>
				<path class="st86" d="M60.61,101.61v1.09h0.91v0.71h-0.91v1.67c0,0.46,0.12,0.7,0.49,0.7c0.16,0,0.29-0.02,0.37-0.04l0.02,0.73
					c-0.14,0.05-0.4,0.1-0.7,0.1c-0.35,0-0.65-0.12-0.82-0.31c-0.21-0.22-0.3-0.57-0.3-1.06v-1.78h-0.54v-0.71h0.54v-0.86
					L60.61,101.61z"/>
				<path class="st86" d="M65.64,105.35c0,0.45,0.01,0.83,0.03,1.14h-0.84l-0.05-0.57c-0.18,0.27-0.56,0.66-1.24,0.66
					c-0.69,0-1.32-0.42-1.32-1.65v-2.23h0.96v2.06c0,0.63,0.2,1.03,0.71,1.03c0.38,0,0.63-0.27,0.73-0.51
					c0.03-0.08,0.05-0.19,0.05-0.3v-2.29h0.96V105.35z"/>
				<path class="st86" d="M66.68,103.91c0-0.51-0.01-0.88-0.03-1.22h0.83l0.04,0.72c0.21-0.53,0.66-0.81,1.07-0.81
					c0.09,0,0.15,0,0.23,0.02v0.9c-0.08-0.02-0.17-0.03-0.28-0.03c-0.46,0-0.77,0.29-0.86,0.73c-0.02,0.08-0.02,0.19-0.02,0.29v1.97
					h-0.96V103.91z"/>
				<path class="st86" d="M73.21,106.49l-0.07-0.42c-0.25,0.3-0.65,0.51-1.14,0.51c-0.77,0-1.2-0.55-1.2-1.13
					c0-0.96,0.85-1.44,2.25-1.44v-0.06c0-0.25-0.1-0.66-0.77-0.66c-0.37,0-0.76,0.12-1.02,0.28l-0.19-0.62
					c0.29-0.17,0.78-0.34,1.38-0.34c1.22,0,1.56,0.77,1.56,1.6v1.37c0,0.34,0.02,0.68,0.06,0.91H73.21z M73.08,104.63
					c-0.68-0.01-1.32,0.13-1.32,0.71c0,0.37,0.24,0.55,0.55,0.55c0.38,0,0.66-0.25,0.75-0.53c0.02-0.07,0.03-0.14,0.03-0.21V104.63z
					"/>
				<path class="st86" d="M78.53,100.95v4.47c0,0.39,0.01,0.81,0.03,1.06h-0.85l-0.04-0.6c-0.24,0.43-0.7,0.69-1.25,0.69
					c-0.91,0-1.62-0.77-1.62-1.94c-0.01-1.27,0.79-2.03,1.7-2.03c0.52,0,0.89,0.21,1.06,0.49c0.02,0,0.02-2.15,0.02-2.15H78.53z
					 M77.57,104.27c0-0.08-0.01-0.17-0.02-0.25c-0.08-0.37-0.39-0.67-0.82-0.67c-0.62,0-0.96,0.54-0.96,1.25
					c0,0.7,0.35,1.21,0.95,1.21c0.39,0,0.73-0.27,0.83-0.68c0.02-0.09,0.03-0.18,0.03-0.28V104.27z"/>
				<path class="st86" d="M80.58,101.63c0,0.29-0.21,0.52-0.55,0.52c-0.32,0-0.53-0.23-0.53-0.52c0-0.29,0.21-0.52,0.54-0.52
					C80.37,101.11,80.58,101.34,80.58,101.63z M79.57,106.49v-3.79h0.96v3.79H79.57z"/>
				<path class="st86" d="M81.56,103.95c0-0.49-0.01-0.9-0.03-1.26h0.84l0.05,0.58c0.29-0.43,0.74-0.67,1.32-0.67
					c0.87,0,1.59,0.74,1.59,1.93c0,1.38-0.86,2.04-1.73,2.04c-0.48,0-0.87-0.2-1.07-0.51c-0.02,0-0.02,1.96-0.02,1.96h-0.96V103.95z
					 M82.52,104.9c0,0.09,0.01,0.18,0.03,0.26c0.1,0.39,0.44,0.67,0.84,0.67c0.61,0,0.97-0.51,0.97-1.25c0-0.67-0.33-1.22-0.94-1.22
					c-0.39,0-0.76,0.29-0.86,0.71c-0.02,0.08-0.03,0.16-0.03,0.24V104.9z"/>
				<path class="st86" d="M87.14,101.63c0,0.29-0.21,0.52-0.55,0.52c-0.32,0-0.53-0.23-0.53-0.52c0-0.29,0.21-0.52,0.54-0.52
					C86.93,101.11,87.14,101.34,87.14,101.63z M86.13,106.49v-3.79h0.96v3.79H86.13z"/>
				<path class="st86" d="M88.08,105.61c0.21,0.13,0.62,0.28,0.97,0.28c0.42,0,0.61-0.18,0.61-0.43c0-0.26-0.16-0.39-0.62-0.55
					c-0.74-0.25-1.05-0.66-1.05-1.11c0-0.67,0.55-1.19,1.44-1.19c0.42,0,0.78,0.1,1.01,0.23l-0.19,0.67
					c-0.16-0.09-0.47-0.22-0.8-0.22c-0.34,0-0.53,0.17-0.53,0.4c0,0.24,0.18,0.36,0.66,0.53c0.69,0.24,1.01,0.6,1.01,1.16
					c0,0.69-0.54,1.19-1.54,1.19c-0.46,0-0.88-0.11-1.16-0.27L88.08,105.61z"/>
				<path class="st86" d="M94.16,106.37c-0.2,0.09-0.6,0.2-1.07,0.2c-1.19,0-1.96-0.76-1.96-1.94c0-1.14,0.78-2.02,2.11-2.02
					c0.35,0,0.71,0.08,0.93,0.17L94,103.51c-0.15-0.08-0.38-0.15-0.73-0.15c-0.73,0-1.17,0.53-1.16,1.23c0,0.78,0.51,1.22,1.17,1.22
					c0.33,0,0.57-0.07,0.75-0.15L94.16,106.37z"/>
				<path class="st86" d="M95.89,101.63c0,0.29-0.21,0.52-0.55,0.52c-0.32,0-0.53-0.23-0.53-0.52c0-0.29,0.21-0.52,0.54-0.52
					C95.68,101.11,95.89,101.34,95.89,101.63z M94.88,106.49v-3.79h0.96v3.79H94.88z"/>
				<path class="st86" d="M96.87,103.82c0-0.44-0.01-0.8-0.03-1.13h0.84l0.05,0.57c0.19-0.29,0.6-0.66,1.23-0.66
					c0.66,0,1.35,0.43,1.35,1.63v2.25h-0.96v-2.14c0-0.54-0.2-0.96-0.72-0.96c-0.38,0-0.65,0.27-0.75,0.56
					c-0.03,0.08-0.04,0.2-0.04,0.3v2.23h-0.96V103.82z"/>
				<path class="st86" d="M104.8,102.69c-0.02,0.26-0.03,0.57-0.03,1.09v2.15c0,0.8-0.16,1.36-0.56,1.72
					c-0.4,0.35-0.95,0.46-1.47,0.46c-0.48,0-0.99-0.1-1.32-0.3l0.21-0.73c0.24,0.15,0.65,0.29,1.11,0.29c0.62,0,1.09-0.33,1.09-1.15
					v-0.32c-0.23,0.33-0.62,0.56-1.12,0.56c-0.94,0-1.61-0.78-1.61-1.85c0-1.25,0.81-2,1.72-2c0.58,0,0.92,0.28,1.1,0.59
					c0.02,0,0.05-0.51,0.05-0.51H104.8z M103.81,104.22c0-0.09-0.01-0.18-0.03-0.26c-0.1-0.35-0.38-0.62-0.78-0.62
					c-0.53,0-0.93,0.47-0.93,1.24c0,0.64,0.33,1.17,0.93,1.17c0.36,0,0.67-0.23,0.78-0.58c0.03-0.1,0.04-0.23,0.04-0.34V104.22z"/>
				<path class="st86" d="M108.09,104.86c0.03,0.69,0.56,0.99,1.17,0.99c0.44,0,0.76-0.07,1.05-0.18l0.14,0.66
					c-0.33,0.14-0.78,0.24-1.33,0.24c-1.23,0-1.95-0.76-1.95-1.92c0-1.05,0.64-2.04,1.86-2.04c1.23,0,1.63,1.01,1.63,1.85
					c0,0.18-0.02,0.32-0.03,0.4H108.09z M109.76,104.19c0-0.35-0.15-0.92-0.79-0.92c-0.59,0-0.84,0.54-0.88,0.92H109.76z"/>
				<path class="st86" d="M111.44,100.95h0.96v5.53h-0.96V100.95z"/>
				<path class="st86" d="M114.46,101.63c0,0.29-0.21,0.52-0.55,0.52c-0.32,0-0.53-0.23-0.53-0.52c0-0.29,0.21-0.52,0.54-0.52
					C114.25,101.11,114.46,101.34,114.46,101.63z M113.44,106.49v-3.79h0.96v3.79H113.44z"/>
				<path class="st86" d="M116.54,101.61v1.09h0.91v0.71h-0.91v1.67c0,0.46,0.12,0.7,0.49,0.7c0.16,0,0.29-0.02,0.37-0.04l0.02,0.73
					c-0.14,0.05-0.4,0.1-0.7,0.1c-0.35,0-0.65-0.12-0.82-0.31c-0.21-0.22-0.3-0.57-0.3-1.06v-1.78h-0.54v-0.71h0.54v-0.86
					L116.54,101.61z"/>
				<path class="st86" d="M118.01,105.96c0-0.36,0.25-0.62,0.59-0.62c0.35,0,0.59,0.25,0.59,0.62c0,0.35-0.24,0.61-0.59,0.61
					C118.25,106.57,118.01,106.31,118.01,105.96z"/>
			</g>
		</g>
	</g>
</g>
</svg>
