<?xml version="1.0" encoding="utf-8"?>
<!-- Generator: Adobe Illustrator 23.0.5, SVG Export Plug-In . SVG Version: 6.00 Build 0)  -->
<svg version="1.1" id="Capa_1" xmlns="http://www.w3.org/2000/svg" xmlns:xlink="http://www.w3.org/1999/xlink" x="0px" y="0px"
	 viewBox="0 0 349.46 202.48" style="enable-background:new 0 0 349.46 202.48;" xml:space="preserve">
<style type="text/css">
	.st0{opacity:0.07;fill:#FFFFFF;}
	.st1{opacity:0.0831;fill:#FDFDFD;}
	.st2{opacity:0.0962;fill:#FCFCFC;}
	.st3{opacity:0.1093;fill:#FAFAFA;}
	.st4{opacity:0.1224;fill:#F9F9F9;}
	.st5{opacity:0.1355;fill:#F7F7F7;}
	.st6{opacity:0.1486;fill:#F5F5F5;}
	.st7{opacity:0.1617;fill:#F4F4F4;}
	.st8{opacity:0.1748;fill:#F2F2F2;}
	.st9{opacity:0.1879;fill:#F0F0F0;}
	.st10{opacity:0.201;fill:#EFEFEF;}
	.st11{opacity:0.2141;fill:#EDEDED;}
	.st12{opacity:0.2272;fill:#ECECEC;}
	.st13{opacity:0.2403;fill:#EAEAEA;}
	.st14{opacity:0.2534;fill:#E8E8E8;}
	.st15{opacity:0.2665;fill:#E7E7E7;}
	.st16{opacity:0.2796;fill:#E5E5E5;}
	.st17{opacity:0.2927;fill:#E4E4E4;}
	.st18{opacity:0.3058;fill:#E2E2E2;}
	.st19{opacity:0.3189;fill:#E0E0E0;}
	.st20{opacity:0.332;fill:#DFDFDF;}
	.st21{opacity:0.3451;fill:#DDDDDD;}
	.st22{opacity:0.3582;fill:#DBDBDB;}
	.st23{opacity:0.3713;fill:#DADADA;}
	.st24{opacity:0.3844;fill:#D8D8D8;}
	.st25{opacity:0.3975;fill:#D7D7D7;}
	.st26{opacity:0.4106;fill:#D5D5D5;}
	.st27{opacity:0.4237;fill:#D3D3D3;}
	.st28{opacity:0.4368;fill:#D2D2D2;}
	.st29{opacity:0.4499;fill:#D0D0D0;}
	.st30{opacity:0.463;fill:#CFCFCF;}
	.st31{opacity:0.4761;fill:#CDCDCD;}
	.st32{opacity:0.4892;fill:#CBCBCB;}
	.st33{opacity:0.5023;fill:#CACACA;}
	.st34{opacity:0.5154;fill:#C8C8C8;}
	.st35{opacity:0.5285;fill:#C6C6C6;}
	.st36{opacity:0.5415;fill:#C5C5C5;}
	.st37{opacity:0.5546;fill:#C3C3C3;}
	.st38{opacity:0.5677;fill:#C2C2C2;}
	.st39{opacity:0.5808;fill:#C0C0C0;}
	.st40{opacity:0.5939;fill:#BEBEBE;}
	.st41{opacity:0.607;fill:#BDBDBD;}
	.st42{opacity:0.6201;fill:#BBBBBB;}
	.st43{opacity:0.6332;fill:#BABABA;}
	.st44{opacity:0.6463;fill:#B8B8B8;}
	.st45{opacity:0.6594;fill:#B6B6B6;}
	.st46{opacity:0.6725;fill:#B5B5B5;}
	.st47{opacity:0.6856;fill:#B3B3B3;}
	.st48{opacity:0.6987;fill:#B1B1B1;}
	.st49{opacity:0.7118;fill:#B0B0B0;}
	.st50{opacity:0.7249;fill:#AEAEAE;}
	.st51{opacity:0.738;fill:#ADADAD;}
	.st52{opacity:0.7511;fill:#ABABAB;}
	.st53{opacity:0.7642;fill:#A9A9A9;}
	.st54{opacity:0.7773;fill:#A8A8A8;}
	.st55{opacity:0.7904;fill:#A6A6A6;}
	.st56{opacity:0.8035;fill:#A4A4A4;}
	.st57{opacity:0.8166;fill:#A3A3A3;}
	.st58{opacity:0.8297;fill:#A1A1A1;}
	.st59{opacity:0.8428;fill:#A0A0A0;}
	.st60{opacity:0.8559;fill:#9E9E9E;}
	.st61{opacity:0.869;fill:#9C9C9C;}
	.st62{opacity:0.8821;fill:#9B9B9B;}
	.st63{opacity:0.8952;fill:#999999;}
	.st64{opacity:0.9083;fill:#989898;}
	.st65{opacity:0.9214;fill:#969696;}
	.st66{opacity:0.9345;fill:#949494;}
	.st67{opacity:0.9476;fill:#939393;}
	.st68{opacity:0.9607;fill:#919191;}
	.st69{opacity:0.9738;fill:#8F8F8F;}
	.st70{opacity:0.9869;fill:#8E8E8E;}
	.st71{fill:#8C8C8C;}
	.st72{fill:#FFFFFF;}
	.st73{fill:url(#SVGID_1_);}
	.st74{opacity:0.28;fill:#59266F;}
	.st75{fill:#020203;}
	.st76{fill:#754A98;}
	.st77{fill:#F7D6E8;}
	.st78{fill:#FAB712;}
	.st79{fill:#FDC842;}
	.st80{opacity:0.13;}
	.st81{fill:#2B639A;}
	.st82{fill:#4B8ECB;}
	.st83{fill:#F5BB8E;}
	.st84{fill:#EF9A57;}
	.st85{fill:#9E1460;}
	.st86{fill:#FCC12D;}
	.st87{opacity:0.57;}
</style>
<g>
	<g>
		<g>
			<path class="st0" d="M338.13,0.34l-326.81,0C5.1,0.34,0,5.43,0,11.66l0,179.82c0,6.23,5.1,11.33,11.33,11.33l326.81,0
				c6.23,0,11.33-5.1,11.33-11.33V11.66C349.46,5.43,344.36,0.34,338.13,0.34z"/>
			<path class="st1" d="M337.85,0.61l-326.25,0c-6.23,0-11.33,5.1-11.33,11.33l0,179.28c0,6.23,5.1,11.33,11.33,11.33l326.25,0
				c6.23,0,11.33-5.1,11.33-11.33V11.93C349.18,5.7,344.08,0.61,337.85,0.61z"/>
			<path class="st2" d="M337.57,0.88l-325.69,0c-6.23,0-11.33,5.1-11.33,11.33l0,178.74c0,6.23,5.1,11.33,11.33,11.33l325.69,0
				c6.23,0,11.33-5.1,11.33-11.33V12.2C348.9,5.97,343.8,0.88,337.57,0.88z"/>
			<path class="st3" d="M337.3,1.15l-325.13,0c-6.23,0-11.33,5.1-11.33,11.33l0,178.2c0,6.23,5.1,11.33,11.33,11.33l325.13,0
				c6.23,0,11.33-5.1,11.33-11.33V12.48C348.62,6.25,343.52,1.15,337.3,1.15z"/>
			<path class="st4" d="M337.02,1.42l-324.57,0c-6.23,0-11.33,5.1-11.33,11.33l0,177.65c0,6.23,5.1,11.33,11.33,11.33l324.57,0
				c6.23,0,11.33-5.1,11.33-11.33V12.75C348.34,6.52,343.25,1.42,337.02,1.42z"/>
			<path class="st5" d="M336.74,1.69l-324.02,0c-6.23,0-11.33,5.1-11.33,11.33l0,177.11c0,6.23,5.1,11.33,11.33,11.33l324.02,0
				c6.23,0,11.33-5.1,11.33-11.33V13.02C348.06,6.79,342.97,1.69,336.74,1.69z"/>
			<path class="st6" d="M336.46,1.96L13,1.96c-6.23,0-11.33,5.1-11.33,11.33l0,176.57c0,6.23,5.1,11.33,11.33,11.33l323.46,0
				c6.23,0,11.33-5.1,11.33-11.33V13.29C347.78,7.06,342.69,1.96,336.46,1.96z"/>
			<path class="st7" d="M336.18,2.23l-322.9,0c-6.23,0-11.33,5.1-11.33,11.33l0,176.02c0,6.23,5.1,11.33,11.33,11.33l322.9,0
				c6.23,0,11.33-5.1,11.33-11.33V13.56C347.51,7.33,342.41,2.23,336.18,2.23z"/>
			<path class="st8" d="M335.9,2.51l-322.34,0c-6.23,0-11.33,5.1-11.33,11.33l0,175.48c0,6.23,5.1,11.33,11.33,11.33l322.34,0
				c6.23,0,11.33-5.1,11.33-11.33V13.83C347.23,7.6,342.13,2.51,335.9,2.51z"/>
			<path class="st9" d="M335.62,2.78l-321.78,0c-6.23,0-11.33,5.1-11.33,11.33l0,174.94c0,6.23,5.1,11.33,11.33,11.33l321.78,0
				c6.23,0,11.33-5.1,11.33-11.33V14.1C346.95,7.87,341.85,2.78,335.62,2.78z"/>
			<path class="st10" d="M335.34,3.05l-321.23,0c-6.23,0-11.33,5.1-11.33,11.33l0,174.4c0,6.23,5.1,11.33,11.33,11.33l321.23,0
				c6.23,0,11.33-5.1,11.33-11.33V14.38C346.67,8.15,341.57,3.05,335.34,3.05z"/>
			<path class="st11" d="M335.06,3.32l-320.67,0c-6.23,0-11.33,5.1-11.33,11.33l0,173.85c0,6.23,5.1,11.33,11.33,11.33l320.67,0
				c6.23,0,11.33-5.1,11.33-11.33V14.65C346.39,8.42,341.29,3.32,335.06,3.32z"/>
			<path class="st12" d="M334.78,3.59l-320.11,0c-6.23,0-11.33,5.1-11.33,11.33l0,173.31c0,6.23,5.1,11.33,11.33,11.33l320.11,0
				c6.23,0,11.33-5.1,11.33-11.33V14.92C346.11,8.69,341.01,3.59,334.78,3.59z"/>
			<path class="st13" d="M334.51,3.86l-319.55,0c-6.23,0-11.33,5.1-11.33,11.33l0,172.77c0,6.23,5.1,11.33,11.33,11.33l319.55,0
				c6.23,0,11.33-5.1,11.33-11.33V15.19C345.83,8.96,340.74,3.86,334.51,3.86z"/>
			<path class="st14" d="M334.23,4.13l-319,0C9,4.13,3.91,9.23,3.91,15.46l0,172.22c0,6.23,5.1,11.33,11.33,11.33l319,0
				c6.23,0,11.33-5.1,11.33-11.33V15.46C345.55,9.23,340.46,4.13,334.23,4.13z"/>
			<path class="st15" d="M333.95,4.41l-318.44,0c-6.23,0-11.33,5.1-11.33,11.33l0,171.68c0,6.23,5.1,11.33,11.33,11.33l318.44,0
				c6.23,0,11.33-5.1,11.33-11.33V15.73C345.27,9.5,340.18,4.41,333.95,4.41z"/>
			<path class="st16" d="M333.67,4.68l-317.88,0C9.56,4.68,4.46,9.77,4.46,16l0,171.14c0,6.23,5.1,11.33,11.33,11.33l317.88,0
				c6.23,0,11.33-5.1,11.33-11.33V16C345,9.77,339.9,4.68,333.67,4.68z"/>
			<path class="st17" d="M333.39,4.95l-317.32,0c-6.23,0-11.33,5.1-11.33,11.33l0,170.6c0,6.23,5.1,11.33,11.33,11.33l317.32,0
				c6.23,0,11.33-5.1,11.33-11.33V16.28C344.72,10.05,339.62,4.95,333.39,4.95z"/>
			<path class="st18" d="M333.11,5.22l-316.76,0c-6.23,0-11.33,5.1-11.33,11.33l0,170.05c0,6.23,5.1,11.33,11.33,11.33l316.76,0
				c6.23,0,11.33-5.1,11.33-11.33V16.55C344.44,10.32,339.34,5.22,333.11,5.22z"/>
			<path class="st19" d="M332.83,5.49l-316.21,0c-6.23,0-11.33,5.1-11.33,11.33l0,169.51c0,6.23,5.1,11.33,11.33,11.33l316.21,0
				c6.23,0,11.33-5.1,11.33-11.33V16.82C344.16,10.59,339.06,5.49,332.83,5.49z"/>
			<path class="st20" d="M332.55,5.76l-315.65,0c-6.23,0-11.33,5.1-11.33,11.33l0,168.97c0,6.23,5.1,11.33,11.33,11.33l315.65,0
				c6.23,0,11.33-5.1,11.33-11.33V17.09C343.88,10.86,338.78,5.76,332.55,5.76z"/>
			<path class="st21" d="M332.27,6.03l-315.09,0c-6.23,0-11.33,5.1-11.33,11.33l0,168.43c0,6.23,5.1,11.33,11.33,11.33l315.09,0
				c6.23,0,11.33-5.1,11.33-11.33V17.36C343.6,11.13,338.5,6.03,332.27,6.03z"/>
			<path class="st22" d="M332,6.31l-314.53,0c-6.23,0-11.33,5.1-11.33,11.33l0,167.88c0,6.23,5.1,11.33,11.33,11.33l314.53,0
				c6.23,0,11.33-5.1,11.33-11.33V17.63C343.32,11.4,338.22,6.31,332,6.31z"/>
			<path class="st23" d="M331.72,6.58l-313.97,0c-6.23,0-11.33,5.1-11.33,11.33l0,167.34c0,6.23,5.1,11.33,11.33,11.33l313.97,0
				c6.23,0,11.33-5.1,11.33-11.33V17.9C343.04,11.67,337.95,6.58,331.72,6.58z"/>
			<path class="st24" d="M331.44,6.85l-313.42,0c-6.23,0-11.33,5.1-11.33,11.33l0,166.8c0,6.23,5.1,11.33,11.33,11.33l313.42,0
				c6.23,0,11.33-5.1,11.33-11.33V18.17C342.76,11.95,337.67,6.85,331.44,6.85z"/>
			<path class="st25" d="M331.16,7.12l-312.86,0c-6.23,0-11.33,5.1-11.33,11.33l0,166.25c0,6.23,5.1,11.33,11.33,11.33l312.86,0
				c6.23,0,11.33-5.1,11.33-11.33V18.45C342.48,12.22,337.39,7.12,331.16,7.12z"/>
			<path class="st26" d="M330.88,7.39l-312.3,0c-6.23,0-11.33,5.1-11.33,11.33l0,165.71c0,6.23,5.1,11.33,11.33,11.33l312.3,0
				c6.23,0,11.33-5.1,11.33-11.33V18.72C342.21,12.49,337.11,7.39,330.88,7.39z"/>
			<path class="st27" d="M330.6,7.66l-311.74,0c-6.23,0-11.33,5.1-11.33,11.33l0,165.17c0,6.23,5.1,11.33,11.33,11.33l311.74,0
				c6.23,0,11.33-5.1,11.33-11.33V18.99C341.93,12.76,336.83,7.66,330.6,7.66z"/>
			<path class="st28" d="M330.32,7.93l-311.19,0c-6.23,0-11.33,5.1-11.33,11.33l0,164.63c0,6.23,5.1,11.33,11.33,11.33l311.19,0
				c6.23,0,11.33-5.1,11.33-11.33V19.26C341.65,13.03,336.55,7.93,330.32,7.93z"/>
			<path class="st29" d="M330.04,8.21l-310.63,0c-6.23,0-11.33,5.1-11.33,11.33l0,164.08c0,6.23,5.1,11.33,11.33,11.33l310.63,0
				c6.23,0,11.33-5.1,11.33-11.33V19.53C341.37,13.3,336.27,8.21,330.04,8.21z"/>
			<path class="st30" d="M329.76,8.48l-310.07,0c-6.23,0-11.33,5.1-11.33,11.33l0,163.54c0,6.23,5.1,11.33,11.33,11.33l310.07,0
				c6.23,0,11.33-5.1,11.33-11.33V19.8C341.09,13.57,335.99,8.48,329.76,8.48z"/>
			<path class="st31" d="M329.48,8.75l-309.51,0c-6.23,0-11.33,5.1-11.33,11.33l0,163c0,6.23,5.1,11.33,11.33,11.33l309.51,0
				c6.23,0,11.33-5.1,11.33-11.33v-163C340.81,13.85,335.71,8.75,329.48,8.75z"/>
			<path class="st32" d="M329.21,9.02l-308.95,0c-6.23,0-11.33,5.1-11.33,11.33l0,162.45c0,6.23,5.1,11.33,11.33,11.33l308.95,0
				c6.23,0,11.33-5.1,11.33-11.33V20.35C340.53,14.12,335.44,9.02,329.21,9.02z"/>
			<path class="st33" d="M328.93,9.29l-308.4,0c-6.23,0-11.33,5.1-11.33,11.33l0,161.91c0,6.23,5.1,11.33,11.33,11.33l308.4,0
				c6.23,0,11.33-5.1,11.33-11.33V20.62C340.25,14.39,335.16,9.29,328.93,9.29z"/>
			<path class="st34" d="M328.65,9.56l-307.84,0c-6.23,0-11.33,5.1-11.33,11.33l0,161.37c0,6.23,5.1,11.33,11.33,11.33l307.84,0
				c6.23,0,11.33-5.1,11.33-11.33V20.89C339.97,14.66,334.88,9.56,328.65,9.56z"/>
			<path class="st35" d="M328.37,9.83l-307.28,0c-6.23,0-11.33,5.1-11.33,11.33l0,160.83c0,6.23,5.1,11.33,11.33,11.33l307.28,0
				c6.23,0,11.33-5.1,11.33-11.33V21.16C339.7,14.93,334.6,9.83,328.37,9.83z"/>
			<path class="st36" d="M328.09,10.11l-306.72,0c-6.23,0-11.33,5.1-11.33,11.33l0,160.28c0,6.23,5.1,11.33,11.33,11.33l306.72,0
				c6.23,0,11.33-5.1,11.33-11.33V21.43C339.42,15.2,334.32,10.11,328.09,10.11z"/>
			<path class="st37" d="M327.81,10.38l-306.16,0c-6.23,0-11.33,5.1-11.33,11.33l0,159.74c0,6.23,5.1,11.33,11.33,11.33l306.16,0
				c6.23,0,11.33-5.1,11.33-11.33V21.7C339.14,15.47,334.04,10.38,327.81,10.38z"/>
			<path class="st38" d="M327.53,10.65l-305.61,0c-6.23,0-11.33,5.1-11.33,11.33l0,159.2c0,6.23,5.1,11.33,11.33,11.33l305.61,0
				c6.23,0,11.33-5.1,11.33-11.33V21.97C338.86,15.75,333.76,10.65,327.53,10.65z"/>
			<path class="st39" d="M327.25,10.92l-305.05,0c-6.23,0-11.33,5.1-11.33,11.33l0,158.65c0,6.23,5.1,11.33,11.33,11.33l305.05,0
				c6.23,0,11.33-5.1,11.33-11.33V22.25C338.58,16.02,333.48,10.92,327.25,10.92z"/>
			<path class="st40" d="M326.97,11.19l-304.49,0c-6.23,0-11.33,5.1-11.33,11.33l0,158.11c0,6.23,5.1,11.33,11.33,11.33l304.49,0
				c6.23,0,11.33-5.1,11.33-11.33V22.52C338.3,16.29,333.2,11.19,326.97,11.19z"/>
			<path class="st41" d="M326.7,11.46l-303.93,0c-6.23,0-11.33,5.1-11.33,11.33l0,157.57c0,6.23,5.1,11.33,11.33,11.33l303.93,0
				c6.23,0,11.33-5.1,11.33-11.33V22.79C338.02,16.56,332.92,11.46,326.7,11.46z"/>
			<path class="st42" d="M326.42,11.73l-303.37,0c-6.23,0-11.33,5.1-11.33,11.33l0,157.03c0,6.23,5.1,11.33,11.33,11.33l303.37,0
				c6.23,0,11.33-5.1,11.33-11.33V23.06C337.74,16.83,332.65,11.73,326.42,11.73z"/>
			<path class="st43" d="M326.14,12.01l-302.82,0c-6.23,0-11.33,5.1-11.33,11.33l0,156.48c0,6.23,5.1,11.33,11.33,11.33l302.82,0
				c6.23,0,11.33-5.1,11.33-11.33V23.33C337.46,17.1,332.37,12.01,326.14,12.01z"/>
			<path class="st44" d="M325.86,12.28l-302.26,0c-6.23,0-11.33,5.1-11.33,11.33l0,155.94c0,6.23,5.1,11.33,11.33,11.33l302.26,0
				c6.23,0,11.33-5.1,11.33-11.33V23.6C337.18,17.37,332.09,12.28,325.86,12.28z"/>
			<path class="st45" d="M325.58,12.55l-301.7,0c-6.23,0-11.33,5.1-11.33,11.33l0,155.4c0,6.23,5.1,11.33,11.33,11.33l301.7,0
				c6.23,0,11.33-5.1,11.33-11.33V23.87C336.91,17.64,331.81,12.55,325.58,12.55z"/>
			<path class="st46" d="M325.3,12.82l-301.14,0c-6.23,0-11.33,5.1-11.33,11.33l0,154.86c0,6.23,5.1,11.33,11.33,11.33l301.14,0
				c6.23,0,11.33-5.1,11.33-11.33V24.15C336.63,17.92,331.53,12.82,325.3,12.82z"/>
			<path class="st47" d="M325.02,13.09l-300.59,0c-6.23,0-11.33,5.1-11.33,11.33l0,154.31c0,6.23,5.1,11.33,11.33,11.33l300.59,0
				c6.23,0,11.33-5.1,11.33-11.33V24.42C336.35,18.19,331.25,13.09,325.02,13.09z"/>
			<path class="st48" d="M324.74,13.36l-300.03,0c-6.23,0-11.33,5.1-11.33,11.33l0,153.77c0,6.23,5.1,11.33,11.33,11.33l300.03,0
				c6.23,0,11.33-5.1,11.33-11.33V24.69C336.07,18.46,330.97,13.36,324.74,13.36z"/>
			<path class="st49" d="M324.46,13.63l-299.47,0c-6.23,0-11.33,5.1-11.33,11.33l0,153.23c0,6.23,5.1,11.33,11.33,11.33l299.47,0
				c6.23,0,11.33-5.1,11.33-11.33V24.96C335.79,18.73,330.69,13.63,324.46,13.63z"/>
			<path class="st50" d="M324.18,13.9l-298.91,0c-6.23,0-11.33,5.1-11.33,11.33l0,152.68c0,6.23,5.1,11.33,11.33,11.33l298.91,0
				c6.23,0,11.33-5.1,11.33-11.33V25.23C335.51,19,330.41,13.9,324.18,13.9z"/>
			<path class="st51" d="M323.91,14.18l-298.35,0c-6.23,0-11.33,5.1-11.33,11.33l0,152.14c0,6.23,5.1,11.33,11.33,11.33l298.35,0
				c6.23,0,11.33-5.1,11.33-11.33V25.5C335.23,19.27,330.14,14.18,323.91,14.18z"/>
			<path class="st52" d="M323.63,14.45l-297.8,0c-6.23,0-11.33,5.1-11.33,11.33l0,151.6c0,6.23,5.1,11.33,11.33,11.33l297.8,0
				c6.23,0,11.33-5.1,11.33-11.33V25.77C334.95,19.54,329.86,14.45,323.63,14.45z"/>
			<path class="st53" d="M323.35,14.72l-297.24,0c-6.23,0-11.33,5.1-11.33,11.33l0,151.06c0,6.23,5.1,11.33,11.33,11.33l297.24,0
				c6.23,0,11.33-5.1,11.33-11.33V26.05C334.67,19.82,329.58,14.72,323.35,14.72z"/>
			<path class="st54" d="M323.07,14.99l-296.68,0c-6.23,0-11.33,5.1-11.33,11.33l0,150.51c0,6.23,5.1,11.33,11.33,11.33l296.68,0
				c6.23,0,11.33-5.1,11.33-11.33V26.32C334.4,20.09,329.3,14.99,323.07,14.99z"/>
			<path class="st55" d="M322.79,15.26l-296.12,0c-6.23,0-11.33,5.1-11.33,11.33l0,149.97c0,6.23,5.1,11.33,11.33,11.33l296.12,0
				c6.23,0,11.33-5.1,11.33-11.33V26.59C334.12,20.36,329.02,15.26,322.79,15.26z"/>
			<path class="st56" d="M322.51,15.53l-295.56,0c-6.23,0-11.33,5.1-11.33,11.33l0,149.43c0,6.23,5.1,11.33,11.33,11.33l295.56,0
				c6.23,0,11.33-5.1,11.33-11.33V26.86C333.84,20.63,328.74,15.53,322.51,15.53z"/>
			<path class="st57" d="M322.23,15.8l-295.01,0C21,15.8,15.9,20.9,15.9,27.13l0,148.88c0,6.23,5.1,11.33,11.33,11.33l295.01,0
				c6.23,0,11.33-5.1,11.33-11.33V27.13C333.56,20.9,328.46,15.8,322.23,15.8z"/>
			<path class="st58" d="M321.95,16.08l-294.45,0c-6.23,0-11.33,5.1-11.33,11.33l0,148.34c0,6.23,5.1,11.33,11.33,11.33l294.45,0
				c6.23,0,11.33-5.1,11.33-11.33V27.4C333.28,21.17,328.18,16.08,321.95,16.08z"/>
			<path class="st59" d="M321.67,16.35l-293.89,0c-6.23,0-11.33,5.1-11.33,11.33l0,147.8c0,6.23,5.1,11.33,11.33,11.33l293.89,0
				c6.23,0,11.33-5.1,11.33-11.33V27.67C333,21.44,327.9,16.35,321.67,16.35z"/>
			<path class="st60" d="M321.4,16.62l-293.33,0c-6.23,0-11.33,5.1-11.33,11.33l0,147.26c0,6.23,5.1,11.33,11.33,11.33l293.33,0
				c6.23,0,11.33-5.1,11.33-11.33V27.94C332.72,21.72,327.62,16.62,321.4,16.62z"/>
			<path class="st61" d="M321.12,16.89l-292.78,0c-6.23,0-11.33,5.1-11.33,11.33l0,146.71c0,6.23,5.1,11.33,11.33,11.33h292.78
				c6.23,0,11.33-5.1,11.33-11.33V28.22C332.44,21.99,327.35,16.89,321.12,16.89z"/>
			<path class="st62" d="M320.84,17.16l-292.22,0c-6.23,0-11.33,5.1-11.33,11.33l0,146.17c0,6.23,5.1,11.33,11.33,11.33l292.22,0
				c6.23,0,11.33-5.1,11.33-11.33V28.49C332.16,22.26,327.07,17.16,320.84,17.16z"/>
			<path class="st63" d="M320.56,17.43l-291.66,0c-6.23,0-11.33,5.1-11.33,11.33l0,145.63c0,6.23,5.1,11.33,11.33,11.33l291.66,0
				c6.23,0,11.33-5.1,11.33-11.33V28.76C331.88,22.53,326.79,17.43,320.56,17.43z"/>
			<path class="st64" d="M320.28,17.7l-291.1,0c-6.23,0-11.33,5.1-11.33,11.33l0,145.09c0,6.23,5.1,11.33,11.33,11.33l291.1,0
				c6.23,0,11.33-5.1,11.33-11.33V29.03C331.61,22.8,326.51,17.7,320.28,17.7z"/>
			<path class="st65" d="M320,17.98l-290.54,0c-6.23,0-11.33,5.1-11.33,11.33l0,144.54c0,6.23,5.1,11.33,11.33,11.33l290.54,0
				c6.23,0,11.33-5.1,11.33-11.33V29.3C331.33,23.07,326.23,17.98,320,17.98z"/>
			<path class="st66" d="M319.72,18.25l-289.99,0c-6.23,0-11.33,5.1-11.33,11.33l0,144c0,6.23,5.1,11.33,11.33,11.33h289.99
				c6.23,0,11.33-5.1,11.33-11.33v-144C331.05,23.34,325.95,18.25,319.72,18.25z"/>
			<path class="st67" d="M319.44,18.52l-289.43,0c-6.23,0-11.33,5.1-11.33,11.33l0,143.46c0,6.23,5.1,11.33,11.33,11.33h289.43
				c6.23,0,11.33-5.1,11.33-11.33V29.84C330.77,23.62,325.67,18.52,319.44,18.52z"/>
			<path class="st68" d="M319.16,18.79l-288.87,0c-6.23,0-11.33,5.1-11.33,11.33l0,142.91c0,6.23,5.1,11.33,11.33,11.33h288.87
				c6.23,0,11.33-5.1,11.33-11.33V30.12C330.49,23.89,325.39,18.79,319.16,18.79z"/>
			<path class="st69" d="M318.89,19.06l-288.31,0c-6.23,0-11.33,5.1-11.33,11.33l0,142.37c0,6.23,5.1,11.33,11.33,11.33h288.31
				c6.23,0,11.33-5.1,11.33-11.33V30.39C330.21,24.16,325.11,19.06,318.89,19.06z"/>
			<path class="st70" d="M318.61,19.33l-287.75,0c-6.23,0-11.33,5.1-11.33,11.33l0,141.83c0,6.23,5.1,11.33,11.33,11.33h287.75
				c6.23,0,11.33-5.1,11.33-11.33V30.66C329.93,24.43,324.84,19.33,318.61,19.33z"/>
			<path class="st71" d="M318.33,19.6H31.13c-6.23,0-11.33,5.1-11.33,11.33v141.29c0,6.23,5.1,11.33,11.33,11.33h287.2
				c6.23,0,11.33-5.1,11.33-11.33V30.93C329.65,24.7,324.56,19.6,318.33,19.6z"/>
		</g>
	</g>
	<rect x="6.45" y="9.96" class="st72" width="334.38" height="183.23"/>
	<linearGradient id="SVGID_1_" gradientUnits="userSpaceOnUse" x1="209.4498" y1="16.5476" x2="333.382" y2="169.3526">
		<stop  offset="0.0676" style="stop-color:#CA2F81"/>
		<stop  offset="0.2372" style="stop-color:#CA3784"/>
		<stop  offset="0.4867" style="stop-color:#CC4C90"/>
		<stop  offset="0.7841" style="stop-color:#D06DA5"/>
		<stop  offset="0.9895" style="stop-color:#D385B7"/>
	</linearGradient>
	<path class="st73" d="M163.91,58.72c-26.44,39.44,3.86,71.52,23.13,87.79c15.19,12.83,25.48,38.94,29.01,46.71h124.77V10
		l-85.48-0.07C242.68,13.08,186.71,24.71,163.91,58.72z"/>
	<g>
		<path class="st74" d="M215.11,156.61c1.22,4.02,7.95,6.33,47.43,6.33c3.19,0,18.12,16.79,42.07,14.89
			c23.94-1.91,8.95-23.5,3.84-25.88C303.33,149.56,211.58,144.94,215.11,156.61z"/>
		<g>
			<g>
				<g>
					<path class="st75" d="M198.71,140.34h115.43c3.2,0,5.8-2.6,5.8-5.8V69.07c0-3.2-2.6-5.8-5.8-5.8H198.71c-3.2,0-5.8,2.6-5.8,5.8
						v65.47C192.91,137.74,195.51,140.34,198.71,140.34z"/>
				</g>
				<g>
					<path class="st76" d="M200.08,130.94h112.68c1.34,0,2.43-1.09,2.43-2.43V69.28c0-1.34-1.09-2.43-2.43-2.43H200.08
						c-1.34,0-2.43,1.09-2.43,2.43v59.24C197.65,129.86,198.74,130.94,200.08,130.94z"/>
				</g>
				<g>
					<path class="st77" d="M259.43,136.02c0,1.66-1.35,3.01-3.01,3.01c-1.66,0-3.01-1.35-3.01-3.01c0-1.66,1.35-3.01,3.01-3.01
						C258.09,133.01,259.43,134.35,259.43,136.02z"/>
				</g>
				<g>
					<g>
						<path class="st78" d="M306.03,87.08h-55.88c-1.67,0-3.02,1.35-3.02,3.02v30.52c0,1.67,1.35,3.02,3.02,3.02h55.88
							c1.67,0,3.02-1.35,3.02-3.02V90.1C309.06,88.43,307.7,87.08,306.03,87.08z"/>
					</g>
					<g>
						<path class="st72" d="M274.87,97.61h27.73c1.04,0,1.89-0.85,1.89-1.89v-1.56c0-1.04-0.85-1.89-1.89-1.89h-27.73
							c-1.04,0-1.89,0.85-1.89,1.89v1.56C272.98,96.76,273.82,97.61,274.87,97.61z"/>
					</g>
					<g>
						<path class="st72" d="M274.87,104.55h27.73c1.04,0,1.89-0.85,1.89-1.89v-1.03c0-1.04-0.85-1.89-1.89-1.89h-27.73
							c-1.04,0-1.89,0.85-1.89,1.89v1.03C272.98,103.71,273.82,104.55,274.87,104.55z"/>
					</g>
					<g>
						<path class="st72" d="M274.87,111.37h27.73c1.04,0,1.89-0.85,1.89-1.89v-1.03c0-1.04-0.85-1.89-1.89-1.89h-27.73
							c-1.04,0-1.89,0.85-1.89,1.89v1.03C272.98,110.53,273.82,111.37,274.87,111.37z"/>
					</g>
					<g>
						<path class="st72" d="M274.87,118.19h27.73c1.04,0,1.89-0.85,1.89-1.89v-1.03c0-1.04-0.85-1.89-1.89-1.89h-27.73
							c-1.04,0-1.89,0.85-1.89,1.89v1.03C272.98,117.35,273.82,118.19,274.87,118.19z"/>
					</g>
				</g>
				<g>
					<g>
						<path class="st79" d="M207.32,112.34h55.88c1.67,0,3.02-1.35,3.02-3.02V78.8c0-1.67-1.35-3.02-3.02-3.02h-55.88
							c-1.67,0-3.02,1.35-3.02,3.02v30.52C204.29,110.98,205.65,112.34,207.32,112.34z"/>
					</g>
					<g>
						<path class="st72" d="M240,96.17h18.15c1.04,0,1.89-0.85,1.89-1.89v-1.03c0-1.04-0.85-1.89-1.89-1.89H240
							c-1.04,0-1.89,0.85-1.89,1.89v1.03C238.11,95.32,238.96,96.17,240,96.17z"/>
					</g>
					<g>
						<path class="st72" d="M240,102.99h18.15c1.04,0,1.89-0.85,1.89-1.89v-1.03c0-1.04-0.85-1.89-1.89-1.89H240
							c-1.04,0-1.89,0.85-1.89,1.89v1.03C238.11,102.14,238.96,102.99,240,102.99z"/>
					</g>
					<g>
						<path class="st72" d="M240,109.81h18.15c1.04,0,1.89-0.85,1.89-1.89v-1.03c0-1.04-0.85-1.89-1.89-1.89H240
							c-1.04,0-1.89,0.85-1.89,1.89v1.03C238.11,108.96,238.96,109.81,240,109.81z"/>
					</g>
					<g>
						<path class="st72" d="M210.86,96.17h18.15c1.04,0,1.89-0.85,1.89-1.89v-1.03c0-1.04-0.85-1.89-1.89-1.89h-18.15
							c-1.04,0-1.89,0.85-1.89,1.89v1.03C208.96,95.32,209.81,96.17,210.86,96.17z"/>
					</g>
					<g>
						<path class="st72" d="M210.86,102.99h18.15c1.04,0,1.89-0.85,1.89-1.89v-1.03c0-1.04-0.85-1.89-1.89-1.89h-18.15
							c-1.04,0-1.89,0.85-1.89,1.89v1.03C208.96,102.14,209.81,102.99,210.86,102.99z"/>
					</g>
					<g>
						<path class="st72" d="M210.86,109.81h18.15c1.04,0,1.89-0.85,1.89-1.89v-1.03c0-1.04-0.85-1.89-1.89-1.89h-18.15
							c-1.04,0-1.89,0.85-1.89,1.89v1.03C208.96,108.96,209.81,109.81,210.86,109.81z"/>
					</g>
				</g>
			</g>
			<g>
				
					<rect x="240.94" y="140.34" transform="matrix(-1 -1.224647e-16 1.224647e-16 -1 512.846 289.2646)" class="st75" width="30.97" height="8.59"/>
			</g>
			<g>
				<path class="st75" d="M226.37,157.27h60.11c1.39,0,2.52-1.13,2.52-2.52v-1.53c0-3.62-2.94-6.56-6.56-6.56H230.4
					c-3.62,0-6.56,2.94-6.56,6.56v1.53C223.84,156.14,224.97,157.27,226.37,157.27z"/>
			</g>
			<g class="st80">
				<g>
					<path class="st72" d="M237.19,90.32c-0.67-0.77-1.49-1.46-2.22-2.18c-1.6-1.56-3.21-3.12-4.81-4.69
						c-5.44-5.35-11.22-10.72-16.19-16.61h5.93c4.15,3.61,8.08,7.53,12.08,11.23c3,2.78,6.11,5.56,8.92,8.53
						c2.16,2.28,3.05,5.6,0.58,8.05c-2.3,2.27-5.83,2.28-8.83,2.46c-1.51,0.09-3.4,0.48-5.02,0.44c0.47,0.64,0.91,1.39,1.25,1.83
						c4.97,6.35,9.76,12.84,14.33,19.48c2.72,3.96,5.42,7.98,8.01,12.07h-6.84c-1.25-1.98-2.52-3.96-3.83-5.91
						c-4.5-6.72-9.15-13.34-14.04-19.79c-1.14-1.51-2.29-3-3.45-4.49c-1.11-1.42-2.35-2.76-2.17-4.7c0.36-3.7,4.52-3.91,7.36-4.06
						c2-0.1,4-0.2,6-0.31c0.72-0.04,3.05,0.01,3.49-0.75C237.67,91.07,237.46,90.64,237.19,90.32z"/>
				</g>
				<g>
					<path class="st72" d="M302.62,130.94h-36.18c-11.04-13.21-23.43-29-21.65-30.33c3.07-2.3,22.52-3.91,22.16-5.98
						c-0.25-1.42-18.45-17.32-29.98-27.78h30.59c0.04,0.04,0.08,0.09,0.11,0.12c20.76,20.32,27.57,31.1,26.57,33.21
						c-0.99,2.1-17.97,1.62-18.49,3.48C275.44,104.76,290.76,118.97,302.62,130.94z"/>
				</g>
			</g>
		</g>
		<g>
			<g>
				<path class="st75" d="M309.31,59.33c0,1.89-0.19,4.62-0.9,6.03c-0.71,1.41-3.55,2.85-3.55,2.85l-1.49-6.88L309.31,59.33z"/>
			</g>
			<g>
				<g>
					<path class="st75" d="M308.22,162.65c-1.48,4.46-1.32,7.19,0.32,8.93c1.63,1.74,5.27-3.39,4.2-5.71
						c-1.07-2.31-2.19-6.05-2.19-6.05L308.22,162.65z"/>
				</g>
			</g>
			<g>
				<g>
					<path class="st75" d="M291.24,165.74c-4.36,1.61-8.63,2.84-8.02,4.07c0.6,1.24,8.77,0.91,10.09-0.2
						c1.32-1.11,0.92-5.46,0.92-5.46L291.24,165.74z"/>
				</g>
			</g>
			<g>
				<g>
					<path class="st81" d="M298.13,71.13c-8.71,2.08-15.48,16-17.1,18.86c-2.03,3.58-2.68,8.74-0.34,9.06
						c2.34,0.32,14.7-13.18,15.98-15.25C297.96,81.73,298.13,71.13,298.13,71.13z"/>
				</g>
			</g>
			<g>
				<g>
					<path class="st75" d="M296.39,104.95c-4.51,3.23,7.18,35.41,8.11,37.37c0.93,1.96,2.72,22.57,2.72,22.57l6.01,0
						c0,0,1.64-12.84,1.64-16.83c-0.01-4.59-3.6-10.19-3.6-10.19s3.93-18.18,1.58-28.16C311.07,102.25,303.56,99.81,296.39,104.95z"
						/>
				</g>
			</g>
			<g>
				<g>
					<path class="st75" d="M293.5,104.31c-5.14,2.07-1.86,31.73-2.48,36.8c-0.27,2.16-1.55,24.6-1.55,24.6l6.21,0.83
						c0,0,2.92-12.95,3.86-16.82c1.08-4.46-0.52-9.24-0.52-9.24s9.26-17.39,9.34-27.64C308.41,105.17,301.69,101.02,293.5,104.31z"
						/>
				</g>
			</g>
			<g>
				<g>
					<path class="st82" d="M312,107.34c0.55-6.07-0.11-7.22,0.21-11.38c0.32-4.16-0.53-12.51-0.21-15.35
						c0.32-2.84-2.37-11.71-9.87-10.69c-8.61,1.18-9.51,4.98-10.47,12.62c-0.96,7.64-1.35,10.76-1.22,17.1
						c0.04,1.77,1.5,6.46,1.5,6.46s3.35,4.92,8.29,5.7C304.18,112.43,312,107.34,312,107.34z"/>
				</g>
			</g>
			<g>
				<g>
					<path class="st83" d="M307.85,71.56c-4.68,0.6-2.74,7.56,0.97,9.75c3.08,1.82,11.13,8.4,14.21,11.03
						c0.8-2.04,3.62-2.84,5.56-1.96C324.18,83.9,312.43,70.97,307.85,71.56z"/>
				</g>
			</g>
			<g>
				<g>
					<path class="st84" d="M298.7,73.79c0.69,0.92,4.37-1.1,4.96-1.83c0.59-0.73,1.04-2.65,0.8-4.57c-0.24-1.92-2.52-1.76-3.86-1.28
						C299.26,66.59,297.74,72.51,298.7,73.79z"/>
				</g>
			</g>
			<g>
				<g>
					<path class="st83" d="M300.63,51.97c-3.23-0.35-7.2,1.92-7.21,6.38c-0.02,5.05,1.96,12.39,5.49,12.38
						c2.99-0.01,8.75-2.23,9.51-9.05c0.07-0.65,1.42-1.61,1.14-3.41c-0.31-2.01-2.22-0.4-2.33-0.81
						C306.37,54.29,304.4,52.38,300.63,51.97z"/>
				</g>
			</g>
			<g>
				<g>
					<path class="st84" d="M297.45,61.33c-1.17,0.47-2.64,5.52-1.76,6.03c0.88,0.5,1.95,0.75,2.32,0.44
						C298.39,67.49,297.73,61.22,297.45,61.33z"/>
				</g>
			</g>
			<g>
				<g>
					<g>
						<path class="st81" d="M307.71,71.02c-4.7-0.44-2.77,8.62,0.05,11.88c3.05,3.53,12.19,7.31,15.27,9.93
							c0.8-2.04,5.68-1.36,7.62-0.49C326.6,84.22,313.36,71.54,307.71,71.02z"/>
					</g>
				</g>
				<g>
					<g>
						<g>
							<path class="st81" d="M322.57,91.33c0.25,0.79,0.42,1.33,0.46,1.5c0.2,0.9-8.72,4.84-12.89,8.29
								c-0.69,0.58,1.08,2.74,1.04,2.87c-0.28,0.91,18.42-5.24,20.33-9.85c0.18-0.43-1.47-3.48-3.03-5.8
								C327.28,86.58,324.32,90.01,322.57,91.33z"/>
						</g>
					</g>
					<g>
						<g>
							<path class="st84" d="M311.12,107.1c0.99-0.46,0.93-1.67,0.84-2.25c-0.09-0.58-1.28-1.68-1.28-1.68l-1.07,1.32L311.12,107.1z
								"/>
						</g>
					</g>
					<g>
						<g>
							<path class="st83" d="M310.14,101.12c-1.51,0.97-2.75,1.7-2.89,3.23c-0.14,1.53,2,2.64,3.36,2.78
								c1.36,0.14,0.45-1.07,0.5-1.5c0.05-0.43-0.64-1.21,1.08-1.69C313.28,103.65,313.31,99.07,310.14,101.12z"/>
						</g>
					</g>
				</g>
			</g>
			<g>
				<g>
					<path class="st83" d="M275.81,77.03c-0.36-2.54,0.02-3.86-0.24-5.68c-0.09-0.6-0.45-2.93-0.1-3.11
						c0.35-0.18,0.74,2.53,0.89,2.34c0.13-0.17-0.53-3.75-0.19-3.88c0.34-0.13,0.98,3.27,1.11,3.15c0.2-0.19-0.43-3.99-0.12-4.01
						c0.51-0.04,0.7,3.85,0.93,3.8c0.15-0.04-0.23-2.99,0.23-3.13c0.46-0.14,0.82,4.49,0.78,4.99c-0.05,0.51,1.97-2.2,2.62-1.57
						c0.34,0.33-1.09,2.3-2.39,3.52c-1.01,0.95-0.08,2.14,0.4,3.77c0.29,0.98-3.83,0.53-3.83,0.53L275.81,77.03z"/>
				</g>
			</g>
			<g>
				<g>
					<path class="st81" d="M276.09,81.67c-0.29-4.54-1.06-6.64-0.36-7.56c0.7-0.92,2.69-1.37,3.18,0.47
						c0.83,3.13,3.99,13.8,4.58,16.82c0.58,3.02,0.26,7.31-2.28,7.92C276.94,100.21,276.38,86.21,276.09,81.67z"/>
				</g>
			</g>
			<g>
				<g>
					<path class="st72" d="M312.68,165.25l-0.25-0.01c0.16-4.1,0.18-8.25,0.04-12.35c-0.08-2.46-0.22-5.07-0.96-7.49
						c-0.35-1.14-0.84-2.26-1.31-3.34c-0.75-1.73-1.53-3.52-1.76-5.42c-0.21-1.73-0.17-3.22,0.14-4.55
						c1.89-8.15,2.42-16.46,1.46-22.8l0.25-0.04c0.97,6.37,0.44,14.71-1.46,22.89c-0.3,1.3-0.34,2.76-0.14,4.46
						c0.23,1.87,1,3.64,1.75,5.35c0.48,1.09,0.97,2.22,1.32,3.37c0.75,2.46,0.89,5.08,0.98,7.56
						C312.86,156.99,312.84,161.15,312.68,165.25z"/>
				</g>
			</g>
			<g>
				<path class="st75" d="M297.99,50.85c-2.72,0.26-7.6,4.15-6.04,6.88c1.56,2.73,6.62,1.32,8.22,0.47
					c1.15-0.61,3.81,0.93,5.23,1.86c0.53,0.35,1.24,0.22,1.63-0.27c0.86-1.09,2.26-2.64,2.49-1.67c0.22,0.89-0.97-4.15-2.29-5.19
					C305.92,51.89,300.98,50.57,297.99,50.85z"/>
			</g>
		</g>
		<g>
			<path class="st72" d="M257.1,35.65c1.48-0.01,2.62,0.13,3.44,0.41c0.82,0.28,1.77,0.83,2.85,1.67c1.04,0.79,1.84,1.59,2.4,2.39
				c1.24,1.71,1.87,3.61,1.88,5.68c0.01,1.76-0.36,3.33-1.09,4.73c-0.73,1.4-1.96,2.66-3.67,3.79c-1.11,0.76-1.89,1.41-2.33,1.93
				c-0.44,0.52-0.79,1.18-1.07,1.98c-0.24,0.68-0.46,1.11-0.65,1.29c-0.2,0.18-0.58,0.27-1.14,0.27c-0.44,0-1.63-0.11-3.56-0.35
				c-1.94-0.23-3.09-0.39-3.44-0.47c-0.36-0.08-0.6-0.24-0.72-0.48c-0.12-0.24-0.18-0.48-0.18-0.72c0-0.36,0.25-1.34,0.77-2.94
				c0.51-1.6,0.95-2.62,1.31-3.06c0.4-0.52,1.11-1.04,2.15-1.57c0.96-0.48,1.64-0.93,2.06-1.36c0.42-0.42,0.66-0.95,0.74-1.59
				l0.06-0.24l0-0.18c0-1.04-0.53-1.55-1.56-1.55c-0.84,0-1.97,1.03-3.4,3.07c-0.48,0.68-0.83,1.02-1.07,1.02
				c-0.08,0-0.14-0.02-0.18-0.06l-0.18,0c-0.76-0.12-2.18-1.13-4.26-3.04c-0.72-0.68-1.08-1.21-1.08-1.61c0-0.4,0.24-1.04,0.71-1.92
				c0.79-1.48,2-2.87,3.64-4.18c1.63-1.3,3.26-2.18,4.9-2.62C255.21,35.75,256.11,35.65,257.1,35.65z M253.61,60.99
				c1.36-0.01,2.52,0.39,3.48,1.18c0.96,0.79,1.44,2.01,1.45,3.65c0,0.68-0.08,1.2-0.23,1.56c-0.28,0.84-0.87,1.55-1.79,2.13
				c-0.92,0.58-1.85,0.88-2.81,0.88c-1.4,0.01-2.53-0.43-3.39-1.3c-0.86-0.87-1.32-2.07-1.36-3.59l0-0.42c0-0.76,0.19-1.36,0.59-1.8
				c0.71-1.08,1.65-1.78,2.81-2.11C252.71,61.05,253.13,60.99,253.61,60.99z"/>
		</g>
		<g>
			<path class="st85" d="M322.97,141.56c0.86-0.31,1.57-0.47,2.1-0.48c0.54-0.01,1.21,0.12,2.02,0.38c0.78,0.25,1.41,0.55,1.91,0.89
				c1.09,0.74,1.85,1.72,2.29,2.94c0.37,1.03,0.49,2.03,0.35,3c-0.14,0.97-0.59,1.97-1.36,2.99c-0.49,0.68-0.81,1.22-0.96,1.62
				c-0.15,0.4-0.22,0.86-0.21,1.38c0,0.45-0.03,0.75-0.11,0.89c-0.08,0.15-0.28,0.28-0.61,0.4c-0.26,0.09-0.98,0.27-2.16,0.54
				c-1.18,0.27-1.89,0.42-2.12,0.45c-0.23,0.03-0.4-0.01-0.52-0.13c-0.12-0.11-0.21-0.24-0.26-0.38c-0.08-0.21-0.13-0.84-0.17-1.88
				c-0.03-1.04,0.01-1.73,0.12-2.07c0.12-0.39,0.43-0.84,0.93-1.37c0.46-0.48,0.77-0.89,0.92-1.23c0.16-0.33,0.19-0.7,0.1-1.09
				l-0.02-0.15l-0.04-0.11c-0.22-0.61-0.63-0.8-1.24-0.58c-0.49,0.18-0.94,1.01-1.35,2.51c-0.14,0.5-0.28,0.77-0.42,0.82
				c-0.05,0.02-0.09,0.02-0.12,0l-0.11,0.04c-0.47,0.09-1.51-0.21-3.13-0.89c-0.56-0.24-0.89-0.48-0.97-0.72
				c-0.08-0.23-0.08-0.66,0.01-1.27c0.15-1.03,0.57-2.1,1.26-3.21c0.68-1.11,1.46-1.96,2.32-2.56
				C321.88,142.02,322.39,141.77,322.97,141.56z M326.23,157.15c0.79-0.29,1.56-0.3,2.29-0.03c0.73,0.26,1.27,0.88,1.61,1.83
				c0.14,0.4,0.21,0.72,0.19,0.96c0.01,0.55-0.19,1.09-0.6,1.62c-0.42,0.53-0.9,0.9-1.46,1.1c-0.82,0.3-1.57,0.28-2.26-0.05
				c-0.69-0.33-1.2-0.94-1.55-1.82l-0.09-0.25c-0.16-0.44-0.17-0.84-0.03-1.18c0.19-0.78,0.59-1.39,1.2-1.82
				C325.71,157.37,325.95,157.25,326.23,157.15z"/>
		</g>
		<g>
			<path class="st85" d="M173.07,57.61c1.36-0.54,2.47-0.83,3.33-0.87c0.86-0.04,1.94,0.13,3.24,0.51c1.25,0.36,2.28,0.8,3.08,1.34
				c1.77,1.13,3.03,2.66,3.79,4.57c0.64,1.62,0.87,3.21,0.7,4.77c-0.17,1.56-0.85,3.17-2.02,4.82c-0.75,1.11-1.24,1.98-1.46,2.62
				c-0.22,0.64-0.31,1.38-0.27,2.22c0.03,0.71-0.02,1.19-0.14,1.43c-0.12,0.24-0.44,0.46-0.95,0.66c-0.41,0.16-1.54,0.48-3.42,0.97
				c-1.87,0.49-2.99,0.76-3.35,0.81c-0.36,0.06-0.64,0-0.84-0.18c-0.2-0.18-0.34-0.38-0.43-0.6c-0.13-0.33-0.25-1.33-0.35-2.99
				c-0.1-1.66-0.07-2.76,0.1-3.3c0.18-0.62,0.65-1.36,1.42-2.22c0.71-0.79,1.18-1.46,1.41-2c0.23-0.54,0.27-1.12,0.11-1.74
				L177,68.19l-0.07-0.17c-0.38-0.96-1.05-1.25-2-0.87c-0.77,0.31-1.45,1.66-2.04,4.06c-0.19,0.8-0.4,1.24-0.62,1.33
				c-0.07,0.03-0.14,0.03-0.19,0.01l-0.17,0.07c-0.74,0.17-2.42-0.26-5.04-1.27c-0.91-0.36-1.44-0.73-1.58-1.1
				c-0.15-0.37-0.16-1.04-0.04-2.03c0.2-1.65,0.81-3.38,1.85-5.17c1.04-1.79,2.23-3.19,3.58-4.19
				C171.36,58.39,172.15,57.97,173.07,57.61z M178.99,82.29c1.25-0.49,2.47-0.55,3.64-0.16c1.18,0.39,2.06,1.34,2.66,2.85
				c0.25,0.63,0.36,1.13,0.35,1.52c0.05,0.88-0.25,1.75-0.88,2.62c-0.64,0.87-1.4,1.48-2.28,1.83c-1.29,0.51-2.49,0.52-3.6,0.02
				c-1.11-0.5-1.96-1.44-2.55-2.82l-0.15-0.39c-0.28-0.7-0.31-1.32-0.1-1.88c0.27-1.26,0.88-2.24,1.83-2.96
				C178.18,82.67,178.55,82.46,178.99,82.29z"/>
		</g>
		<g>
			<path class="st72" d="M186.13,104.02c1.03,0.25,1.81,0.54,2.34,0.88c0.52,0.33,1.09,0.89,1.7,1.65c0.59,0.73,1.01,1.43,1.27,2.08
				c0.57,1.41,0.69,2.84,0.33,4.29c-0.3,1.23-0.82,2.27-1.58,3.12c-0.75,0.85-1.82,1.52-3.21,2.01c-0.91,0.34-1.56,0.66-1.96,0.94
				c-0.4,0.29-0.76,0.69-1.09,1.2c-0.28,0.43-0.51,0.7-0.68,0.79c-0.17,0.09-0.45,0.09-0.84,0c-0.31-0.07-1.12-0.36-2.43-0.85
				c-1.31-0.5-2.09-0.8-2.33-0.92c-0.24-0.12-0.38-0.27-0.42-0.46c-0.04-0.19-0.04-0.37,0-0.53c0.06-0.25,0.41-0.89,1.04-1.92
				c0.63-1.03,1.11-1.67,1.44-1.91c0.37-0.29,0.96-0.54,1.77-0.72c0.75-0.17,1.31-0.37,1.67-0.59c0.36-0.22,0.63-0.55,0.79-0.98
				l0.08-0.16l0.03-0.13c0.18-0.73-0.1-1.18-0.82-1.35c-0.59-0.14-1.55,0.38-2.9,1.56c-0.45,0.39-0.76,0.57-0.93,0.53
				c-0.06-0.01-0.09-0.04-0.12-0.07l-0.13-0.03c-0.51-0.21-1.33-1.16-2.45-2.86c-0.39-0.6-0.55-1.03-0.48-1.31
				c0.07-0.28,0.34-0.68,0.83-1.22c0.81-0.9,1.89-1.66,3.26-2.29c1.36-0.63,2.65-0.96,3.87-0.99
				C184.78,103.77,185.43,103.86,186.13,104.02z M179.32,121.12c0.95,0.23,1.69,0.71,2.22,1.43c0.53,0.72,0.66,1.65,0.39,2.8
				c-0.12,0.47-0.26,0.82-0.43,1.05c-0.34,0.54-0.88,0.93-1.62,1.18c-0.74,0.25-1.44,0.29-2.11,0.13c-0.98-0.24-1.69-0.73-2.14-1.49
				c-0.45-0.76-0.56-1.67-0.33-2.74l0.07-0.29c0.13-0.53,0.37-0.91,0.72-1.15c0.68-0.63,1.46-0.96,2.32-0.99
				C178.68,121.01,178.99,121.04,179.32,121.12z"/>
		</g>
	</g>
	<g>
		<g>
			<path class="st85" d="M30.43,60.05l-2.8-11.46h2.23l1.09,5.2c0.28,1.4,0.55,2.85,0.74,3.99c0.22-1.2,0.54-2.57,0.87-4.01
				l1.23-5.18H36l1.13,5.27c0.28,1.35,0.52,2.63,0.69,3.87c0.24-1.27,0.51-2.57,0.81-3.97l1.19-5.18h2.13l-3.09,11.46h-2.23
				l-1.19-5.4c-0.29-1.29-0.5-2.39-0.64-3.63c-0.23,1.23-0.45,2.33-0.79,3.63l-1.33,5.39H30.43z"/>
			<path class="st85" d="M44.1,56.49c0.06,1.5,1.22,2.15,2.56,2.15c0.96,0,1.65-0.15,2.28-0.38l0.31,1.44
				c-0.71,0.3-1.69,0.53-2.89,0.53c-2.69,0-4.26-1.66-4.26-4.2c0-2.28,1.39-4.45,4.05-4.45c2.69,0,3.57,2.21,3.57,4.02
				c0,0.39-0.03,0.7-0.07,0.88H44.1z M47.74,55.03c0.01-0.77-0.32-2.02-1.73-2.02c-1.29,0-1.82,1.17-1.92,2.02H47.74z"/>
			<path class="st85" d="M56.17,51.77l0.86,3.75c0.2,0.88,0.38,1.78,0.54,2.68c0.21-0.89,0.47-1.82,0.71-2.67l1.09-3.77h1.69
				l1.03,3.67c0.26,0.96,0.49,1.86,0.66,2.76c0.17-0.89,0.36-1.8,0.59-2.76l0.92-3.67h2.05l-2.59,8.28h-1.94l-0.99-3.37
				c-0.25-0.87-0.44-1.64-0.63-2.65c-0.21,1.02-0.42,1.83-0.67,2.65l-1.05,3.37h-1.95l-2.45-8.28H56.17z"/>
			<path class="st85" d="M69.87,49.46c0,0.63-0.45,1.13-1.19,1.13c-0.69,0-1.15-0.5-1.15-1.13c0-0.64,0.47-1.13,1.17-1.13
				C69.41,48.33,69.86,48.82,69.87,49.46z M67.65,60.05v-8.28h2.09v8.28H67.65z"/>
			<path class="st85" d="M72.01,47.98h2.09v12.07h-2.09V47.98z"/>
			<path class="st85" d="M76.38,47.98h2.09v12.07h-2.09V47.98z"/>
			<path class="st85" d="M88.92,60.05l-0.14-0.92h-0.05c-0.5,0.65-1.37,1.11-2.44,1.11c-1.68,0-2.61-1.2-2.61-2.46
				c0-2.09,1.86-3.15,4.91-3.13v-0.14c0-0.54-0.22-1.45-1.68-1.44c-0.81,0-1.66,0.26-2.22,0.62l-0.42-1.36
				c0.63-0.38,1.7-0.73,3-0.73c2.65,0,3.41,1.67,3.41,3.49v2.98c0,0.75,0.04,1.48,0.13,1.99H88.92z M88.64,56
				c-1.48-0.02-2.89,0.29-2.89,1.55c0,0.81,0.53,1.19,1.19,1.19c0.83,0,1.44-0.54,1.64-1.15c0.04-0.15,0.06-0.31,0.06-0.46V56z"/>
			<path class="st85" d="M92.9,54.24c0-0.96-0.03-1.74-0.07-2.46h1.83l0.1,1.24c0.41-0.64,1.31-1.43,2.69-1.43
				c1.44,0,2.94,0.93,2.94,3.55v4.92H98.3v-4.67c0-1.19-0.44-2.09-1.58-2.09c-0.83,0-1.41,0.59-1.63,1.23
				c-0.06,0.17-0.1,0.43-0.1,0.66v4.87H92.9V54.24z"/>
			<path class="st85" d="M102.52,58.13c0.46,0.29,1.36,0.6,2.11,0.6c0.92,0,1.33-0.39,1.33-0.93c0-0.56-0.34-0.85-1.36-1.21
				c-1.62-0.55-2.29-1.44-2.29-2.42c0-1.46,1.21-2.59,3.14-2.59c0.91,0,1.71,0.23,2.19,0.49l-0.42,1.47
				c-0.35-0.2-1.02-0.48-1.75-0.48c-0.74,0-1.16,0.37-1.16,0.88c0,0.52,0.4,0.78,1.45,1.16c1.51,0.53,2.2,1.3,2.21,2.52
				c0,1.51-1.18,2.6-3.36,2.6c-1,0-1.91-0.24-2.52-0.58L102.52,58.13z"/>
			<path class="st85" d="M110.96,51.77l0.86,3.75c0.2,0.88,0.38,1.78,0.54,2.68c0.21-0.89,0.47-1.82,0.71-2.67l1.08-3.77h1.69
				l1.03,3.67c0.26,0.96,0.49,1.86,0.66,2.76c0.17-0.89,0.36-1.8,0.59-2.76l0.92-3.67h2.05l-2.59,8.28h-1.94l-0.99-3.37
				c-0.25-0.87-0.44-1.64-0.63-2.65c-0.21,1.02-0.42,1.83-0.67,2.65l-1.05,3.37h-1.95l-2.45-8.28H110.96z"/>
			<path class="st85" d="M123.7,56.49c0.06,1.5,1.22,2.15,2.56,2.15c0.96,0,1.65-0.15,2.28-0.38l0.31,1.44
				c-0.71,0.3-1.69,0.53-2.89,0.53c-2.69,0-4.26-1.66-4.26-4.2c0-2.28,1.39-4.45,4.05-4.45c2.69,0,3.57,2.21,3.57,4.02
				c0,0.39-0.03,0.7-0.07,0.88H123.7z M127.34,55.03c0.01-0.77-0.32-2.02-1.73-2.02c-1.29,0-1.82,1.17-1.92,2.02H127.34z"/>
			<path class="st85" d="M130.99,54.44c0-1.11-0.02-1.92-0.07-2.66h1.81l0.08,1.57h0.06c0.41-1.17,1.37-1.76,2.27-1.76
				c0.2,0,0.32,0.01,0.49,0.05v1.97c-0.18-0.04-0.36-0.06-0.61-0.06c-1,0-1.69,0.63-1.88,1.58c-0.04,0.18-0.05,0.41-0.05,0.63v4.29
				h-2.09V54.44z"/>
			<path class="st85" d="M33.16,76.28l-0.14-0.92h-0.05c-0.5,0.65-1.37,1.11-2.44,1.11c-1.68,0-2.61-1.2-2.61-2.46
				c0-2.09,1.86-3.15,4.91-3.13v-0.14c0-0.54-0.22-1.45-1.68-1.44c-0.81,0-1.66,0.26-2.22,0.62l-0.42-1.36
				c0.63-0.38,1.7-0.73,3-0.73c2.65,0,3.41,1.67,3.41,3.49v2.98c0,0.75,0.04,1.48,0.13,1.99H33.16z M32.88,72.23
				c-1.48-0.02-2.89,0.29-2.89,1.55c0,0.81,0.53,1.19,1.19,1.19c0.83,0,1.44-0.54,1.64-1.15c0.04-0.15,0.06-0.31,0.06-0.46V72.23z"
				/>
			<path class="st85" d="M37.14,64.21h2.09v12.07h-2.09V64.21z"/>
			<path class="st85" d="M41.51,64.21h2.09v12.07h-2.09V64.21z"/>
			<path class="st85" d="M54.93,75.14c-0.52,0.8-1.39,1.33-2.6,1.33c-1.86,0-3.46-1.62-3.46-4.2c0-3.03,1.94-4.45,3.7-4.45
				c1.17,0,1.97,0.5,2.41,1.28c0.03,0,0.1-1.09,0.1-1.09h2.01c-0.03,0.75-0.06,1.53-0.06,2.39v9.25h-2.09V75.14z M54.93,71.42
				c0-0.17-0.02-0.35-0.05-0.51c-0.18-0.78-0.85-1.45-1.79-1.45c-1.34,0-2.1,1.14-2.1,2.71c0,1.5,0.72,2.64,2.06,2.64
				c0.84,0,1.54-0.54,1.79-1.38c0.06-0.19,0.09-0.44,0.09-0.64V71.42z"/>
			<path class="st85" d="M66.68,73.8c0,0.98,0.03,1.81,0.07,2.48h-1.83l-0.1-1.25c-0.4,0.58-1.22,1.44-2.7,1.44
				c-1.51,0-2.88-0.91-2.88-3.61v-4.85h2.09v4.5c0,1.37,0.43,2.25,1.54,2.25c0.84,0,1.38-0.58,1.6-1.12
				c0.07-0.18,0.11-0.4,0.11-0.65v-4.99h2.09V73.8z"/>
			<path class="st85" d="M70.42,72.72c0.06,1.5,1.22,2.15,2.56,2.15c0.96,0,1.65-0.15,2.28-0.38l0.31,1.44
				c-0.71,0.3-1.69,0.53-2.89,0.53c-2.69,0-4.26-1.66-4.26-4.2c0-2.28,1.39-4.45,4.05-4.45c2.69,0,3.57,2.21,3.57,4.02
				c0,0.39-0.03,0.7-0.07,0.88H70.42z M74.06,71.27c0.01-0.77-0.32-2.02-1.73-2.02c-1.29,0-1.82,1.17-1.92,2.02H74.06z"/>
			<path class="st85" d="M77.62,74.36c0.46,0.29,1.36,0.6,2.11,0.6c0.92,0,1.33-0.39,1.33-0.93c0-0.56-0.34-0.85-1.36-1.21
				c-1.62-0.55-2.29-1.44-2.29-2.42c0-1.46,1.21-2.59,3.14-2.59c0.91,0,1.71,0.23,2.2,0.49l-0.42,1.47
				c-0.35-0.2-1.02-0.48-1.75-0.48c-0.75,0-1.16,0.37-1.16,0.88c0,0.52,0.4,0.78,1.44,1.16c1.51,0.53,2.2,1.3,2.21,2.52
				c0,1.51-1.17,2.6-3.36,2.6c-1,0-1.91-0.24-2.52-0.58L77.62,74.36z"/>
			<path class="st85" d="M87.2,65.64v2.37h1.99v1.56H87.2v3.65c0,1.01,0.27,1.53,1.07,1.53c0.36,0,0.63-0.04,0.81-0.09l0.04,1.59
				c-0.31,0.12-0.86,0.21-1.52,0.21c-0.77,0-1.41-0.26-1.8-0.68c-0.45-0.48-0.66-1.24-0.66-2.32v-3.89h-1.18v-1.56h1.18v-1.87
				L87.2,65.64z"/>
			<path class="st85" d="M92.99,65.69c0,0.63-0.45,1.13-1.19,1.13c-0.69,0-1.15-0.5-1.15-1.13c0-0.64,0.47-1.13,1.17-1.13
				C92.53,64.56,92.98,65.05,92.99,65.69z M90.77,76.28v-8.28h2.09v8.28H90.77z"/>
			<path class="st85" d="M102.99,72.06c0,3.04-2.14,4.41-4.25,4.41c-2.33,0-4.14-1.61-4.14-4.26c0-2.71,1.79-4.39,4.28-4.39
				C101.34,67.82,102.99,69.56,102.99,72.06z M96.75,72.15c0,1.59,0.79,2.8,2.06,2.8c1.2,0,2.03-1.16,2.03-2.82
				c0-1.3-0.58-2.79-2.02-2.79C97.35,69.34,96.75,70.77,96.75,72.15z"/>
			<path class="st85" d="M104.71,70.47c0-0.96-0.03-1.74-0.07-2.46h1.83l0.1,1.24c0.42-0.64,1.31-1.43,2.69-1.43
				c1.44,0,2.94,0.93,2.94,3.55v4.92h-2.09v-4.67c0-1.19-0.44-2.09-1.58-2.09c-0.83,0-1.41,0.59-1.63,1.23
				c-0.06,0.17-0.1,0.43-0.1,0.66v4.87h-2.09V70.47z"/>
			<path class="st85" d="M114.34,74.36c0.46,0.29,1.36,0.6,2.11,0.6c0.92,0,1.33-0.39,1.33-0.93c0-0.56-0.34-0.85-1.36-1.21
				c-1.62-0.55-2.29-1.44-2.29-2.42c0-1.46,1.21-2.59,3.14-2.59c0.91,0,1.71,0.23,2.19,0.49l-0.42,1.47
				c-0.35-0.2-1.02-0.48-1.75-0.48c-0.74,0-1.16,0.37-1.16,0.88c0,0.52,0.4,0.78,1.45,1.16c1.51,0.53,2.2,1.3,2.21,2.52
				c0,1.51-1.18,2.6-3.36,2.6c-1,0-1.91-0.24-2.52-0.58L114.34,74.36z"/>
		</g>
	</g>
	<g>
		<path class="st86" d="M81.42,153.08H43.24c-7.35,0-13.36-6.01-13.36-13.36c0-7.35,6.01-13.36,13.36-13.36h38.18
			c7.35,0,13.36,6.01,13.36,13.36C94.78,147.07,88.76,153.08,81.42,153.08z"/>
		<g>
			<path class="st72" d="M37.86,136.43c0.51-0.09,1.27-0.15,2.11-0.15c1.04,0,1.77,0.16,2.28,0.56c0.42,0.33,0.65,0.83,0.65,1.47
				c0,0.89-0.64,1.51-1.24,1.73c0.49,0.23,0.76,0.7,0.94,1.34c0.22,0.8,0.43,1.71,0.57,1.99h-1.63c-0.11-0.2-0.28-0.77-0.48-1.64
				c-0.2-0.88-0.49-1.11-1.15-1.12h-0.47v2.76h-1.58V136.43z M39.44,139.46h0.62c0.79,0,1.26-0.4,1.26-1.01
				c0-0.64-0.44-0.97-1.17-0.98c-0.38,0-0.6,0.02-0.72,0.05V139.46z"/>
			<path class="st72" d="M45.24,141.32c0.05,0.66,0.7,0.97,1.44,0.97c0.54,0,0.98-0.07,1.41-0.22l0.21,1.07
				c-0.53,0.22-1.17,0.32-1.85,0.32c-1.73,0-2.72-1.01-2.72-2.6c0-1.3,0.81-2.73,2.57-2.73c1.66,0,2.28,1.29,2.28,2.55
				c0,0.28-0.03,0.51-0.06,0.63H45.24z M47.1,140.24c0-0.38-0.17-1.04-0.89-1.04c-0.67,0-0.94,0.61-0.99,1.04H47.1z"/>
			<path class="st72" d="M52.43,143.37l-0.09-0.51c-0.37,0.41-0.89,0.62-1.49,0.62c-1.04,0-1.65-0.75-1.65-1.56
				c0-1.33,1.19-1.96,3-1.96v-0.06c0-0.27-0.15-0.66-0.94-0.66c-0.52,0-1.07,0.18-1.41,0.38l-0.29-1.02
				c0.36-0.2,1.05-0.46,1.99-0.46c1.7,0,2.24,1.01,2.24,2.21v1.78c0,0.49,0.03,0.95,0.08,1.24H52.43z M52.24,140.95
				c-0.84,0-1.48,0.2-1.48,0.81c0,0.41,0.27,0.61,0.63,0.61c0.39,0,0.72-0.26,0.82-0.59c0.02-0.08,0.03-0.18,0.03-0.27V140.95z"/>
			<path class="st72" d="M59.98,135.96v5.89c0,0.58,0.02,1.18,0.04,1.53h-1.41l-0.07-0.75c-0.34,0.57-0.96,0.86-1.62,0.86
				c-1.21,0-2.18-1.04-2.18-2.62c-0.01-1.72,1.07-2.72,2.29-2.72c0.63,0,1.11,0.22,1.34,0.58c0.02,0,0.02-2.76,0.02-2.76H59.98z
				 M58.39,140.43c0-0.09,0-0.2-0.02-0.29c-0.09-0.43-0.44-0.78-0.92-0.78c-0.73,0-1.1,0.65-1.1,1.45c0,0.86,0.42,1.4,1.09,1.4
				c0.45,0,0.82-0.31,0.92-0.76c0.03-0.11,0.03-0.23,0.03-0.36V140.43z"/>
			<path class="st72" d="M63.35,139.89c0-0.64-0.02-1.17-0.04-1.63h1.34l0.07,0.69c0.25-0.32,0.71-0.81,1.57-0.81
				c0.66,0,1.18,0.34,1.4,0.88c0.21-0.27,0.44-0.48,0.68-0.62c0.28-0.17,0.59-0.25,0.97-0.25c0.98,0,1.72,0.69,1.72,2.22v3.01h-1.55
				v-2.78c0-0.74-0.24-1.17-0.75-1.17c-0.37,0-0.62,0.25-0.73,0.55c-0.04,0.11-0.06,0.28-0.06,0.4v2.99h-1.55v-2.86
				c0-0.64-0.23-1.08-0.74-1.08c-0.41,0-0.65,0.31-0.74,0.57c-0.05,0.12-0.06,0.27-0.06,0.4v2.97h-1.55V139.89z"/>
			<path class="st72" d="M77.37,140.76c0,1.87-1.32,2.72-2.69,2.72c-1.49,0-2.64-0.98-2.64-2.63c0-1.65,1.09-2.71,2.73-2.71
				C76.33,138.14,77.37,139.22,77.37,140.76z M73.67,140.82c0,0.87,0.37,1.53,1.04,1.53c0.62,0,1.01-0.62,1.01-1.54
				c0-0.75-0.29-1.53-1.01-1.53C73.96,139.28,73.67,140.06,73.67,140.82z"/>
			<path class="st72" d="M78.35,139.94c0-0.75-0.01-1.24-0.04-1.68h1.36l0.06,0.95c0.3-0.75,0.92-1.06,1.42-1.06
				c0.15,0,0.22,0,0.34,0.03v1.49c-0.12-0.03-0.25-0.04-0.43-0.04c-0.58,0-0.98,0.31-1.09,0.81c-0.02,0.1-0.03,0.22-0.03,0.35v2.59
				h-1.59V139.94z"/>
			<path class="st72" d="M83.45,141.32c0.05,0.66,0.7,0.97,1.44,0.97c0.54,0,0.98-0.07,1.41-0.22l0.21,1.07
				c-0.53,0.22-1.17,0.32-1.85,0.32c-1.73,0-2.72-1.01-2.72-2.6c0-1.3,0.81-2.73,2.57-2.73c1.66,0,2.28,1.29,2.28,2.55
				c0,0.28-0.03,0.51-0.06,0.63H83.45z M85.32,140.24c0-0.38-0.17-1.04-0.89-1.04c-0.67,0-0.94,0.61-0.99,1.04H85.32z"/>
		</g>
		<g class="st87">
			<path class="st85" d="M29.15,89.65h0.96v4.45h2.16v0.81h-3.12V89.65z"/>
			<path class="st85" d="M36.48,92.97c0,1.39-0.98,2.02-1.95,2.02c-1.07,0-1.9-0.74-1.9-1.95c0-1.24,0.82-2.01,1.96-2.01
				C35.73,91.02,36.48,91.82,36.48,92.97z M33.62,93.01c0,0.73,0.36,1.28,0.94,1.28c0.55,0,0.93-0.53,0.93-1.29
				c0-0.6-0.26-1.28-0.93-1.28C33.9,91.72,33.62,92.38,33.62,93.01z"/>
			<path class="st85" d="M37.28,92.33c0-0.51-0.01-0.88-0.03-1.22h0.83l0.04,0.72c0.21-0.53,0.66-0.81,1.07-0.81
				c0.09,0,0.15,0,0.23,0.02v0.9c-0.08-0.02-0.17-0.03-0.28-0.03c-0.46,0-0.77,0.29-0.86,0.73c-0.02,0.08-0.02,0.19-0.02,0.29v1.97
				h-0.96V92.33z"/>
			<path class="st85" d="M40.66,93.27c0.03,0.69,0.56,0.99,1.17,0.99c0.44,0,0.76-0.07,1.05-0.18l0.14,0.66
				c-0.33,0.14-0.78,0.24-1.33,0.24c-1.23,0-1.95-0.76-1.95-1.92c0-1.05,0.64-2.04,1.86-2.04c1.23,0,1.63,1.01,1.63,1.85
				c0,0.18-0.02,0.32-0.03,0.4H40.66z M42.33,92.6c0-0.35-0.15-0.92-0.79-0.92c-0.59,0-0.84,0.54-0.88,0.92H42.33z"/>
			<path class="st85" d="M44.01,92.24c0-0.44-0.01-0.8-0.03-1.13h0.82l0.04,0.56c0.21-0.29,0.55-0.64,1.19-0.64
				c0.5,0,0.89,0.28,1.05,0.7c0.15-0.21,0.31-0.37,0.48-0.48c0.22-0.15,0.46-0.22,0.77-0.22c0.63,0,1.27,0.43,1.27,1.65v2.23h-0.94
				v-2.1c0-0.63-0.22-1-0.68-1c-0.33,0-0.57,0.23-0.67,0.51c-0.03,0.09-0.05,0.21-0.05,0.32v2.28h-0.94v-2.19
				c0-0.53-0.21-0.91-0.65-0.91c-0.36,0-0.6,0.28-0.69,0.54c-0.03,0.1-0.05,0.21-0.05,0.32v2.24h-0.94V92.24z"/>
			<path class="st85" d="M53.25,90.05c0,0.29-0.21,0.52-0.55,0.52c-0.32,0-0.53-0.23-0.53-0.52c0-0.29,0.21-0.52,0.54-0.52
				C53.04,89.53,53.25,89.75,53.25,90.05z M52.24,94.9v-3.79h0.96v3.79H52.24z"/>
			<path class="st85" d="M54.23,92.37c0-0.49-0.01-0.9-0.03-1.26h0.84l0.05,0.58c0.29-0.43,0.74-0.67,1.32-0.67
				c0.87,0,1.59,0.75,1.59,1.93c0,1.38-0.86,2.04-1.73,2.04c-0.48,0-0.87-0.2-1.07-0.51c-0.02,0-0.02,1.96-0.02,1.96h-0.96V92.37z
				 M55.19,93.32c0,0.09,0.01,0.18,0.03,0.26c0.1,0.39,0.44,0.67,0.84,0.67c0.61,0,0.97-0.51,0.97-1.25c0-0.67-0.33-1.22-0.94-1.22
				c-0.39,0-0.76,0.29-0.86,0.71c-0.02,0.08-0.03,0.16-0.03,0.24V93.32z"/>
			<path class="st85" d="M58.75,94.02c0.21,0.13,0.62,0.28,0.97,0.28c0.42,0,0.61-0.18,0.61-0.43c0-0.26-0.16-0.39-0.62-0.55
				c-0.74-0.25-1.05-0.66-1.05-1.11c0-0.67,0.55-1.19,1.44-1.19c0.42,0,0.78,0.1,1.01,0.23l-0.19,0.67
				c-0.16-0.09-0.47-0.22-0.8-0.22c-0.34,0-0.53,0.17-0.53,0.4c0,0.24,0.18,0.36,0.66,0.53c0.69,0.24,1.01,0.6,1.01,1.16
				c0,0.69-0.54,1.19-1.54,1.19c-0.46,0-0.88-0.11-1.16-0.27L58.75,94.02z"/>
			<path class="st85" d="M65.44,93.77c0,0.45,0.01,0.83,0.03,1.14h-0.84l-0.05-0.57c-0.18,0.27-0.56,0.66-1.24,0.66
				c-0.69,0-1.32-0.42-1.32-1.65v-2.23h0.96v2.06c0,0.63,0.2,1.03,0.71,1.03c0.38,0,0.63-0.27,0.73-0.51
				c0.03-0.08,0.05-0.19,0.05-0.3v-2.29h0.96V93.77z"/>
			<path class="st85" d="M66.48,92.24c0-0.44-0.01-0.8-0.03-1.13h0.82l0.04,0.56c0.21-0.29,0.55-0.64,1.19-0.64
				c0.5,0,0.89,0.28,1.05,0.7c0.15-0.21,0.31-0.37,0.48-0.48c0.22-0.15,0.46-0.22,0.77-0.22c0.63,0,1.27,0.43,1.27,1.65v2.23h-0.94
				v-2.1c0-0.63-0.22-1-0.68-1c-0.33,0-0.57,0.23-0.67,0.51c-0.03,0.09-0.05,0.21-0.05,0.32v2.28h-0.94v-2.19
				c0-0.53-0.21-0.91-0.65-0.91c-0.36,0-0.6,0.28-0.69,0.54c-0.03,0.1-0.05,0.21-0.05,0.32v2.24h-0.94V92.24z"/>
			<path class="st85" d="M78.21,89.37v4.47c0,0.39,0.01,0.81,0.03,1.06h-0.85l-0.04-0.6c-0.24,0.43-0.7,0.69-1.25,0.69
				c-0.91,0-1.62-0.77-1.62-1.94c-0.01-1.27,0.79-2.03,1.7-2.03c0.52,0,0.89,0.21,1.06,0.49c0.02,0,0.02-2.15,0.02-2.15H78.21z
				 M77.25,92.69c0-0.08,0-0.17-0.02-0.25c-0.08-0.37-0.39-0.67-0.82-0.67c-0.62,0-0.96,0.55-0.96,1.25c0,0.7,0.35,1.21,0.95,1.21
				c0.39,0,0.73-0.27,0.83-0.68c0.02-0.09,0.03-0.18,0.03-0.28V92.69z"/>
			<path class="st85" d="M82.85,92.97c0,1.39-0.98,2.02-1.95,2.02c-1.07,0-1.9-0.74-1.9-1.95c0-1.24,0.82-2.01,1.96-2.01
				C82.09,91.02,82.85,91.82,82.85,92.97z M79.98,93.01c0,0.73,0.36,1.28,0.94,1.28c0.55,0,0.93-0.53,0.93-1.29
				c0-0.6-0.26-1.28-0.93-1.28C80.26,91.72,79.98,92.38,79.98,93.01z"/>
			<path class="st85" d="M83.64,89.37h0.96v5.53h-0.96V89.37z"/>
			<path class="st85" d="M89.25,92.97c0,1.39-0.98,2.02-1.95,2.02c-1.07,0-1.9-0.74-1.9-1.95c0-1.24,0.82-2.01,1.96-2.01
				C88.49,91.02,89.25,91.82,89.25,92.97z M86.39,93.01c0,0.73,0.36,1.28,0.94,1.28c0.55,0,0.93-0.53,0.93-1.29
				c0-0.6-0.26-1.28-0.93-1.28C86.66,91.72,86.39,92.38,86.39,93.01z"/>
			<path class="st85" d="M90.04,92.33c0-0.51-0.01-0.88-0.03-1.22h0.83l0.04,0.72c0.21-0.53,0.66-0.81,1.07-0.81
				c0.09,0,0.15,0,0.23,0.02v0.9c-0.08-0.02-0.17-0.03-0.28-0.03c-0.46,0-0.77,0.29-0.86,0.73C91.01,92.73,91,92.83,91,92.94v1.97
				h-0.96V92.33z"/>
			<path class="st85" d="M94.39,94.02c0.21,0.13,0.62,0.28,0.97,0.28c0.42,0,0.61-0.18,0.61-0.43c0-0.26-0.16-0.39-0.62-0.55
				c-0.74-0.25-1.05-0.66-1.05-1.11c0-0.67,0.55-1.19,1.44-1.19c0.42,0,0.78,0.1,1.01,0.23l-0.19,0.67
				c-0.16-0.09-0.47-0.22-0.8-0.22c-0.34,0-0.53,0.17-0.53,0.4c0,0.24,0.18,0.36,0.66,0.53c0.69,0.24,1.01,0.6,1.01,1.16
				c0,0.69-0.54,1.19-1.54,1.19c-0.46,0-0.88-0.11-1.16-0.27L94.39,94.02z"/>
			<path class="st85" d="M98.7,90.05c0,0.29-0.21,0.52-0.55,0.52c-0.32,0-0.53-0.23-0.53-0.52c0-0.29,0.21-0.52,0.54-0.52
				C98.49,89.53,98.7,89.75,98.7,90.05z M97.68,94.9v-3.79h0.96v3.79H97.68z"/>
			<path class="st85" d="M100.78,90.02v1.09h0.91v0.71h-0.91v1.67c0,0.46,0.12,0.7,0.49,0.7c0.16,0,0.29-0.02,0.37-0.04l0.02,0.73
				c-0.14,0.05-0.4,0.1-0.7,0.1c-0.35,0-0.65-0.12-0.82-0.31c-0.21-0.22-0.3-0.57-0.3-1.06v-1.78H99.3v-0.71h0.54v-0.86
				L100.78,90.02z"/>
			<path class="st85" d="M106.17,94.9l-0.07-0.42c-0.25,0.3-0.65,0.51-1.14,0.51c-0.77,0-1.2-0.55-1.2-1.13
				c0-0.96,0.85-1.44,2.25-1.44v-0.06c0-0.25-0.1-0.66-0.77-0.66c-0.37,0-0.76,0.12-1.02,0.28l-0.19-0.62
				c0.29-0.17,0.78-0.34,1.38-0.34c1.22,0,1.56,0.77,1.56,1.6v1.37c0,0.34,0.02,0.68,0.06,0.91H106.17z M106.04,93.05
				c-0.68-0.01-1.32,0.13-1.32,0.71c0,0.37,0.24,0.55,0.55,0.55c0.38,0,0.66-0.25,0.75-0.52c0.02-0.07,0.03-0.14,0.03-0.21V93.05z"
				/>
			<path class="st85" d="M107.99,92.24c0-0.44-0.01-0.8-0.03-1.13h0.82l0.04,0.56c0.21-0.29,0.55-0.64,1.19-0.64
				c0.5,0,0.89,0.28,1.05,0.7c0.15-0.21,0.31-0.37,0.48-0.48c0.22-0.15,0.46-0.22,0.77-0.22c0.63,0,1.27,0.43,1.27,1.65v2.23h-0.94
				v-2.1c0-0.63-0.22-1-0.68-1c-0.33,0-0.57,0.23-0.67,0.51c-0.03,0.09-0.05,0.21-0.05,0.32v2.28h-0.94v-2.19
				c0-0.53-0.21-0.91-0.65-0.91c-0.36,0-0.6,0.28-0.69,0.54c-0.03,0.1-0.05,0.21-0.05,0.32v2.24h-0.94V92.24z"/>
			<path class="st85" d="M115.28,93.27c0.03,0.69,0.56,0.99,1.17,0.99c0.44,0,0.76-0.07,1.05-0.18l0.14,0.66
				c-0.33,0.14-0.78,0.24-1.33,0.24c-1.23,0-1.95-0.76-1.95-1.92c0-1.05,0.64-2.04,1.86-2.04c1.23,0,1.63,1.01,1.63,1.85
				c0,0.18-0.02,0.32-0.03,0.4H115.28z M116.95,92.6c0-0.35-0.15-0.92-0.79-0.92c-0.59,0-0.84,0.54-0.88,0.92H116.95z"/>
			<path class="st85" d="M119.73,90.02v1.09h0.91v0.71h-0.91v1.67c0,0.46,0.12,0.7,0.49,0.7c0.16,0,0.29-0.02,0.37-0.04l0.02,0.73
				c-0.14,0.05-0.4,0.1-0.7,0.1c-0.35,0-0.65-0.12-0.82-0.31c-0.21-0.22-0.3-0.57-0.3-1.06v-1.78h-0.54v-0.71h0.54v-0.86
				L119.73,90.02z"/>
			<path class="st85" d="M120.87,95.85c0.21-0.59,0.42-1.41,0.52-2.06l1.01-0.08c-0.22,0.74-0.57,1.58-0.88,2.08L120.87,95.85z"/>
			<path class="st85" d="M31.91,104.15c-0.2,0.09-0.6,0.2-1.07,0.2c-1.19,0-1.96-0.76-1.96-1.94c0-1.14,0.78-2.02,2.11-2.02
				c0.35,0,0.71,0.08,0.93,0.17l-0.17,0.72c-0.15-0.08-0.38-0.15-0.73-0.15c-0.73,0-1.17,0.53-1.16,1.23c0,0.78,0.51,1.22,1.17,1.22
				c0.33,0,0.57-0.07,0.75-0.15L31.91,104.15z"/>
			<path class="st85" d="M36.16,102.33c0,1.39-0.98,2.02-1.95,2.02c-1.07,0-1.9-0.74-1.9-1.95c0-1.24,0.82-2.01,1.96-2.01
				C35.4,100.38,36.16,101.18,36.16,102.33z M33.3,102.37c0,0.73,0.36,1.28,0.94,1.28c0.55,0,0.93-0.53,0.93-1.29
				c0-0.6-0.26-1.28-0.93-1.28C33.57,101.08,33.3,101.74,33.3,102.37z"/>
			<path class="st85" d="M36.95,101.6c0-0.44-0.01-0.8-0.03-1.13h0.84l0.05,0.57c0.19-0.29,0.6-0.66,1.23-0.66
				c0.66,0,1.35,0.43,1.35,1.63v2.25h-0.96v-2.14c0-0.54-0.2-0.96-0.72-0.96c-0.38,0-0.65,0.27-0.75,0.56
				c-0.03,0.08-0.04,0.2-0.04,0.3v2.23h-0.96V101.6z"/>
			<path class="st85" d="M41.37,103.38c0.21,0.13,0.62,0.28,0.97,0.28c0.42,0,0.61-0.18,0.61-0.43c0-0.26-0.16-0.39-0.62-0.55
				c-0.74-0.25-1.05-0.66-1.05-1.11c0-0.67,0.55-1.19,1.44-1.19c0.42,0,0.78,0.1,1.01,0.23l-0.19,0.67
				c-0.16-0.09-0.47-0.22-0.8-0.22c-0.34,0-0.53,0.17-0.53,0.4c0,0.24,0.18,0.36,0.66,0.53c0.69,0.24,1.01,0.6,1.01,1.16
				c0,0.69-0.54,1.19-1.54,1.19c-0.46,0-0.88-0.11-1.16-0.27L41.37,103.38z"/>
			<path class="st85" d="M45.34,102.63c0.03,0.69,0.56,0.99,1.17,0.99c0.44,0,0.76-0.07,1.05-0.18l0.14,0.66
				c-0.33,0.14-0.78,0.24-1.33,0.24c-1.23,0-1.95-0.76-1.95-1.92c0-1.05,0.64-2.04,1.86-2.04c1.23,0,1.63,1.01,1.63,1.85
				c0,0.18-0.02,0.32-0.03,0.4H45.34z M47.01,101.96c0-0.35-0.15-0.92-0.79-0.92c-0.59,0-0.84,0.54-0.88,0.92H47.01z"/>
			<path class="st85" d="M51.47,104.15c-0.2,0.09-0.6,0.2-1.07,0.2c-1.19,0-1.96-0.76-1.96-1.94c0-1.14,0.78-2.02,2.11-2.02
				c0.35,0,0.71,0.08,0.93,0.17l-0.17,0.72c-0.15-0.08-0.38-0.15-0.73-0.15c-0.73,0-1.17,0.53-1.16,1.23c0,0.78,0.51,1.22,1.17,1.22
				c0.33,0,0.57-0.07,0.75-0.15L51.47,104.15z"/>
			<path class="st85" d="M53.4,99.38v1.09h0.91v0.71H53.4v1.67c0,0.46,0.12,0.7,0.49,0.7c0.16,0,0.29-0.02,0.37-0.04l0.02,0.73
				c-0.14,0.05-0.4,0.1-0.7,0.1c-0.35,0-0.65-0.12-0.82-0.31c-0.21-0.22-0.3-0.57-0.3-1.06v-1.78h-0.54v-0.71h0.54v-0.86L53.4,99.38
				z"/>
			<path class="st85" d="M55.67,102.63c0.03,0.69,0.56,0.99,1.17,0.99c0.44,0,0.76-0.07,1.05-0.18l0.14,0.66
				c-0.33,0.14-0.78,0.24-1.33,0.24c-1.23,0-1.95-0.76-1.95-1.92c0-1.05,0.64-2.04,1.86-2.04c1.23,0,1.63,1.01,1.63,1.85
				c0,0.18-0.02,0.32-0.03,0.4H55.67z M57.34,101.96c0-0.35-0.15-0.92-0.79-0.92c-0.59,0-0.84,0.54-0.88,0.92H57.34z"/>
			<path class="st85" d="M60.12,99.38v1.09h0.91v0.71h-0.91v1.67c0,0.46,0.12,0.7,0.49,0.7c0.16,0,0.29-0.02,0.37-0.04l0.02,0.73
				c-0.14,0.05-0.4,0.1-0.7,0.1c-0.35,0-0.65-0.12-0.82-0.31c-0.21-0.22-0.3-0.57-0.3-1.06v-1.78h-0.54v-0.71h0.54v-0.86
				L60.12,99.38z"/>
			<path class="st85" d="M65.15,103.13c0,0.45,0.01,0.83,0.03,1.14h-0.84l-0.05-0.57c-0.18,0.27-0.56,0.66-1.24,0.66
				c-0.69,0-1.32-0.42-1.32-1.65v-2.23h0.96v2.06c0,0.63,0.2,1.03,0.71,1.03c0.38,0,0.63-0.27,0.73-0.51
				c0.03-0.08,0.05-0.19,0.05-0.3v-2.29h0.96V103.13z"/>
			<path class="st85" d="M66.19,101.69c0-0.51-0.01-0.88-0.03-1.22h0.83l0.04,0.72c0.21-0.53,0.66-0.81,1.07-0.81
				c0.09,0,0.15,0,0.23,0.02v0.9c-0.08-0.02-0.17-0.03-0.28-0.03c-0.46,0-0.77,0.29-0.86,0.73c-0.02,0.08-0.02,0.19-0.02,0.29v1.97
				h-0.96V101.69z"/>
			<path class="st85" d="M72.72,104.26l-0.07-0.42c-0.25,0.3-0.65,0.51-1.14,0.51c-0.77,0-1.2-0.55-1.2-1.13
				c0-0.96,0.85-1.44,2.25-1.44v-0.06c0-0.25-0.1-0.66-0.77-0.66c-0.37,0-0.76,0.12-1.02,0.28l-0.19-0.62
				c0.29-0.17,0.78-0.34,1.38-0.34c1.22,0,1.56,0.77,1.56,1.6v1.37c0,0.34,0.02,0.68,0.06,0.91H72.72z M72.59,102.4
				c-0.68-0.01-1.32,0.13-1.32,0.71c0,0.37,0.24,0.55,0.55,0.55c0.38,0,0.66-0.25,0.75-0.52c0.02-0.07,0.03-0.14,0.03-0.21V102.4z"
				/>
			<path class="st85" d="M78.04,98.73v4.47c0,0.39,0.01,0.81,0.03,1.06h-0.85l-0.04-0.6c-0.24,0.43-0.7,0.69-1.25,0.69
				c-0.91,0-1.62-0.77-1.62-1.94c-0.01-1.27,0.79-2.03,1.7-2.03c0.52,0,0.89,0.21,1.06,0.49c0.02,0,0.02-2.15,0.02-2.15H78.04z
				 M77.08,102.05c0-0.08-0.01-0.17-0.02-0.25c-0.08-0.37-0.39-0.67-0.82-0.67c-0.62,0-0.96,0.55-0.96,1.25
				c0,0.7,0.35,1.21,0.95,1.21c0.39,0,0.73-0.27,0.83-0.68c0.02-0.09,0.03-0.18,0.03-0.28V102.05z"/>
			<path class="st85" d="M80.09,99.41c0,0.29-0.21,0.52-0.55,0.52c-0.32,0-0.53-0.23-0.53-0.52c0-0.29,0.21-0.52,0.54-0.52
				C79.88,98.89,80.09,99.11,80.09,99.41z M79.08,104.26v-3.79h0.96v3.79H79.08z"/>
			<path class="st85" d="M81.07,101.73c0-0.49-0.01-0.9-0.03-1.26h0.84l0.05,0.58c0.29-0.43,0.74-0.67,1.32-0.67
				c0.87,0,1.59,0.75,1.59,1.93c0,1.38-0.86,2.04-1.73,2.04c-0.48,0-0.87-0.2-1.07-0.51c-0.02,0-0.02,1.96-0.02,1.96h-0.96V101.73z
				 M82.03,102.67c0,0.09,0.01,0.18,0.03,0.26c0.1,0.39,0.44,0.67,0.84,0.67c0.61,0,0.97-0.51,0.97-1.25c0-0.67-0.33-1.22-0.94-1.22
				c-0.39,0-0.76,0.29-0.86,0.71c-0.02,0.08-0.03,0.16-0.03,0.24V102.67z"/>
			<path class="st85" d="M86.65,99.41c0,0.29-0.21,0.52-0.55,0.52c-0.32,0-0.53-0.23-0.53-0.52c0-0.29,0.21-0.52,0.54-0.52
				C86.44,98.89,86.65,99.11,86.65,99.41z M85.64,104.26v-3.79h0.96v3.79H85.64z"/>
			<path class="st85" d="M87.59,103.38c0.21,0.13,0.62,0.28,0.97,0.28c0.42,0,0.61-0.18,0.61-0.43c0-0.26-0.16-0.39-0.62-0.55
				c-0.74-0.25-1.05-0.66-1.05-1.11c0-0.67,0.55-1.19,1.44-1.19c0.42,0,0.78,0.1,1.01,0.23l-0.19,0.67
				c-0.16-0.09-0.47-0.22-0.8-0.22c-0.34,0-0.53,0.17-0.53,0.4c0,0.24,0.18,0.36,0.66,0.53c0.69,0.24,1.01,0.6,1.01,1.16
				c0,0.69-0.54,1.19-1.54,1.19c-0.46,0-0.88-0.11-1.16-0.27L87.59,103.38z"/>
			<path class="st85" d="M93.67,104.15c-0.2,0.09-0.6,0.2-1.07,0.2c-1.19,0-1.96-0.76-1.96-1.94c0-1.14,0.78-2.02,2.11-2.02
				c0.35,0,0.71,0.08,0.93,0.17l-0.17,0.72c-0.15-0.08-0.38-0.15-0.73-0.15c-0.73,0-1.17,0.53-1.16,1.23c0,0.78,0.51,1.22,1.17,1.22
				c0.33,0,0.57-0.07,0.75-0.15L93.67,104.15z"/>
			<path class="st85" d="M95.4,99.41c0,0.29-0.21,0.52-0.55,0.52c-0.32,0-0.53-0.23-0.53-0.52c0-0.29,0.21-0.52,0.54-0.52
				C95.19,98.89,95.4,99.11,95.4,99.41z M94.39,104.26v-3.79h0.96v3.79H94.39z"/>
			<path class="st85" d="M96.38,101.6c0-0.44-0.01-0.8-0.03-1.13h0.84l0.05,0.57c0.19-0.29,0.6-0.66,1.23-0.66
				c0.66,0,1.35,0.43,1.35,1.63v2.25h-0.96v-2.14c0-0.54-0.2-0.96-0.72-0.96c-0.38,0-0.65,0.27-0.75,0.56
				c-0.03,0.08-0.04,0.2-0.04,0.3v2.23h-0.96V101.6z"/>
			<path class="st85" d="M104.31,100.47c-0.02,0.26-0.03,0.57-0.03,1.09v2.15c0,0.8-0.16,1.36-0.56,1.72
				c-0.4,0.35-0.95,0.46-1.47,0.46c-0.48,0-0.99-0.1-1.32-0.3l0.21-0.73c0.24,0.15,0.65,0.29,1.11,0.29c0.62,0,1.09-0.33,1.09-1.15
				v-0.32c-0.23,0.33-0.62,0.56-1.12,0.56c-0.94,0-1.61-0.78-1.61-1.85c0-1.25,0.81-2,1.72-2c0.58,0,0.92,0.28,1.1,0.59
				c0.02,0,0.05-0.51,0.05-0.51H104.31z M103.32,101.99c0-0.09-0.01-0.18-0.03-0.26c-0.1-0.35-0.38-0.62-0.78-0.62
				c-0.53,0-0.93,0.47-0.93,1.24c0,0.64,0.33,1.17,0.93,1.17c0.36,0,0.67-0.23,0.78-0.58c0.03-0.1,0.04-0.23,0.04-0.34V101.99z"/>
			<path class="st85" d="M107.6,102.63c0.03,0.69,0.56,0.99,1.17,0.99c0.44,0,0.76-0.07,1.05-0.18l0.14,0.66
				c-0.33,0.14-0.78,0.24-1.33,0.24c-1.23,0-1.95-0.76-1.95-1.92c0-1.05,0.64-2.04,1.86-2.04c1.23,0,1.63,1.01,1.63,1.85
				c0,0.18-0.02,0.32-0.03,0.4H107.6z M109.27,101.96c0-0.35-0.15-0.92-0.79-0.92c-0.59,0-0.84,0.54-0.88,0.92H109.27z"/>
			<path class="st85" d="M110.95,98.73h0.96v5.53h-0.96V98.73z"/>
			<path class="st85" d="M113.97,99.41c0,0.29-0.21,0.52-0.55,0.52c-0.32,0-0.53-0.23-0.53-0.52c0-0.29,0.21-0.52,0.54-0.52
				C113.76,98.89,113.97,99.11,113.97,99.41z M112.95,104.26v-3.79h0.96v3.79H112.95z"/>
			<path class="st85" d="M116.05,99.38v1.09h0.91v0.71h-0.91v1.67c0,0.46,0.12,0.7,0.49,0.7c0.16,0,0.29-0.02,0.37-0.04l0.02,0.73
				c-0.14,0.05-0.4,0.1-0.7,0.1c-0.35,0-0.65-0.12-0.82-0.31c-0.21-0.22-0.3-0.57-0.3-1.06v-1.78h-0.54v-0.71h0.54v-0.86
				L116.05,99.38z"/>
			<path class="st85" d="M117.52,103.73c0-0.36,0.25-0.62,0.59-0.62c0.35,0,0.59,0.25,0.59,0.62c0,0.35-0.24,0.61-0.59,0.61
				C117.76,104.35,117.52,104.09,117.52,103.73z"/>
		</g>
	</g>
</g>
</svg>
