<?xml version="1.0" encoding="utf-8"?>
<!-- Generator: Adobe Illustrator 23.0.5, SVG Export Plug-In . SVG Version: 6.00 Build 0)  -->
<svg version="1.1" id="Capa_1" xmlns="http://www.w3.org/2000/svg" xmlns:xlink="http://www.w3.org/1999/xlink" x="0px" y="0px"
	 viewBox="0 0 349.46 202.48" style="enable-background:new 0 0 349.46 202.48;" xml:space="preserve">
<style type="text/css">
	.st0{opacity:0.07;fill:#FFFFFF;}
	.st1{opacity:0.0831;fill:#FDFDFD;}
	.st2{opacity:0.0962;fill:#FCFCFC;}
	.st3{opacity:0.1093;fill:#FAFAFA;}
	.st4{opacity:0.1224;fill:#F9F9F9;}
	.st5{opacity:0.1355;fill:#F7F7F7;}
	.st6{opacity:0.1486;fill:#F5F5F5;}
	.st7{opacity:0.1617;fill:#F4F4F4;}
	.st8{opacity:0.1748;fill:#F2F2F2;}
	.st9{opacity:0.1879;fill:#F0F0F0;}
	.st10{opacity:0.201;fill:#EFEFEF;}
	.st11{opacity:0.2141;fill:#EDEDED;}
	.st12{opacity:0.2272;fill:#ECECEC;}
	.st13{opacity:0.2403;fill:#EAEAEA;}
	.st14{opacity:0.2534;fill:#E8E8E8;}
	.st15{opacity:0.2665;fill:#E7E7E7;}
	.st16{opacity:0.2796;fill:#E5E5E5;}
	.st17{opacity:0.2927;fill:#E4E4E4;}
	.st18{opacity:0.3058;fill:#E2E2E2;}
	.st19{opacity:0.3189;fill:#E0E0E0;}
	.st20{opacity:0.332;fill:#DFDFDF;}
	.st21{opacity:0.3451;fill:#DDDDDD;}
	.st22{opacity:0.3582;fill:#DBDBDB;}
	.st23{opacity:0.3713;fill:#DADADA;}
	.st24{opacity:0.3844;fill:#D8D8D8;}
	.st25{opacity:0.3975;fill:#D7D7D7;}
	.st26{opacity:0.4106;fill:#D5D5D5;}
	.st27{opacity:0.4237;fill:#D3D3D3;}
	.st28{opacity:0.4368;fill:#D2D2D2;}
	.st29{opacity:0.4499;fill:#D0D0D0;}
	.st30{opacity:0.463;fill:#CFCFCF;}
	.st31{opacity:0.4761;fill:#CDCDCD;}
	.st32{opacity:0.4892;fill:#CBCBCB;}
	.st33{opacity:0.5023;fill:#CACACA;}
	.st34{opacity:0.5154;fill:#C8C8C8;}
	.st35{opacity:0.5285;fill:#C6C6C6;}
	.st36{opacity:0.5415;fill:#C5C5C5;}
	.st37{opacity:0.5546;fill:#C3C3C3;}
	.st38{opacity:0.5677;fill:#C2C2C2;}
	.st39{opacity:0.5808;fill:#C0C0C0;}
	.st40{opacity:0.5939;fill:#BEBEBE;}
	.st41{opacity:0.607;fill:#BDBDBD;}
	.st42{opacity:0.6201;fill:#BBBBBB;}
	.st43{opacity:0.6332;fill:#BABABA;}
	.st44{opacity:0.6463;fill:#B8B8B8;}
	.st45{opacity:0.6594;fill:#B6B6B6;}
	.st46{opacity:0.6725;fill:#B5B5B5;}
	.st47{opacity:0.6856;fill:#B3B3B3;}
	.st48{opacity:0.6987;fill:#B1B1B1;}
	.st49{opacity:0.7118;fill:#B0B0B0;}
	.st50{opacity:0.7249;fill:#AEAEAE;}
	.st51{opacity:0.738;fill:#ADADAD;}
	.st52{opacity:0.7511;fill:#ABABAB;}
	.st53{opacity:0.7642;fill:#A9A9A9;}
	.st54{opacity:0.7773;fill:#A8A8A8;}
	.st55{opacity:0.7904;fill:#A6A6A6;}
	.st56{opacity:0.8035;fill:#A4A4A4;}
	.st57{opacity:0.8166;fill:#A3A3A3;}
	.st58{opacity:0.8297;fill:#A1A1A1;}
	.st59{opacity:0.8428;fill:#A0A0A0;}
	.st60{opacity:0.8559;fill:#9E9E9E;}
	.st61{opacity:0.869;fill:#9C9C9C;}
	.st62{opacity:0.8821;fill:#9B9B9B;}
	.st63{opacity:0.8952;fill:#999999;}
	.st64{opacity:0.9083;fill:#989898;}
	.st65{opacity:0.9214;fill:#969696;}
	.st66{opacity:0.9345;fill:#949494;}
	.st67{opacity:0.9476;fill:#939393;}
	.st68{opacity:0.9607;fill:#919191;}
	.st69{opacity:0.9738;fill:#8F8F8F;}
	.st70{opacity:0.9869;fill:#8E8E8E;}
	.st71{fill:#8C8C8C;}
	.st72{fill:#FFFFFF;}
	.st73{fill:url(#SVGID_1_);}
	.st74{fill:#59266F;}
	.st75{opacity:0.28;fill:#59266F;}
	.st76{fill:#F197BF;}
	.st77{opacity:0.35;}
	.st78{opacity:0.11;}
	.st79{fill:#F5BB8E;}
	.st80{fill:#FCC12D;}
	.st81{fill:#DB0B81;}
	.st82{fill:#020203;}
	.st83{fill:#EF9A57;}
	.st84{fill:#4B8ECB;}
	.st85{fill:#2B639A;}
	.st86{opacity:0.53;}
</style>
<g>
	<g>
		<g>
			<path class="st0" d="M338.48,0.74l-326.81,0c-6.23,0-11.33,5.1-11.33,11.33l0,179.82c0,6.23,5.1,11.33,11.33,11.33l326.81,0
				c6.23,0,11.33-5.1,11.33-11.33V12.07C349.81,5.84,344.71,0.74,338.48,0.74z"/>
			<path class="st1" d="M338.2,1.02l-326.25,0c-6.23,0-11.33,5.1-11.33,11.33l0,179.28c0,6.23,5.1,11.33,11.33,11.33l326.25,0
				c6.23,0,11.33-5.1,11.33-11.33V12.34C349.53,6.11,344.43,1.02,338.2,1.02z"/>
			<path class="st2" d="M337.92,1.29l-325.69,0C6,1.29,0.91,6.38,0.91,12.61l0,178.74c0,6.23,5.1,11.33,11.33,11.33l325.69,0
				c6.23,0,11.33-5.1,11.33-11.33V12.61C349.25,6.38,344.15,1.29,337.92,1.29z"/>
			<path class="st3" d="M337.64,1.56l-325.13,0c-6.23,0-11.33,5.1-11.33,11.33l0,178.2c0,6.23,5.1,11.33,11.33,11.33l325.13,0
				c6.23,0,11.33-5.1,11.33-11.33V12.89C348.97,6.66,343.87,1.56,337.64,1.56z"/>
			<path class="st4" d="M337.36,1.83l-324.57,0c-6.23,0-11.33,5.1-11.33,11.33l0,177.65c0,6.23,5.1,11.33,11.33,11.33l324.57,0
				c6.23,0,11.33-5.1,11.33-11.33V13.16C348.69,6.93,343.59,1.83,337.36,1.83z"/>
			<path class="st5" d="M337.09,2.1l-324.02,0C6.84,2.1,1.74,7.2,1.74,13.43l0,177.11c0,6.23,5.1,11.33,11.33,11.33l324.02,0
				c6.23,0,11.33-5.1,11.33-11.33V13.43C348.41,7.2,343.31,2.1,337.09,2.1z"/>
			<path class="st6" d="M336.81,2.37l-323.46,0c-6.23,0-11.33,5.1-11.33,11.33l0,176.57c0,6.23,5.1,11.33,11.33,11.33l323.46,0
				c6.23,0,11.33-5.1,11.33-11.33V13.7C348.13,7.47,343.04,2.37,336.81,2.37z"/>
			<path class="st7" d="M336.53,2.64l-322.9,0C7.4,2.64,2.3,7.74,2.3,13.97L2.3,190c0,6.23,5.1,11.33,11.33,11.33l322.9,0
				c6.23,0,11.33-5.1,11.33-11.33V13.97C347.85,7.74,342.76,2.64,336.53,2.64z"/>
			<path class="st8" d="M336.25,2.92l-322.34,0c-6.23,0-11.33,5.1-11.33,11.33l0,175.48c0,6.23,5.1,11.33,11.33,11.33l322.34,0
				c6.23,0,11.33-5.1,11.33-11.33V14.24C347.57,8.01,342.48,2.92,336.25,2.92z"/>
			<path class="st9" d="M335.97,3.19l-321.78,0c-6.23,0-11.33,5.1-11.33,11.33l0,174.94c0,6.23,5.1,11.33,11.33,11.33l321.78,0
				c6.23,0,11.33-5.1,11.33-11.33V14.51C347.3,8.28,342.2,3.19,335.97,3.19z"/>
			<path class="st10" d="M335.69,3.46l-321.23,0c-6.23,0-11.33,5.1-11.33,11.33l0,174.4c0,6.23,5.1,11.33,11.33,11.33l321.23,0
				c6.23,0,11.33-5.1,11.33-11.33V14.78C347.02,8.56,341.92,3.46,335.69,3.46z"/>
			<path class="st11" d="M335.41,3.73l-320.67,0c-6.23,0-11.33,5.1-11.33,11.33l0,173.85c0,6.23,5.1,11.33,11.33,11.33l320.67,0
				c6.23,0,11.33-5.1,11.33-11.33V15.06C346.74,8.83,341.64,3.73,335.41,3.73z"/>
			<path class="st12" d="M335.13,4L15.02,4C8.79,4,3.7,9.1,3.7,15.33l0,173.31c0,6.23,5.1,11.33,11.33,11.33l320.11,0
				c6.23,0,11.33-5.1,11.33-11.33V15.33C346.46,9.1,341.36,4,335.13,4z"/>
			<path class="st13" d="M334.85,4.27l-319.55,0c-6.23,0-11.33,5.1-11.33,11.33l0,172.77c0,6.23,5.1,11.33,11.33,11.33l319.55,0
				c6.23,0,11.33-5.1,11.33-11.33V15.6C346.18,9.37,341.08,4.27,334.85,4.27z"/>
			<path class="st14" d="M334.57,4.54l-319,0c-6.23,0-11.33,5.1-11.33,11.33l0,172.22c0,6.23,5.1,11.33,11.33,11.33l319,0
				c6.23,0,11.33-5.1,11.33-11.33V15.87C345.9,9.64,340.8,4.54,334.57,4.54z"/>
			<path class="st15" d="M334.3,4.82l-318.44,0c-6.23,0-11.33,5.1-11.33,11.33l0,171.68c0,6.23,5.1,11.33,11.33,11.33l318.44,0
				c6.23,0,11.33-5.1,11.33-11.33V16.14C345.62,9.91,340.53,4.82,334.3,4.82z"/>
			<path class="st16" d="M334.02,5.09l-317.88,0c-6.23,0-11.33,5.1-11.33,11.33l0,171.14c0,6.23,5.1,11.33,11.33,11.33l317.88,0
				c6.23,0,11.33-5.1,11.33-11.33V16.41C345.34,10.18,340.25,5.09,334.02,5.09z"/>
			<path class="st17" d="M333.74,5.36l-317.32,0c-6.23,0-11.33,5.1-11.33,11.33l0,170.6c0,6.23,5.1,11.33,11.33,11.33l317.32,0
				c6.23,0,11.33-5.1,11.33-11.33V16.68C345.06,10.46,339.97,5.36,333.74,5.36z"/>
			<path class="st18" d="M333.46,5.63l-316.76,0c-6.23,0-11.33,5.1-11.33,11.33l0,170.05c0,6.23,5.1,11.33,11.33,11.33l316.76,0
				c6.23,0,11.33-5.1,11.33-11.33V16.96C344.79,10.73,339.69,5.63,333.46,5.63z"/>
			<path class="st19" d="M333.18,5.9l-316.21,0C10.74,5.9,5.65,11,5.65,17.23l0,169.51c0,6.23,5.1,11.33,11.33,11.33l316.21,0
				c6.23,0,11.33-5.1,11.33-11.33V17.23C344.51,11,339.41,5.9,333.18,5.9z"/>
			<path class="st20" d="M332.9,6.17l-315.65,0c-6.23,0-11.33,5.1-11.33,11.33l0,168.97c0,6.23,5.1,11.33,11.33,11.33l315.65,0
				c6.23,0,11.33-5.1,11.33-11.33V17.5C344.23,11.27,339.13,6.17,332.9,6.17z"/>
			<path class="st21" d="M332.62,6.44l-315.09,0c-6.23,0-11.33,5.1-11.33,11.33l0,168.43c0,6.23,5.1,11.33,11.33,11.33l315.09,0
				c6.23,0,11.33-5.1,11.33-11.33V17.77C343.95,11.54,338.85,6.44,332.62,6.44z"/>
			<path class="st22" d="M332.34,6.72l-314.53,0c-6.23,0-11.33,5.1-11.33,11.33l0,167.88c0,6.23,5.1,11.33,11.33,11.33l314.53,0
				c6.23,0,11.33-5.1,11.33-11.33V18.04C343.67,11.81,338.57,6.72,332.34,6.72z"/>
			<path class="st23" d="M332.06,6.99l-313.97,0c-6.23,0-11.33,5.1-11.33,11.33l0,167.34c0,6.23,5.1,11.33,11.33,11.33l313.97,0
				c6.23,0,11.33-5.1,11.33-11.33V18.31C343.39,12.08,338.29,6.99,332.06,6.99z"/>
			<path class="st24" d="M331.79,7.26l-313.42,0c-6.23,0-11.33,5.1-11.33,11.33l0,166.8c0,6.23,5.1,11.33,11.33,11.33l313.42,0
				c6.23,0,11.33-5.1,11.33-11.33V18.58C343.11,12.36,338.01,7.26,331.79,7.26z"/>
			<path class="st25" d="M331.51,7.53l-312.86,0c-6.23,0-11.33,5.1-11.33,11.33l0,166.25c0,6.23,5.1,11.33,11.33,11.33l312.86,0
				c6.23,0,11.33-5.1,11.33-11.33V18.86C342.83,12.63,337.74,7.53,331.51,7.53z"/>
			<path class="st26" d="M331.23,7.8l-312.3,0C12.7,7.8,7.6,12.9,7.6,19.13l0,165.71c0,6.23,5.1,11.33,11.33,11.33l312.3,0
				c6.23,0,11.33-5.1,11.33-11.33V19.13C342.55,12.9,337.46,7.8,331.23,7.8z"/>
			<path class="st27" d="M330.95,8.07l-311.74,0c-6.23,0-11.33,5.1-11.33,11.33l0,165.17c0,6.23,5.1,11.33,11.33,11.33l311.74,0
				c6.23,0,11.33-5.1,11.33-11.33V19.4C342.27,13.17,337.18,8.07,330.95,8.07z"/>
			<path class="st28" d="M330.67,8.34l-311.19,0c-6.23,0-11.33,5.1-11.33,11.33l0,164.63c0,6.23,5.1,11.33,11.33,11.33l311.19,0
				c6.23,0,11.33-5.1,11.33-11.33V19.67C342,13.44,336.9,8.34,330.67,8.34z"/>
			<path class="st29" d="M330.39,8.62l-310.63,0c-6.23,0-11.33,5.1-11.33,11.33l0,164.08c0,6.23,5.1,11.33,11.33,11.33l310.63,0
				c6.23,0,11.33-5.1,11.33-11.33V19.94C341.72,13.71,336.62,8.62,330.39,8.62z"/>
			<path class="st30" d="M330.11,8.89l-310.07,0c-6.23,0-11.33,5.1-11.33,11.33l0,163.54c0,6.23,5.1,11.33,11.33,11.33l310.07,0
				c6.23,0,11.33-5.1,11.33-11.33V20.21C341.44,13.98,336.34,8.89,330.11,8.89z"/>
			<path class="st31" d="M329.83,9.16l-309.51,0c-6.23,0-11.33,5.1-11.33,11.33l0,163c0,6.23,5.1,11.33,11.33,11.33l309.51,0
				c6.23,0,11.33-5.1,11.33-11.33v-163C341.16,14.25,336.06,9.16,329.83,9.16z"/>
			<path class="st32" d="M329.55,9.43l-308.95,0c-6.23,0-11.33,5.1-11.33,11.33l0,162.45c0,6.23,5.1,11.33,11.33,11.33l308.95,0
				c6.23,0,11.33-5.1,11.33-11.33V20.76C340.88,14.53,335.78,9.43,329.55,9.43z"/>
			<path class="st33" d="M329.27,9.7l-308.4,0c-6.23,0-11.33,5.1-11.33,11.33l0,161.91c0,6.23,5.1,11.33,11.33,11.33l308.4,0
				c6.23,0,11.33-5.1,11.33-11.33V21.03C340.6,14.8,335.5,9.7,329.27,9.7z"/>
			<path class="st34" d="M329,9.97l-307.84,0c-6.23,0-11.33,5.1-11.33,11.33l0,161.37c0,6.23,5.1,11.33,11.33,11.33l307.84,0
				c6.23,0,11.33-5.1,11.33-11.33V21.3C340.32,15.07,335.23,9.97,329,9.97z"/>
			<path class="st35" d="M328.72,10.24l-307.28,0c-6.23,0-11.33,5.1-11.33,11.33l0,160.83c0,6.23,5.1,11.33,11.33,11.33l307.28,0
				c6.23,0,11.33-5.1,11.33-11.33V21.57C340.04,15.34,334.95,10.24,328.72,10.24z"/>
			<path class="st36" d="M328.44,10.52l-306.72,0c-6.23,0-11.33,5.1-11.33,11.33l0,160.28c0,6.23,5.1,11.33,11.33,11.33l306.72,0
				c6.23,0,11.33-5.1,11.33-11.33V21.84C339.76,15.61,334.67,10.52,328.44,10.52z"/>
			<path class="st37" d="M328.16,10.79l-306.16,0c-6.23,0-11.33,5.1-11.33,11.33l0,159.74c0,6.23,5.1,11.33,11.33,11.33l306.16,0
				c6.23,0,11.33-5.1,11.33-11.33V22.11C339.49,15.88,334.39,10.79,328.16,10.79z"/>
			<path class="st38" d="M327.88,11.06l-305.61,0c-6.23,0-11.33,5.1-11.33,11.33l0,159.2c0,6.23,5.1,11.33,11.33,11.33l305.61,0
				c6.23,0,11.33-5.1,11.33-11.33V22.38C339.21,16.15,334.11,11.06,327.88,11.06z"/>
			<path class="st39" d="M327.6,11.33l-305.05,0c-6.23,0-11.33,5.1-11.33,11.33l0,158.65c0,6.23,5.1,11.33,11.33,11.33l305.05,0
				c6.23,0,11.33-5.1,11.33-11.33V22.66C338.93,16.43,333.83,11.33,327.6,11.33z"/>
			<path class="st40" d="M327.32,11.6l-304.49,0c-6.23,0-11.33,5.1-11.33,11.33l0,158.11c0,6.23,5.1,11.33,11.33,11.33l304.49,0
				c6.23,0,11.33-5.1,11.33-11.33V22.93C338.65,16.7,333.55,11.6,327.32,11.6z"/>
			<path class="st41" d="M327.04,11.87l-303.93,0c-6.23,0-11.33,5.1-11.33,11.33l0,157.57c0,6.23,5.1,11.33,11.33,11.33l303.93,0
				c6.23,0,11.33-5.1,11.33-11.33V23.2C338.37,16.97,333.27,11.87,327.04,11.87z"/>
			<path class="st42" d="M326.76,12.14l-303.37,0c-6.23,0-11.33,5.1-11.33,11.33l0,157.03c0,6.23,5.1,11.33,11.33,11.33l303.37,0
				c6.23,0,11.33-5.1,11.33-11.33V23.47C338.09,17.24,332.99,12.14,326.76,12.14z"/>
			<path class="st43" d="M326.49,12.41l-302.82,0c-6.23,0-11.33,5.1-11.33,11.33l0,156.48c0,6.23,5.1,11.33,11.33,11.33l302.82,0
				c6.23,0,11.33-5.1,11.33-11.33V23.74C337.81,17.51,332.71,12.41,326.49,12.41z"/>
			<path class="st44" d="M326.21,12.69l-302.26,0c-6.23,0-11.33,5.1-11.33,11.33l0,155.94c0,6.23,5.1,11.33,11.33,11.33l302.26,0
				c6.23,0,11.33-5.1,11.33-11.33V24.01C337.53,17.78,332.44,12.69,326.21,12.69z"/>
			<path class="st45" d="M325.93,12.96l-301.7,0c-6.23,0-11.33,5.1-11.33,11.33l0,155.4c0,6.23,5.1,11.33,11.33,11.33l301.7,0
				c6.23,0,11.33-5.1,11.33-11.33V24.28C337.25,18.05,332.16,12.96,325.93,12.96z"/>
			<path class="st46" d="M325.65,13.23l-301.14,0c-6.23,0-11.33,5.1-11.33,11.33l0,154.86c0,6.23,5.1,11.33,11.33,11.33l301.14,0
				c6.23,0,11.33-5.1,11.33-11.33V24.56C336.97,18.33,331.88,13.23,325.65,13.23z"/>
			<path class="st47" d="M325.37,13.5l-300.59,0c-6.23,0-11.33,5.1-11.33,11.33l0,154.31c0,6.23,5.1,11.33,11.33,11.33l300.59,0
				c6.23,0,11.33-5.1,11.33-11.33V24.83C336.7,18.6,331.6,13.5,325.37,13.5z"/>
			<path class="st48" d="M325.09,13.77l-300.03,0c-6.23,0-11.33,5.1-11.33,11.33l0,153.77c0,6.23,5.1,11.33,11.33,11.33l300.03,0
				c6.23,0,11.33-5.1,11.33-11.33V25.1C336.42,18.87,331.32,13.77,325.09,13.77z"/>
			<path class="st49" d="M324.81,14.04l-299.47,0c-6.23,0-11.33,5.1-11.33,11.33l0,153.23c0,6.23,5.1,11.33,11.33,11.33l299.47,0
				c6.23,0,11.33-5.1,11.33-11.33V25.37C336.14,19.14,331.04,14.04,324.81,14.04z"/>
			<path class="st50" d="M324.53,14.31l-298.91,0c-6.23,0-11.33,5.1-11.33,11.33l0,152.68c0,6.23,5.1,11.33,11.33,11.33l298.91,0
				c6.23,0,11.33-5.1,11.33-11.33V25.64C335.86,19.41,330.76,14.31,324.53,14.31z"/>
			<path class="st51" d="M324.25,14.59l-298.35,0c-6.23,0-11.33,5.1-11.33,11.33l0,152.14c0,6.23,5.1,11.33,11.33,11.33l298.35,0
				c6.23,0,11.33-5.1,11.33-11.33V25.91C335.58,19.68,330.48,14.59,324.25,14.59z"/>
			<path class="st52" d="M323.97,14.86l-297.8,0c-6.23,0-11.33,5.1-11.33,11.33l0,151.6c0,6.23,5.1,11.33,11.33,11.33l297.8,0
				c6.23,0,11.33-5.1,11.33-11.33V26.18C335.3,19.95,330.2,14.86,323.97,14.86z"/>
			<path class="st53" d="M323.7,15.13l-297.24,0c-6.23,0-11.33,5.1-11.33,11.33l0,151.06c0,6.23,5.1,11.33,11.33,11.33l297.24,0
				c6.23,0,11.33-5.1,11.33-11.33V26.45C335.02,20.23,329.93,15.13,323.7,15.13z"/>
			<path class="st54" d="M323.42,15.4l-296.68,0c-6.23,0-11.33,5.1-11.33,11.33l0,150.51c0,6.23,5.1,11.33,11.33,11.33l296.68,0
				c6.23,0,11.33-5.1,11.33-11.33V26.73C334.74,20.5,329.65,15.4,323.42,15.4z"/>
			<path class="st55" d="M323.14,15.67l-296.12,0c-6.23,0-11.33,5.1-11.33,11.33l0,149.97c0,6.23,5.1,11.33,11.33,11.33l296.12,0
				c6.23,0,11.33-5.1,11.33-11.33V27C334.46,20.77,329.37,15.67,323.14,15.67z"/>
			<path class="st56" d="M322.86,15.94l-295.56,0c-6.23,0-11.33,5.1-11.33,11.33l0,149.43c0,6.23,5.1,11.33,11.33,11.33l295.56,0
				c6.23,0,11.33-5.1,11.33-11.33V27.27C334.19,21.04,329.09,15.94,322.86,15.94z"/>
			<path class="st57" d="M322.58,16.21l-295.01,0c-6.23,0-11.33,5.1-11.33,11.33l0,148.88c0,6.23,5.1,11.33,11.33,11.33l295.01,0
				c6.23,0,11.33-5.1,11.33-11.33V27.54C333.91,21.31,328.81,16.21,322.58,16.21z"/>
			<path class="st58" d="M322.3,16.49l-294.45,0c-6.23,0-11.33,5.1-11.33,11.33l0,148.34c0,6.23,5.1,11.33,11.33,11.33l294.45,0
				c6.23,0,11.33-5.1,11.33-11.33V27.81C333.63,21.58,328.53,16.49,322.3,16.49z"/>
			<path class="st59" d="M322.02,16.76l-293.89,0c-6.23,0-11.33,5.1-11.33,11.33l0,147.8c0,6.23,5.1,11.33,11.33,11.33l293.89,0
				c6.23,0,11.33-5.1,11.33-11.33V28.08C333.35,21.85,328.25,16.76,322.02,16.76z"/>
			<path class="st60" d="M321.74,17.03l-293.33,0c-6.23,0-11.33,5.1-11.33,11.33l0,147.26c0,6.23,5.1,11.33,11.33,11.33l293.33,0
				c6.23,0,11.33-5.1,11.33-11.33V28.35C333.07,22.13,327.97,17.03,321.74,17.03z"/>
			<path class="st61" d="M321.46,17.3l-292.78,0c-6.23,0-11.33,5.1-11.33,11.33l0,146.71c0,6.23,5.1,11.33,11.33,11.33l292.78,0
				c6.23,0,11.33-5.1,11.33-11.33V28.63C332.79,22.4,327.69,17.3,321.46,17.3z"/>
			<path class="st62" d="M321.19,17.57l-292.22,0c-6.23,0-11.33,5.1-11.33,11.33l0,146.17c0,6.23,5.1,11.33,11.33,11.33l292.22,0
				c6.23,0,11.33-5.1,11.33-11.33V28.9C332.51,22.67,327.41,17.57,321.19,17.57z"/>
			<path class="st63" d="M320.91,17.84l-291.66,0c-6.23,0-11.33,5.1-11.33,11.33l0,145.63c0,6.23,5.1,11.33,11.33,11.33l291.66,0
				c6.23,0,11.33-5.1,11.33-11.33V29.17C332.23,22.94,327.14,17.84,320.91,17.84z"/>
			<path class="st64" d="M320.63,18.11l-291.1,0c-6.23,0-11.33,5.1-11.33,11.33l0,145.09c0,6.23,5.1,11.33,11.33,11.33l291.1,0
				c6.23,0,11.33-5.1,11.33-11.33V29.44C331.95,23.21,326.86,18.11,320.63,18.11z"/>
			<path class="st65" d="M320.35,18.39l-290.54,0c-6.23,0-11.33,5.1-11.33,11.33l0,144.54c0,6.23,5.1,11.33,11.33,11.33h290.54
				c6.23,0,11.33-5.1,11.33-11.33V29.71C331.67,23.48,326.58,18.39,320.35,18.39z"/>
			<path class="st66" d="M320.07,18.66l-289.99,0c-6.23,0-11.33,5.1-11.33,11.33l0,144c0,6.23,5.1,11.33,11.33,11.33h289.99
				c6.23,0,11.33-5.1,11.33-11.33v-144C331.4,23.75,326.3,18.66,320.07,18.66z"/>
			<path class="st67" d="M319.79,18.93l-289.43,0c-6.23,0-11.33,5.1-11.33,11.33l0,143.46c0,6.23,5.1,11.33,11.33,11.33h289.43
				c6.23,0,11.33-5.1,11.33-11.33V30.25C331.12,24.03,326.02,18.93,319.79,18.93z"/>
			<path class="st68" d="M319.51,19.2l-288.87,0c-6.23,0-11.33,5.1-11.33,11.33l0,142.91c0,6.23,5.1,11.33,11.33,11.33h288.87
				c6.23,0,11.33-5.1,11.33-11.33V30.53C330.84,24.3,325.74,19.2,319.51,19.2z"/>
			<path class="st69" d="M319.23,19.47l-288.31,0c-6.23,0-11.33,5.1-11.33,11.33l0,142.37c0,6.23,5.1,11.33,11.33,11.33l288.31,0
				c6.23,0,11.33-5.1,11.33-11.33V30.8C330.56,24.57,325.46,19.47,319.23,19.47z"/>
			<path class="st70" d="M318.95,19.74l-287.75,0c-6.23,0-11.33,5.1-11.33,11.33V172.9c0,6.23,5.1,11.33,11.33,11.33h287.75
				c6.23,0,11.33-5.1,11.33-11.33V31.07C330.28,24.84,325.18,19.74,318.95,19.74z"/>
			<path class="st71" d="M318.68,20.01H31.48c-6.23,0-11.33,5.1-11.33,11.33v141.29c0,6.23,5.1,11.33,11.33,11.33h287.2
				c6.23,0,11.33-5.1,11.33-11.33V31.34C330,25.11,324.9,20.01,318.68,20.01z"/>
		</g>
	</g>
	<rect x="7.52" y="10.3" class="st72" width="334.38" height="183.23"/>
	<linearGradient id="SVGID_1_" gradientUnits="userSpaceOnUse" x1="218.8895" y1="32.9518" x2="343.7921" y2="169.0123">
		<stop  offset="9.036140e-03" style="stop-color:#A980B8"/>
		<stop  offset="0.9473" style="stop-color:#724F9B"/>
	</linearGradient>
	<path class="st73" d="M199.03,52.41c-33.95,25.06-41.83,77.6-3.05,111.47c10.08,8.8,63.47,29.72,83.24,29.65h62.68V10.3
		l-151.6,0.07C204.8,20.01,216.5,39.51,199.03,52.41z"/>
	<g>
		<path class="st74" d="M259.51,44.01c0-0.38-0.01-0.77-0.03-1.15l3.99-1.28c-0.1-1.13-0.28-2.24-0.53-3.33l-4.19,0.02
			c-0.2-0.74-0.44-1.47-0.71-2.18l3.4-2.45c-0.45-1.04-0.96-2.04-1.53-3l-3.98,1.31c-0.42-0.64-0.87-1.26-1.35-1.85l2.47-3.38
			c-0.74-0.85-1.54-1.64-2.39-2.39l-3.38,2.47c-0.59-0.48-1.21-0.93-1.85-1.35l1.31-3.98c-0.96-0.57-1.96-1.09-3-1.53l-2.45,3.4
			c-0.71-0.27-1.44-0.51-2.18-0.71l0.02-4.19c-1.09-0.24-2.2-0.42-3.33-0.53l-1.28,3.99c-0.38-0.02-0.76-0.03-1.15-0.03
			s-0.77,0.01-1.15,0.03l-1.28-3.99c-1.13,0.1-2.24,0.28-3.33,0.53l0.02,4.19c-0.74,0.2-1.47,0.44-2.18,0.71l-2.45-3.4
			c-1.04,0.45-2.04,0.96-3,1.53l1.31,3.98c-0.64,0.42-1.26,0.87-1.85,1.35l-3.38-2.47c-0.85,0.74-1.64,1.54-2.39,2.39l2.47,3.38
			c-0.48,0.59-0.93,1.21-1.35,1.85l-3.98-1.31c-0.57,0.96-1.09,1.96-1.53,3l3.4,2.45c-0.27,0.71-0.51,1.44-0.71,2.18l-4.19-0.02
			c-0.24,1.09-0.42,2.2-0.53,3.33l3.99,1.28c-0.02,0.38-0.03,0.76-0.03,1.15c0,0.38,0.01,0.77,0.03,1.15l-3.99,1.28
			c0.1,1.13,0.28,2.24,0.53,3.33l4.19-0.02c0.2,0.74,0.44,1.47,0.71,2.18l-3.4,2.45c0.45,1.04,0.96,2.04,1.53,3l3.98-1.31
			c0.42,0.64,0.87,1.26,1.35,1.85l-2.47,3.38c0.74,0.85,1.54,1.64,2.39,2.39l3.38-2.47c0.59,0.48,1.21,0.93,1.85,1.35l-1.31,3.98
			c0.96,0.57,1.96,1.09,3,1.53l2.45-3.4c0.71,0.27,1.44,0.51,2.18,0.71l-0.02,4.19c1.09,0.24,2.2,0.42,3.33,0.53l1.28-3.99
			c0.38,0.02,0.76,0.03,1.15,0.03s0.77-0.01,1.15-0.03l1.28,3.99c1.13-0.1,2.24-0.28,3.33-0.53l-0.02-4.19
			c0.74-0.2,1.47-0.44,2.18-0.71l2.45,3.4c1.04-0.45,2.04-0.96,3-1.53l-1.31-3.98c0.64-0.42,1.26-0.87,1.85-1.35l3.38,2.47
			c0.85-0.74,1.64-1.54,2.39-2.39l-2.47-3.38c0.48-0.59,0.93-1.21,1.35-1.85l3.98,1.31c0.57-0.96,1.09-1.96,1.53-3l-3.4-2.45
			c0.27-0.71,0.51-1.44,0.71-2.18l4.19,0.02c0.24-1.09,0.42-2.2,0.53-3.33l-3.99-1.28C259.5,44.77,259.51,44.39,259.51,44.01z
			 M237.38,61.59c-9.71,0-17.58-7.87-17.58-17.58s7.87-17.58,17.58-17.58c9.71,0,17.58,7.87,17.58,17.58S247.09,61.59,237.38,61.59z
			"/>
	</g>
	<g>
		<path class="st72" d="M214.21,69.11c0.05-0.34,0.1-0.68,0.13-1.03c0.03-0.35,0.04-0.7,0.04-1.04l-2.76-0.94
			c-0.06-0.89-0.22-1.76-0.47-2.59l2.26-1.85c-0.25-0.65-0.55-1.28-0.89-1.88l-2.86,0.57c-0.49-0.73-1.06-1.4-1.7-2l1.03-2.73
			c-0.54-0.43-1.11-0.83-1.71-1.19l-2.2,1.92c-0.78-0.38-1.6-0.68-2.47-0.89l-0.47-2.87c-0.34-0.05-0.68-0.1-1.03-0.13
			c-0.35-0.03-0.7-0.04-1.04-0.04l-0.94,2.76c-0.89,0.06-1.76,0.22-2.59,0.47l-1.85-2.26c-0.65,0.25-1.28,0.55-1.88,0.89l0.57,2.86
			c-0.73,0.49-1.4,1.06-2,1.7l-2.73-1.03c-0.43,0.54-0.83,1.11-1.19,1.71l1.92,2.2c-0.38,0.78-0.68,1.6-0.89,2.47l-2.87,0.47
			c-0.05,0.34-0.1,0.68-0.13,1.03c-0.03,0.35-0.04,0.7-0.04,1.04l2.76,0.94c0.06,0.89,0.22,1.76,0.47,2.59l-2.26,1.85
			c0.25,0.65,0.55,1.28,0.89,1.88l2.86-0.57c0.49,0.73,1.06,1.4,1.7,2l-1.03,2.73c0.54,0.43,1.11,0.83,1.71,1.19l2.2-1.92
			c0.78,0.38,1.6,0.68,2.47,0.89l0.47,2.87c0.34,0.05,0.68,0.1,1.03,0.13s0.7,0.04,1.04,0.04l0.94-2.76
			c0.89-0.06,1.76-0.22,2.59-0.47l1.85,2.26c0.65-0.25,1.28-0.55,1.88-0.89l-0.57-2.86c0.73-0.49,1.4-1.06,2-1.7l2.73,1.03
			c0.43-0.54,0.83-1.11,1.19-1.71l-1.92-2.2c0.38-0.78,0.68-1.6,0.89-2.47L214.21,69.11z M199.14,76.32
			c-5.22-0.43-9.09-5.01-8.66-10.23s5.01-9.09,10.23-8.66c5.22,0.43,9.09,5.01,8.66,10.23C208.94,72.88,204.36,76.75,199.14,76.32z"
			/>
	</g>
	<g>
		<path class="st74" d="M324.21,154.13c0.02-0.51,0.02-1.02,0-1.54c-0.02-0.52-0.06-1.03-0.12-1.54l-4.23-0.89
			c-0.25-1.3-0.64-2.54-1.15-3.72l2.99-3.13c-0.49-0.91-1.04-1.78-1.64-2.6l-4.11,1.35c-0.85-0.98-1.81-1.87-2.86-2.64l1.03-4.21
			c-0.87-0.54-1.78-1.02-2.72-1.44l-2.89,3.22c-1.21-0.42-2.48-0.72-3.8-0.86l-1.21-4.14c-0.51-0.02-1.02-0.02-1.54,0
			c-0.52,0.02-1.03,0.06-1.54,0.12l-0.89,4.23c-1.3,0.25-2.54,0.64-3.72,1.15l-3.13-2.99c-0.91,0.49-1.78,1.04-2.61,1.64l1.35,4.11
			c-0.98,0.85-1.87,1.81-2.64,2.86l-4.21-1.03c-0.54,0.87-1.02,1.78-1.44,2.72l3.22,2.89c-0.42,1.21-0.72,2.48-0.86,3.8l-4.14,1.21
			c-0.02,0.51-0.02,1.02,0,1.54c0.02,0.52,0.06,1.03,0.12,1.54l4.23,0.89c0.25,1.3,0.64,2.54,1.15,3.72l-2.99,3.13
			c0.49,0.91,1.04,1.78,1.64,2.6l4.11-1.35c0.85,0.98,1.81,1.87,2.86,2.64l-1.03,4.21c0.87,0.54,1.78,1.02,2.72,1.44l2.89-3.22
			c1.21,0.42,2.48,0.72,3.8,0.86l1.21,4.14c0.51,0.02,1.02,0.02,1.54,0s1.03-0.06,1.54-0.12l0.89-4.23c1.3-0.25,2.54-0.64,3.72-1.15
			l3.13,2.99c0.91-0.49,1.78-1.04,2.6-1.64l-1.35-4.11c0.98-0.85,1.87-1.81,2.64-2.86l4.21,1.03c0.54-0.87,1.02-1.78,1.44-2.72
			l-3.22-2.89c0.42-1.21,0.72-2.48,0.86-3.8L324.21,154.13z M303.32,167.45c-7.75,0.3-14.28-5.74-14.58-13.5
			c-0.3-7.75,5.74-14.28,13.5-14.58c7.75-0.3,14.28,5.74,14.58,13.5C317.12,160.62,311.08,167.15,303.32,167.45z"/>
	</g>
	<g>
		<path class="st75" d="M216.12,178.07c0,2.22-16.04,4.02-35.82,4.02s-35.82-1.8-35.82-4.02c0-2.22,16.04-4.02,35.82-4.02
			S216.12,175.85,216.12,178.07z"/>
		<path class="st75" d="M284.83,126.28c0,1.92,10.24,3.47,22.87,3.47c12.63,0,22.87-1.55,22.87-3.47c0-1.92-10.24-3.47-22.87-3.47
			C295.07,122.81,284.83,124.36,284.83,126.28z"/>
		<g>
			<g>
				<path class="st76" d="M275.75,118.27c1.85,0.02-0.93,2.14-1.29,3.92c-0.47,2.28-2.8,3.43-4.9,3.7c-1.56,0.2-3.84,0.29-5.23-0.61
					c-0.64-0.41-1.29-1.33-0.99-2.14c0.51-1.38,2.3-0.64,3.09-0.05c1.37,1.02,3.19,2.97,3.53,4.68c0.37,1.83-1.17,3.46-2.56,4.43
					c-2.39,1.67-5.91,2.21-8.48,0.62c-0.52-0.32-1.93-1.26-1.33-1.94c0.42-0.48,1.43-0.34,1.92-0.11c1.45,0.66,2.05,2.47,2,3.95
					c-0.12,3.76-3.92,5.52-7.28,5.19c-1.61-0.16-3.65-0.69-4.69-2.04c-0.51-0.66-0.82-1.79-0.22-2.51c0.84-1.01,2.43-0.23,2.82,0.79
					c0.85,2.18-1.52,3.91-3.29,4.45c-1.78,0.55-3.94,0.68-5.69-0.05c-1.58-0.66-3.61-3.04-2.35-4.85c0.35-0.5,1.58-1.17,1.34-0.06
					c-0.18,0.86-1.51,1.31-2.24,1.37c-2.19,0.16-4.12-1.88-5.17-3.59c-1.24-2-1.16-4.24,0.33-6.08c0.42-0.52-0.21-1.07-0.74-0.92
					c-3.39,0.98-3.1,5.23-1.7,7.72c1.48,2.63,4.33,5.35,7.58,5c2.22-0.24,5.72-3.06,3.6-5.44c-1.72-1.93-4.67-0.06-5.23,1.93
					c-0.76,2.72,1,5.5,3.43,6.67c2.86,1.37,6.93,0.9,9.53-0.86c2.27-1.53,3.71-5.18,1.37-7.34c-1.87-1.73-5.14-1.17-5.67,1.53
					c-0.61,3.16,2.45,5.11,5.09,5.77c2.89,0.72,6.25,0.35,8.58-1.63c2.02-1.71,2.83-4.5,2.16-7.05c-0.59-2.23-2.54-4.29-5.02-3.94
					c-0.99,0.14-2.02,0.68-2.38,1.67c-0.46,1.27,0.37,2.44,1.3,3.24c2.04,1.77,4.94,2.25,7.54,1.7c2.6-0.55,5.15-2.07,6.55-4.39
					c1.91-3.18-0.19-6.1-2.44-8.4c-1.09-1.11-2.35-2.09-3.98-2.06c-1.38,0.02-2.67,0.79-3.04,2.17c-0.97,3.63,3.31,4.9,6,4.88
					c3.21-0.02,7.04-1.25,7.95-4.72C276.24,120.35,273.06,118.8,275.75,118.27C280.53,117.34,275.34,118.27,275.75,118.27
					L275.75,118.27z"/>
			</g>
		</g>
		<g>
			<g>
				<path class="st72" d="M271.4,71.84c-1.25,0.38-4.02,0.13-6.54,3.26c-3.11,3.86-3.68,11.15-2.21,18.14
					c1.87,8.91,8.73,15.64,12.31,15.06c3.58-0.58,8.31-6.17,10.54-4.13s7.86,19.28,5.71,20.31c-2.14,1.03-32.53,2.87-40.02-25.34
					c-7.82-29.46,11.16-41.96,14.6-43.38c3.44-1.42,3.7-3.16,5.38-1.81c1.68,1.35,5.01,13.1,4.59,15.88
					C275.34,72.6,271.4,71.84,271.4,71.84z"/>
			</g>
			<g>
				<path class="st76" d="M265.79,55.75c2.52,2.71,5.94,12.5,5.61,16.09c-0.34,3.59,6.28,0.85,6.89-1.07
					c1.24-3.89-5.13-19.09-6.78-19.28C269.86,51.29,264.33,54.16,265.79,55.75z"/>
			</g>
			<g>
				<path class="st76" d="M282.14,104.99c2.92,3.15,6.89,14.5,6.5,18.66c-0.39,4.16,7.28,0.98,7.99-1.24
					c1.43-4.52-5.95-22.14-7.86-22.37C286.86,99.82,280.44,103.15,282.14,104.99z"/>
			</g>
			<g class="st77">
				<g>
					<path class="st72" d="M292.78,106.72c-2.17,0.14-4.01,0.76-6.04,1.75c-0.61,0.3-1.26,0.63-1.91,0.99
						c0.28,0.61,0.56,1.25,0.83,1.91c0.63-0.41,1.26-0.82,1.9-1.16c1.82-0.96,3.73-1.74,5.58-2.63
						C293.02,107.29,292.9,107,292.78,106.72z"/>
				</g>
				<g>
					<path class="st72" d="M285.3,107.84c2.11-1.27,4.49-1.88,6.82-2.6c-0.58-1.26-1.16-2.37-1.67-3.24
						c-2.5,0.33-4.93,1.07-7.13,2.33c-0.35,0.2-0.74,0.43-1.15,0.69c0.69,0.76,1.45,1.98,2.19,3.45
						C284.66,108.25,284.97,108.04,285.3,107.84z"/>
				</g>
			</g>
			<g class="st77">
				<g>
					<path class="st72" d="M275.62,58.81c-1.4,0.4-2.83,1.14-3.91,1.66c-0.9,0.43-1.78,0.9-2.63,1.42c0.17,0.45,0.34,0.9,0.51,1.36
						c0.85-0.4,1.71-0.79,2.57-1.16c1.05-0.45,2.12-0.88,3.18-1.3c0.3-0.12,0.6-0.22,0.91-0.32
						C276.05,59.9,275.83,59.35,275.62,58.81z"/>
				</g>
				<g>
					<path class="st72" d="M268.56,60.61c0.62-0.33,1.24-0.65,1.88-0.96c1.36-0.65,2.75-1.26,4.16-1.82
						c0.18-0.07,0.36-0.13,0.54-0.19c-0.5-1.19-1.01-2.29-1.5-3.22c-1.51,0.43-3.01,1.15-4,1.56c-0.94,0.39-1.86,0.81-2.77,1.26
						C267.44,58.17,268.01,59.34,268.56,60.61z"/>
				</g>
			</g>
			<g class="st78">
				<path class="st72" d="M265.15,59.53c-1.44-1.74-7.72,4.45-10.01,9.77c-2.29,5.32-3.12,9.17-1.77,9.79
					c1.35,0.63,1.98-5.83,4.95-10.91C260.38,64.66,267.03,61.79,265.15,59.53z"/>
			</g>
		</g>
		<g>
			<g>
				<path class="st72" d="M213.02,132.9c0,0.09,0,0.19,0,0.28c0.03-0.09,0.03-0.19,0.03-0.28
					C213.02,132.9,213.02,132.9,213.02,132.9z"/>
			</g>
		</g>
		<g>
			<g>
				<path class="st72" d="M219.89,99.48c0.74-0.27,1.99-1.41,4.35-0.81c2.91,0.73,5.84,4.05,7.68,7.97
					c2.34,4.99,1.48,10.75-0.46,11.77c-1.94,1.02-6.27,0.05-6.6,1.84c-0.33,1.8,3.23,12.19,4.64,11.9
					c1.41-0.28,16.78-10.47,10.11-26.84c-6.96-17.1-20.69-16.22-22.87-15.65c-2.18,0.57-2.94-0.18-3.26,1.08
					c-0.32,1.26,2.35,8.16,3.57,9.35C218.26,101.29,219.89,99.48,219.89,99.48z"/>
			</g>
			<g>
				<path class="st76" d="M216.74,89.66c-0.23,2.23,1.68,8.21,3.15,9.82c1.47,1.61-2.73,2.7-3.72,1.99
					c-2.02-1.43-4.48-11.1-3.75-11.8S216.87,88.36,216.74,89.66z"/>
			</g>
			<g>
				<path class="st76" d="M226.79,119.43c-0.26,2.59,1.95,9.53,3.66,11.4c1.71,1.87-3.16,3.13-4.32,2.31
					c-2.34-1.66-5.2-12.87-4.35-13.68C222.62,118.65,226.94,117.92,226.79,119.43z"/>
			</g>
			<g class="st78">
				<path class="st72" d="M232.04,119.62c-0.76-0.45-3.71-0.02-3.83,0.94C228.09,121.52,233.54,120.51,232.04,119.62z"/>
			</g>
			<g class="st78">
				<path class="st72" d="M218.38,90.4c-0.62,0.35-0.66,1.61,2.85,1.98c3.52,0.37,4.88-0.74,4.38-0.99
					C225.12,91.14,219.94,89.53,218.38,90.4z"/>
			</g>
			<g class="st77">
				<g>
					<path class="st72" d="M221.7,121.23c0.08,0.63,0.22,1.4,0.41,2.23c0.82-0.45,1.77-0.73,2.54-0.88
						c0.67-0.14,1.71-0.37,2.44-0.14c-0.22-1.05-0.34-1.99-0.32-2.7C225.12,119.66,223.17,120.24,221.7,121.23z"/>
				</g>
				<g>
					<path class="st72" d="M227.49,124.09c-1.6-0.33-3.56,0.03-4.98,0.98c0.2,0.74,0.42,1.5,0.66,2.25c0.5-0.33,0.99-0.66,1.52-0.92
						c0.98-0.49,2.09-0.76,3.17-1.05C227.73,124.93,227.6,124.51,227.49,124.09z"/>
				</g>
			</g>
			<g class="st77">
				<g>
					<path class="st72" d="M217.3,93.51c-1.37-0.09-2.95,0.51-4.14,1.43c0.1,0.35,0.2,0.7,0.31,1.05c0.52-0.38,1.1-0.68,1.8-0.88
						c0.8-0.23,1.62-0.21,2.42-0.25C217.55,94.4,217.42,93.95,217.3,93.51z"/>
				</g>
				<g>
					<path class="st72" d="M212.38,91.38c0.07,0.51,0.18,1.1,0.33,1.74c1.12-0.86,2.72-1.06,4.23-1.19
						c-0.15-0.8-0.23-1.51-0.21-2.05C215.22,89.86,213.58,90.43,212.38,91.38z"/>
				</g>
			</g>
		</g>
		<g>
			<g>
				<g>
					<path class="st79" d="M214.02,113.59c0.75-1.32,0.67-2.25,1.05-2.26c0.38-0.02-0.19,1.26-0.01,1.42
						c0.18,0.16,1.94-1.95,2.14-1.76c0.2,0.18-1.12,1.64-1.08,1.71c0.04,0.07,1.78-1.42,1.89-1.25c0.12,0.18-1.63,1.68-1.54,1.78
						c0.09,0.1,2.06-1.16,2.1-0.91c0.04,0.25-1.63,1.31-1.74,1.46c-0.11,0.15,1.32-0.67,1.42-0.46c0.1,0.21-2.78,1.63-3.83,1.65
						C213.39,114.99,213.68,114.17,214.02,113.59z"/>
				</g>
				<g>
					<g>
						<path class="st80" d="M215.04,114.78c-0.45,1.69-6.79,9.17-8.43,9.74c-1.97,0.68-12.92,1.57-13.61-0.34
							c-0.69-1.91,2.61-7.18,2.61-7.18c3.58,3.41,9.14,3.71,10.16,3.31c0.79-0.31,5.84-4.84,7.92-6.73L215.04,114.78z"/>
					</g>
				</g>
				<g>
					<path class="st72" d="M212.37,114.93c0.48-0.53,0.93-1,1.31-1.35l1.35,1.2c-0.08,0.3-0.34,0.86-0.73,1.57L212.37,114.93z"/>
				</g>
			</g>
			<g>
				<path class="st81" d="M200.4,174.46c0.81,2.01,5.65,0.91,6.28,1.93c0.79,1.28-8.48,2.84-9.02,1.7
					c-0.13-0.29,0.27-1.95,0.43-3.14C199.65,174.83,199.16,175.42,200.4,174.46z"/>
			</g>
			<g>
				<path class="st82" d="M204.6,152.58c-2.63-3.19-8.39-9.17-9.51-9.89c-1.32-0.85-4.64-3.44-4.64-3.44s-13.57,3.96-11.81,6.63
					c1.33,2.02,14.1,8.99,19.76,11.97c-0.54,0.45-2.07,2-2.37,5.22c-0.27,2.95,0.93,9.84,1.58,13.41c1.45-0.6,3.54-1.45,3.52-1.8
					c-0.1-1.73,2.95-17.47,3.47-19.47C204.67,154.91,205.4,153.58,204.6,152.58z"/>
			</g>
			<g>
				<path class="st81" d="M157.29,172.09c-0.18,0.15-0.31,0.28-0.36,0.37c-0.66,1.19,1.94,4.04,0.79,5.45
					c-1.16,1.41-4.72-3.26-4.81-5.15c-0.02-0.47,0.77-1.58,2.04-2.99C155.61,170.7,156.37,171.51,157.29,172.09z"/>
			</g>
			<g>
				<path class="st80" d="M180.68,136.95c0.47-0.43,1.03-3.15,1.51-4.4c2.02-5.28,6.93-13.67,10.21-15.93
					c3.24-2.24,6.13,0.76,6.78,3.8c0.65,3.03-2.7,12.59-8.27,18.91c-0.71,0.81-1.42,1.64-2.07,2.46
					C185.25,141.36,182.93,139.97,180.68,136.95z"/>
			</g>
			<g>
				<path class="st82" d="M180.99,136.2c-0.81,1.12-2.36,1.09-4.14,3.06c-3.86,3.6-5.44,12.2-7.61,18.57
					c-4.55-0.58-11,7.69-14.63,11.88c0.68,0.92,1.83,2.43,2.76,2.99c2.04-1.76,12.18-7.67,15.86-9.33c0.07-0.01,0.13-0.05,0.18-0.08
					c2.55-1.66,7.13-7.79,11.15-12.29c1.71-1.91,2.25-3.76,4.04-6.3c0.6-0.85,1.37-3.54,2.32-5.36
					C187.21,139.62,183.85,138.8,180.99,136.2z"/>
			</g>
			<g>
				<path class="st81" d="M191.26,138.58c0.42-0.02,0.25,1.4-0.22,1.55c-0.47,0.14-3.61,0.51-6.35-0.31
					c-2.74-0.82-4.64-2.15-4.73-2.56c-0.04-0.17,0.4-1.22,0.85-1.02c0.46,0.21,2.84,1.71,4.98,2.17
					C187.93,138.86,191.26,138.58,191.26,138.58z"/>
			</g>
			<g>
				<g>
					<g>
						<path class="st80" d="M201.99,135c-3.37-1.16-7.97-5.57-10.57-10.26c-1.08-1.95-0.37-4.41,1.57-5.51
							c1.38-0.78,3.12-0.21,3.77,1.24l1.72,3.83c0,0,1.3,4.27,5.33,7.09c4.03,2.82,9.49,3.54,9.49,3.54l-0.21,2.1
							C213.11,137.02,206.26,136.46,201.99,135z"/>
					</g>
				</g>
				<g>
					<path class="st79" d="M213.17,135.21c1.42-0.55,1.93-1.33,2.24-1.1c0.31,0.23-0.94,0.86-0.9,1.1c0.04,0.24,2.74-0.29,2.77-0.02
						c0.04,0.27-1.91,0.57-1.91,0.65c-0.01,0.08,2.28,0.01,2.26,0.22c-0.02,0.21-2.33,0.28-2.31,0.41c0.01,0.13,2.33,0.4,2.21,0.62
						c-0.12,0.22-2.1-0.01-2.27,0.04c-0.18,0.05,1.45,0.31,1.39,0.53c-0.06,0.23-3.19-0.48-4.01-1.13
						C211.8,135.9,212.54,135.46,213.17,135.21z"/>
				</g>
				<g>
					<path class="st72" d="M211.63,134.6c0.01,0,1.69,0.32,1.69,0.32l-0.21,2.1l-1.89-0.19L211.63,134.6z"/>
				</g>
			</g>
			<g>
				<path class="st83" d="M197.02,117.46c-0.06,0.1-0.73,0.37-1.25,0.24c-0.47-0.12-0.79-0.63-0.82-0.83
					c-0.19-1.51,1.37-4.85,2.5-4.64c0.25,0.05,0.42,0.25,0.52,0.54C198.44,114.16,197.65,116.42,197.02,117.46z"/>
			</g>
			<g>
				<path class="st72" d="M194.26,116.68c0.11-1.05,0.38-2.33,0.95-2.19c0.57,0.15,1.47,1.19,2.05,1.67
					c0.58,0.48,0.6,1.39,0.82,1.67c0.22,0.28-0.55,0.59-2.03,0.18C194.56,117.62,194.18,117.47,194.26,116.68z"/>
			</g>
			<g>
				<g>
					<path class="st79" d="M198.7,114.97c-2.98-0.09-6.78-4.98-5.35-8.53c1.43-3.55,6.48-4.23,8.16,0
						C203.19,110.67,200.75,115.03,198.7,114.97z"/>
				</g>
				<g>
					<path class="st82" d="M202.44,105c-1.02,0.83-1.53,2.82-3.37,2.82c-1.84,0-3.37,0.86-3.25,1.96c0.12,1.1,0.61,1.59,0.31,1.78
						c-0.31,0.18-1.47-2.62-1.96-2.32c-0.49,0.3,0.72,2.54,0.24,2.8c-0.48,0.26-2.32-1.72-2.32-3.64c0-1.92,1.1-6.7,5.21-6.7
						C201.39,101.7,203.42,104.21,202.44,105z"/>
				</g>
				<g>
					<path class="st83" d="M200.29,108.8c0.54,0.9,1.23,3.02,0.74,3.26c-0.49,0.24-1.1,0-1.1,0S200.05,108.4,200.29,108.8z"/>
				</g>
			</g>
			<g>
				<path class="st81" d="M155.84,171.27l-0.28-0.33c3.17-2.71,7.97-6.81,12.21-8.71l0.19-0.09c0.98-0.44,2-0.89,2.69-1.68
					c0.41-0.47,0.69-1.04,0.99-1.69l0.36-0.77c3.01-6.53,6.43-13.93,9.77-19.4l0.37,0.23c-3.33,5.45-6.74,12.84-9.74,19.36
					l-0.36,0.77c-0.31,0.68-0.61,1.28-1.05,1.79c-0.75,0.87-1.81,1.34-2.84,1.8l-0.19,0.09C163.77,164.49,159,168.57,155.84,171.27z
					"/>
			</g>
			<g>
				<path class="st81" d="M175.81,143.18c-0.74,0-1.45-0.38-1.49-0.4l0.21-0.38c0.01,0.01,0.99,0.53,1.7,0.28
					c1.19-0.41,1.92-2.42,1.92-2.84c-0.25-0.22-0.93-0.9-0.97-0.93l0.3-0.31c0.23,0.22,0.84,0.83,0.99,0.95
					c0.11,0.09,0.13,0.23,0.08,0.5c-0.12,0.65-0.86,2.58-2.18,3.03C176.19,143.15,176,143.18,175.81,143.18z"/>
			</g>
			<g>
				<path class="st81" d="M186.57,148.48l-0.35-0.25c0.02-0.03,1.84-2.63,2.4-3.98c0.55-1.32,0.37-3.89,0.36-3.92l0.43-0.03
					c0.01,0.11,0.19,2.7-0.4,4.12C188.43,145.81,186.64,148.37,186.57,148.48z"/>
			</g>
			<g>
				<path class="st72" d="M189.29,131.35c1.71,0.97,3.61,1.89,5.56,2.45c0.38-0.65,0.73-1.3,1.07-1.95
					c-1.69-0.8-3.48-1.45-5.12-2.35c-1.87-1.03-3.75-2.19-5.53-3.37c-0.21,0.37-0.41,0.75-0.61,1.12
					C185.54,129.1,187.55,130.37,189.29,131.35z"/>
			</g>
			<g>
				<path class="st72" d="M185.94,131.09c-0.83-0.57-1.54-1.26-2.26-1.94c-0.35,0.73-0.68,1.43-0.96,2.11
					c1.21,2.07,3.61,3.71,5.48,4.7c1.11,0.59,2.47,1.36,3.88,1.95c0.74-0.94,1.42-1.94,2.06-2.95c-1.48-0.41-2.93-1.16-4.3-1.81
					C188.52,132.53,187.15,131.92,185.94,131.09z"/>
			</g>
		</g>
		<g>
			<g>
				<path class="st81" d="M311.71,121.1c-1.03,3.11-0.92,5.01,0.22,6.22c1.14,1.21,3.67-2.36,2.93-3.97
					c-0.75-1.61-1.52-4.21-1.52-4.21L311.71,121.1z"/>
			</g>
			<g>
				<path class="st81" d="M299.88,123.25c-3.04,1.12-6.01,1.97-5.59,2.84c0.42,0.86,6.11,0.63,7.03-0.14
					c0.92-0.77,0.64-3.8,0.64-3.8L299.88,123.25z"/>
			</g>
			<g>
				<path class="st83" d="M304.51,58.65c-5.42,3.07-8.74,13.32-9.27,15.54c-0.66,2.78-0.11,6.37,1.52,6.13
					c1.63-0.24,7.29-11.66,7.75-13.29C304.97,65.4,304.51,58.65,304.51,58.65z"/>
			</g>
			<g>
				<path class="st82" d="M303.47,80.93c-3.14,2.25,5,24.66,5.65,26.02c0.65,1.37,1.89,15.72,1.89,15.72l4.19,0
					c0,0,1.14-8.94,1.14-11.72c-0.01-3.2-2.51-7.1-2.51-7.1s2.74-12.66,1.1-19.61C313.7,79.05,308.47,77.35,303.47,80.93z"/>
			</g>
			<g>
				<g>
					<path class="st84" d="M304,58.77c-3.21,1.15-7.14,9.1-7.14,9.25c0,0.15,4.54,5.27,4.54,5.27l3.47-2.44L304,58.77z"/>
				</g>
			</g>
			<g>
				<path class="st85" d="M297.28,67.14c-0.27-0.39-1.71,2.13-1.42,2.63c0.3,0.5,5.53,6.26,5.53,6.26l1.4-2.09L297.28,67.14z"/>
			</g>
			<g>
				<path class="st82" d="M301.46,80.48c-3.58,1.44-1.29,22.09-1.73,25.63c-0.18,1.5-1.08,17.13-1.08,17.13l4.32,0.58
					c0,0,2.03-9.02,2.69-11.71c0.75-3.11-0.36-6.43-0.36-6.43s6.45-12.11,6.5-19.24C311.84,81.08,307.16,78.19,301.46,80.48z"/>
			</g>
			<g>
				<path class="st85" d="M314.23,83.37c0.38-4.23-0.78-5.67-0.56-8.56c0.22-2.9-0.57-8.23-0.35-10.2c0.22-1.98,0.05-9.4-5.86-8.07
					c-5.9,1.33-6.62,3.47-7.29,8.79c-0.67,5.32-0.2,7.35-0.11,11.76c0.03,1.23-0.91,5.93-0.91,5.93s3.55,2.14,6.99,2.68
					C308.89,86.13,314.23,83.37,314.23,83.37z"/>
			</g>
			<g>
				<path class="st79" d="M311.45,57.67c-3.26,0.42-1.91,5.27,0.68,6.79c2.15,1.27,7.75,5.85,9.89,7.68
					c0.56-1.42,2.52-1.98,3.87-1.37C322.82,66.27,314.64,57.26,311.45,57.67z"/>
			</g>
			<g>
				<path class="st83" d="M305.08,59.23c0.48,0.64,3.04-0.76,3.45-1.27c0.41-0.51,0.72-1.85,0.56-3.18
					c-0.17-1.34-1.76-1.23-2.69-0.89S304.41,58.34,305.08,59.23z"/>
			</g>
			<g>
				<path class="st79" d="M306.42,44.03c-2.25-0.24-5.01,1.34-5.02,4.44c-0.01,3.52,1.36,8.63,3.82,8.62
					c2.08-0.01,5.1-1.22,5.37-4.74c0.04-0.45,2.27-2.56,2.08-3.81c-0.22-1.4-1.58-0.4-1.66-0.69
					C310.42,45.65,309.05,44.31,306.42,44.03z"/>
			</g>
			<g>
				<path class="st83" d="M304.21,50.55c-0.82,0.33-1.84,3.85-1.22,4.2c0.61,0.35,1.36,0.52,1.62,0.31
					C304.87,54.84,304.41,50.47,304.21,50.55z"/>
			</g>
			<g>
				<g>
					<path class="st79" d="M311.45,57.67c-3.02-1.29-2.02,5.62-0.06,7.89c2.12,2.46,8.49,5.09,10.63,6.92
						c0.56-1.42,3.96-0.95,5.31-0.34C324.51,66.49,320.93,61.71,311.45,57.67z"/>
				</g>
				<g>
					<path class="st84" d="M309.36,58.25c-2.31,2.29,0.26,6.31,3.84,9.08c3.59,2.77,2.05,1.39,2.05,1.39l4.94-5.67
						c0,0,1.58,0.87-2.48-2.3C313.66,57.58,311.49,56.13,309.36,58.25z"/>
				</g>
				<g>
					<g>
						<path class="st79" d="M321.7,71.44c0.18,0.55,0.29,0.92,0.32,1.05c0.14,0.62-6.07,3.37-8.97,5.77c-0.48,0.4,0.75,1.91,0.72,2
							c-0.19,0.64,12.83-3.65,14.15-6.86c0.12-0.3-1.02-2.43-2.11-4.04C324.98,68.13,322.92,70.52,321.7,71.44z"/>
					</g>
					<g>
						<path class="st83" d="M313.73,82.42c0.69-0.32,0.65-1.16,0.59-1.57c-0.06-0.4-0.89-1.17-0.89-1.17l-0.75,0.92L313.73,82.42z"
							/>
					</g>
					<g>
						<path class="st79" d="M313.04,78.26c-1.05,0.68-1.91,1.18-2.01,2.25c-0.1,1.07,1.39,1.84,2.34,1.94
							c0.94,0.1,0.32-0.75,0.35-1.04c0.03-0.3-0.45-0.85,0.75-1.17C315.23,80.02,315.26,76.83,313.04,78.26z"/>
					</g>
				</g>
				<g>
					<path class="st85" d="M320.17,62.4c0.53,0.59,2.65,2.15,2.22,2.43c-0.42,0.28-5.79,5.19-5.79,5.19
						c-0.21-0.03-2.54-0.98-2.55-1.46C314.06,68.09,319.84,62.04,320.17,62.4z"/>
				</g>
			</g>
			<g>
				<path class="st79" d="M290.33,69.58c-1.07-2.98-2.05-5.37-1.75-6.11c0.29-0.75,1.01-1.03,2.28,0.83
					c1.27,1.86,5.34,8.46,6.31,10.37c0.97,1.91,1.58,4.84,0,5.74C294.48,81.82,291.4,72.56,290.33,69.58z"/>
			</g>
			<g>
				<path class="st79" d="M289.25,66.53c-0.73-1.63-0.73-2.59-1.26-3.75c-0.18-0.39-0.87-1.87-0.67-2.06
					c0.2-0.19,0.99,1.55,1.04,1.39c0.05-0.14-1.08-2.41-0.87-2.56c0.2-0.15,1.28,2,1.35,1.89c0.1-0.16-1.06-2.59-0.86-2.66
					c0.33-0.12,1.21,2.44,1.35,2.36c0.09-0.05-0.73-1.96-0.45-2.14c0.28-0.18,1.42,2.84,1.48,3.19c0.07,0.35,0.89-1.86,1.45-1.56
					c0.29,0.16-0.28,1.75-0.92,2.82c-0.49,0.83,0.36,1.45,1,2.45c0.38,0.6-2.46,1.09-2.46,1.09L289.25,66.53z"/>
			</g>
			<g>
				<path class="st84" d="M306.66,64.44c-0.25-0.05-0.5-0.1-0.75-0.15c0,0.43-0.01,0.87-0.01,1.3c0,0.12,0,0.24,0.08,0.33
					c0.05,0.06,0.12,0.09,0.19,0.12c0.41,0.18,0.83,0.32,1.26,0.43c0.85,0.22,1.73,0.31,2.6,0.4c0-0.44,0.01-0.87,0.01-1.31
					c0-0.1,0-0.2-0.04-0.29C309.75,64.69,307.22,64.55,306.66,64.44z"/>
			</g>
			<g>
				<path class="st81" d="M314.81,122.92l-0.18-0.01c0.11-2.85,0.12-5.75,0.03-8.6c-0.06-1.71-0.15-3.53-0.67-5.22
					c-0.24-0.79-0.58-1.57-0.91-2.33c-0.52-1.2-1.07-2.45-1.23-3.77c-0.15-1.21-0.12-2.24,0.1-3.17c1.31-5.68,1.68-11.46,1.01-15.87
					l0.17-0.03c0.67,4.43,0.3,10.24-1.02,15.94c-0.21,0.9-0.24,1.92-0.1,3.1c0.16,1.3,0.7,2.53,1.22,3.73
					c0.33,0.76,0.67,1.55,0.92,2.35c0.52,1.71,0.62,3.54,0.68,5.26C314.94,117.16,314.93,120.06,314.81,122.92z"/>
			</g>
			<g>
				<path class="st82" d="M301.4,49.37c-0.77-0.94-1.17-6.12,0.26-6.56c1.43-0.44,1.43,1.19,1.43,1.19s1.93-2.85,3.42-2.02
					c1.49,0.83,0.49,1.76,0.49,1.76s2.6-1.87,3.48-0.33c0.88,1.54-0.44,2.16-0.44,2.16s1.99-0.92,2.47-0.11
					c0.87,1.49-0.39,1.92-1.1,2.39c-0.71,0.47-1.49,4.44-1.87,4.55c-0.38,0.11,0.51-2.72-0.01-3.2
					C305.22,45.24,301.4,49.37,301.4,49.37z"/>
			</g>
		</g>
	</g>
	<g>
		<path class="st80" d="M81.88,154.49H43.71c-7.35,0-13.36-6.01-13.36-13.36c0-7.35,6.01-13.36,13.36-13.36h38.18
			c7.35,0,13.36,6.01,13.36,13.36C95.24,148.48,89.23,154.49,81.88,154.49z"/>
		<g>
			<path class="st72" d="M38.33,137.84c0.51-0.09,1.27-0.15,2.11-0.15c1.04,0,1.77,0.16,2.28,0.56c0.42,0.33,0.65,0.83,0.65,1.47
				c0,0.89-0.64,1.51-1.24,1.73c0.49,0.23,0.76,0.7,0.94,1.34c0.22,0.8,0.43,1.71,0.57,1.99h-1.63c-0.11-0.2-0.28-0.77-0.48-1.64
				c-0.2-0.88-0.49-1.11-1.15-1.12h-0.47v2.76h-1.58V137.84z M39.91,140.87h0.62c0.79,0,1.26-0.4,1.26-1.01
				c0-0.64-0.44-0.97-1.17-0.98c-0.38,0-0.6,0.02-0.72,0.05V140.87z"/>
			<path class="st72" d="M45.7,142.73c0.05,0.66,0.7,0.97,1.44,0.97c0.54,0,0.98-0.07,1.41-0.22l0.21,1.07
				c-0.53,0.22-1.17,0.32-1.85,0.32c-1.73,0-2.72-1.01-2.72-2.6c0-1.3,0.81-2.73,2.57-2.73c1.66,0,2.28,1.29,2.28,2.55
				c0,0.28-0.03,0.51-0.06,0.63H45.7z M47.57,141.65c0-0.38-0.17-1.04-0.89-1.04c-0.67,0-0.94,0.61-0.99,1.04H47.57z"/>
			<path class="st72" d="M52.9,144.78l-0.09-0.51c-0.37,0.41-0.89,0.62-1.49,0.62c-1.04,0-1.65-0.75-1.65-1.56
				c0-1.33,1.19-1.96,3-1.96v-0.06c0-0.27-0.15-0.66-0.94-0.66c-0.52,0-1.07,0.18-1.41,0.38l-0.29-1.02
				c0.36-0.2,1.05-0.46,1.99-0.46c1.7,0,2.24,1.01,2.24,2.21v1.78c0,0.49,0.03,0.95,0.08,1.24H52.9z M52.7,142.36
				c-0.84,0-1.48,0.2-1.48,0.81c0,0.41,0.27,0.61,0.63,0.61c0.39,0,0.72-0.26,0.82-0.59c0.02-0.08,0.03-0.18,0.03-0.27V142.36z"/>
			<path class="st72" d="M60.45,137.37v5.89c0,0.58,0.02,1.18,0.04,1.53h-1.41l-0.07-0.75c-0.34,0.57-0.96,0.86-1.62,0.86
				c-1.21,0-2.18-1.04-2.18-2.62c-0.01-1.72,1.07-2.72,2.29-2.72c0.63,0,1.11,0.22,1.34,0.58c0.02,0,0.02-2.76,0.02-2.76H60.45z
				 M58.86,141.84c0-0.09,0-0.2-0.02-0.29c-0.09-0.43-0.44-0.78-0.92-0.78c-0.73,0-1.1,0.65-1.1,1.45c0,0.86,0.42,1.4,1.09,1.4
				c0.45,0,0.82-0.31,0.92-0.76c0.03-0.11,0.03-0.23,0.03-0.36V141.84z"/>
			<path class="st72" d="M63.82,141.3c0-0.64-0.02-1.17-0.04-1.63h1.34l0.07,0.69c0.25-0.32,0.71-0.81,1.57-0.81
				c0.66,0,1.18,0.34,1.4,0.88c0.21-0.27,0.44-0.48,0.68-0.62c0.28-0.17,0.59-0.25,0.97-0.25c0.98,0,1.72,0.69,1.72,2.22v3.01h-1.54
				V142c0-0.74-0.24-1.17-0.75-1.17c-0.37,0-0.62,0.25-0.73,0.55c-0.04,0.11-0.06,0.28-0.06,0.4v2.99h-1.55v-2.86
				c0-0.64-0.23-1.08-0.74-1.08c-0.41,0-0.65,0.31-0.74,0.57c-0.05,0.12-0.06,0.27-0.06,0.4v2.97h-1.55V141.3z"/>
			<path class="st72" d="M77.83,142.17c0,1.87-1.32,2.72-2.69,2.72c-1.49,0-2.64-0.98-2.64-2.63c0-1.65,1.09-2.71,2.73-2.71
				C76.79,139.55,77.83,140.63,77.83,142.17z M74.14,142.23c0,0.87,0.37,1.53,1.04,1.53c0.62,0,1.01-0.62,1.01-1.54
				c0-0.75-0.29-1.53-1.01-1.53C74.43,140.69,74.14,141.47,74.14,142.23z"/>
			<path class="st72" d="M78.81,141.35c0-0.75-0.01-1.24-0.04-1.68h1.36l0.06,0.95c0.3-0.75,0.92-1.06,1.42-1.06
				c0.15,0,0.22,0,0.34,0.03v1.49c-0.12-0.03-0.25-0.04-0.43-0.04c-0.58,0-0.98,0.31-1.09,0.81c-0.02,0.1-0.03,0.22-0.03,0.35v2.59
				h-1.59V141.35z"/>
			<path class="st72" d="M83.92,142.73c0.05,0.66,0.7,0.97,1.44,0.97c0.54,0,0.98-0.07,1.41-0.22l0.21,1.07
				c-0.53,0.22-1.17,0.32-1.85,0.32c-1.73,0-2.72-1.01-2.72-2.6c0-1.3,0.81-2.73,2.58-2.73c1.66,0,2.28,1.29,2.28,2.55
				c0,0.28-0.03,0.51-0.06,0.63H83.92z M85.78,141.65c0-0.38-0.17-1.04-0.89-1.04c-0.67,0-0.94,0.61-0.99,1.04H85.78z"/>
		</g>
		<g>
			<g>
				<path class="st74" d="M38.08,63.14c-1.56-0.43-2.96-0.91-4.38-1.45c-0.24-0.09-0.49-0.16-0.73-0.17
					c-2.6-0.13-4.92-2.05-4.92-5.69c0-3.47,2.16-5.9,5.37-5.9c3.26,0,5.18,2.49,5.18,5.67c0,2.7-1.25,4.52-2.9,5.18v0.07
					c0.97,0.27,2.05,0.5,2.97,0.67L38.08,63.14z M36.43,55.69c0-2.14-1.05-4.12-3.08-4.12c-2.05,0-3.14,1.95-3.14,4.2
					c0,2.25,1.15,4.11,3.1,4.11C35.3,59.88,36.43,58.05,36.43,55.69z"/>
				<path class="st74" d="M47.61,58.91c0,0.96,0.03,1.77,0.07,2.43h-1.79l-0.1-1.23c-0.39,0.57-1.19,1.41-2.65,1.41
					c-1.48,0-2.82-0.89-2.82-3.54v-4.76h2.05v4.41c0,1.35,0.43,2.21,1.51,2.21c0.82,0,1.35-0.57,1.57-1.1
					c0.07-0.18,0.11-0.4,0.11-0.63v-4.89h2.05V58.91z"/>
				<path class="st74" d="M54.4,61.34l-0.14-0.9c-0.54,0.64-1.39,1.09-2.44,1.09c-1.65,0-2.56-1.18-2.56-2.41
					c0-2.05,1.82-3.08,4.81-3.07v-0.13c0-0.53-0.21-1.42-1.65-1.41c-0.79,0-1.63,0.26-2.18,0.6l-0.41-1.33
					c0.61-0.37,1.66-0.72,2.94-0.72c2.6,0,3.34,1.64,3.34,3.42v2.92c0,0.74,0.04,1.45,0.13,1.95H54.4z M54.12,57.37
					c-1.45-0.02-2.83,0.29-2.83,1.52c0,0.79,0.52,1.17,1.17,1.17c0.82,0,1.41-0.53,1.6-1.12c0.04-0.14,0.06-0.3,0.06-0.45V57.37z"/>
				<path class="st74" d="M58.3,49.51h2.05v11.83H58.3V49.51z"/>
				<path class="st74" d="M64.75,50.96c0,0.61-0.44,1.11-1.17,1.11c-0.68,0-1.13-0.49-1.12-1.11c0-0.62,0.46-1.11,1.15-1.11
					C64.3,49.85,64.74,50.33,64.75,50.96z M62.58,61.34v-8.11h2.05v8.11H62.58z"/>
				<path class="st74" d="M67.07,61.34v-6.58h-1.1v-1.53h1.1v-0.39c0-2.19,1.52-3.51,3.93-3.51c0.81,0,1.78,0.21,2.24,0.52
					l-0.45,1.55c-0.38-0.22-1.02-0.44-1.78-0.44c-1.43,0-1.89,0.86-1.89,1.94v0.34h4.84v8.11h-2.05v-6.58h-2.77v6.58H67.07z"/>
				<path class="st74" d="M77.6,57.85c0.05,1.47,1.19,2.11,2.5,2.11c0.94,0,1.62-0.15,2.24-0.38l0.3,1.41
					c-0.69,0.29-1.66,0.51-2.83,0.51c-2.63,0-4.18-1.63-4.18-4.11c0-2.24,1.36-4.36,3.97-4.36c2.64,0,3.49,2.17,3.49,3.94
					c0,0.38-0.03,0.69-0.07,0.86H77.6z M81.17,56.42c0.01-0.75-0.32-1.98-1.69-1.98c-1.26,0-1.79,1.15-1.88,1.98H81.17z"/>
				<path class="st74" d="M92.22,49.51v9.55c0,0.83,0.03,1.72,0.07,2.27h-1.83l-0.09-1.28c-0.52,0.91-1.5,1.47-2.67,1.47
					c-1.94,0-3.47-1.65-3.47-4.14c-0.01-2.72,1.69-4.33,3.64-4.33c1.11,0,1.91,0.46,2.27,1.06c0.03,0,0.03-4.59,0.03-4.59H92.22z
					 M90.17,56.61c0-0.16-0.01-0.37-0.05-0.53c-0.18-0.79-0.84-1.44-1.76-1.44c-1.32,0-2.05,1.17-2.05,2.67
					c0,1.49,0.74,2.58,2.03,2.58c0.84,0,1.56-0.57,1.77-1.46c0.05-0.18,0.06-0.38,0.06-0.6V56.61z"/>
			</g>
			<g>
				<path class="st74" d="M29.46,76.01c0.45,0.28,1.33,0.59,2.07,0.59c0.9,0,1.31-0.38,1.31-0.91c0-0.55-0.33-0.83-1.33-1.18
					c-1.59-0.54-2.25-1.41-2.24-2.37c0-1.43,1.18-2.54,3.08-2.54c0.89,0,1.68,0.22,2.15,0.48l-0.41,1.44
					c-0.34-0.19-1-0.47-1.72-0.47c-0.73,0-1.14,0.36-1.14,0.86c0,0.51,0.39,0.76,1.42,1.14c1.48,0.52,2.16,1.27,2.16,2.47
					c0,1.48-1.15,2.55-3.29,2.55c-0.98,0-1.87-0.24-2.47-0.57L29.46,76.01z"/>
				<path class="st74" d="M36.5,72.47c0-1.05-0.03-1.93-0.07-2.69h1.8l0.1,1.25c0.63-0.92,1.57-1.43,2.81-1.43
					c1.86,0,3.4,1.59,3.4,4.12c0,2.94-1.84,4.35-3.69,4.35c-1.02,0-1.87-0.43-2.28-1.08c-0.03,0-0.03,4.2-0.03,4.2H36.5V72.47z
					 M38.55,74.5c0,0.2,0.02,0.39,0.06,0.56c0.21,0.83,0.93,1.43,1.8,1.43c1.3,0,2.06-1.08,2.06-2.67c0-1.44-0.7-2.6-2.02-2.6
					c-0.84,0-1.62,0.62-1.83,1.52c-0.04,0.16-0.07,0.35-0.07,0.52V74.5z"/>
				<path class="st74" d="M47.73,74.41c0.05,1.47,1.19,2.11,2.5,2.11c0.94,0,1.62-0.15,2.24-0.38l0.3,1.41
					c-0.69,0.29-1.66,0.51-2.83,0.51c-2.63,0-4.18-1.63-4.18-4.11c0-2.24,1.36-4.36,3.97-4.36c2.64,0,3.49,2.17,3.49,3.94
					c0,0.38-0.03,0.69-0.07,0.86H47.73z M51.29,72.98C51.3,72.22,50.97,71,49.6,71c-1.26,0-1.79,1.15-1.88,1.98H51.29z"/>
				<path class="st74" d="M60.83,77.65c-0.42,0.2-1.27,0.42-2.29,0.42c-2.54,0-4.18-1.63-4.18-4.15c0-2.43,1.66-4.32,4.51-4.32
					c0.76,0,1.51,0.17,1.98,0.37l-0.36,1.54c-0.33-0.16-0.82-0.32-1.55-0.32c-1.56,0-2.49,1.14-2.48,2.63
					c0,1.66,1.09,2.62,2.49,2.62c0.7,0,1.21-0.15,1.61-0.32L60.83,77.65z"/>
				<path class="st74" d="M64.53,67.51c0,0.61-0.44,1.11-1.17,1.11c-0.68,0-1.13-0.49-1.12-1.11c0-0.63,0.46-1.11,1.15-1.11
					C64.08,66.41,64.52,66.88,64.53,67.51z M62.36,77.89v-8.11h2.05v8.11H62.36z"/>
				<path class="st74" d="M71.19,77.89l-0.14-0.9c-0.54,0.64-1.39,1.09-2.44,1.09c-1.65,0-2.56-1.18-2.56-2.41
					c0-2.05,1.82-3.08,4.81-3.07v-0.13c0-0.53-0.21-1.42-1.65-1.41c-0.79,0-1.63,0.26-2.18,0.6l-0.41-1.33
					c0.61-0.37,1.66-0.72,2.94-0.72c2.6,0,3.34,1.64,3.34,3.42v2.92c0,0.74,0.04,1.45,0.13,1.95H71.19z M70.92,73.92
					c-1.45-0.02-2.83,0.29-2.83,1.52c0,0.79,0.52,1.17,1.17,1.17c0.82,0,1.41-0.53,1.6-1.12c0.04-0.14,0.06-0.3,0.06-0.45V73.92z"/>
				<path class="st74" d="M75.09,66.07h2.05v11.83h-2.05V66.07z"/>
				<path class="st74" d="M81.54,67.51c0,0.61-0.44,1.11-1.17,1.11c-0.68,0-1.13-0.49-1.12-1.11c0-0.63,0.46-1.11,1.15-1.11
					C81.09,66.41,81.53,66.88,81.54,67.51z M79.37,77.89v-8.11h2.05v8.11H79.37z"/>
				<path class="st74" d="M83.53,76.01c0.45,0.28,1.34,0.59,2.07,0.59c0.9,0,1.31-0.38,1.31-0.91c0-0.55-0.33-0.83-1.33-1.18
					c-1.59-0.54-2.25-1.41-2.24-2.37c0-1.43,1.18-2.54,3.08-2.54c0.89,0,1.68,0.22,2.15,0.48l-0.41,1.44
					c-0.34-0.19-1-0.47-1.72-0.47c-0.73,0-1.14,0.36-1.14,0.86c0,0.51,0.39,0.76,1.42,1.14c1.48,0.52,2.16,1.27,2.16,2.47
					c0,1.48-1.15,2.55-3.29,2.55c-0.98,0-1.87-0.24-2.47-0.57L83.53,76.01z"/>
				<path class="st74" d="M92.93,67.46v2.32h1.95v1.53h-1.95v3.58c0,0.99,0.26,1.5,1.05,1.5c0.35,0,0.61-0.04,0.8-0.09l0.04,1.56
					c-0.31,0.12-0.85,0.21-1.49,0.21c-0.75,0-1.38-0.26-1.76-0.67c-0.44-0.47-0.64-1.21-0.64-2.27v-3.81h-1.16v-1.53h1.16v-1.84
					L92.93,67.46z"/>
				<path class="st74" d="M96.33,76.01c0.45,0.28,1.34,0.59,2.07,0.59c0.9,0,1.31-0.38,1.31-0.91c0-0.55-0.33-0.83-1.33-1.18
					c-1.59-0.54-2.25-1.41-2.24-2.37c0-1.43,1.19-2.54,3.08-2.54c0.89,0,1.68,0.22,2.15,0.48l-0.41,1.44
					c-0.34-0.19-1-0.47-1.72-0.47c-0.73,0-1.14,0.36-1.14,0.86c0,0.51,0.39,0.76,1.42,1.14c1.48,0.52,2.16,1.27,2.16,2.47
					c0,1.48-1.15,2.55-3.29,2.55c-0.98,0-1.87-0.24-2.47-0.57L96.33,76.01z"/>
			</g>
		</g>
		<g class="st86">
			<path class="st74" d="M29.62,91.06h0.96v4.45h2.16v0.81h-3.12V91.06z"/>
			<path class="st74" d="M36.95,94.38c0,1.39-0.98,2.02-1.95,2.02c-1.07,0-1.9-0.74-1.9-1.95c0-1.24,0.82-2.01,1.96-2.01
				C36.2,92.43,36.95,93.23,36.95,94.38z M34.09,94.42c0,0.73,0.36,1.28,0.94,1.28c0.55,0,0.93-0.53,0.93-1.29
				c0-0.6-0.26-1.28-0.93-1.28C34.37,93.13,34.09,93.79,34.09,94.42z"/>
			<path class="st74" d="M37.75,93.74c0-0.51-0.01-0.88-0.03-1.22h0.83l0.04,0.72c0.21-0.53,0.66-0.81,1.07-0.81
				c0.09,0,0.15,0,0.23,0.02v0.9c-0.08-0.02-0.17-0.03-0.28-0.03c-0.46,0-0.77,0.29-0.86,0.73c-0.02,0.08-0.02,0.19-0.02,0.29v1.97
				h-0.96V93.74z"/>
			<path class="st74" d="M41.13,94.68c0.03,0.69,0.56,0.99,1.17,0.99c0.44,0,0.76-0.07,1.05-0.18l0.14,0.66
				c-0.33,0.14-0.78,0.24-1.33,0.24c-1.23,0-1.95-0.76-1.95-1.92c0-1.05,0.64-2.04,1.86-2.04c1.23,0,1.63,1.01,1.63,1.85
				c0,0.18-0.02,0.32-0.03,0.4H41.13z M42.8,94.01c0-0.35-0.15-0.92-0.79-0.92c-0.59,0-0.84,0.54-0.88,0.92H42.8z"/>
			<path class="st74" d="M44.48,93.65c0-0.44-0.01-0.8-0.03-1.13h0.82l0.04,0.56c0.21-0.29,0.55-0.64,1.19-0.64
				c0.5,0,0.89,0.28,1.05,0.7c0.15-0.21,0.31-0.37,0.48-0.48c0.22-0.15,0.46-0.22,0.77-0.22c0.63,0,1.27,0.43,1.27,1.65v2.23h-0.94
				v-2.1c0-0.63-0.22-1-0.68-1c-0.33,0-0.57,0.23-0.67,0.5c-0.03,0.09-0.05,0.21-0.05,0.32v2.28H46.8v-2.19
				c0-0.53-0.21-0.91-0.65-0.91c-0.36,0-0.6,0.28-0.69,0.54c-0.03,0.1-0.05,0.21-0.05,0.32v2.24h-0.94V93.65z"/>
			<path class="st74" d="M53.72,91.46c0,0.29-0.21,0.52-0.55,0.52c-0.32,0-0.53-0.23-0.53-0.52c0-0.29,0.21-0.52,0.54-0.52
				C53.51,90.94,53.72,91.16,53.72,91.46z M52.7,96.31v-3.79h0.96v3.79H52.7z"/>
			<path class="st74" d="M54.7,93.78c0-0.49-0.01-0.9-0.03-1.26h0.84l0.05,0.58c0.29-0.43,0.74-0.67,1.32-0.67
				c0.87,0,1.59,0.75,1.59,1.93c0,1.38-0.86,2.04-1.73,2.04c-0.48,0-0.87-0.2-1.07-0.51c-0.02,0-0.02,1.96-0.02,1.96H54.7V93.78z
				 M55.66,94.73c0,0.09,0.01,0.18,0.03,0.26c0.1,0.39,0.44,0.67,0.84,0.67c0.61,0,0.97-0.51,0.97-1.25c0-0.67-0.33-1.22-0.94-1.22
				c-0.39,0-0.76,0.29-0.86,0.71c-0.02,0.08-0.03,0.16-0.03,0.24V94.73z"/>
			<path class="st74" d="M59.22,95.43c0.21,0.13,0.62,0.28,0.97,0.28c0.42,0,0.61-0.18,0.61-0.43c0-0.26-0.16-0.39-0.62-0.55
				c-0.74-0.25-1.05-0.66-1.05-1.11c0-0.67,0.55-1.19,1.44-1.19c0.42,0,0.78,0.1,1.01,0.23l-0.19,0.67
				c-0.16-0.09-0.47-0.22-0.8-0.22c-0.34,0-0.53,0.17-0.53,0.4c0,0.24,0.18,0.36,0.66,0.53c0.69,0.24,1.01,0.6,1.01,1.16
				c0,0.69-0.54,1.19-1.54,1.19c-0.46,0-0.88-0.11-1.16-0.27L59.22,95.43z"/>
			<path class="st74" d="M65.91,95.18c0,0.45,0.01,0.83,0.03,1.14H65.1l-0.05-0.57c-0.18,0.27-0.56,0.66-1.24,0.66
				c-0.69,0-1.32-0.42-1.32-1.65v-2.23h0.96v2.06c0,0.63,0.2,1.03,0.71,1.03c0.38,0,0.63-0.27,0.73-0.51
				c0.03-0.08,0.05-0.19,0.05-0.3v-2.29h0.96V95.18z"/>
			<path class="st74" d="M66.95,93.65c0-0.44-0.01-0.8-0.03-1.13h0.82l0.04,0.56c0.21-0.29,0.55-0.64,1.19-0.64
				c0.5,0,0.89,0.28,1.05,0.7c0.15-0.21,0.31-0.37,0.48-0.48c0.22-0.15,0.46-0.22,0.77-0.22c0.63,0,1.27,0.43,1.27,1.65v2.23h-0.94
				v-2.1c0-0.63-0.22-1-0.68-1c-0.33,0-0.57,0.23-0.67,0.5c-0.03,0.09-0.05,0.21-0.05,0.32v2.28h-0.94v-2.19
				c0-0.53-0.21-0.91-0.65-0.91c-0.36,0-0.6,0.28-0.69,0.54c-0.03,0.1-0.05,0.21-0.05,0.32v2.24h-0.94V93.65z"/>
			<path class="st74" d="M78.67,90.78v4.47c0,0.39,0.01,0.81,0.03,1.06h-0.85l-0.04-0.6c-0.24,0.43-0.7,0.69-1.25,0.69
				c-0.91,0-1.62-0.77-1.62-1.94c-0.01-1.27,0.79-2.03,1.7-2.03c0.52,0,0.89,0.21,1.06,0.49c0.02,0,0.02-2.15,0.02-2.15H78.67z
				 M77.71,94.1c0-0.08,0-0.17-0.02-0.25c-0.08-0.37-0.39-0.67-0.82-0.67c-0.62,0-0.96,0.54-0.96,1.25c0,0.7,0.35,1.21,0.95,1.21
				c0.39,0,0.73-0.27,0.83-0.68c0.02-0.09,0.03-0.18,0.03-0.28V94.1z"/>
			<path class="st74" d="M83.31,94.38c0,1.39-0.98,2.02-1.95,2.02c-1.07,0-1.9-0.74-1.9-1.95c0-1.24,0.82-2.01,1.96-2.01
				C82.56,92.43,83.31,93.23,83.31,94.38z M80.45,94.42c0,0.73,0.36,1.28,0.94,1.28c0.55,0,0.93-0.53,0.93-1.29
				c0-0.6-0.26-1.28-0.93-1.28C80.73,93.13,80.45,93.79,80.45,94.42z"/>
			<path class="st74" d="M84.11,90.78h0.96v5.53h-0.96V90.78z"/>
			<path class="st74" d="M89.72,94.38c0,1.39-0.98,2.02-1.95,2.02c-1.07,0-1.9-0.74-1.9-1.95c0-1.24,0.82-2.01,1.96-2.01
				C88.96,92.43,89.72,93.23,89.72,94.38z M86.85,94.42c0,0.73,0.36,1.28,0.94,1.28c0.55,0,0.93-0.53,0.93-1.29
				c0-0.6-0.26-1.28-0.93-1.28C87.13,93.13,86.85,93.79,86.85,94.42z"/>
			<path class="st74" d="M90.51,93.74c0-0.51-0.01-0.88-0.03-1.22h0.83l0.04,0.72c0.21-0.53,0.66-0.81,1.07-0.81
				c0.09,0,0.15,0,0.23,0.02v0.9c-0.08-0.02-0.17-0.03-0.28-0.03c-0.46,0-0.77,0.29-0.86,0.73c-0.02,0.08-0.02,0.19-0.02,0.29v1.97
				h-0.96V93.74z"/>
			<path class="st74" d="M94.85,95.43c0.21,0.13,0.62,0.28,0.97,0.28c0.42,0,0.61-0.18,0.61-0.43c0-0.26-0.16-0.39-0.62-0.55
				c-0.74-0.25-1.05-0.66-1.05-1.11c0-0.67,0.55-1.19,1.44-1.19c0.42,0,0.78,0.1,1.01,0.23l-0.19,0.67
				c-0.16-0.09-0.47-0.22-0.8-0.22c-0.34,0-0.53,0.17-0.53,0.4c0,0.24,0.18,0.36,0.66,0.53c0.69,0.24,1.01,0.6,1.01,1.16
				c0,0.69-0.54,1.19-1.54,1.19c-0.46,0-0.88-0.11-1.16-0.27L94.85,95.43z"/>
			<path class="st74" d="M99.17,91.46c0,0.29-0.21,0.52-0.55,0.52c-0.32,0-0.53-0.23-0.53-0.52c0-0.29,0.21-0.52,0.54-0.52
				C98.96,90.94,99.16,91.16,99.17,91.46z M98.15,96.31v-3.79h0.96v3.79H98.15z"/>
			<path class="st74" d="M101.25,91.43v1.09h0.91v0.71h-0.91v1.67c0,0.46,0.12,0.7,0.49,0.7c0.16,0,0.29-0.02,0.37-0.04l0.02,0.73
				c-0.14,0.05-0.4,0.1-0.7,0.1c-0.35,0-0.65-0.12-0.82-0.31c-0.21-0.22-0.3-0.57-0.3-1.06v-1.78h-0.54v-0.71h0.54v-0.86
				L101.25,91.43z"/>
			<path class="st74" d="M106.63,96.31l-0.07-0.42c-0.25,0.3-0.65,0.51-1.14,0.51c-0.77,0-1.2-0.55-1.2-1.13
				c0-0.96,0.85-1.44,2.25-1.44v-0.06c0-0.25-0.1-0.66-0.77-0.66c-0.37,0-0.76,0.12-1.02,0.28l-0.19-0.62
				c0.29-0.17,0.78-0.34,1.38-0.34c1.22,0,1.56,0.77,1.56,1.6v1.37c0,0.34,0.02,0.68,0.06,0.91H106.63z M106.51,94.46
				c-0.68-0.01-1.32,0.13-1.32,0.71c0,0.37,0.24,0.55,0.55,0.55c0.38,0,0.66-0.25,0.75-0.52c0.02-0.07,0.03-0.14,0.03-0.21V94.46z"
				/>
			<path class="st74" d="M108.46,93.65c0-0.44-0.01-0.8-0.03-1.13h0.82l0.04,0.56c0.21-0.29,0.55-0.64,1.19-0.64
				c0.5,0,0.89,0.28,1.05,0.7c0.15-0.21,0.31-0.37,0.48-0.48c0.22-0.15,0.46-0.22,0.77-0.22c0.63,0,1.27,0.43,1.27,1.65v2.23h-0.94
				v-2.1c0-0.63-0.22-1-0.68-1c-0.33,0-0.57,0.23-0.67,0.5c-0.03,0.09-0.05,0.21-0.05,0.32v2.28h-0.94v-2.19
				c0-0.53-0.21-0.91-0.65-0.91c-0.36,0-0.6,0.28-0.69,0.54c-0.03,0.1-0.05,0.21-0.05,0.32v2.24h-0.94V93.65z"/>
			<path class="st74" d="M115.75,94.68c0.03,0.69,0.56,0.99,1.17,0.99c0.44,0,0.76-0.07,1.05-0.18l0.14,0.66
				c-0.33,0.14-0.78,0.24-1.33,0.24c-1.23,0-1.95-0.76-1.95-1.92c0-1.05,0.64-2.04,1.86-2.04c1.23,0,1.63,1.01,1.63,1.85
				c0,0.18-0.02,0.32-0.03,0.4H115.75z M117.42,94.01c0-0.35-0.15-0.92-0.79-0.92c-0.59,0-0.84,0.54-0.88,0.92H117.42z"/>
			<path class="st74" d="M120.2,91.43v1.09h0.91v0.71h-0.91v1.67c0,0.46,0.12,0.7,0.49,0.7c0.16,0,0.29-0.02,0.37-0.04l0.02,0.73
				c-0.14,0.05-0.4,0.1-0.7,0.1c-0.35,0-0.65-0.12-0.82-0.31c-0.21-0.22-0.3-0.57-0.3-1.06v-1.78h-0.54v-0.71h0.54v-0.86
				L120.2,91.43z"/>
			<path class="st74" d="M121.34,97.26c0.21-0.59,0.42-1.41,0.52-2.06l1.01-0.08c-0.22,0.74-0.57,1.57-0.88,2.08L121.34,97.26z"/>
			<path class="st74" d="M32.37,105.56c-0.2,0.09-0.6,0.2-1.07,0.2c-1.19,0-1.96-0.76-1.96-1.94c0-1.14,0.78-2.02,2.11-2.02
				c0.35,0,0.71,0.08,0.93,0.17l-0.17,0.72c-0.15-0.08-0.38-0.15-0.73-0.15c-0.73,0-1.17,0.54-1.16,1.23c0,0.78,0.51,1.22,1.17,1.22
				c0.33,0,0.57-0.07,0.75-0.15L32.37,105.56z"/>
			<path class="st74" d="M36.63,103.74c0,1.39-0.98,2.02-1.95,2.02c-1.07,0-1.9-0.74-1.9-1.95c0-1.24,0.82-2.01,1.96-2.01
				C35.87,101.79,36.63,102.59,36.63,103.74z M33.76,103.78c0,0.73,0.36,1.28,0.94,1.28c0.55,0,0.93-0.53,0.93-1.29
				c0-0.6-0.26-1.28-0.93-1.28C34.04,102.49,33.76,103.15,33.76,103.78z"/>
			<path class="st74" d="M37.42,103.01c0-0.44-0.01-0.8-0.03-1.13h0.84l0.05,0.57c0.19-0.29,0.6-0.66,1.23-0.66
				c0.66,0,1.35,0.43,1.35,1.63v2.25h-0.96v-2.14c0-0.54-0.2-0.96-0.72-0.96c-0.38,0-0.65,0.27-0.75,0.56
				c-0.03,0.08-0.04,0.2-0.04,0.3v2.23h-0.96V103.01z"/>
			<path class="st74" d="M41.83,104.79c0.21,0.13,0.62,0.28,0.97,0.28c0.42,0,0.61-0.18,0.61-0.43c0-0.26-0.16-0.39-0.62-0.55
				c-0.74-0.25-1.05-0.66-1.05-1.11c0-0.67,0.55-1.19,1.44-1.19c0.42,0,0.78,0.1,1.01,0.23L44,102.69c-0.16-0.09-0.47-0.22-0.8-0.22
				c-0.34,0-0.53,0.17-0.53,0.4c0,0.24,0.18,0.36,0.66,0.53c0.69,0.24,1.01,0.6,1.01,1.16c0,0.69-0.54,1.19-1.54,1.19
				c-0.46,0-0.88-0.11-1.16-0.27L41.83,104.79z"/>
			<path class="st74" d="M45.81,104.04c0.03,0.69,0.56,0.99,1.17,0.99c0.44,0,0.76-0.07,1.05-0.18l0.14,0.66
				c-0.33,0.14-0.78,0.24-1.33,0.24c-1.23,0-1.95-0.76-1.95-1.92c0-1.05,0.64-2.04,1.86-2.04c1.23,0,1.63,1.01,1.63,1.85
				c0,0.18-0.02,0.32-0.03,0.4H45.81z M47.48,103.37c0-0.35-0.15-0.92-0.79-0.92c-0.59,0-0.84,0.54-0.88,0.92H47.48z"/>
			<path class="st74" d="M51.94,105.56c-0.2,0.09-0.6,0.2-1.07,0.2c-1.19,0-1.96-0.76-1.96-1.94c0-1.14,0.78-2.02,2.11-2.02
				c0.35,0,0.71,0.08,0.93,0.17l-0.17,0.72c-0.15-0.08-0.38-0.15-0.73-0.15c-0.73,0-1.17,0.54-1.16,1.23c0,0.78,0.51,1.22,1.17,1.22
				c0.33,0,0.57-0.07,0.75-0.15L51.94,105.56z"/>
			<path class="st74" d="M53.87,100.79v1.09h0.91v0.71h-0.91v1.67c0,0.46,0.12,0.7,0.49,0.7c0.16,0,0.29-0.02,0.37-0.04l0.02,0.73
				c-0.14,0.05-0.4,0.1-0.7,0.1c-0.35,0-0.65-0.12-0.82-0.31c-0.21-0.22-0.3-0.57-0.3-1.06v-1.78h-0.54v-0.71h0.54v-0.86
				L53.87,100.79z"/>
			<path class="st74" d="M56.14,104.04c0.03,0.69,0.56,0.99,1.17,0.99c0.44,0,0.76-0.07,1.05-0.18l0.14,0.66
				c-0.33,0.14-0.78,0.24-1.33,0.24c-1.23,0-1.95-0.76-1.95-1.92c0-1.05,0.64-2.04,1.86-2.04c1.23,0,1.63,1.01,1.63,1.85
				c0,0.18-0.02,0.32-0.03,0.4H56.14z M57.81,103.37c0-0.35-0.15-0.92-0.79-0.92c-0.59,0-0.84,0.54-0.88,0.92H57.81z"/>
			<path class="st74" d="M60.59,100.79v1.09h0.91v0.71h-0.91v1.67c0,0.46,0.12,0.7,0.49,0.7c0.16,0,0.29-0.02,0.37-0.04l0.02,0.73
				c-0.14,0.05-0.4,0.1-0.7,0.1c-0.35,0-0.65-0.12-0.82-0.31c-0.21-0.22-0.3-0.57-0.3-1.06v-1.78H59.1v-0.71h0.54v-0.86
				L60.59,100.79z"/>
			<path class="st74" d="M65.62,104.54c0,0.45,0.01,0.83,0.03,1.14h-0.84l-0.05-0.57c-0.18,0.27-0.56,0.66-1.24,0.66
				c-0.69,0-1.32-0.42-1.32-1.65v-2.23h0.96v2.06c0,0.63,0.2,1.03,0.71,1.03c0.38,0,0.63-0.27,0.73-0.51
				c0.03-0.08,0.05-0.19,0.05-0.3v-2.29h0.96V104.54z"/>
			<path class="st74" d="M66.66,103.1c0-0.51-0.01-0.88-0.03-1.22h0.83l0.04,0.72c0.21-0.53,0.66-0.81,1.07-0.81
				c0.09,0,0.15,0,0.23,0.02v0.9c-0.08-0.02-0.17-0.03-0.28-0.03c-0.46,0-0.77,0.29-0.86,0.73c-0.02,0.08-0.02,0.19-0.02,0.29v1.97
				h-0.96V103.1z"/>
			<path class="st74" d="M73.19,105.67l-0.07-0.42c-0.25,0.3-0.65,0.51-1.14,0.51c-0.77,0-1.2-0.55-1.2-1.13
				c0-0.96,0.85-1.44,2.25-1.44v-0.06c0-0.25-0.1-0.66-0.77-0.66c-0.37,0-0.76,0.12-1.02,0.28l-0.19-0.62
				c0.29-0.17,0.78-0.34,1.38-0.34c1.22,0,1.56,0.77,1.56,1.6v1.37c0,0.34,0.02,0.68,0.06,0.91H73.19z M73.06,103.81
				c-0.68-0.01-1.32,0.13-1.32,0.71c0,0.37,0.24,0.55,0.55,0.55c0.38,0,0.66-0.25,0.75-0.52c0.02-0.07,0.03-0.14,0.03-0.21V103.81z"
				/>
			<path class="st74" d="M78.51,100.14v4.47c0,0.39,0.01,0.81,0.03,1.06h-0.85l-0.04-0.6c-0.24,0.42-0.7,0.69-1.25,0.69
				c-0.91,0-1.62-0.77-1.62-1.94c-0.01-1.27,0.79-2.03,1.7-2.03c0.52,0,0.89,0.21,1.06,0.49c0.02,0,0.02-2.15,0.02-2.15H78.51z
				 M77.55,103.46c0-0.08-0.01-0.17-0.02-0.25c-0.08-0.37-0.39-0.67-0.82-0.67c-0.62,0-0.96,0.54-0.96,1.25
				c0,0.7,0.35,1.21,0.95,1.21c0.39,0,0.73-0.27,0.83-0.68c0.02-0.09,0.03-0.18,0.03-0.28V103.46z"/>
			<path class="st74" d="M80.56,100.82c0,0.29-0.21,0.52-0.55,0.52c-0.32,0-0.53-0.23-0.53-0.52c0-0.29,0.21-0.52,0.54-0.52
				C80.35,100.3,80.56,100.52,80.56,100.82z M79.54,105.67v-3.79h0.96v3.79H79.54z"/>
			<path class="st74" d="M81.54,103.14c0-0.49-0.01-0.9-0.03-1.26h0.84l0.05,0.58c0.29-0.43,0.74-0.67,1.32-0.67
				c0.87,0,1.59,0.75,1.59,1.93c0,1.38-0.86,2.04-1.73,2.04c-0.48,0-0.87-0.2-1.07-0.51c-0.02,0-0.02,1.96-0.02,1.96h-0.96V103.14z
				 M82.5,104.08c0,0.09,0.01,0.18,0.03,0.26c0.1,0.39,0.43,0.67,0.84,0.67c0.61,0,0.97-0.51,0.97-1.25c0-0.67-0.33-1.22-0.94-1.22
				c-0.39,0-0.76,0.29-0.86,0.71c-0.02,0.08-0.03,0.16-0.03,0.24V104.08z"/>
			<path class="st74" d="M87.12,100.82c0,0.29-0.21,0.52-0.55,0.52c-0.32,0-0.53-0.23-0.53-0.52c0-0.29,0.21-0.52,0.54-0.52
				C86.91,100.3,87.12,100.52,87.12,100.82z M86.1,105.67v-3.79h0.96v3.79H86.1z"/>
			<path class="st74" d="M88.05,104.79c0.21,0.13,0.62,0.28,0.97,0.28c0.42,0,0.61-0.18,0.61-0.43c0-0.26-0.16-0.39-0.62-0.55
				c-0.74-0.25-1.05-0.66-1.05-1.11c0-0.67,0.55-1.19,1.44-1.19c0.42,0,0.78,0.1,1.01,0.23l-0.19,0.67
				c-0.16-0.09-0.47-0.22-0.8-0.22c-0.34,0-0.53,0.17-0.53,0.4c0,0.24,0.18,0.36,0.66,0.53c0.69,0.24,1.01,0.6,1.01,1.16
				c0,0.69-0.54,1.19-1.54,1.19c-0.46,0-0.88-0.11-1.16-0.27L88.05,104.79z"/>
			<path class="st74" d="M94.14,105.56c-0.2,0.09-0.6,0.2-1.07,0.2c-1.19,0-1.96-0.76-1.96-1.94c0-1.14,0.78-2.02,2.11-2.02
				c0.35,0,0.71,0.08,0.93,0.17l-0.17,0.72c-0.15-0.08-0.38-0.15-0.73-0.15c-0.73,0-1.17,0.54-1.16,1.23c0,0.78,0.51,1.22,1.17,1.22
				c0.33,0,0.57-0.07,0.75-0.15L94.14,105.56z"/>
			<path class="st74" d="M95.87,100.82c0,0.29-0.21,0.52-0.55,0.52c-0.32,0-0.53-0.23-0.53-0.52c0-0.29,0.21-0.52,0.54-0.52
				C95.66,100.3,95.87,100.52,95.87,100.82z M94.85,105.67v-3.79h0.96v3.79H94.85z"/>
			<path class="st74" d="M96.85,103.01c0-0.44-0.01-0.8-0.03-1.13h0.84l0.05,0.57c0.19-0.29,0.6-0.66,1.23-0.66
				c0.66,0,1.35,0.43,1.35,1.63v2.25h-0.96v-2.14c0-0.54-0.2-0.96-0.72-0.96c-0.38,0-0.65,0.27-0.75,0.56
				c-0.03,0.08-0.04,0.2-0.04,0.3v2.23h-0.96V103.01z"/>
			<path class="st74" d="M104.78,101.88c-0.02,0.26-0.03,0.57-0.03,1.09v2.15c0,0.8-0.16,1.36-0.56,1.72
				c-0.4,0.35-0.95,0.46-1.47,0.46c-0.48,0-0.99-0.1-1.32-0.3l0.21-0.73c0.24,0.15,0.65,0.29,1.11,0.29c0.62,0,1.09-0.33,1.09-1.15
				v-0.32c-0.23,0.33-0.62,0.56-1.12,0.56c-0.94,0-1.61-0.78-1.61-1.85c0-1.25,0.81-2,1.72-2c0.58,0,0.92,0.28,1.1,0.59
				c0.02,0,0.05-0.51,0.05-0.51H104.78z M103.79,103.4c0-0.09-0.01-0.18-0.03-0.26c-0.1-0.35-0.38-0.62-0.78-0.62
				c-0.53,0-0.93,0.47-0.93,1.24c0,0.64,0.33,1.17,0.93,1.17c0.36,0,0.67-0.23,0.78-0.58c0.03-0.1,0.04-0.23,0.04-0.34V103.4z"/>
			<path class="st74" d="M108.07,104.04c0.03,0.69,0.56,0.99,1.17,0.99c0.44,0,0.76-0.07,1.05-0.18l0.14,0.66
				c-0.33,0.14-0.78,0.24-1.33,0.24c-1.23,0-1.95-0.76-1.95-1.92c0-1.05,0.64-2.04,1.86-2.04c1.23,0,1.63,1.01,1.63,1.85
				c0,0.18-0.02,0.32-0.03,0.4H108.07z M109.74,103.37c0-0.35-0.15-0.92-0.79-0.92c-0.59,0-0.84,0.54-0.88,0.92H109.74z"/>
			<path class="st74" d="M111.42,100.14h0.96v5.53h-0.96V100.14z"/>
			<path class="st74" d="M114.44,100.82c0,0.29-0.21,0.52-0.55,0.52c-0.32,0-0.53-0.23-0.53-0.52c0-0.29,0.21-0.52,0.54-0.52
				C114.23,100.3,114.43,100.52,114.44,100.82z M113.42,105.67v-3.79h0.96v3.79H113.42z"/>
			<path class="st74" d="M116.51,100.79v1.09h0.91v0.71h-0.91v1.67c0,0.46,0.12,0.7,0.49,0.7c0.16,0,0.29-0.02,0.37-0.04l0.02,0.73
				c-0.14,0.05-0.4,0.1-0.7,0.1c-0.35,0-0.65-0.12-0.82-0.31c-0.21-0.22-0.3-0.57-0.3-1.06v-1.78h-0.54v-0.71h0.54v-0.86
				L116.51,100.79z"/>
			<path class="st74" d="M117.99,105.14c0-0.36,0.25-0.62,0.59-0.62c0.35,0,0.59,0.25,0.59,0.62c0,0.35-0.24,0.61-0.59,0.61
				C118.23,105.76,117.98,105.5,117.99,105.14z"/>
		</g>
	</g>
</g>
</svg>
