<?xml version="1.0" encoding="utf-8"?>
<!-- Generator: Adobe Illustrator 23.0.5, SVG Export Plug-In . SVG Version: 6.00 Build 0)  -->
<svg version="1.1" id="Capa_1" xmlns="http://www.w3.org/2000/svg" xmlns:xlink="http://www.w3.org/1999/xlink" x="0px" y="0px"
	 viewBox="0 0 349.46 202.48" style="enable-background:new 0 0 349.46 202.48;" xml:space="preserve">
<style type="text/css">
	.st0{opacity:0.07;fill:#FFFFFF;}
	.st1{opacity:0.0831;fill:#FDFDFD;}
	.st2{opacity:0.0962;fill:#FCFCFC;}
	.st3{opacity:0.1093;fill:#FAFAFA;}
	.st4{opacity:0.1224;fill:#F9F9F9;}
	.st5{opacity:0.1355;fill:#F7F7F7;}
	.st6{opacity:0.1486;fill:#F5F5F5;}
	.st7{opacity:0.1617;fill:#F4F4F4;}
	.st8{opacity:0.1748;fill:#F2F2F2;}
	.st9{opacity:0.1879;fill:#F0F0F0;}
	.st10{opacity:0.201;fill:#EFEFEF;}
	.st11{opacity:0.2141;fill:#EDEDED;}
	.st12{opacity:0.2272;fill:#ECECEC;}
	.st13{opacity:0.2403;fill:#EAEAEA;}
	.st14{opacity:0.2534;fill:#E8E8E8;}
	.st15{opacity:0.2665;fill:#E7E7E7;}
	.st16{opacity:0.2796;fill:#E5E5E5;}
	.st17{opacity:0.2927;fill:#E4E4E4;}
	.st18{opacity:0.3058;fill:#E2E2E2;}
	.st19{opacity:0.3189;fill:#E0E0E0;}
	.st20{opacity:0.332;fill:#DFDFDF;}
	.st21{opacity:0.3451;fill:#DDDDDD;}
	.st22{opacity:0.3582;fill:#DBDBDB;}
	.st23{opacity:0.3713;fill:#DADADA;}
	.st24{opacity:0.3844;fill:#D8D8D8;}
	.st25{opacity:0.3975;fill:#D7D7D7;}
	.st26{opacity:0.4106;fill:#D5D5D5;}
	.st27{opacity:0.4237;fill:#D3D3D3;}
	.st28{opacity:0.4368;fill:#D2D2D2;}
	.st29{opacity:0.4499;fill:#D0D0D0;}
	.st30{opacity:0.463;fill:#CFCFCF;}
	.st31{opacity:0.4761;fill:#CDCDCD;}
	.st32{opacity:0.4892;fill:#CBCBCB;}
	.st33{opacity:0.5023;fill:#CACACA;}
	.st34{opacity:0.5154;fill:#C8C8C8;}
	.st35{opacity:0.5285;fill:#C6C6C6;}
	.st36{opacity:0.5415;fill:#C5C5C5;}
	.st37{opacity:0.5546;fill:#C3C3C3;}
	.st38{opacity:0.5677;fill:#C2C2C2;}
	.st39{opacity:0.5808;fill:#C0C0C0;}
	.st40{opacity:0.5939;fill:#BEBEBE;}
	.st41{opacity:0.607;fill:#BDBDBD;}
	.st42{opacity:0.6201;fill:#BBBBBB;}
	.st43{opacity:0.6332;fill:#BABABA;}
	.st44{opacity:0.6463;fill:#B8B8B8;}
	.st45{opacity:0.6594;fill:#B6B6B6;}
	.st46{opacity:0.6725;fill:#B5B5B5;}
	.st47{opacity:0.6856;fill:#B3B3B3;}
	.st48{opacity:0.6987;fill:#B1B1B1;}
	.st49{opacity:0.7118;fill:#B0B0B0;}
	.st50{opacity:0.7249;fill:#AEAEAE;}
	.st51{opacity:0.738;fill:#ADADAD;}
	.st52{opacity:0.7511;fill:#ABABAB;}
	.st53{opacity:0.7642;fill:#A9A9A9;}
	.st54{opacity:0.7773;fill:#A8A8A8;}
	.st55{opacity:0.7904;fill:#A6A6A6;}
	.st56{opacity:0.8035;fill:#A4A4A4;}
	.st57{opacity:0.8166;fill:#A3A3A3;}
	.st58{opacity:0.8297;fill:#A1A1A1;}
	.st59{opacity:0.8428;fill:#A0A0A0;}
	.st60{opacity:0.8559;fill:#9E9E9E;}
	.st61{opacity:0.869;fill:#9C9C9C;}
	.st62{opacity:0.8821;fill:#9B9B9B;}
	.st63{opacity:0.8952;fill:#999999;}
	.st64{opacity:0.9083;fill:#989898;}
	.st65{opacity:0.9214;fill:#969696;}
	.st66{opacity:0.9345;fill:#949494;}
	.st67{opacity:0.9476;fill:#939393;}
	.st68{opacity:0.9607;fill:#919191;}
	.st69{opacity:0.9738;fill:#8F8F8F;}
	.st70{opacity:0.9869;fill:#8E8E8E;}
	.st71{fill:#8C8C8C;}
	.st72{fill:#FFFFFF;}
	.st73{fill:url(#SVGID_1_);}
	.st74{fill:#2B639A;}
	.st75{fill:#DB0B81;}
	.st76{opacity:0.28;fill:#59266F;}
	.st77{fill:#020203;}
	.st78{fill:#F5BB8E;}
	.st79{fill:#DC6FA9;}
	.st80{fill:#F197BF;}
	.st81{fill:#EF9A57;}
	.st82{fill:#FCC12D;}
	.st83{fill:#FFDC86;}
	.st84{opacity:0.35;}
	.st85{opacity:0.51;}
	.st86{fill:#3D4596;}
	.st87{opacity:0.57;}
</style>
<g>
	<g>
		<g>
			<path class="st0" d="M337.17,1.14H10.36c-6.23,0-11.33,5.1-11.33,11.33l0,179.82c0,6.23,5.1,11.33,11.33,11.33h326.81
				c6.23,0,11.33-5.1,11.33-11.33V12.47C348.49,6.24,343.4,1.14,337.17,1.14z"/>
			<path class="st1" d="M336.89,1.41H10.64c-6.23,0-11.33,5.1-11.33,11.33l0,179.28c0,6.23,5.1,11.33,11.33,11.33l326.25,0
				c6.23,0,11.33-5.1,11.33-11.33V12.74C348.21,6.51,343.12,1.41,336.89,1.41z"/>
			<path class="st2" d="M336.61,1.68H10.92c-6.23,0-11.33,5.1-11.33,11.33l0,178.74c0,6.23,5.1,11.33,11.33,11.33h325.69
				c6.23,0,11.33-5.1,11.33-11.33V13.01C347.93,6.78,342.84,1.68,336.61,1.68z"/>
			<path class="st3" d="M336.33,1.96H11.2c-6.23,0-11.33,5.1-11.33,11.33l0,178.2c0,6.23,5.1,11.33,11.33,11.33h325.13
				c6.23,0,11.33-5.1,11.33-11.33V13.28C347.66,7.05,342.56,1.96,336.33,1.96z"/>
			<path class="st4" d="M336.05,2.23H11.48c-6.23,0-11.33,5.1-11.33,11.33l0,177.65c0,6.23,5.1,11.33,11.33,11.33h324.57
				c6.23,0,11.33-5.1,11.33-11.33V13.55C347.38,7.32,342.28,2.23,336.05,2.23z"/>
			<path class="st5" d="M335.77,2.5H11.75C5.53,2.5,0.43,7.6,0.43,13.83l0,177.11c0,6.23,5.1,11.33,11.33,11.33h324.02
				c6.23,0,11.33-5.1,11.33-11.33V13.83C347.1,7.6,342,2.5,335.77,2.5z"/>
			<path class="st6" d="M335.49,2.77H12.03C5.8,2.77,0.71,7.87,0.71,14.1l0,176.57c0,6.23,5.1,11.33,11.33,11.33l323.46,0
				c6.23,0,11.33-5.1,11.33-11.33V14.1C346.82,7.87,341.72,2.77,335.49,2.77z"/>
			<path class="st7" d="M335.21,3.04H12.31c-6.23,0-11.33,5.1-11.33,11.33l0,176.02c0,6.23,5.1,11.33,11.33,11.33l322.9,0
				c6.23,0,11.33-5.1,11.33-11.33V14.37C346.54,8.14,341.44,3.04,335.21,3.04z"/>
			<path class="st8" d="M334.93,3.31H12.59c-6.23,0-11.33,5.1-11.33,11.33l0,175.48c0,6.23,5.1,11.33,11.33,11.33l322.34,0
				c6.23,0,11.33-5.1,11.33-11.33V14.64C346.26,8.41,341.16,3.31,334.93,3.31z"/>
			<path class="st9" d="M334.66,3.58H12.87c-6.23,0-11.33,5.1-11.33,11.33l0,174.94c0,6.23,5.1,11.33,11.33,11.33l321.78,0
				c6.23,0,11.33-5.1,11.33-11.33V14.91C345.98,8.68,340.89,3.58,334.66,3.58z"/>
			<path class="st10" d="M334.38,3.86H13.15c-6.23,0-11.33,5.1-11.33,11.33l0,174.4c0,6.23,5.1,11.33,11.33,11.33l321.23,0
				c6.23,0,11.33-5.1,11.33-11.33V15.18C345.7,8.95,340.61,3.86,334.38,3.86z"/>
			<path class="st11" d="M334.1,4.13H13.43C7.2,4.13,2.1,9.22,2.1,15.45l0,173.85c0,6.23,5.1,11.33,11.33,11.33l320.67,0
				c6.23,0,11.33-5.1,11.33-11.33V15.45C345.42,9.22,340.33,4.13,334.1,4.13z"/>
			<path class="st12" d="M333.82,4.4H13.71C7.48,4.4,2.38,9.5,2.38,15.72l0,173.31c0,6.23,5.1,11.33,11.33,11.33l320.11,0
				c6.23,0,11.33-5.1,11.33-11.33V15.72C345.15,9.5,340.05,4.4,333.82,4.4z"/>
			<path class="st13" d="M333.54,4.67H13.99C7.76,4.67,2.66,9.77,2.66,16l0,172.77c0,6.23,5.1,11.33,11.33,11.33l319.55,0
				c6.23,0,11.33-5.1,11.33-11.33V16C344.87,9.77,339.77,4.67,333.54,4.67z"/>
			<path class="st14" d="M333.26,4.94h-319c-6.23,0-11.33,5.1-11.33,11.33l0,172.22c0,6.23,5.1,11.33,11.33,11.33l319,0
				c6.23,0,11.33-5.1,11.33-11.33V16.27C344.59,10.04,339.49,4.94,333.26,4.94z"/>
			<path class="st15" d="M332.98,5.21H14.54c-6.23,0-11.33,5.1-11.33,11.33l0,171.68c0,6.23,5.1,11.33,11.33,11.33l318.44,0
				c6.23,0,11.33-5.1,11.33-11.33V16.54C344.31,10.31,339.21,5.21,332.98,5.21z"/>
			<path class="st16" d="M332.7,5.48H14.82c-6.23,0-11.33,5.1-11.33,11.33l0,171.14c0,6.23,5.1,11.33,11.33,11.33l317.88,0
				c6.23,0,11.33-5.1,11.33-11.33V16.81C344.03,10.58,338.93,5.48,332.7,5.48z"/>
			<path class="st17" d="M332.42,5.76H15.1c-6.23,0-11.33,5.1-11.33,11.33l0,170.6c0,6.23,5.1,11.33,11.33,11.33l317.32,0
				c6.23,0,11.33-5.1,11.33-11.33V17.08C343.75,10.85,338.65,5.76,332.42,5.76z"/>
			<path class="st18" d="M332.15,6.03H15.38c-6.23,0-11.33,5.1-11.33,11.33l0,170.05c0,6.23,5.1,11.33,11.33,11.33l316.76,0
				c6.23,0,11.33-5.1,11.33-11.33V17.35C343.47,11.12,338.37,6.03,332.15,6.03z"/>
			<path class="st19" d="M331.87,6.3H15.66c-6.23,0-11.33,5.1-11.33,11.33l0,169.51c0,6.23,5.1,11.33,11.33,11.33l316.21,0
				c6.23,0,11.33-5.1,11.33-11.33V17.62C343.19,11.4,338.1,6.3,331.87,6.3z"/>
			<path class="st20" d="M331.59,6.57H15.94c-6.23,0-11.33,5.1-11.33,11.33l0,168.97c0,6.23,5.1,11.33,11.33,11.33l315.65,0
				c6.23,0,11.33-5.1,11.33-11.33V17.9C342.91,11.67,337.82,6.57,331.59,6.57z"/>
			<path class="st21" d="M331.31,6.84H16.22c-6.23,0-11.33,5.1-11.33,11.33l0,168.43c0,6.23,5.1,11.33,11.33,11.33l315.09,0
				c6.23,0,11.33-5.1,11.33-11.33V18.17C342.63,11.94,337.54,6.84,331.31,6.84z"/>
			<path class="st22" d="M331.03,7.11H16.5c-6.23,0-11.33,5.1-11.33,11.33l0,167.88c0,6.23,5.1,11.33,11.33,11.33l314.53,0
				c6.23,0,11.33-5.1,11.33-11.33V18.44C342.36,12.21,337.26,7.11,331.03,7.11z"/>
			<path class="st23" d="M330.75,7.38H16.78c-6.23,0-11.33,5.1-11.33,11.33l0,167.34c0,6.23,5.1,11.33,11.33,11.33l313.97,0
				c6.23,0,11.33-5.1,11.33-11.33V18.71C342.08,12.48,336.98,7.38,330.75,7.38z"/>
			<path class="st24" d="M330.47,7.66H17.05c-6.23,0-11.33,5.1-11.33,11.33l0,166.8c0,6.23,5.1,11.33,11.33,11.33l313.42,0
				c6.23,0,11.33-5.1,11.33-11.33V18.98C341.8,12.75,336.7,7.66,330.47,7.66z"/>
			<path class="st25" d="M330.19,7.93H17.33c-6.23,0-11.33,5.1-11.33,11.33l0,166.25c0,6.23,5.1,11.33,11.33,11.33l312.86,0
				c6.23,0,11.33-5.1,11.33-11.33V19.25C341.52,13.02,336.42,7.93,330.19,7.93z"/>
			<path class="st26" d="M329.91,8.2H17.61c-6.23,0-11.33,5.1-11.33,11.33l0,165.71c0,6.23,5.1,11.33,11.33,11.33l312.3,0
				c6.23,0,11.33-5.1,11.33-11.33V19.52C341.24,13.29,336.14,8.2,329.91,8.2z"/>
			<path class="st27" d="M329.63,8.47H17.89c-6.23,0-11.33,5.1-11.33,11.33l0,165.17c0,6.23,5.1,11.33,11.33,11.33l311.74,0
				c6.23,0,11.33-5.1,11.33-11.33V19.8C340.96,13.57,335.86,8.47,329.63,8.47z"/>
			<path class="st28" d="M329.36,8.74H18.17c-6.23,0-11.33,5.1-11.33,11.33l0,164.63c0,6.23,5.1,11.33,11.33,11.33l311.19,0
				c6.23,0,11.33-5.1,11.33-11.33V20.07C340.68,13.84,335.59,8.74,329.36,8.74z"/>
			<path class="st29" d="M329.08,9.01H18.45c-6.23,0-11.33,5.1-11.33,11.33l0,164.08c0,6.23,5.1,11.33,11.33,11.33l310.63,0
				c6.23,0,11.33-5.1,11.33-11.33V20.34C340.4,14.11,335.31,9.01,329.08,9.01z"/>
			<path class="st30" d="M328.8,9.28H18.73c-6.23,0-11.33,5.1-11.33,11.33l0,163.54c0,6.23,5.1,11.33,11.33,11.33l310.07,0
				c6.23,0,11.33-5.1,11.33-11.33V20.61C340.12,14.38,335.03,9.28,328.8,9.28z"/>
			<path class="st31" d="M328.52,9.56H19.01c-6.23,0-11.33,5.1-11.33,11.33l0,163c0,6.23,5.1,11.33,11.33,11.33l309.51,0
				c6.23,0,11.33-5.1,11.33-11.33v-163C339.85,14.65,334.75,9.56,328.52,9.56z"/>
			<path class="st32" d="M328.24,9.83H19.29c-6.23,0-11.33,5.1-11.33,11.33l0,162.45c0,6.23,5.1,11.33,11.33,11.33l308.95,0
				c6.23,0,11.33-5.1,11.33-11.33V21.15C339.57,14.92,334.47,9.83,328.24,9.83z"/>
			<path class="st33" d="M327.96,10.1H19.57c-6.23,0-11.33,5.1-11.33,11.33l0,161.91c0,6.23,5.1,11.33,11.33,11.33l308.4,0
				c6.23,0,11.33-5.1,11.33-11.33V21.42C339.29,15.19,334.19,10.1,327.96,10.1z"/>
			<path class="st34" d="M327.68,10.37H19.84c-6.23,0-11.33,5.1-11.33,11.33l0,161.37c0,6.23,5.1,11.33,11.33,11.33l307.84,0
				c6.23,0,11.33-5.1,11.33-11.33V21.7C339.01,15.47,333.91,10.37,327.68,10.37z"/>
			<path class="st35" d="M327.4,10.64H20.12c-6.23,0-11.33,5.1-11.33,11.33l0,160.83c0,6.23,5.1,11.33,11.33,11.33l307.28,0
				c6.23,0,11.33-5.1,11.33-11.33V21.97C338.73,15.74,333.63,10.64,327.4,10.64z"/>
			<path class="st36" d="M327.12,10.91H20.4c-6.23,0-11.33,5.1-11.33,11.33l0,160.28c0,6.23,5.1,11.33,11.33,11.33l306.72,0
				c6.23,0,11.33-5.1,11.33-11.33V22.24C338.45,16.01,333.35,10.91,327.12,10.91z"/>
			<path class="st37" d="M326.85,11.18H20.68c-6.23,0-11.33,5.1-11.33,11.33l0,159.74c0,6.23,5.1,11.33,11.33,11.33l306.16,0
				c6.23,0,11.33-5.1,11.33-11.33V22.51C338.17,16.28,333.07,11.18,326.85,11.18z"/>
			<path class="st38" d="M326.57,11.45H20.96c-6.23,0-11.33,5.1-11.33,11.33l0,159.2c0,6.23,5.1,11.33,11.33,11.33l305.61,0
				c6.23,0,11.33-5.1,11.33-11.33V22.78C337.89,16.55,332.8,11.45,326.57,11.45z"/>
			<path class="st39" d="M326.29,11.73H21.24c-6.23,0-11.33,5.1-11.33,11.33l0,158.65c0,6.23,5.1,11.33,11.33,11.33l305.05,0
				c6.23,0,11.33-5.1,11.33-11.33V23.05C337.61,16.82,332.52,11.73,326.29,11.73z"/>
			<path class="st40" d="M326.01,12H21.52c-6.23,0-11.33,5.1-11.33,11.33l0,158.11c0,6.23,5.1,11.33,11.33,11.33l304.49,0
				c6.23,0,11.33-5.1,11.33-11.33V23.32C337.33,17.09,332.24,12,326.01,12z"/>
			<path class="st41" d="M325.73,12.27H21.8c-6.23,0-11.33,5.1-11.33,11.33l0,157.57c0,6.23,5.1,11.33,11.33,11.33l303.93,0
				c6.23,0,11.33-5.1,11.33-11.33V23.6C337.06,17.37,331.96,12.27,325.73,12.27z"/>
			<path class="st42" d="M325.45,12.54H22.08c-6.23,0-11.33,5.1-11.33,11.33l0,157.03c0,6.23,5.1,11.33,11.33,11.33l303.37,0
				c6.23,0,11.33-5.1,11.33-11.33V23.87C336.78,17.64,331.68,12.54,325.45,12.54z"/>
			<path class="st43" d="M325.17,12.81H22.35c-6.23,0-11.33,5.1-11.33,11.33l0,156.48c0,6.23,5.1,11.33,11.33,11.33l302.82,0
				c6.23,0,11.33-5.1,11.33-11.33V24.14C336.5,17.91,331.4,12.81,325.17,12.81z"/>
			<path class="st44" d="M324.89,13.08H22.63c-6.23,0-11.33,5.1-11.33,11.33l0,155.94c0,6.23,5.1,11.33,11.33,11.33l302.26,0
				c6.23,0,11.33-5.1,11.33-11.33V24.41C336.22,18.18,331.12,13.08,324.89,13.08z"/>
			<path class="st45" d="M324.61,13.35H22.91c-6.23,0-11.33,5.1-11.33,11.33l0,155.4c0,6.23,5.1,11.33,11.33,11.33l301.7,0
				c6.23,0,11.33-5.1,11.33-11.33V24.68C335.94,18.45,330.84,13.35,324.61,13.35z"/>
			<path class="st46" d="M324.33,13.63H23.19c-6.23,0-11.33,5.1-11.33,11.33l0,154.86c0,6.23,5.1,11.33,11.33,11.33l301.14,0
				c6.23,0,11.33-5.1,11.33-11.33V24.95C335.66,18.72,330.56,13.63,324.33,13.63z"/>
			<path class="st47" d="M324.06,13.9H23.47c-6.23,0-11.33,5.1-11.33,11.33l0,154.31c0,6.23,5.1,11.33,11.33,11.33l300.59,0
				c6.23,0,11.33-5.1,11.33-11.33V25.22C335.38,18.99,330.29,13.9,324.06,13.9z"/>
			<path class="st48" d="M323.78,14.17H23.75c-6.23,0-11.33,5.1-11.33,11.33l0,153.77c0,6.23,5.1,11.33,11.33,11.33l300.03,0
				c6.23,0,11.33-5.1,11.33-11.33V25.49C335.1,19.27,330.01,14.17,323.78,14.17z"/>
			<path class="st49" d="M323.5,14.44H24.03c-6.23,0-11.33,5.1-11.33,11.33l0,153.23c0,6.23,5.1,11.33,11.33,11.33l299.47,0
				c6.23,0,11.33-5.1,11.33-11.33V25.77C334.82,19.54,329.73,14.44,323.5,14.44z"/>
			<path class="st50" d="M323.22,14.71H24.31c-6.23,0-11.33,5.1-11.33,11.33l0,152.68c0,6.23,5.1,11.33,11.33,11.33l298.91,0
				c6.23,0,11.33-5.1,11.33-11.33V26.04C334.55,19.81,329.45,14.71,323.22,14.71z"/>
			<path class="st51" d="M322.94,14.98H24.59c-6.23,0-11.33,5.1-11.33,11.33l0,152.14c0,6.23,5.1,11.33,11.33,11.33l298.35,0
				c6.23,0,11.33-5.1,11.33-11.33V26.31C334.27,20.08,329.17,14.98,322.94,14.98z"/>
			<path class="st52" d="M322.66,15.25H24.87c-6.23,0-11.33,5.1-11.33,11.33l0,151.6c0,6.23,5.1,11.33,11.33,11.33l297.8,0
				c6.23,0,11.33-5.1,11.33-11.33V26.58C333.99,20.35,328.89,15.25,322.66,15.25z"/>
			<path class="st53" d="M322.38,15.53H25.14c-6.23,0-11.33,5.1-11.33,11.33l0,151.06c0,6.23,5.1,11.33,11.33,11.33l297.24,0
				c6.23,0,11.33-5.1,11.33-11.33V26.85C333.71,20.62,328.61,15.53,322.38,15.53z"/>
			<path class="st54" d="M322.1,15.8H25.42c-6.23,0-11.33,5.1-11.33,11.33l0,150.51c0,6.23,5.1,11.33,11.33,11.33l296.68,0
				c6.23,0,11.33-5.1,11.33-11.33V27.12C333.43,20.89,328.33,15.8,322.1,15.8z"/>
			<path class="st55" d="M321.82,16.07H25.7c-6.23,0-11.33,5.1-11.33,11.33l0,149.97c0,6.23,5.1,11.33,11.33,11.33l296.12,0
				c6.23,0,11.33-5.1,11.33-11.33V27.39C333.15,21.17,328.05,16.07,321.82,16.07z"/>
			<path class="st56" d="M321.55,16.34H25.98c-6.23,0-11.33,5.1-11.33,11.33l0,149.43c0,6.23,5.1,11.33,11.33,11.33l295.56,0
				c6.23,0,11.33-5.1,11.33-11.33V27.67C332.87,21.44,327.77,16.34,321.55,16.34z"/>
			<path class="st57" d="M321.27,16.61H26.26c-6.23,0-11.33,5.1-11.33,11.33l0,148.88c0,6.23,5.1,11.33,11.33,11.33l295.01,0
				c6.23,0,11.33-5.1,11.33-11.33V27.94C332.59,21.71,327.5,16.61,321.27,16.61z"/>
			<path class="st58" d="M320.99,16.88H26.54c-6.23,0-11.33,5.1-11.33,11.33l0,148.34c0,6.23,5.1,11.33,11.33,11.33l294.45,0
				c6.23,0,11.33-5.1,11.33-11.33V28.21C332.31,21.98,327.22,16.88,320.99,16.88z"/>
			<path class="st59" d="M320.71,17.15H26.82c-6.23,0-11.33,5.1-11.33,11.33l0,147.8c0,6.23,5.1,11.33,11.33,11.33l293.89,0
				c6.23,0,11.33-5.1,11.33-11.33V28.48C332.03,22.25,326.94,17.15,320.71,17.15z"/>
			<path class="st60" d="M320.43,17.43H27.1c-6.23,0-11.33,5.1-11.33,11.33l0,147.26c0,6.23,5.1,11.33,11.33,11.33l293.33,0
				c6.23,0,11.33-5.1,11.33-11.33V28.75C331.76,22.52,326.66,17.43,320.43,17.43z"/>
			<path class="st61" d="M320.15,17.7H27.38c-6.23,0-11.33,5.1-11.33,11.33l0,146.71c0,6.23,5.1,11.33,11.33,11.33l292.78,0
				c6.23,0,11.33-5.1,11.33-11.33V29.02C331.48,22.79,326.38,17.7,320.15,17.7z"/>
			<path class="st62" d="M319.87,17.97H27.65c-6.23,0-11.33,5.1-11.33,11.33l0,146.17c0,6.23,5.1,11.33,11.33,11.33l292.22,0
				c6.23,0,11.33-5.1,11.33-11.33V29.29C331.2,23.07,326.1,17.97,319.87,17.97z"/>
			<path class="st63" d="M319.59,18.24H27.93c-6.23,0-11.33,5.1-11.33,11.33l0,145.63c0,6.23,5.1,11.33,11.33,11.33l291.66,0
				c6.23,0,11.33-5.1,11.33-11.33V29.57C330.92,23.34,325.82,18.24,319.59,18.24z"/>
			<path class="st64" d="M319.31,18.51H28.21c-6.23,0-11.33,5.1-11.33,11.33l0,145.09c0,6.23,5.1,11.33,11.33,11.33l291.1,0
				c6.23,0,11.33-5.1,11.33-11.33V29.84C330.64,23.61,325.54,18.51,319.31,18.51z"/>
			<path class="st65" d="M319.04,18.78H28.49c-6.23,0-11.33,5.1-11.33,11.33l0,144.54c0,6.23,5.1,11.33,11.33,11.33l290.54,0
				c6.23,0,11.33-5.1,11.33-11.33V30.11C330.36,23.88,325.26,18.78,319.04,18.78z"/>
			<path class="st66" d="M318.76,19.05H28.77c-6.23,0-11.33,5.1-11.33,11.33l0,144c0,6.23,5.1,11.33,11.33,11.33l289.99,0
				c6.23,0,11.33-5.1,11.33-11.33v-144C330.08,24.15,324.99,19.05,318.76,19.05z"/>
			<path class="st67" d="M318.48,19.33H29.05c-6.23,0-11.33,5.1-11.33,11.33l0,143.46c0,6.23,5.1,11.33,11.33,11.33l289.43,0
				c6.23,0,11.33-5.1,11.33-11.33V30.65C329.8,24.42,324.71,19.33,318.48,19.33z"/>
			<path class="st68" d="M318.2,19.6H29.33C23.1,19.6,18,24.69,18,30.92l0,142.91c0,6.23,5.1,11.33,11.33,11.33l288.87,0
				c6.23,0,11.33-5.1,11.33-11.33V30.92C329.52,24.69,324.43,19.6,318.2,19.6z"/>
			<path class="st69" d="M317.92,19.87H29.61c-6.23,0-11.33,5.1-11.33,11.33l0,142.37c0,6.23,5.1,11.33,11.33,11.33l288.31,0
				c6.23,0,11.33-5.1,11.33-11.33V31.19C329.25,24.96,324.15,19.87,317.92,19.87z"/>
			<path class="st70" d="M317.64,20.14H29.89c-6.23,0-11.33,5.1-11.33,11.33l0,141.83c0,6.23,5.1,11.33,11.33,11.33l287.75,0
				c6.23,0,11.33-5.1,11.33-11.33V31.47C328.97,25.24,323.87,20.14,317.64,20.14z"/>
			<path class="st71" d="M317.36,20.41H30.16c-6.23,0-11.33,5.1-11.33,11.33v141.29c0,6.23,5.1,11.33,11.33,11.33l287.2,0
				c6.23,0,11.33-5.1,11.33-11.33V31.74C328.69,25.51,323.59,20.41,317.36,20.41z"/>
		</g>
	</g>
	<rect x="5.48" y="10.69" class="st72" width="334.38" height="183.23"/>
	
		<linearGradient id="SVGID_1_" gradientUnits="userSpaceOnUse" x1="235.9078" y1="385.6976" x2="306.3706" y2="162.8635" gradientTransform="matrix(1 0 0 -1 0 418.2877)">
		<stop  offset="9.036140e-03" style="stop-color:#85B7DC"/>
		<stop  offset="0.9473" style="stop-color:#4B95CC"/>
	</linearGradient>
	<path class="st73" d="M339.86,193.92l-102.17,0.07c-23.65,0-56.74-12.11-69.97-31.14c-12.71-18.29-9.07-61.1,23.54-79.54
		c31.91-18.04,40.49-34.53,29.22-72.55l119.38-0.07V193.92z"/>
	<g>
		<path class="st72" d="M233.52,134.54c-0.17-0.29-0.35-0.57-0.54-0.85l2.41-2.75c-0.59-0.8-1.22-1.56-1.89-2.26l-3.13,1.89
			c-0.48-0.47-0.99-0.91-1.51-1.32l1.45-3.36c-0.8-0.58-1.64-1.1-2.5-1.56l-2.4,2.77c-0.6-0.29-1.21-0.56-1.84-0.78l0.34-3.64
			c-0.94-0.3-1.89-0.54-2.86-0.72l-1.42,3.37c-0.66-0.09-1.32-0.15-1.99-0.18l-0.81-3.57c-0.98,0-1.96,0.07-2.94,0.2l-0.31,3.65
			c-0.65,0.11-1.31,0.26-1.95,0.45l-1.87-3.14c-0.92,0.31-1.84,0.67-2.73,1.1l0.83,3.56c-0.29,0.16-0.58,0.32-0.87,0.49
			c-0.29,0.17-0.57,0.35-0.85,0.54l-2.75-2.41c-0.8,0.59-1.56,1.22-2.26,1.89l1.89,3.13c-0.47,0.48-0.91,0.99-1.32,1.51l-3.36-1.45
			c-0.58,0.8-1.1,1.64-1.56,2.5l2.77,2.4c-0.29,0.6-0.56,1.21-0.78,1.84l-3.64-0.34c-0.3,0.94-0.54,1.89-0.72,2.86l3.37,1.42
			c-0.09,0.66-0.15,1.32-0.18,1.99l-3.57,0.81c0,0.98,0.07,1.96,0.2,2.94l3.65,0.31c0.11,0.65,0.26,1.31,0.45,1.95l-3.14,1.87
			c0.31,0.92,0.67,1.84,1.1,2.73l3.56-0.83c0.16,0.29,0.32,0.58,0.49,0.87c0.17,0.29,0.35,0.57,0.54,0.85l-2.41,2.75
			c0.59,0.8,1.22,1.56,1.89,2.26l3.13-1.89c0.48,0.47,0.99,0.91,1.51,1.32l-1.45,3.36c0.8,0.58,1.64,1.1,2.5,1.56l2.4-2.77
			c0.6,0.29,1.21,0.56,1.84,0.78l-0.34,3.64c0.94,0.3,1.89,0.54,2.86,0.72l1.42-3.37c0.66,0.09,1.32,0.15,1.99,0.18l0.81,3.57
			c0.98,0,1.96-0.07,2.94-0.2l0.31-3.65c0.65-0.11,1.31-0.26,1.95-0.45l1.87,3.14c0.92-0.31,1.84-0.67,2.73-1.1l-0.83-3.56
			c0.29-0.16,0.58-0.32,0.87-0.49c0.29-0.17,0.57-0.35,0.85-0.54l2.75,2.41c0.8-0.59,1.56-1.22,2.26-1.89l-1.89-3.13
			c0.47-0.48,0.91-0.99,1.32-1.51l3.36,1.45c0.58-0.8,1.1-1.64,1.56-2.5l-2.77-2.4c0.29-0.6,0.56-1.21,0.78-1.84l3.64,0.34
			c0.3-0.94,0.54-1.89,0.72-2.86l-3.37-1.42c0.09-0.66,0.15-1.32,0.18-1.99l3.57-0.81c0-0.98-0.07-1.96-0.2-2.94l-3.65-0.31
			c-0.11-0.65-0.26-1.31-0.45-1.95l3.14-1.87c-0.3-0.92-0.67-1.84-1.1-2.73l-3.56,0.83C233.86,135.12,233.69,134.83,233.52,134.54z
			 M224.82,157.65c-7.28,4.36-16.71,1.99-21.06-5.28c-4.36-7.28-1.99-16.71,5.28-21.06c7.28-4.36,16.71-1.99,21.06,5.28
			C234.46,143.86,232.1,153.29,224.82,157.65z"/>
	</g>
	<g>
		<path class="st74" d="M267.87,162.77c-0.17-0.41-0.34-0.82-0.54-1.23c-0.2-0.41-0.41-0.8-0.63-1.18l-3.67,0.77
			c-0.65-0.95-1.4-1.8-2.22-2.55l1.28-3.53c-0.7-0.55-1.45-1.05-2.22-1.49l-2.8,2.51c-1.02-0.48-2.09-0.85-3.19-1.1l-0.65-3.7
			c-0.88-0.13-1.77-0.19-2.67-0.19l-1.17,3.57c-1.11,0.09-2.22,0.3-3.32,0.64l-2.41-2.87c-0.41,0.17-0.82,0.34-1.23,0.54
			c-0.41,0.2-0.8,0.41-1.18,0.63l0.77,3.67c-0.95,0.65-1.8,1.4-2.55,2.22l-3.53-1.28c-0.55,0.7-1.05,1.45-1.49,2.22l2.51,2.8
			c-0.49,1.02-0.85,2.09-1.1,3.19l-3.7,0.65c-0.13,0.88-0.19,1.77-0.19,2.67l3.57,1.17c0.09,1.11,0.3,2.22,0.64,3.32l-2.87,2.41
			c0.17,0.41,0.34,0.82,0.54,1.23c0.2,0.41,0.41,0.8,0.63,1.18l3.67-0.77c0.65,0.95,1.4,1.8,2.22,2.55l-1.28,3.53
			c0.7,0.55,1.45,1.05,2.22,1.5l2.8-2.51c1.02,0.49,2.09,0.85,3.19,1.1l0.65,3.7c0.88,0.13,1.77,0.19,2.67,0.19l1.17-3.57
			c1.11-0.09,2.22-0.3,3.32-0.64l2.41,2.87c0.41-0.17,0.82-0.34,1.23-0.54c0.41-0.2,0.8-0.41,1.18-0.63l-0.77-3.67
			c0.95-0.65,1.8-1.4,2.55-2.22l3.53,1.28c0.55-0.7,1.05-1.45,1.49-2.22l-2.51-2.8c0.49-1.02,0.85-2.09,1.1-3.19l3.7-0.65
			c0.13-0.88,0.19-1.77,0.19-2.67l-3.57-1.17c-0.09-1.11-0.3-2.22-0.64-3.32L267.87,162.77z M255.94,180.65
			c-6.05,2.95-13.35,0.43-16.3-5.63c-2.95-6.06-0.43-13.35,5.63-16.3c6.05-2.95,13.35-0.43,16.3,5.63
			C264.51,170.41,261.99,177.71,255.94,180.65z"/>
	</g>
	<g>
		<path class="st74" d="M325.54,40.13c0.02-0.57,0.02-1.14,0-1.72c-0.02-0.58-0.07-1.15-0.13-1.72l-4.71-0.99
			c-0.27-1.45-0.71-2.84-1.29-4.15l3.34-3.49c-0.54-1.01-1.16-1.99-1.83-2.9l-4.59,1.5c-0.95-1.1-2.02-2.09-3.18-2.95l1.15-4.69
			c-0.97-0.6-1.98-1.14-3.04-1.6l-3.22,3.6c-1.35-0.47-2.77-0.8-4.24-0.96l-1.35-4.62c-0.57-0.02-1.14-0.02-1.72,0
			c-0.58,0.02-1.15,0.07-1.72,0.13l-0.99,4.71c-1.45,0.27-2.84,0.71-4.15,1.29l-3.49-3.34c-1.01,0.54-1.99,1.16-2.91,1.83l1.5,4.59
			c-1.1,0.95-2.09,2.02-2.95,3.18l-4.69-1.15c-0.6,0.97-1.14,1.98-1.6,3.04l3.6,3.22c-0.47,1.35-0.8,2.77-0.96,4.24l-4.62,1.35
			c-0.02,0.57-0.02,1.14,0,1.72c0.02,0.58,0.07,1.15,0.13,1.72l4.71,0.99c0.27,1.45,0.71,2.84,1.29,4.15l-3.34,3.49
			c0.54,1.01,1.16,1.99,1.83,2.9l4.59-1.5c0.95,1.1,2.02,2.09,3.18,2.95l-1.15,4.69c0.97,0.6,1.98,1.14,3.04,1.6l3.22-3.6
			c1.35,0.47,2.77,0.8,4.24,0.96l1.35,4.62c0.57,0.02,1.14,0.02,1.72,0c0.58-0.02,1.15-0.07,1.72-0.13l0.99-4.71
			c1.45-0.27,2.84-0.71,4.15-1.29l3.49,3.34c1.01-0.54,1.99-1.16,2.9-1.83l-1.5-4.59c1.1-0.95,2.09-2.02,2.95-3.18l4.69,1.15
			c0.6-0.97,1.14-1.98,1.6-3.04l-3.6-3.22c0.47-1.35,0.8-2.77,0.96-4.24L325.54,40.13z M302.25,54.99
			c-8.65,0.33-15.93-6.41-16.26-15.05c-0.33-8.65,6.41-15.93,15.05-16.26c8.65-0.33,15.93,6.41,16.26,15.05
			C317.64,47.38,310.9,54.66,302.25,54.99z"/>
	</g>
	<g>
		<path class="st75" d="M316.94,58.67c-0.02-0.01-0.04-0.03-0.06-0.05c-0.37-0.15-0.73-0.31-1.1-0.47
			C315.74,58.19,316.05,58.36,316.94,58.67z"/>
		<path class="st76" d="M191.18,122.69c10.65-0.26,16.62-5.74,10.72-8.53c-5.89-2.79-25.24-2.04-29.66-3.79
			c-4.42-1.74-15.04-3-15.99,0.2C155.31,113.79,183.24,122.89,191.18,122.69z"/>
		<path class="st75" d="M173.97,90.41c-0.06,0-0.28,0.01-0.73,0.04C171.72,90.52,173.08,90.45,173.97,90.41z"/>
		<g>
			<path class="st77" d="M201.05,29.97c1.41-0.27,4.38-1.67,3.82-3.31c-0.56-1.64-2.06-1.58-2.4-2.63c-0.33-1.05-3.9-5.1-7.22-3.84
				c-3.32,1.26-2.87,3.8-5.92,3.68c-3.05-0.13-6.86,6.68-6.6,9.37c0.26,2.68-3.97,5.18-3.66,8.58c0.58,6.35,5.9,6.4,7.45,6.05
				C198.63,45.1,201.05,29.97,201.05,29.97z"/>
			<g>
				<g>
					<path class="st78" d="M195.27,37.89c5.61,3.87,8.34,17.39,8.7,19.86c0.45,3.1-0.6,4.92-2.35,4.5
						c-1.75-0.42-6.81-13.41-7.16-15.23C194.11,45.2,195.27,37.89,195.27,37.89z"/>
				</g>
				<g>
					<path class="st79" d="M195.81,38.07c3.39,1.56,6.9,10.61,6.88,10.78c-0.01,0.16-5.45,5.3-5.45,5.3l-3.55-2.99L195.81,38.07z"/>
				</g>
				<g>
					<path class="st80" d="M202.32,47.84c0.34-0.4,1.66,2.49,1.29,3c-0.37,0.51-6.63,6.29-6.63,6.29l-1.32-2.41L202.32,47.84z"/>
				</g>
				<g>
					<path class="st78" d="M213.7,64.43c3.46,0.25,6.26,0.57,6.96,0.04c0.7-0.53,0.79-1.37-1.55-2.15
						c-2.34-0.78-10.49-3.12-12.79-3.58c-2.3-0.46-5.57-0.24-6.04,1.7C199.58,63.68,210.25,64.19,213.7,64.43z"/>
				</g>
				<g>
					<path class="st78" d="M217.23,64.67c1.93,0.28,2.94,0,4.33,0.22c0.46,0.07,2.23,0.36,2.37,0.1c0.14-0.26-1.93-0.58-1.78-0.69
						c0.13-0.1,2.86,0.42,2.96,0.16c0.1-0.26-2.48-0.76-2.39-0.86c0.14-0.15,3.04,0.35,3.06,0.11c0.03-0.39-2.93-0.55-2.89-0.73
						c0.03-0.11,2.28,0.19,2.38-0.16c0.11-0.35-3.41-0.65-3.8-0.62c-0.39,0.03,1.69-1.49,1.21-1.99c-0.25-0.26-1.76,0.82-2.7,1.8
						c-0.73,0.76-1.63,0.05-2.87-0.32c-0.74-0.22-0.42,2.91-0.42,2.91L217.23,64.67z"/>
				</g>
			</g>
			<path class="st78" d="M183.01,86.88c-0.41-0.54-1.85,0.56-2.33,0.27c-0.65,0.71-1.02,1.14-1.02,1.14s-5.51,0.41-8.56,2.69
				c-2.65,1.99-8.56,9.79-8.56,9.79l1.74,2.51c0,0,13.83-7.24,15.55-7.77c0.86-0.27,3.99-1.14,5.53-2.78
				C186.72,90.92,184.07,88.92,183.01,86.88z"/>
			<path class="st78" d="M194,64.08c-5.55-4.78-11.94-3.31-13.95,2.73c-2.17,6.53-1.33,17.8-0.93,21.87
				c0.53-0.16,1.11-0.22,1.79-0.16c2.23,0.58,4.22,1.66,4.66,3.88C188.1,87.21,197.15,66.79,194,64.08z"/>
			<g>
				<path class="st78" d="M196.43,63.76c4.1,2.09-0.79,26.37-0.65,30.61c0.06,1.8-1.66,20.5-1.66,20.5l-2.89,0.13
					c0,0-2.64-10.87-3.13-14.14c-0.57-3.77,1.11-7.6,1.11-7.6s-6.37-15.05-5.69-23.53C184.04,63.38,189.9,60.44,196.43,63.76z"/>
			</g>
			<path class="st77" d="M180.63,64.73c-1.05,1.72-2.63,12.46-2.85,14.94c-0.22,2.48-0.53,5.92-0.53,5.92s9.02,4.34,12.12,4.34
				c3.1,0,7.52-0.37,7.52-0.37s3.19-18.99,0.64-23.79C194.97,60.95,180.63,64.73,180.63,64.73z"/>
			<g>
				<path class="st75" d="M194.28,113.13c1.43,3.5,6.43,4.56,5.84,5.54s-7.32,0.11-8.33-0.91c-1.01-1.01-0.86-4.02-0.86-4.02
					L194.28,113.13z"/>
			</g>
			<g>
				<path class="st80" d="M180.6,65.48c-0.01-5.06,2.98-5.3,3.02-8.76c0.04-3.46,0.1-6.87,0.04-9.25
					c-0.06-2.37-0.83-10.56,7.45-11.63c7.15-0.93,7.77,6.35,8.43,10.07c1.11,6.29-2.49,7.18-3.07,12.41
					c-0.16,1.46,2.42,8.7,2.42,8.7s-4.44,2.16-8.59,2.45C187.01,69.69,180.6,65.48,180.6,65.48z"/>
			</g>
			<g>
				<path class="st81" d="M194.76,38.22c-0.64,0.71-3.53-1.23-3.96-1.87c-0.43-0.65,0.24-2.26,0.58-3.83
					c0.34-1.57,1.31-1.28,2.38-0.79C194.83,32.23,195.65,37.23,194.76,38.22z"/>
			</g>
			<g>
				<path class="st78" d="M197.17,22.47c2.28,0.29,4.62,2.5,3.9,5.57c-0.82,3.47-1.97,7.11-5.56,7.52c-2.1,0.24-4.97-2.33-4.42-5.86
					c0.54-3.51-0.88-2.58-0.39-3.77c0.55-1.33,0.9-0.5,1.04-0.77C192.84,23.12,194.51,22.13,197.17,22.47z"/>
			</g>
			<g>
				<path class="st81" d="M198.38,30.6c0.49,0.55-0.03,3.58-0.63,3.61c-0.59,0.04-1.21-0.1-1.33-0.37
					C196.3,33.58,198.26,30.47,198.38,30.6z"/>
			</g>
			<g>
				<g>
					<path class="st78" d="M189.52,37.95c4.18,6.14,1.78,19,1.17,21.65c-0.76,3.33-2.55,4.76-4.16,3.65
						c-1.62-1.11-1.64-16.31-1.27-18.29C185.63,42.97,189.52,37.95,189.52,37.95z"/>
				</g>
				<g>
					<path class="st79" d="M187.26,36.64c1.44-0.56,3.05,0.18,3.6,1.62c1.59,4.16,1.59,11.41,1.52,11.54
						c-0.08,0.16-7.63,3.24-7.63,3.24s-0.98-6.2-0.82-11.55C184.03,38.56,185.74,37.23,187.26,36.64z"/>
				</g>
				<g>
					<path class="st80" d="M193.24,48.66c0.5-0.27,0.71,3.18,0.13,3.55c-0.58,0.37-9.22,3.78-9.22,3.78l-0.4-2.97L193.24,48.66z"/>
				</g>
				<g>
					<path class="st78" d="M197.96,70.22c3.42,1.61,6.13,3.04,7.05,2.78c0.92-0.26,1.34-1.08-0.72-2.79
						c-2.07-1.72-9.43-7.29-11.58-8.67c-2.16-1.37-5.56-2.43-6.81-0.65C183.91,63.9,194.54,68.61,197.96,70.22z"/>
				</g>
				<g>
					<path class="st78" d="M201.45,71.85c1.85,1.05,2.98,1.16,4.31,1.92c0.44,0.25,2.13,1.24,2.37,1.03
						c0.25-0.21-1.73-1.35-1.53-1.4c0.17-0.05,2.74,1.55,2.94,1.33c0.21-0.22-2.22-1.75-2.09-1.81c0.2-0.1,2.95,1.55,3.06,1.32
						c0.18-0.38-2.76-1.72-2.65-1.87c0.07-0.11,2.24,1.09,2.49,0.77c0.25-0.31-3.21-2-3.62-2.12c-0.4-0.12,2.3-0.85,2.01-1.54
						c-0.15-0.36-2.11,0.14-3.45,0.77c-1.04,0.49-1.68-0.59-2.79-1.46c-0.66-0.52-1.57,2.79-1.57,2.79L201.45,71.85z"/>
				</g>
			</g>
			<g>
				<path class="st75" d="M165.18,102.83c-2.65,2.8-1.3,7.68-2.43,7.5c-1.13-0.18-2.84-6.74-2.28-8.06
					c0.56-1.32,2.61-2.19,2.61-2.19L165.18,102.83z"/>
			</g>
			<path class="st77" d="M201.14,29.14c-0.78,1.03-1.59-2.27-2.67-2.28c-1.08-0.02-3.58,0.92-5.63,0.37
				c-1.07-0.29-1.11-2.07-1.11-2.07l1-2.52c0,0,2.29-1.69,2.77-1.75c0.48-0.07,4.58,1.28,4.58,1.28l2.83,4.36L201.14,29.14z"/>
		</g>
		<g>
			<path class="st82" d="M244.7,47.42c-16.75-1.49-31.53,10.88-33.02,27.63c-1.49,16.75,10.88,31.53,27.63,33.02
				c16.75,1.49,31.53-10.88,33.02-27.63C273.82,63.69,261.45,48.91,244.7,47.42z M240.61,93.51c-8.71-0.77-15.14-8.46-14.36-17.16
				c0.77-8.71,8.46-15.14,17.16-14.36c8.71,0.77,15.14,8.46,14.36,17.16C257,87.85,249.31,94.28,240.61,93.51z"/>
			<path class="st75" d="M229.84,64.93c0.12,0.11,0.24,0.22,0.35,0.33C230.08,65.15,229.96,65.04,229.84,64.93z"/>
			<g>
				<path class="st83" d="M267.66,89.8c-1.65-2.66-3.61-5.21-6.44-6.68c-1.21-0.62-2.45-0.99-3.78-1.27
					c-0.04-0.01-0.09-0.02-0.13-0.03c-0.61,2.3-1.72,4.37-3.19,6.12c0.1,0.08,0.19,0.15,0.3,0.21c0.34,0.24,0.68,0.45,1.01,0.71
					c0.04,0.03,0.14,0.12,0.24,0.2c0.05,0.05,0.11,0.11,0.13,0.13c0.59,0.62,1.18,1.29,1.72,1.96c0.25,0.3,0.46,0.63,0.7,0.94
					c0.07,0.12,0.15,0.25,0.22,0.37c0.41,0.73,0.76,1.49,1.08,2.26c0.34,0.81,0.66,1.62,0.99,2.44c0.13,0.49,0.28,0.98,0.46,1.44
					c0.18,0.47,0.44,0.9,0.66,1.36c0.12,0.25,0.26,0.49,0.43,0.71c2.76-2.41,5.09-5.32,6.85-8.6
					C268.51,91.27,268.1,90.51,267.66,89.8z"/>
				<path class="st83" d="M223.86,70.96c0.88,0.92,1.86,1.8,2.89,2.6c0.79-2.88,2.36-5.42,4.46-7.37c-0.13-0.11-0.26-0.22-0.34-0.3
					c-0.22-0.21-0.45-0.42-0.68-0.62c-0.24-0.14-0.45-0.44-0.64-0.64c-0.43-0.44-0.84-0.89-1.22-1.37
					c-0.24-0.29-1.05-1.08-1.08-1.45c0.09,0.14,0.18,0.28,0.27,0.42c-0.1-0.16-0.19-0.32-0.29-0.48c-0.14-0.24-0.27-0.48-0.4-0.73
					c-0.25-0.49-0.47-1-0.67-1.52c-0.17-0.44-0.54-1.06-0.58-1.53c0.16,0.51,0.18,0.56,0.06,0.15c-0.04-0.13-0.07-0.26-0.1-0.39
					c-0.06-0.25-0.1-0.5-0.14-0.75c-0.03-0.21-0.05-0.43-0.08-0.65c0-0.11,0-0.22,0-0.34c0.02-0.51,0.07-1.02,0.11-1.52
					c0.02-0.25,0.07-0.49,0.09-0.74c-0.08,0.73,0.09-0.56,0.12-0.71c0.04-0.22,0.1-0.46,0.08-0.69c-0.01-0.16-0.03-0.19-0.04-0.19
					c0.01-0.02,0.02-0.06,0.04-0.13c-2.86,1.81-5.4,4.08-7.52,6.73c0.02,1.77,0.3,3.29,0.92,4.97
					C220.15,66.4,221.89,68.89,223.86,70.96z"/>
				<path class="st83" d="M229.61,87.57c-1.78-2.25-2.96-4.99-3.31-7.94c-0.02,0.03-0.05,0.06-0.07,0.1
					c-0.11,0.15-0.63,0.74-0.11,0.18c-0.18,0.19-0.35,0.38-0.53,0.57c-0.19,0.17-0.38,0.34-0.58,0.5c-0.01,0.01-0.16,0.14-0.31,0.26
					c-0.03,0.02-0.06,0.03-0.1,0.05c-0.07,0.04-0.14,0.08-0.22,0.12c-0.26,0.14-0.5,0.28-0.77,0.4c-0.03,0.01-0.09,0.04-0.17,0.07
					c-0.18,0.05-0.49,0.14-0.57,0.16c-0.25,0.05-0.5,0.1-0.76,0.14c-1.1,0.16-2.21,0.29-3.32,0.4c-2.25,0.22-4.51,0.39-6.77,0.53
					c0.57,3.2,1.64,6.24,3.14,9.04c2.09-0.2,4.18-0.44,6.26-0.73C224.4,90.98,227.59,89.88,229.61,87.57z M224.53,81.37
					c-0.09,0.07-0.16,0.11-0.17,0.1C224.43,81.44,224.49,81.4,224.53,81.37z"/>
				<path class="st83" d="M243.92,108.13c0.87-1.23,1.58-2.57,2.05-4.04c0.97-3.05,0.98-6.04-0.39-8.98
					c-0.28-0.6-0.6-1.19-0.94-1.75c-1.3,0.22-2.65,0.28-4.03,0.15c-1.03-0.09-2.03-0.28-2.99-0.56c0.01,0.17,0.02,0.38,0.04,0.66
					c0.13,1.08,0.41,2.15,0.61,3.22c0.05,0.25,0.09,0.5,0.12,0.75c0.02,0.15,0.04,0.3,0.05,0.45c0.03,0.31,0.02,0.2-0.01-0.31
					c0.15,0.22-0.05,1.1-0.07,1.37c-0.02,0.26-0.06,0.52-0.09,0.78c-0.15,0.45-0.28,0.89-0.47,1.32c-0.04,0.09-0.08,0.17-0.12,0.26
					c-0.06,0.1-0.1,0.17-0.14,0.23c-0.27,0.44-0.58,0.86-0.89,1.27c-0.28,0.37-0.67,0.73-0.93,1.12c0.21-0.3,0.42-0.41-0.01,0.01
					c-0.03,0.03-0.04,0.06-0.06,0.09c0.02-0.03,0.03-0.05,0.05-0.08c-0.17,0.17-0.35,0.34-0.53,0.5c-0.8,0.74-1.67,1.4-2.46,2.15
					c2.1,0.67,4.3,1.12,6.59,1.33C240.87,108.2,242.41,108.22,243.92,108.13z"/>
				<path class="st83" d="M259.72,61.8c-2.53,1.01-4.58,2.88-6.36,4.91c1.7,1.75,2.99,3.88,3.74,6.23c0.27-0.22,0.55-0.45,0.83-0.66
					c0.22-0.17,0.44-0.33,0.66-0.49c0.07-0.05,0.2-0.15,0.3-0.23c0.33-0.22,0.72-0.4,1.06-0.58c0.87-0.45,1.82-0.71,2.7-1.12
					c0.24-0.06,0.44-0.11,0.65-0.14c0.4-0.08,0.79-0.12,1.19-0.17c0.24,0.01,0.48,0.01,0.71,0.03c0.25,0.02,0.56,0.03,0.85,0.06
					c0.05,0.02,0.12,0.04,0.24,0.08c0.23,0.07,0.46,0.14,0.7,0.22c0.19,0.06,0.37,0.14,0.55,0.23c0.02-0.02,0.22,0.05,0.44,0.19
					c0.08,0.03,0.16,0.07,0.24,0.09c-0.08-0.03-0.15-0.05-0.21-0.07c0.19,0.13,0.37,0.27,0.56,0.4c0.63,0.46,1.38,0.76,2.08,1.11
					c0.41,0.2,0.85,0.29,1.3,0.31c-0.78-4.22-2.44-8.17-4.8-11.62C264.63,60.37,262.04,60.87,259.72,61.8z"/>
				<path class="st83" d="M241.49,47.31c-1.72,1.94-3.01,4.19-3.86,6.66c-1.02,2.93-1.36,5.89-1.16,8.96
					c2.15-0.8,4.5-1.15,6.94-0.94c0.02-0.06,0.01-0.13,0.01-0.19c0-0.05-0.01-0.39-0.01-0.56c0-0.62,0.03-1.24,0.06-1.86
					c0.03-0.67,0.09-1.34,0.18-2c0.05-0.36,0.12-0.71,0.18-1.06c0.01-0.07,0.02-0.11,0.02-0.15c0.01-0.04,0.03-0.1,0.05-0.18
					c0.33-1.16,0.71-2.29,1.24-3.38c0.04-0.08,0.08-0.16,0.12-0.24c0.02-0.03,0.03-0.06,0.05-0.09c0.14-0.23,0.26-0.46,0.39-0.69
					c0.26-0.46,0.53-0.91,0.82-1.35c0.58-0.86,1.14-1.6,1.75-2.27c-1.17-0.24-2.36-0.42-3.58-0.53
					C243.62,47.33,242.55,47.29,241.49,47.31z"/>
			</g>
			<g class="st84">
				<g>
					<path class="st72" d="M241.73,50.41c-0.76-0.63-2.23-0.19-3.1,0c-1.07,0.23-2.14,0.52-3.17,0.89c-2.07,0.73-4.07,1.7-5.97,2.8
						c-1.89,1.1-3.68,2.37-5.35,3.78c-0.85,0.72-1.64,1.47-2.39,2.29c-0.4,0.43-0.78,0.85-1.1,1.34c-0.34,0.53-0.48,0.98-0.71,1.55
						c-0.23,0.58,0.46,1.33,1.05,0.96c0.45-0.28,0.89-0.46,1.32-0.8c0.42-0.34,0.81-0.7,1.2-1.06c0.76-0.7,1.52-1.4,2.31-2.07
						c1.59-1.35,3.29-2.56,5.08-3.62c1.78-1.06,3.65-1.94,5.57-2.71c1-0.4,1.99-0.79,3.01-1.15c0.88-0.3,2.05-0.52,2.5-1.41
						C242.12,50.93,241.95,50.59,241.73,50.41L241.73,50.41z"/>
				</g>
				<g>
					<path class="st72" d="M217.61,67.47c-1.08,0.51-1.53,2.26-1.84,3.31c-0.42,1.41-0.64,2.63-0.25,4.07
						c0.12,0.44,0.69,0.5,0.88,0.08c0.54-1.21,0.73-2.4,1.07-3.68c0.16-0.6,0.37-1.19,0.54-1.79c0.15-0.54,0.4-1.09,0.27-1.65
						C218.21,67.52,217.9,67.33,217.61,67.47L217.61,67.47z"/>
				</g>
				<g>
					<path class="st72" d="M259.69,80.3c-0.57,1.82-0.77,3.68-1.52,5.45c-0.37,0.87-0.85,1.69-1.42,2.45
						c-0.51,0.69-1.21,1.42-1.21,2.34c0,0.22,0.14,0.43,0.38,0.45c2.01,0.15,3.41-2.91,4.06-4.42c0.8-1.89,1.33-4.34,0.52-6.3
						C260.35,79.93,259.8,79.95,259.69,80.3L259.69,80.3z"/>
				</g>
				<g>
					<path class="st72" d="M253.37,92.44c-0.75,0.3-1.42,0.77-2.2,1.02c-0.66,0.21-1.49,0.19-1.95,0.78
						c-0.12,0.15-0.1,0.38,0.02,0.53c0.61,0.76,1.84,0.38,2.6,0.1c0.91-0.34,1.76-0.92,2.15-1.84
						C254.17,92.62,253.72,92.3,253.37,92.44L253.37,92.44z"/>
				</g>
			</g>
		</g>
		<path class="st76" d="M304.03,162.89c-12.19-0.38-27.84-1.28-27.95,2.69c-0.11,3.97,26.64,3.15,34.38,5.92
			c7.74,2.77,25.02,0.8,25.62-3.18C336.68,164.35,311.71,163.13,304.03,162.89z"/>
		<g>
			<g>
				<g>
					<path class="st78" d="M272.69,72.35c-0.4-1.88,0.06-2.96-0.39-3.13c-0.45-0.17-0.26,1.6-0.54,1.71
						c-0.28,0.12-1.59-3.09-1.9-2.95c-0.31,0.14,0.71,2.41,0.63,2.48c-0.08,0.06-1.59-2.4-1.8-2.23c-0.21,0.17,1.31,2.65,1.16,2.73
						c-0.15,0.08-2.03-2.19-2.18-1.91c-0.15,0.28,1.46,2.21,1.53,2.43c0.07,0.22-1.33-1.32-1.53-1.1c-0.2,0.21,2.71,3.04,3.97,3.47
						C272.91,74.27,272.87,73.18,272.69,72.35z"/>
				</g>
				<g>
					<path class="st78" d="M271,73.39c1.55,2.92,4.63,13.66,6.38,14.97c2.11,1.58,14.94,6.88,16.51,4.85
						c1.57-2.03-0.36-9.65-0.36-9.65c-5.63,2.73-12.43,0.94-13.5,0.06c-0.83-0.68-5.5-7.58-7.28-10.66L271,73.39z"/>
				</g>
			</g>
			<path class="st79" d="M289.28,83.94c-2.01,0.26-4.68,0.82-5.29,0.63c-0.61-0.2-0.75-0.24-0.75-0.24s-1.68,6.29-1.43,6.53
				c0.25,0.25,4.36,1.96,4.36,1.96L289.28,83.94z"/>
			<g>
				<path class="st77" d="M287.84,160.76c-0.42,2.71-6.69,2.75-7.16,4.2c-0.6,1.81,11.26,1.04,11.59-0.53
					c0.08-0.39,0.11-2.24-0.44-3.65C289.87,161.08,289.64,161.58,287.84,160.76z"/>
			</g>
			<path class="st78" d="M278.12,131.64c-0.69,1.25-1.31,2.43-1.79,3.42c-0.7,1.46,0.58,2.89,0.76,3.24
				c1.22,2.3,11.1,20.86,11.48,23.02c0.08,0.43,0.77-0.31,2.73,0.01c-0.24-4.57-0.22-12.3-1.4-15.84c-1.29-3.87-3.63-5.34-4.42-5.74
				c0.55-0.48,1.17-1.02,1.83-1.6C283.58,137.07,280.03,134.9,278.12,131.64z"/>
			<path class="st77" d="M289.87,114.56c0,0-3.33,4.15-4.71,5.58c-0.92,0.96-4.97,6.74-7.55,11.46c1.91,3.26,6.68,5.97,10.42,7.04
				c6.65-5.85,17.34-16.74,18.3-19.35C307.71,115.5,289.87,114.56,289.87,114.56z"/>
			<g>
				<path class="st77" d="M320.57,162.6c0.17,0.23,0.28,0.42,0.32,0.54c0.45,1.6-3.48,4.25-2.51,6.26c0.97,2.01,6.55-2.52,7.21-4.74
					c0.16-0.55-0.46-2.1-1.56-4.14C322.98,161.43,321.83,162.19,320.57,162.6z"/>
			</g>
			<path class="st78" d="M310.46,142.19c-0.15-1.7-0.35-3.55-0.59-5.45c-2.85,2.43-6.4,3.61-9.88,4.38c1.45,2.8,2.8,5.15,3.92,6.34
				c0.05,0.05,0.11,0.12,0.16,0.18c3.94,3.02,15.57,12.57,17.49,15.26c1.26-0.4,1.01-1.04,2.08-1.93
				C320.53,154.94,316.04,142.82,310.46,142.19z"/>
			<g>
				<path class="st72" d="M302.33,113.97c-0.94-2.23,2.28-2.67,1.27-5.32c-2.42-6.38-4.46-19.68-7.53-23.67
					c-3.04-3.95-7.67-1.45-9.63,1.95c-1.95,3.4,0.33,25.26,1.09,25.8c1.41,1,2.63,2.68,3.1,3.9
					C295.12,117.51,298.46,116.73,302.33,113.97z"/>
			</g>
			<path class="st77" d="M311.15,136.01c-0.89-7.26-3.54-14.42-4.57-16.81c-1.3-3.02-3.23-4.57-3.86-6.14
				c-4.16,2.27-8.38,2.28-12.72,0.86c0.6,2.44,0.75,5.87,1.21,7.05c1.4,3.53,1.51,5.9,2.99,8.66c1.95,3.64,3.51,8.2,5.36,11.76
				C303.03,140.61,308.3,138.44,311.15,136.01z"/>
			<g>
				<path class="st75" d="M288.99,113.65c-0.52-0.07-0.47,1.74,0.11,1.97c0.57,0.23,4.49,1.04,8.03,0.31
					c3.54-0.73,6.08-2.19,6.24-2.7c0.07-0.2-0.36-1.58-0.96-1.37c-0.6,0.21-3.77,1.83-6.51,2.18
					C293.16,114.39,288.99,113.65,288.99,113.65z"/>
			</g>
			<g>
				<g>
					<path class="st78" d="M278.89,102.75c4.51-0.09,11.75-3.62,16.68-8.27c2.05-1.93,2.14-5.16,0.23-7.23
						c-1.36-1.47-3.68-1.45-5.02,0.03l-3.55,3.94c0,0-3.21,4.64-9.16,6.48c-5.94,1.84-12.71,1.01-12.71,1.01l-0.21,1.91
						C265.15,100.61,273.2,102.86,278.89,102.75z"/>
				</g>
				<g>
					<path class="st78" d="M265.36,98.7c-1.49-1.21-1.82-2.34-2.27-2.19c-0.46,0.16,0.8,1.4,0.66,1.67c-0.14,0.27-3.18-1.4-3.33-1.1
						c-0.15,0.31,2.07,1.42,2.05,1.52c-0.02,0.1-2.74-0.86-2.8-0.6c-0.06,0.26,2.69,1.23,2.62,1.39c-0.07,0.16-2.96-0.42-2.9-0.11
						c0.06,0.31,2.53,0.8,2.72,0.92c0.2,0.13-1.86-0.19-1.88,0.11c-0.02,0.29,4.02,0.65,5.27,0.19
						C266.75,100.06,266.02,99.23,265.36,98.7z"/>
				</g>
			</g>
			<g>
				<path class="st81" d="M290.66,83.74c-0.42,0.6,1.08,1.16,1.75,1.2c0.61,0.04,1.85-1.06,1.97-1.3c0.81-1.74,0.22-6.36-1.21-6.55
					c-0.32-0.04-0.61,0.13-0.84,0.45C291.21,79.04,291.53,82.48,290.66,83.74z"/>
			</g>
			<g>
				<g>
					<path class="st78" d="M288.43,81.21c3.31,1.8,10.57-1.13,11.26-5.92c0.69-4.79-4.38-8.74-8.91-5.18
						C286.25,73.67,286.15,79.98,288.43,81.21z"/>
				</g>
				<g>
					<path class="st81" d="M290.61,73.47c-1.17,0.64-3.26,2.52-2.87,3.09c0.39,0.57,1.2,0.7,1.2,0.7S291.13,73.19,290.61,73.47z"/>
				</g>
			</g>
			<path class="st79" d="M295.68,86.34c-1.38-0.71-3.91-1.36-7.34,3.02c-2.22,2.83-3.42,3.91-3.99,4.31
				c-0.23,0.16-0.28,0.48-0.12,0.71l3.89,5.68c0.15,0.23,0.45,0.3,0.69,0.18c1.83-0.94,8.22-4.93,9.06-8.69
				C298.58,88.42,296.21,86.61,295.68,86.34z"/>
			<path class="st77" d="M290.86,69.78c-0.29-1.52,6.19-2.82,11.3,0.15c5.12,2.96,4.75,7.22,3.87,7.99c-0.88,0.77-2.49-0.8-2.49-0.8
				s4.87,3.73,2.34,5.05c-2.53,1.32-5.04-2.01-5.04-2.01s2.26,4.1-0.05,4.57c-2.31,0.47-4.63-4.63-4.63-4.63s1.28-3.94,1.11-5.42
				C297.1,73.21,291.17,71.41,290.86,69.78z"/>
		</g>
	</g>
	<g>
		<g>
			<path class="st82" d="M81,155.87H42.82c-7.35,0-13.36-6.01-13.36-13.36c0-7.35,6.01-13.36,13.36-13.36H81
				c7.35,0,13.36,6.01,13.36,13.36C94.36,149.86,88.34,155.87,81,155.87z"/>
			<g>
				<path class="st72" d="M37.44,139.22c0.51-0.09,1.27-0.15,2.11-0.15c1.04,0,1.77,0.16,2.28,0.56c0.42,0.33,0.65,0.83,0.65,1.47
					c0,0.89-0.64,1.51-1.24,1.73c0.49,0.23,0.76,0.7,0.94,1.34c0.22,0.8,0.43,1.71,0.57,1.99h-1.63c-0.11-0.2-0.28-0.77-0.48-1.64
					c-0.2-0.88-0.49-1.11-1.15-1.12h-0.47v2.76h-1.58V139.22z M39.02,142.24h0.62c0.79,0,1.26-0.4,1.26-1.01
					c0-0.64-0.44-0.97-1.17-0.98c-0.38,0-0.6,0.02-0.72,0.05V142.24z"/>
				<path class="st72" d="M44.82,144.11c0.05,0.66,0.7,0.97,1.44,0.97c0.54,0,0.98-0.07,1.41-0.22l0.21,1.07
					c-0.53,0.22-1.17,0.32-1.85,0.32c-1.73,0-2.72-1.01-2.72-2.6c0-1.3,0.81-2.73,2.57-2.73c1.66,0,2.28,1.29,2.28,2.55
					c0,0.28-0.03,0.51-0.06,0.63H44.82z M46.68,143.02c0-0.38-0.17-1.04-0.89-1.04c-0.67,0-0.94,0.61-0.99,1.04H46.68z"/>
				<path class="st72" d="M52.01,146.15l-0.09-0.51c-0.37,0.41-0.89,0.62-1.49,0.62c-1.04,0-1.65-0.75-1.65-1.56
					c0-1.33,1.19-1.96,3-1.96v-0.06c0-0.27-0.15-0.66-0.94-0.66c-0.52,0-1.07,0.18-1.41,0.38l-0.29-1.02
					c0.36-0.2,1.05-0.46,1.99-0.46c1.7,0,2.24,1.01,2.24,2.21v1.78c0,0.49,0.03,0.95,0.08,1.24H52.01z M51.82,143.74
					c-0.84,0-1.48,0.2-1.48,0.81c0,0.41,0.27,0.61,0.63,0.61c0.39,0,0.72-0.26,0.82-0.59c0.02-0.08,0.03-0.18,0.03-0.27V143.74z"/>
				<path class="st72" d="M59.56,138.74v5.89c0,0.58,0.02,1.18,0.04,1.53h-1.41l-0.07-0.75c-0.34,0.57-0.96,0.86-1.62,0.86
					c-1.21,0-2.18-1.04-2.18-2.62c-0.01-1.72,1.07-2.72,2.29-2.72c0.63,0,1.11,0.22,1.34,0.58c0.02,0,0.02-2.76,0.02-2.76H59.56z
					 M57.97,143.21c0-0.09,0-0.2-0.02-0.29c-0.09-0.43-0.44-0.78-0.92-0.78c-0.73,0-1.1,0.65-1.1,1.45c0,0.86,0.42,1.4,1.09,1.4
					c0.45,0,0.82-0.31,0.92-0.76c0.03-0.11,0.03-0.23,0.03-0.36V143.21z"/>
				<path class="st72" d="M62.93,142.68c0-0.64-0.02-1.17-0.04-1.63h1.34l0.07,0.69c0.25-0.32,0.71-0.81,1.57-0.81
					c0.66,0,1.18,0.34,1.4,0.88c0.21-0.27,0.44-0.48,0.68-0.62c0.28-0.17,0.59-0.25,0.97-0.25c0.98,0,1.72,0.69,1.72,2.22v3.01
					h-1.54v-2.78c0-0.74-0.24-1.17-0.75-1.17c-0.37,0-0.62,0.25-0.73,0.55c-0.04,0.11-0.06,0.28-0.06,0.4v2.99h-1.55v-2.86
					c0-0.64-0.23-1.08-0.74-1.08c-0.41,0-0.65,0.31-0.74,0.57c-0.05,0.12-0.06,0.27-0.06,0.4v2.97h-1.55V142.68z"/>
				<path class="st72" d="M76.95,143.55c0,1.87-1.32,2.72-2.69,2.72c-1.49,0-2.64-0.98-2.64-2.63c0-1.65,1.09-2.71,2.73-2.71
					C75.91,140.93,76.95,142.01,76.95,143.55z M73.25,143.6c0,0.87,0.37,1.53,1.04,1.53c0.62,0,1.01-0.62,1.01-1.54
					c0-0.75-0.29-1.53-1.01-1.53C73.54,142.07,73.25,142.84,73.25,143.6z"/>
				<path class="st72" d="M77.93,142.73c0-0.75-0.01-1.24-0.04-1.68h1.36l0.06,0.95c0.3-0.75,0.92-1.06,1.42-1.06
					c0.15,0,0.22,0,0.34,0.03v1.49c-0.12-0.03-0.25-0.04-0.43-0.04c-0.58,0-0.98,0.31-1.09,0.81c-0.02,0.1-0.03,0.22-0.03,0.35v2.59
					h-1.59V142.73z"/>
				<path class="st72" d="M83.03,144.11c0.05,0.66,0.7,0.97,1.44,0.97c0.54,0,0.98-0.07,1.41-0.22l0.21,1.07
					c-0.53,0.22-1.17,0.32-1.85,0.32c-1.73,0-2.72-1.01-2.72-2.6c0-1.3,0.81-2.73,2.58-2.73c1.66,0,2.28,1.29,2.28,2.55
					c0,0.28-0.03,0.51-0.06,0.63H83.03z M84.9,143.02c0-0.38-0.17-1.04-0.89-1.04c-0.67,0-0.94,0.61-0.99,1.04H84.9z"/>
			</g>
			<g class="st85">
				<path class="st74" d="M28.73,92.44h0.96v4.45h2.16v0.81h-3.12V92.44z"/>
				<path class="st74" d="M36.06,95.76c0,1.39-0.98,2.02-1.95,2.02c-1.07,0-1.9-0.74-1.9-1.95c0-1.24,0.82-2.01,1.96-2.01
					C35.31,93.81,36.06,94.6,36.06,95.76z M33.2,95.8c0,0.73,0.36,1.28,0.94,1.28c0.55,0,0.93-0.53,0.93-1.29
					c0-0.6-0.26-1.28-0.93-1.28C33.48,94.51,33.2,95.16,33.2,95.8z"/>
				<path class="st74" d="M36.86,95.12c0-0.51-0.01-0.88-0.03-1.22h0.83l0.04,0.72c0.21-0.53,0.66-0.81,1.07-0.81
					c0.09,0,0.15,0,0.23,0.02v0.9c-0.08-0.02-0.17-0.03-0.28-0.03c-0.46,0-0.77,0.29-0.86,0.73c-0.02,0.08-0.02,0.19-0.02,0.29v1.97
					h-0.96V95.12z"/>
				<path class="st74" d="M40.24,96.06c0.03,0.69,0.56,0.99,1.17,0.99c0.44,0,0.76-0.07,1.05-0.18l0.14,0.66
					c-0.33,0.14-0.78,0.24-1.33,0.24c-1.23,0-1.95-0.76-1.95-1.92c0-1.05,0.64-2.04,1.86-2.04c1.23,0,1.63,1.01,1.63,1.85
					c0,0.18-0.02,0.32-0.03,0.4H40.24z M41.91,95.39c0-0.35-0.15-0.92-0.79-0.92c-0.59,0-0.84,0.54-0.88,0.92H41.91z"/>
				<path class="st74" d="M43.59,95.02c0-0.44-0.01-0.8-0.03-1.13h0.82l0.04,0.56c0.21-0.29,0.55-0.64,1.19-0.64
					c0.5,0,0.89,0.28,1.05,0.7c0.15-0.21,0.31-0.37,0.48-0.48c0.22-0.15,0.45-0.22,0.77-0.22c0.63,0,1.27,0.43,1.27,1.65v2.23h-0.94
					v-2.1c0-0.63-0.22-1-0.68-1c-0.33,0-0.57,0.23-0.67,0.5c-0.03,0.09-0.05,0.21-0.05,0.32v2.28h-0.94V95.5
					c0-0.53-0.21-0.91-0.66-0.91c-0.36,0-0.6,0.28-0.69,0.54c-0.03,0.1-0.05,0.21-0.05,0.32v2.24h-0.94V95.02z"/>
				<path class="st74" d="M52.83,92.83c0,0.29-0.21,0.52-0.55,0.52c-0.32,0-0.53-0.23-0.53-0.52c0-0.29,0.21-0.52,0.54-0.52
					C52.62,92.31,52.83,92.54,52.83,92.83z M51.82,97.69V93.9h0.96v3.79H51.82z"/>
				<path class="st74" d="M53.81,95.15c0-0.49-0.01-0.9-0.03-1.26h0.84l0.05,0.58c0.29-0.43,0.74-0.67,1.32-0.67
					c0.87,0,1.59,0.74,1.59,1.93c0,1.38-0.86,2.04-1.73,2.04c-0.48,0-0.87-0.2-1.07-0.51c-0.02,0-0.02,1.96-0.02,1.96h-0.96V95.15z
					 M54.77,96.1c0,0.09,0.01,0.18,0.03,0.26c0.1,0.39,0.44,0.67,0.84,0.67c0.61,0,0.97-0.51,0.97-1.25c0-0.67-0.33-1.22-0.94-1.22
					c-0.39,0-0.76,0.29-0.86,0.71c-0.02,0.08-0.03,0.16-0.03,0.24V96.1z"/>
				<path class="st74" d="M58.33,96.81c0.21,0.13,0.62,0.28,0.97,0.28c0.42,0,0.61-0.18,0.61-0.43c0-0.26-0.16-0.39-0.62-0.55
					c-0.74-0.25-1.05-0.66-1.05-1.11c0-0.67,0.55-1.19,1.44-1.19c0.42,0,0.78,0.1,1.01,0.23l-0.19,0.67
					c-0.16-0.09-0.47-0.22-0.8-0.22c-0.34,0-0.53,0.17-0.53,0.4c0,0.24,0.18,0.36,0.66,0.53c0.69,0.24,1.01,0.6,1.01,1.16
					c0,0.69-0.54,1.19-1.54,1.19c-0.46,0-0.88-0.11-1.16-0.27L58.33,96.81z"/>
				<path class="st74" d="M65.02,96.55c0,0.45,0.01,0.83,0.03,1.14h-0.84l-0.05-0.57c-0.18,0.27-0.56,0.66-1.24,0.66
					c-0.69,0-1.32-0.42-1.32-1.66V93.9h0.96v2.06c0,0.63,0.2,1.03,0.71,1.03c0.38,0,0.63-0.27,0.73-0.51
					c0.03-0.08,0.05-0.19,0.05-0.3V93.9h0.96V96.55z"/>
				<path class="st74" d="M66.06,95.02c0-0.44-0.01-0.8-0.03-1.13h0.82l0.04,0.56c0.21-0.29,0.55-0.64,1.19-0.64
					c0.5,0,0.89,0.28,1.05,0.7c0.15-0.21,0.31-0.37,0.48-0.48c0.22-0.15,0.46-0.22,0.77-0.22c0.63,0,1.27,0.43,1.27,1.65v2.23h-0.94
					v-2.1c0-0.63-0.22-1-0.68-1c-0.33,0-0.57,0.23-0.67,0.5c-0.03,0.09-0.05,0.21-0.05,0.32v2.28h-0.94V95.5
					c0-0.53-0.21-0.91-0.65-0.91c-0.36,0-0.6,0.28-0.69,0.54c-0.03,0.1-0.05,0.21-0.05,0.32v2.24h-0.94V95.02z"/>
				<path class="st74" d="M77.79,92.16v4.47c0,0.39,0.01,0.81,0.03,1.06h-0.85l-0.04-0.6c-0.24,0.43-0.7,0.69-1.25,0.69
					c-0.91,0-1.62-0.77-1.62-1.94c-0.01-1.27,0.79-2.03,1.7-2.03c0.52,0,0.89,0.21,1.06,0.49c0.02,0,0.02-2.15,0.02-2.15H77.79z
					 M76.83,95.48c0-0.08,0-0.17-0.02-0.25c-0.08-0.37-0.39-0.67-0.82-0.67c-0.62,0-0.96,0.54-0.96,1.25c0,0.7,0.35,1.21,0.95,1.21
					c0.39,0,0.73-0.27,0.83-0.68c0.02-0.09,0.03-0.18,0.03-0.28V95.48z"/>
				<path class="st74" d="M82.43,95.76c0,1.39-0.98,2.02-1.95,2.02c-1.07,0-1.9-0.74-1.9-1.95c0-1.24,0.82-2.01,1.96-2.01
					C81.67,93.81,82.43,94.6,82.43,95.76z M79.56,95.8c0,0.73,0.36,1.28,0.94,1.28c0.55,0,0.93-0.53,0.93-1.29
					c0-0.6-0.26-1.28-0.93-1.28C79.84,94.51,79.56,95.16,79.56,95.8z"/>
				<path class="st74" d="M83.22,92.16h0.96v5.53h-0.96V92.16z"/>
				<path class="st74" d="M88.83,95.76c0,1.39-0.98,2.02-1.95,2.02c-1.07,0-1.9-0.74-1.9-1.95c0-1.24,0.82-2.01,1.96-2.01
					C88.07,93.81,88.83,94.6,88.83,95.76z M85.97,95.8c0,0.73,0.36,1.28,0.94,1.28c0.55,0,0.93-0.53,0.93-1.29
					c0-0.6-0.26-1.28-0.93-1.28C86.24,94.51,85.97,95.16,85.97,95.8z"/>
				<path class="st74" d="M89.62,95.12c0-0.51-0.01-0.88-0.03-1.22h0.83l0.04,0.72c0.21-0.53,0.66-0.81,1.07-0.81
					c0.09,0,0.15,0,0.22,0.02v0.9c-0.08-0.02-0.17-0.03-0.28-0.03c-0.46,0-0.77,0.29-0.86,0.73c-0.02,0.08-0.02,0.19-0.02,0.29v1.97
					h-0.96V95.12z"/>
				<path class="st74" d="M93.97,96.81c0.21,0.13,0.62,0.28,0.97,0.28c0.42,0,0.61-0.18,0.61-0.43c0-0.26-0.16-0.39-0.62-0.55
					c-0.74-0.25-1.05-0.66-1.05-1.11c0-0.67,0.55-1.19,1.44-1.19c0.42,0,0.78,0.1,1.01,0.23l-0.19,0.67
					c-0.16-0.09-0.47-0.22-0.8-0.22c-0.34,0-0.53,0.17-0.53,0.4c0,0.24,0.18,0.36,0.66,0.53c0.69,0.24,1.01,0.6,1.01,1.16
					c0,0.69-0.54,1.19-1.54,1.19c-0.46,0-0.88-0.11-1.16-0.27L93.97,96.81z"/>
				<path class="st74" d="M98.28,92.83c0,0.29-0.21,0.52-0.55,0.52c-0.32,0-0.53-0.23-0.53-0.52c0-0.29,0.21-0.52,0.54-0.52
					C98.07,92.31,98.28,92.54,98.28,92.83z M97.26,97.69V93.9h0.96v3.79H97.26z"/>
				<path class="st74" d="M100.36,92.81v1.09h0.91v0.71h-0.91v1.67c0,0.46,0.12,0.7,0.49,0.7c0.16,0,0.29-0.02,0.37-0.04l0.02,0.73
					c-0.14,0.05-0.4,0.1-0.7,0.1c-0.35,0-0.65-0.12-0.82-0.31c-0.21-0.22-0.3-0.57-0.3-1.06v-1.78h-0.54V93.9h0.54v-0.86
					L100.36,92.81z"/>
				<path class="st74" d="M105.75,97.69l-0.07-0.42c-0.25,0.3-0.65,0.51-1.14,0.51c-0.77,0-1.2-0.55-1.2-1.13
					c0-0.96,0.85-1.44,2.25-1.44v-0.06c0-0.25-0.1-0.66-0.77-0.66c-0.37,0-0.76,0.12-1.02,0.28l-0.19-0.62
					c0.29-0.17,0.78-0.34,1.38-0.34c1.22,0,1.56,0.77,1.56,1.6v1.37c0,0.34,0.02,0.68,0.06,0.91H105.75z M105.62,95.83
					c-0.68-0.01-1.32,0.13-1.32,0.71c0,0.37,0.24,0.55,0.55,0.55c0.38,0,0.66-0.25,0.75-0.52c0.02-0.07,0.03-0.14,0.03-0.21V95.83z"
					/>
				<path class="st74" d="M107.57,95.02c0-0.44-0.01-0.8-0.03-1.13h0.82l0.04,0.56c0.21-0.29,0.55-0.64,1.19-0.64
					c0.5,0,0.89,0.28,1.05,0.7c0.15-0.21,0.31-0.37,0.48-0.48c0.22-0.15,0.46-0.22,0.77-0.22c0.63,0,1.27,0.43,1.27,1.65v2.23h-0.94
					v-2.1c0-0.63-0.22-1-0.68-1c-0.33,0-0.57,0.23-0.67,0.5c-0.03,0.09-0.05,0.21-0.05,0.32v2.28h-0.94V95.5
					c0-0.53-0.21-0.91-0.65-0.91c-0.36,0-0.6,0.28-0.69,0.54c-0.03,0.1-0.05,0.21-0.05,0.32v2.24h-0.94V95.02z"/>
				<path class="st74" d="M114.86,96.06c0.03,0.69,0.56,0.99,1.17,0.99c0.44,0,0.76-0.07,1.05-0.18l0.14,0.66
					c-0.33,0.14-0.78,0.24-1.33,0.24c-1.23,0-1.95-0.76-1.95-1.92c0-1.05,0.64-2.04,1.86-2.04c1.23,0,1.63,1.01,1.63,1.85
					c0,0.18-0.02,0.32-0.03,0.4H114.86z M116.53,95.39c0-0.35-0.15-0.92-0.79-0.92c-0.59,0-0.84,0.54-0.88,0.92H116.53z"/>
				<path class="st74" d="M119.31,92.81v1.09h0.91v0.71h-0.91v1.67c0,0.46,0.12,0.7,0.49,0.7c0.16,0,0.29-0.02,0.37-0.04l0.02,0.73
					c-0.14,0.05-0.4,0.1-0.7,0.1c-0.35,0-0.65-0.12-0.82-0.31c-0.21-0.22-0.3-0.57-0.3-1.06v-1.78h-0.54V93.9h0.54v-0.86
					L119.31,92.81z"/>
				<path class="st74" d="M120.45,98.63c0.21-0.59,0.42-1.41,0.52-2.06l1.01-0.08c-0.22,0.74-0.57,1.57-0.88,2.08L120.45,98.63z"/>
				<path class="st74" d="M31.49,106.93c-0.2,0.09-0.6,0.2-1.07,0.2c-1.19,0-1.96-0.76-1.96-1.94c0-1.14,0.78-2.02,2.11-2.02
					c0.35,0,0.71,0.08,0.93,0.17l-0.17,0.72c-0.15-0.08-0.38-0.15-0.73-0.15c-0.73,0-1.17,0.53-1.16,1.23
					c0,0.78,0.51,1.22,1.17,1.22c0.33,0,0.57-0.07,0.75-0.15L31.49,106.93z"/>
				<path class="st74" d="M35.74,105.11c0,1.39-0.98,2.02-1.95,2.02c-1.07,0-1.9-0.74-1.9-1.95c0-1.24,0.82-2.01,1.96-2.01
					C34.98,103.17,35.74,103.96,35.74,105.11z M32.88,105.15c0,0.73,0.36,1.28,0.94,1.28c0.55,0,0.93-0.53,0.93-1.29
					c0-0.6-0.26-1.28-0.93-1.28C33.15,103.87,32.88,104.52,32.88,105.15z"/>
				<path class="st74" d="M36.53,104.38c0-0.44-0.01-0.8-0.03-1.13h0.84l0.05,0.57c0.19-0.29,0.6-0.66,1.23-0.66
					c0.66,0,1.35,0.43,1.35,1.63v2.25h-0.96v-2.14c0-0.54-0.2-0.96-0.72-0.96c-0.38,0-0.65,0.27-0.75,0.56
					c-0.03,0.08-0.04,0.2-0.04,0.3v2.23h-0.96V104.38z"/>
				<path class="st74" d="M40.95,106.17c0.21,0.13,0.62,0.28,0.97,0.28c0.42,0,0.61-0.18,0.61-0.43c0-0.26-0.16-0.39-0.62-0.55
					c-0.74-0.25-1.05-0.66-1.05-1.11c0-0.67,0.55-1.19,1.44-1.19c0.42,0,0.78,0.1,1.01,0.23l-0.19,0.67
					c-0.16-0.09-0.47-0.22-0.8-0.22c-0.34,0-0.53,0.17-0.53,0.4c0,0.24,0.18,0.36,0.66,0.53c0.69,0.24,1.01,0.6,1.01,1.16
					c0,0.69-0.54,1.19-1.54,1.19c-0.46,0-0.88-0.11-1.16-0.27L40.95,106.17z"/>
				<path class="st74" d="M44.92,105.42c0.03,0.69,0.56,0.99,1.17,0.99c0.44,0,0.76-0.07,1.05-0.18l0.14,0.66
					c-0.33,0.14-0.78,0.24-1.33,0.24c-1.23,0-1.95-0.76-1.95-1.92c0-1.05,0.64-2.04,1.86-2.04c1.23,0,1.63,1.01,1.63,1.85
					c0,0.18-0.02,0.32-0.03,0.4H44.92z M46.59,104.75c0-0.35-0.15-0.92-0.79-0.92c-0.59,0-0.84,0.54-0.88,0.92H46.59z"/>
				<path class="st74" d="M51.05,106.93c-0.2,0.09-0.6,0.2-1.07,0.2c-1.19,0-1.96-0.76-1.96-1.94c0-1.14,0.78-2.02,2.11-2.02
					c0.35,0,0.71,0.08,0.93,0.17l-0.17,0.72c-0.15-0.08-0.38-0.15-0.73-0.15c-0.73,0-1.17,0.53-1.16,1.23
					c0,0.78,0.51,1.22,1.17,1.22c0.33,0,0.57-0.07,0.75-0.15L51.05,106.93z"/>
				<path class="st74" d="M52.98,102.17v1.09h0.91v0.71h-0.91v1.67c0,0.46,0.12,0.7,0.49,0.7c0.16,0,0.29-0.02,0.37-0.04l0.02,0.73
					c-0.14,0.05-0.4,0.1-0.7,0.1c-0.35,0-0.65-0.12-0.82-0.31c-0.21-0.22-0.3-0.57-0.3-1.06v-1.78H51.5v-0.71h0.54v-0.86
					L52.98,102.17z"/>
				<path class="st74" d="M55.25,105.42c0.03,0.69,0.56,0.99,1.17,0.99c0.44,0,0.76-0.07,1.05-0.18l0.14,0.66
					c-0.33,0.14-0.78,0.24-1.33,0.24c-1.23,0-1.95-0.76-1.95-1.92c0-1.05,0.64-2.04,1.86-2.04c1.23,0,1.63,1.01,1.63,1.85
					c0,0.18-0.02,0.32-0.03,0.4H55.25z M56.92,104.75c0-0.35-0.15-0.92-0.79-0.92c-0.59,0-0.84,0.54-0.88,0.92H56.92z"/>
				<path class="st74" d="M59.7,102.17v1.09h0.91v0.71H59.7v1.67c0,0.46,0.12,0.7,0.49,0.7c0.16,0,0.29-0.02,0.37-0.04l0.02,0.73
					c-0.14,0.05-0.4,0.1-0.7,0.1c-0.35,0-0.65-0.12-0.82-0.31c-0.21-0.22-0.3-0.57-0.3-1.06v-1.78h-0.54v-0.71h0.54v-0.86
					L59.7,102.17z"/>
				<path class="st74" d="M64.73,105.91c0,0.45,0.01,0.83,0.03,1.14h-0.84l-0.05-0.57c-0.18,0.27-0.56,0.66-1.24,0.66
					c-0.69,0-1.32-0.42-1.32-1.66v-2.23h0.96v2.06c0,0.63,0.2,1.03,0.71,1.03c0.38,0,0.63-0.27,0.73-0.51
					c0.03-0.08,0.05-0.19,0.05-0.3v-2.29h0.96V105.91z"/>
				<path class="st74" d="M65.77,104.47c0-0.51-0.01-0.88-0.03-1.22h0.83l0.04,0.72c0.21-0.53,0.66-0.81,1.07-0.81
					c0.09,0,0.15,0,0.23,0.02v0.9c-0.08-0.02-0.17-0.03-0.28-0.03c-0.46,0-0.77,0.29-0.86,0.73c-0.02,0.08-0.02,0.19-0.02,0.29v1.97
					h-0.96V104.47z"/>
				<path class="st74" d="M72.3,107.05l-0.07-0.42c-0.25,0.3-0.65,0.51-1.14,0.51c-0.77,0-1.2-0.55-1.2-1.13
					c0-0.96,0.85-1.44,2.25-1.44v-0.06c0-0.25-0.1-0.66-0.77-0.66c-0.37,0-0.76,0.12-1.02,0.28l-0.19-0.62
					c0.29-0.17,0.78-0.34,1.38-0.34c1.22,0,1.56,0.77,1.56,1.6v1.37c0,0.34,0.02,0.68,0.06,0.91H72.3z M72.17,105.19
					c-0.68-0.01-1.32,0.13-1.32,0.71c0,0.37,0.24,0.55,0.55,0.55c0.38,0,0.66-0.25,0.75-0.52c0.02-0.07,0.03-0.14,0.03-0.21V105.19z
					"/>
				<path class="st74" d="M77.62,101.51v4.47c0,0.39,0.01,0.81,0.03,1.06H76.8l-0.04-0.6c-0.24,0.43-0.7,0.69-1.25,0.69
					c-0.91,0-1.62-0.77-1.62-1.94c-0.01-1.27,0.79-2.03,1.7-2.03c0.52,0,0.89,0.21,1.06,0.49c0.02,0,0.02-2.15,0.02-2.15H77.62z
					 M76.66,104.83c0-0.08-0.01-0.17-0.02-0.25c-0.08-0.37-0.39-0.67-0.82-0.67c-0.62,0-0.96,0.54-0.96,1.25
					c0,0.7,0.35,1.21,0.95,1.21c0.39,0,0.73-0.27,0.83-0.68c0.02-0.09,0.03-0.18,0.03-0.28V104.83z"/>
				<path class="st74" d="M79.67,102.19c0,0.29-0.21,0.52-0.55,0.52c-0.32,0-0.53-0.23-0.53-0.52c0-0.29,0.21-0.52,0.54-0.52
					C79.46,101.67,79.67,101.9,79.67,102.19z M78.66,107.05v-3.79h0.96v3.79H78.66z"/>
				<path class="st74" d="M80.65,104.51c0-0.49-0.01-0.9-0.03-1.26h0.84l0.05,0.58c0.29-0.43,0.74-0.67,1.32-0.67
					c0.87,0,1.59,0.74,1.59,1.93c0,1.38-0.86,2.04-1.73,2.04c-0.48,0-0.87-0.2-1.07-0.51c-0.02,0-0.02,1.96-0.02,1.96h-0.96V104.51z
					 M81.61,105.46c0,0.09,0.01,0.18,0.03,0.26c0.1,0.39,0.44,0.67,0.84,0.67c0.61,0,0.97-0.51,0.97-1.25
					c0-0.67-0.33-1.22-0.94-1.22c-0.39,0-0.76,0.29-0.86,0.71c-0.02,0.08-0.03,0.16-0.03,0.24V105.46z"/>
				<path class="st74" d="M86.23,102.19c0,0.29-0.21,0.52-0.55,0.52c-0.32,0-0.53-0.23-0.53-0.52c0-0.29,0.21-0.52,0.54-0.52
					C86.02,101.67,86.23,101.9,86.23,102.19z M85.22,107.05v-3.79h0.96v3.79H85.22z"/>
				<path class="st74" d="M87.17,106.17c0.21,0.13,0.62,0.28,0.97,0.28c0.42,0,0.61-0.18,0.61-0.43c0-0.26-0.16-0.39-0.62-0.55
					c-0.74-0.25-1.05-0.66-1.05-1.11c0-0.67,0.55-1.19,1.44-1.19c0.42,0,0.78,0.1,1.01,0.23l-0.19,0.67
					c-0.16-0.09-0.47-0.22-0.8-0.22c-0.34,0-0.53,0.17-0.53,0.4c0,0.24,0.18,0.36,0.66,0.53c0.69,0.24,1.01,0.6,1.01,1.16
					c0,0.69-0.54,1.19-1.54,1.19c-0.46,0-0.88-0.11-1.16-0.27L87.17,106.17z"/>
				<path class="st74" d="M93.25,106.93c-0.2,0.09-0.6,0.2-1.07,0.2c-1.19,0-1.96-0.76-1.96-1.94c0-1.14,0.78-2.02,2.11-2.02
					c0.35,0,0.71,0.08,0.93,0.17l-0.17,0.72c-0.15-0.08-0.38-0.15-0.73-0.15c-0.73,0-1.17,0.53-1.16,1.23
					c0,0.78,0.51,1.22,1.17,1.22c0.33,0,0.57-0.07,0.75-0.15L93.25,106.93z"/>
				<path class="st74" d="M94.98,102.19c0,0.29-0.21,0.52-0.55,0.52c-0.32,0-0.53-0.23-0.53-0.52c0-0.29,0.21-0.52,0.54-0.52
					C94.77,101.67,94.98,101.9,94.98,102.19z M93.97,107.05v-3.79h0.96v3.79H93.97z"/>
				<path class="st74" d="M95.96,104.38c0-0.44-0.01-0.8-0.03-1.13h0.84l0.05,0.57c0.19-0.29,0.6-0.66,1.23-0.66
					c0.66,0,1.35,0.43,1.35,1.63v2.25h-0.96v-2.14c0-0.54-0.2-0.96-0.72-0.96c-0.38,0-0.65,0.27-0.75,0.56
					c-0.03,0.08-0.04,0.2-0.04,0.3v2.23h-0.96V104.38z"/>
				<path class="st74" d="M103.89,103.25c-0.02,0.26-0.03,0.57-0.03,1.09v2.15c0,0.8-0.16,1.36-0.56,1.72
					c-0.4,0.35-0.95,0.46-1.47,0.46c-0.48,0-0.99-0.1-1.32-0.3l0.21-0.73c0.24,0.15,0.65,0.29,1.11,0.29c0.62,0,1.09-0.33,1.09-1.15
					v-0.32c-0.23,0.33-0.62,0.56-1.12,0.56c-0.94,0-1.61-0.78-1.61-1.85c0-1.25,0.81-2,1.72-2c0.58,0,0.92,0.28,1.1,0.59
					c0.02,0,0.05-0.5,0.05-0.5H103.89z M102.9,104.78c0-0.09-0.01-0.18-0.03-0.26c-0.1-0.35-0.38-0.62-0.78-0.62
					c-0.53,0-0.93,0.47-0.93,1.24c0,0.64,0.33,1.17,0.93,1.17c0.36,0,0.67-0.23,0.78-0.58c0.03-0.1,0.04-0.23,0.04-0.34V104.78z"/>
				<path class="st74" d="M107.18,105.42c0.03,0.69,0.56,0.99,1.17,0.99c0.44,0,0.76-0.07,1.05-0.18l0.14,0.66
					c-0.33,0.14-0.78,0.24-1.33,0.24c-1.23,0-1.95-0.76-1.95-1.92c0-1.05,0.64-2.04,1.86-2.04c1.23,0,1.63,1.01,1.63,1.85
					c0,0.18-0.02,0.32-0.03,0.4H107.18z M108.85,104.75c0-0.35-0.15-0.92-0.79-0.92c-0.59,0-0.84,0.54-0.88,0.92H108.85z"/>
				<path class="st74" d="M110.53,101.51h0.96v5.53h-0.96V101.51z"/>
				<path class="st74" d="M113.55,102.19c0,0.29-0.21,0.52-0.55,0.52c-0.32,0-0.53-0.23-0.53-0.52c0-0.29,0.21-0.52,0.54-0.52
					C113.34,101.67,113.55,101.9,113.55,102.19z M112.53,107.05v-3.79h0.96v3.79H112.53z"/>
				<path class="st74" d="M115.63,102.17v1.09h0.91v0.71h-0.91v1.67c0,0.46,0.12,0.7,0.49,0.7c0.16,0,0.29-0.02,0.37-0.04l0.02,0.73
					c-0.14,0.05-0.4,0.1-0.7,0.1c-0.35,0-0.65-0.12-0.82-0.31c-0.21-0.22-0.3-0.57-0.3-1.06v-1.78h-0.54v-0.71h0.54v-0.86
					L115.63,102.17z"/>
				<path class="st74" d="M117.1,106.52c0-0.36,0.25-0.62,0.59-0.62c0.35,0,0.59,0.25,0.59,0.62c0,0.35-0.24,0.61-0.59,0.61
					C117.34,107.13,117.1,106.87,117.1,106.52z"/>
			</g>
		</g>
	</g>
	<g>
		<g>
			<path class="st86" d="M-345.91,62.58l-2.58-10.56h2.06l1.01,4.8c0.26,1.29,0.51,2.63,0.69,3.68c0.2-1.1,0.49-2.37,0.8-3.7
				l1.14-4.77h2.03l1.05,4.86c0.26,1.25,0.48,2.43,0.64,3.57c0.22-1.17,0.47-2.37,0.75-3.66l1.1-4.77h1.96l-2.85,10.56h-2.06
				l-1.09-4.97c-0.27-1.19-0.46-2.2-0.59-3.34c-0.21,1.13-0.41,2.14-0.73,3.35l-1.23,4.97H-345.91z"/>
			<path class="st86" d="M-333.31,59.3c0.05,1.38,1.12,1.99,2.36,1.99c0.89,0,1.52-0.14,2.11-0.35l0.29,1.33
				c-0.65,0.28-1.56,0.48-2.67,0.48c-2.48,0-3.93-1.53-3.93-3.87c0-2.11,1.28-4.1,3.73-4.1c2.48,0,3.29,2.04,3.29,3.71
				c0,0.36-0.03,0.65-0.07,0.81H-333.31z M-329.95,57.96c0.01-0.71-0.3-1.86-1.59-1.86c-1.19,0-1.68,1.08-1.77,1.86H-329.95z"/>
			<path class="st86" d="M-322.19,54.95l0.8,3.46c0.18,0.81,0.35,1.64,0.49,2.47c0.19-0.82,0.43-1.67,0.65-2.46l1-3.47h1.56
				l0.95,3.39c0.24,0.89,0.45,1.72,0.61,2.54c0.16-0.82,0.33-1.66,0.54-2.55l0.85-3.38h1.89l-2.39,7.63h-1.79l-0.91-3.11
				c-0.23-0.8-0.41-1.52-0.58-2.44c-0.19,0.94-0.39,1.69-0.61,2.44l-0.97,3.11h-1.8l-2.26-7.63H-322.19z"/>
			<path class="st86" d="M-309.56,52.82c0,0.58-0.42,1.04-1.1,1.04c-0.64,0-1.06-0.46-1.06-1.04c0-0.59,0.43-1.04,1.08-1.04
				C-309.98,51.78-309.56,52.23-309.56,52.82z M-311.6,62.58v-7.63h1.93v7.63H-311.6z"/>
			<path class="st86" d="M-307.59,51.46h1.93v11.13h-1.93V51.46z"/>
			<path class="st86" d="M-303.56,51.46h1.93v11.13h-1.93V51.46z"/>
			<path class="st86" d="M-296.38,60.81c0.43,0.26,1.26,0.56,1.95,0.56c0.85,0,1.23-0.36,1.23-0.86c0-0.52-0.32-0.78-1.25-1.11
				c-1.49-0.51-2.11-1.32-2.11-2.23c0-1.34,1.11-2.39,2.89-2.39c0.84,0,1.58,0.21,2.02,0.46l-0.38,1.35
				c-0.32-0.18-0.94-0.44-1.61-0.44c-0.69,0-1.07,0.34-1.07,0.81c0,0.48,0.37,0.72,1.33,1.07c1.39,0.49,2.03,1.2,2.04,2.32
				c0,1.39-1.08,2.4-3.1,2.4c-0.92,0-1.76-0.22-2.32-0.53L-296.38,60.81z"/>
			<path class="st86" d="M-282.51,58.69c0,2.8-1.97,4.06-3.92,4.06c-2.15,0-3.82-1.49-3.82-3.93c0-2.5,1.65-4.04,3.95-4.04
				C-284.03,54.78-282.51,56.38-282.51,58.69z M-288.26,58.77c0,1.47,0.73,2.58,1.9,2.58c1.11,0,1.87-1.07,1.87-2.6
				c0-1.2-0.53-2.57-1.86-2.57C-287.71,56.18-288.26,57.5-288.26,58.77z"/>
			<path class="st86" d="M-280.92,51.46h1.93v11.13h-1.93V51.46z"/>
			<path class="st86" d="M-275.67,54.95l1.24,3.87c0.22,0.67,0.38,1.29,0.52,1.91c0.19-0.63,0.36-1.23,0.57-1.91l1.21-3.87h2.03
				l-2.91,7.63h-1.9l-2.83-7.63H-275.67z"/>
			<path class="st86" d="M-267.78,59.3c0.05,1.38,1.12,1.99,2.36,1.99c0.89,0,1.52-0.14,2.1-0.35l0.29,1.33
				c-0.65,0.28-1.56,0.48-2.67,0.48c-2.48,0-3.93-1.53-3.93-3.87c0-2.11,1.28-4.1,3.73-4.1c2.48,0,3.29,2.04,3.29,3.71
				c0,0.36-0.03,0.65-0.07,0.81H-267.78z M-264.42,57.96c0.01-0.71-0.3-1.86-1.59-1.86c-1.19,0-1.68,1.08-1.77,1.86H-264.42z"/>
			<path class="st86" d="M-345.4,71.19l1.38,4.09c0.15,0.47,0.32,1.06,0.43,1.48c0.16-0.43,0.31-1,0.45-1.5l1.19-4.07h2.06
				l-1.91,5.21c-1.05,2.85-1.75,4.11-2.65,4.9c-0.76,0.66-1.54,0.91-2.02,0.97l-0.43-1.62c0.32-0.08,0.73-0.25,1.11-0.53
				c0.37-0.24,0.79-0.69,1.06-1.22c0.08-0.13,0.12-0.24,0.12-0.34c0-0.08-0.02-0.2-0.1-0.38l-2.8-7H-345.4z"/>
			<path class="st86" d="M-331.73,74.93c0,2.8-1.97,4.06-3.92,4.06c-2.15,0-3.82-1.49-3.82-3.93c0-2.5,1.65-4.04,3.95-4.04
				C-333.25,71.02-331.73,72.62-331.73,74.93z M-337.48,75.02c0,1.47,0.73,2.58,1.9,2.58c1.11,0,1.87-1.07,1.87-2.6
				c0-1.2-0.53-2.57-1.86-2.57C-336.93,72.42-337.48,73.74-337.48,75.02z"/>
			<path class="st86" d="M-323.31,76.54c0,0.91,0.03,1.66,0.06,2.28h-1.69l-0.09-1.15c-0.37,0.54-1.12,1.33-2.49,1.33
				c-1.39,0-2.66-0.84-2.66-3.33v-4.47h1.93v4.15c0,1.27,0.4,2.08,1.42,2.08c0.77,0,1.27-0.54,1.47-1.03c0.06-0.17,0.1-0.37,0.1-0.6
				v-4.6h1.93V76.54z"/>
			<path class="st86" d="M-321.22,73.65c0-1.02-0.02-1.77-0.06-2.45h1.67l0.07,1.45h0.05c0.38-1.07,1.26-1.62,2.09-1.62
				c0.19,0,0.3,0.01,0.45,0.04v1.82c-0.16-0.03-0.33-0.05-0.57-0.05c-0.92,0-1.56,0.58-1.73,1.46c-0.03,0.17-0.05,0.37-0.05,0.58
				v3.96h-1.93V73.65z"/>
			<path class="st86" d="M-312.4,73.72c0-0.99-0.03-1.81-0.06-2.53h1.69l0.1,1.17c0.59-0.86,1.48-1.34,2.65-1.34
				c1.75,0,3.2,1.5,3.2,3.88c0,2.77-1.73,4.09-3.47,4.09c-0.96,0-1.75-0.4-2.14-1.02c-0.03,0-0.03,3.95-0.03,3.95h-1.93V73.72z
				 M-310.47,75.63c0,0.19,0.02,0.36,0.05,0.53c0.2,0.78,0.87,1.35,1.69,1.35c1.22,0,1.94-1.02,1.94-2.51c0-1.35-0.66-2.45-1.9-2.45
				c-0.79,0-1.53,0.58-1.72,1.43c-0.04,0.15-0.07,0.32-0.07,0.49V75.63z"/>
			<path class="st86" d="M-303.23,73.65c0-1.02-0.02-1.77-0.06-2.45h1.67l0.07,1.45h0.05c0.38-1.07,1.26-1.62,2.09-1.62
				c0.19,0,0.3,0.01,0.45,0.04v1.82c-0.16-0.03-0.33-0.05-0.57-0.05c-0.92,0-1.56,0.58-1.73,1.46c-0.03,0.17-0.05,0.37-0.05,0.58
				v3.96h-1.93V73.65z"/>
			<path class="st86" d="M-290.55,74.93c0,2.8-1.97,4.06-3.92,4.06c-2.15,0-3.82-1.49-3.82-3.93c0-2.5,1.65-4.04,3.95-4.04
				C-292.07,71.02-290.55,72.62-290.55,74.93z M-296.3,75.02c0,1.47,0.73,2.58,1.9,2.58c1.11,0,1.87-1.07,1.87-2.6
				c0-1.2-0.53-2.57-1.86-2.57C-295.75,72.42-296.3,73.74-296.3,75.02z"/>
			<path class="st86" d="M-289.02,78.82c0.04-0.51,0.06-1.36,0.06-2.14V67.7h1.93v4.55c0.5-0.75,1.33-1.22,2.47-1.22
				c1.86,0,3.19,1.54,3.18,3.87c0,2.74-1.74,4.11-3.46,4.11c-0.98,0-1.85-0.38-2.4-1.32c-0.04,0-0.12,1.15-0.12,1.15H-289.02z
				 M-287.03,75.66c0,0.16,0.02,0.32,0.05,0.46c0.2,0.78,0.87,1.35,1.7,1.35c1.21,0,1.94-0.96,1.94-2.5c0-1.34-0.65-2.45-1.92-2.45
				c-0.78,0-1.5,0.56-1.71,1.41c-0.04,0.15-0.06,0.32-0.06,0.5V75.66z"/>
			<path class="st86" d="M-279.79,67.7h1.93v11.12h-1.93V67.7z"/>
			<path class="st86" d="M-274.41,75.54c0.05,1.38,1.12,1.99,2.36,1.99c0.89,0,1.52-0.14,2.1-0.35l0.29,1.33
				c-0.65,0.28-1.56,0.48-2.67,0.48c-2.48,0-3.93-1.53-3.93-3.87c0-2.11,1.28-4.1,3.73-4.1c2.48,0,3.29,2.04,3.29,3.71
				c0,0.36-0.03,0.65-0.07,0.81H-274.41z M-271.05,74.2c0.01-0.71-0.3-1.86-1.59-1.86c-1.19,0-1.68,1.08-1.77,1.86H-271.05z"/>
			<path class="st86" d="M-267.68,73.46c0-0.88-0.03-1.61-0.06-2.27h1.65l0.09,1.12c0.41-0.59,1.11-1.29,2.39-1.29
				c1.01,0,1.79,0.56,2.12,1.41c0.3-0.42,0.62-0.74,0.96-0.96c0.43-0.29,0.91-0.45,1.55-0.45c1.26,0,2.55,0.86,2.55,3.31v4.49h-1.88
				V74.6c0-1.27-0.44-2.02-1.36-2.02c-0.66,0-1.14,0.47-1.34,1.02c-0.06,0.18-0.1,0.43-0.1,0.64v4.58H-263v-4.41
				c0-1.07-0.43-1.83-1.32-1.83c-0.72,0-1.21,0.57-1.39,1.09c-0.07,0.19-0.1,0.42-0.1,0.64v4.51h-1.88V73.46z"/>
			<path class="st86" d="M-254.48,77.05c0.43,0.26,1.26,0.56,1.95,0.56c0.85,0,1.23-0.36,1.23-0.86c0-0.52-0.32-0.78-1.25-1.11
				c-1.49-0.51-2.11-1.32-2.11-2.23c0-1.34,1.11-2.39,2.9-2.39c0.84,0,1.58,0.21,2.02,0.46l-0.38,1.35
				c-0.32-0.18-0.94-0.44-1.61-0.44c-0.69,0-1.07,0.34-1.07,0.81c0,0.48,0.37,0.72,1.33,1.07c1.39,0.49,2.03,1.2,2.04,2.32
				c0,1.39-1.08,2.39-3.1,2.39c-0.92,0-1.76-0.22-2.32-0.53L-254.48,77.05z"/>
		</g>
		<g>
			<path class="st82" d="M-294.43,155.87h-38.18c-7.35,0-13.36-6.01-13.36-13.36c0-7.35,6.01-13.36,13.36-13.36h38.18
				c7.35,0,13.36,6.01,13.36,13.36C-281.07,149.86-287.08,155.87-294.43,155.87z"/>
			<g>
				<path class="st72" d="M-337.98,139.22c0.51-0.09,1.27-0.15,2.11-0.15c1.04,0,1.77,0.16,2.28,0.56c0.42,0.33,0.65,0.83,0.65,1.47
					c0,0.89-0.64,1.51-1.24,1.73c0.49,0.23,0.76,0.7,0.94,1.34c0.22,0.8,0.43,1.71,0.57,1.99h-1.63c-0.11-0.2-0.28-0.77-0.48-1.64
					c-0.2-0.88-0.49-1.11-1.15-1.12h-0.47v2.76h-1.58V139.22z M-336.41,142.24h0.62c0.79,0,1.26-0.4,1.26-1.01
					c0-0.64-0.44-0.97-1.17-0.98c-0.38,0-0.6,0.02-0.72,0.05V142.24z"/>
				<path class="st72" d="M-330.61,144.11c0.05,0.66,0.7,0.97,1.44,0.97c0.54,0,0.98-0.07,1.41-0.22l0.21,1.07
					c-0.53,0.22-1.17,0.32-1.85,0.32c-1.73,0-2.72-1.01-2.72-2.6c0-1.3,0.81-2.73,2.57-2.73c1.66,0,2.28,1.29,2.28,2.55
					c0,0.28-0.03,0.51-0.06,0.63H-330.61z M-328.74,143.02c0-0.38-0.17-1.04-0.89-1.04c-0.67,0-0.94,0.61-0.99,1.04H-328.74z"/>
				<path class="st72" d="M-323.42,146.15l-0.09-0.51c-0.37,0.41-0.89,0.62-1.49,0.62c-1.04,0-1.65-0.75-1.65-1.56
					c0-1.33,1.19-1.96,3-1.96v-0.06c0-0.27-0.15-0.66-0.94-0.66c-0.52,0-1.07,0.18-1.41,0.38l-0.29-1.02
					c0.36-0.2,1.05-0.46,1.99-0.46c1.7,0,2.24,1.01,2.24,2.21v1.78c0,0.49,0.03,0.95,0.08,1.24H-323.42z M-323.61,143.74
					c-0.84,0-1.48,0.2-1.48,0.81c0,0.41,0.27,0.61,0.63,0.61c0.39,0,0.72-0.26,0.82-0.59c0.02-0.08,0.03-0.18,0.03-0.27V143.74z"/>
				<path class="st72" d="M-315.87,138.74v5.89c0,0.58,0.02,1.18,0.04,1.53h-1.41l-0.07-0.75c-0.34,0.57-0.96,0.86-1.62,0.86
					c-1.21,0-2.18-1.04-2.18-2.62c-0.01-1.72,1.07-2.72,2.29-2.72c0.63,0,1.11,0.22,1.34,0.58c0.02,0,0.02-2.76,0.02-2.76H-315.87z
					 M-317.46,143.21c0-0.09,0-0.2-0.02-0.29c-0.09-0.43-0.44-0.78-0.92-0.78c-0.73,0-1.1,0.65-1.1,1.45c0,0.86,0.42,1.4,1.09,1.4
					c0.45,0,0.82-0.31,0.92-0.76c0.03-0.11,0.03-0.23,0.03-0.36V143.21z"/>
				<path class="st72" d="M-312.49,142.68c0-0.64-0.02-1.17-0.04-1.63h1.34l0.07,0.69c0.25-0.32,0.71-0.81,1.57-0.81
					c0.66,0,1.18,0.34,1.4,0.88c0.21-0.27,0.44-0.48,0.68-0.62c0.28-0.17,0.59-0.25,0.97-0.25c0.98,0,1.72,0.69,1.72,2.22v3.01
					h-1.55v-2.78c0-0.74-0.24-1.17-0.75-1.17c-0.37,0-0.62,0.25-0.73,0.55c-0.04,0.11-0.06,0.28-0.06,0.4v2.99h-1.55v-2.86
					c0-0.64-0.23-1.08-0.74-1.08c-0.41,0-0.65,0.31-0.74,0.57c-0.05,0.12-0.06,0.27-0.06,0.4v2.97h-1.55V142.68z"/>
				<path class="st72" d="M-298.48,143.55c0,1.87-1.32,2.72-2.69,2.72c-1.49,0-2.64-0.98-2.64-2.63c0-1.65,1.09-2.71,2.73-2.71
					C-299.52,140.93-298.48,142.01-298.48,143.55z M-302.17,143.6c0,0.87,0.37,1.53,1.04,1.53c0.62,0,1.01-0.62,1.01-1.54
					c0-0.75-0.29-1.53-1.01-1.53C-301.88,142.07-302.17,142.84-302.17,143.6z"/>
				<path class="st72" d="M-297.5,142.73c0-0.75-0.01-1.24-0.04-1.68h1.36l0.06,0.95c0.3-0.75,0.92-1.06,1.42-1.06
					c0.15,0,0.22,0,0.34,0.03v1.49c-0.12-0.03-0.25-0.04-0.43-0.04c-0.58,0-0.98,0.31-1.09,0.81c-0.02,0.1-0.03,0.22-0.03,0.35v2.59
					h-1.59V142.73z"/>
				<path class="st72" d="M-292.4,144.11c0.05,0.66,0.7,0.97,1.44,0.97c0.54,0,0.98-0.07,1.41-0.22l0.21,1.07
					c-0.53,0.22-1.17,0.32-1.85,0.32c-1.73,0-2.72-1.01-2.72-2.6c0-1.3,0.81-2.73,2.57-2.73c1.66,0,2.28,1.29,2.28,2.55
					c0,0.28-0.03,0.51-0.06,0.63H-292.4z M-290.53,143.02c0-0.38-0.17-1.04-0.89-1.04c-0.67,0-0.94,0.61-0.99,1.04H-290.53z"/>
			</g>
			<g class="st87">
				<path class="st86" d="M-346.69,92.44h0.96v4.45h2.16v0.81h-3.12V92.44z"/>
				<path class="st86" d="M-339.36,95.76c0,1.39-0.98,2.02-1.95,2.02c-1.07,0-1.9-0.74-1.9-1.95c0-1.24,0.82-2.01,1.96-2.01
					C-340.12,93.81-339.36,94.6-339.36,95.76z M-342.22,95.8c0,0.73,0.36,1.28,0.94,1.28c0.55,0,0.93-0.53,0.93-1.29
					c0-0.6-0.26-1.28-0.93-1.28C-341.95,94.51-342.22,95.16-342.22,95.8z"/>
				<path class="st86" d="M-338.57,95.12c0-0.51-0.01-0.88-0.03-1.22h0.83l0.04,0.72c0.21-0.53,0.66-0.81,1.07-0.81
					c0.09,0,0.15,0,0.23,0.02v0.9c-0.08-0.02-0.17-0.03-0.28-0.03c-0.46,0-0.77,0.29-0.86,0.73c-0.02,0.08-0.02,0.19-0.02,0.29v1.97
					h-0.96V95.12z"/>
				<path class="st86" d="M-335.19,96.06c0.03,0.69,0.56,0.99,1.17,0.99c0.44,0,0.76-0.07,1.05-0.18l0.14,0.66
					c-0.33,0.14-0.78,0.24-1.33,0.24c-1.23,0-1.95-0.76-1.95-1.92c0-1.05,0.64-2.04,1.86-2.04c1.23,0,1.63,1.01,1.63,1.85
					c0,0.18-0.02,0.32-0.03,0.4H-335.19z M-333.52,95.39c0-0.35-0.15-0.92-0.79-0.92c-0.59,0-0.84,0.54-0.88,0.92H-333.52z"/>
				<path class="st86" d="M-331.84,95.02c0-0.44-0.01-0.8-0.03-1.13h0.82l0.04,0.56c0.21-0.29,0.55-0.64,1.19-0.64
					c0.5,0,0.89,0.28,1.05,0.7c0.15-0.21,0.31-0.37,0.48-0.48c0.22-0.15,0.46-0.22,0.77-0.22c0.63,0,1.27,0.43,1.27,1.65v2.23h-0.94
					v-2.1c0-0.63-0.22-1-0.68-1c-0.33,0-0.57,0.23-0.67,0.5c-0.03,0.09-0.05,0.21-0.05,0.32v2.28h-0.94V95.5
					c0-0.53-0.21-0.91-0.65-0.91c-0.36,0-0.6,0.28-0.69,0.54c-0.03,0.1-0.05,0.21-0.05,0.32v2.24h-0.94V95.02z"/>
				<path class="st86" d="M-322.59,92.83c0,0.29-0.21,0.52-0.55,0.52c-0.32,0-0.53-0.23-0.53-0.52c0-0.29,0.21-0.52,0.54-0.52
					C-322.8,92.31-322.6,92.54-322.59,92.83z M-323.61,97.69V93.9h0.96v3.79H-323.61z"/>
				<path class="st86" d="M-321.62,95.15c0-0.49-0.01-0.9-0.03-1.26h0.84l0.05,0.58c0.29-0.43,0.74-0.67,1.32-0.67
					c0.87,0,1.59,0.74,1.59,1.93c0,1.38-0.86,2.04-1.73,2.04c-0.48,0-0.87-0.2-1.07-0.51c-0.02,0-0.02,1.96-0.02,1.96h-0.96V95.15z
					 M-320.66,96.1c0,0.09,0.01,0.18,0.03,0.26c0.1,0.39,0.44,0.67,0.84,0.67c0.61,0,0.97-0.51,0.97-1.25
					c0-0.67-0.33-1.22-0.94-1.22c-0.39,0-0.76,0.29-0.86,0.71c-0.02,0.08-0.03,0.16-0.03,0.24V96.1z"/>
				<path class="st86" d="M-317.1,96.81c0.21,0.13,0.62,0.28,0.97,0.28c0.42,0,0.61-0.18,0.61-0.43c0-0.26-0.16-0.39-0.62-0.55
					c-0.74-0.25-1.05-0.66-1.05-1.11c0-0.67,0.55-1.19,1.44-1.19c0.42,0,0.78,0.1,1.01,0.23l-0.19,0.67
					c-0.16-0.09-0.47-0.22-0.8-0.22c-0.34,0-0.53,0.17-0.53,0.4c0,0.24,0.18,0.36,0.66,0.53c0.69,0.24,1.01,0.6,1.01,1.16
					c0,0.69-0.54,1.19-1.54,1.19c-0.46,0-0.88-0.11-1.16-0.27L-317.1,96.81z"/>
				<path class="st86" d="M-310.41,96.55c0,0.45,0.01,0.83,0.03,1.14h-0.84l-0.05-0.57c-0.18,0.27-0.56,0.66-1.24,0.66
					c-0.69,0-1.32-0.42-1.32-1.66V93.9h0.96v2.06c0,0.63,0.2,1.03,0.71,1.03c0.38,0,0.63-0.27,0.73-0.51
					c0.03-0.08,0.05-0.19,0.05-0.3V93.9h0.96V96.55z"/>
				<path class="st86" d="M-309.36,95.02c0-0.44-0.01-0.8-0.03-1.13h0.82l0.04,0.56c0.21-0.29,0.55-0.64,1.19-0.64
					c0.5,0,0.89,0.28,1.05,0.7c0.15-0.21,0.31-0.37,0.48-0.48c0.22-0.15,0.45-0.22,0.77-0.22c0.63,0,1.27,0.43,1.27,1.65v2.23h-0.94
					v-2.1c0-0.63-0.22-1-0.68-1c-0.33,0-0.57,0.23-0.67,0.5c-0.03,0.09-0.05,0.21-0.05,0.32v2.28h-0.94V95.5
					c0-0.53-0.21-0.91-0.65-0.91c-0.36,0-0.6,0.28-0.69,0.54c-0.03,0.1-0.05,0.21-0.05,0.32v2.24h-0.94V95.02z"/>
				<path class="st86" d="M-297.64,92.16v4.47c0,0.39,0.01,0.81,0.03,1.06h-0.85l-0.04-0.6c-0.24,0.43-0.7,0.69-1.25,0.69
					c-0.91,0-1.62-0.77-1.62-1.94c-0.01-1.27,0.79-2.03,1.7-2.03c0.52,0,0.89,0.21,1.06,0.49c0.02,0,0.02-2.15,0.02-2.15H-297.64z
					 M-298.6,95.48c0-0.08,0-0.17-0.02-0.25c-0.08-0.37-0.39-0.67-0.82-0.67c-0.62,0-0.96,0.54-0.96,1.25c0,0.7,0.35,1.21,0.95,1.21
					c0.39,0,0.73-0.27,0.83-0.68c0.02-0.09,0.03-0.18,0.03-0.28V95.48z"/>
				<path class="st86" d="M-293,95.76c0,1.39-0.98,2.02-1.95,2.02c-1.07,0-1.9-0.74-1.9-1.95c0-1.24,0.82-2.01,1.96-2.01
					C-293.76,93.81-293,94.6-293,95.76z M-295.86,95.8c0,0.73,0.36,1.28,0.94,1.28c0.55,0,0.93-0.53,0.93-1.29
					c0-0.6-0.26-1.28-0.93-1.28C-295.59,94.51-295.86,95.16-295.86,95.8z"/>
				<path class="st86" d="M-292.21,92.16h0.96v5.53h-0.96V92.16z"/>
				<path class="st86" d="M-286.6,95.76c0,1.39-0.98,2.02-1.95,2.02c-1.07,0-1.9-0.74-1.9-1.95c0-1.24,0.82-2.01,1.96-2.01
					C-287.35,93.81-286.6,94.6-286.6,95.76z M-289.46,95.8c0,0.73,0.36,1.28,0.94,1.28c0.55,0,0.93-0.53,0.93-1.29
					c0-0.6-0.26-1.28-0.93-1.28C-289.18,94.51-289.46,95.16-289.46,95.8z"/>
				<path class="st86" d="M-285.81,95.12c0-0.51-0.01-0.88-0.03-1.22h0.83l0.04,0.72c0.21-0.53,0.66-0.81,1.07-0.81
					c0.09,0,0.15,0,0.23,0.02v0.9c-0.08-0.02-0.17-0.03-0.28-0.03c-0.46,0-0.77,0.29-0.86,0.73c-0.02,0.08-0.02,0.19-0.02,0.29v1.97
					h-0.96V95.12z"/>
				<path class="st86" d="M-281.46,96.81c0.21,0.13,0.62,0.28,0.97,0.28c0.42,0,0.61-0.18,0.61-0.43c0-0.26-0.16-0.39-0.62-0.55
					c-0.74-0.25-1.05-0.66-1.05-1.11c0-0.67,0.55-1.19,1.44-1.19c0.42,0,0.78,0.1,1.01,0.23l-0.19,0.67
					c-0.16-0.09-0.47-0.22-0.8-0.22c-0.34,0-0.53,0.17-0.53,0.4c0,0.24,0.18,0.36,0.66,0.53c0.69,0.24,1.01,0.6,1.01,1.16
					c0,0.69-0.54,1.19-1.54,1.19c-0.46,0-0.88-0.11-1.16-0.27L-281.46,96.81z"/>
				<path class="st86" d="M-277.15,92.83c0,0.29-0.21,0.52-0.55,0.52c-0.32,0-0.53-0.23-0.53-0.52c0-0.29,0.21-0.52,0.54-0.52
					C-277.36,92.31-277.15,92.54-277.15,92.83z M-278.16,97.69V93.9h0.96v3.79H-278.16z"/>
				<path class="st86" d="M-275.07,92.81v1.09h0.91v0.71h-0.91v1.67c0,0.46,0.12,0.7,0.49,0.7c0.16,0,0.29-0.02,0.37-0.04l0.02,0.73
					c-0.14,0.05-0.4,0.1-0.7,0.1c-0.35,0-0.65-0.12-0.82-0.31c-0.21-0.22-0.3-0.57-0.3-1.06v-1.78h-0.54V93.9h0.54v-0.86
					L-275.07,92.81z"/>
				<path class="st86" d="M-269.68,97.69l-0.07-0.42c-0.25,0.3-0.65,0.51-1.14,0.51c-0.77,0-1.2-0.55-1.2-1.13
					c0-0.96,0.85-1.44,2.25-1.44v-0.06c0-0.25-0.1-0.66-0.77-0.66c-0.37,0-0.76,0.12-1.02,0.28l-0.19-0.62
					c0.29-0.17,0.78-0.34,1.38-0.34c1.22,0,1.56,0.77,1.56,1.6v1.37c0,0.34,0.02,0.68,0.06,0.91H-269.68z M-269.81,95.83
					c-0.68-0.01-1.32,0.13-1.32,0.71c0,0.37,0.24,0.55,0.55,0.55c0.38,0,0.66-0.25,0.75-0.52c0.02-0.07,0.03-0.14,0.03-0.21V95.83z"
					/>
				<path class="st86" d="M-267.85,95.02c0-0.44-0.01-0.8-0.03-1.13h0.82l0.04,0.56c0.21-0.29,0.55-0.64,1.19-0.64
					c0.5,0,0.89,0.28,1.05,0.7c0.15-0.21,0.31-0.37,0.48-0.48c0.22-0.15,0.46-0.22,0.77-0.22c0.63,0,1.27,0.43,1.27,1.65v2.23h-0.94
					v-2.1c0-0.63-0.22-1-0.68-1c-0.33,0-0.57,0.23-0.67,0.5c-0.03,0.09-0.05,0.21-0.05,0.32v2.28h-0.94V95.5
					c0-0.53-0.21-0.91-0.65-0.91c-0.36,0-0.6,0.28-0.69,0.54c-0.03,0.1-0.05,0.21-0.05,0.32v2.24h-0.94V95.02z"/>
				<path class="st86" d="M-260.56,96.06c0.03,0.69,0.56,0.99,1.17,0.99c0.44,0,0.76-0.07,1.05-0.18l0.14,0.66
					c-0.33,0.14-0.78,0.24-1.33,0.24c-1.23,0-1.95-0.76-1.95-1.92c0-1.05,0.64-2.04,1.86-2.04c1.23,0,1.63,1.01,1.63,1.85
					c0,0.18-0.02,0.32-0.03,0.4H-260.56z M-258.9,95.39c0-0.35-0.15-0.92-0.79-0.92c-0.59,0-0.84,0.54-0.88,0.92H-258.9z"/>
				<path class="st86" d="M-256.12,92.81v1.09h0.91v0.71h-0.91v1.67c0,0.46,0.12,0.7,0.49,0.7c0.16,0,0.29-0.02,0.37-0.04l0.02,0.73
					c-0.14,0.05-0.4,0.1-0.7,0.1c-0.35,0-0.65-0.12-0.82-0.31c-0.21-0.22-0.3-0.57-0.3-1.06v-1.78h-0.54V93.9h0.54v-0.86
					L-256.12,92.81z"/>
				<path class="st86" d="M-254.98,98.63c0.21-0.59,0.42-1.41,0.52-2.06l1.01-0.08c-0.22,0.74-0.57,1.57-0.88,2.08L-254.98,98.63z"
					/>
				<path class="st86" d="M-343.94,106.93c-0.2,0.09-0.6,0.2-1.07,0.2c-1.19,0-1.96-0.76-1.96-1.94c0-1.14,0.78-2.02,2.11-2.02
					c0.35,0,0.71,0.08,0.93,0.17l-0.17,0.72c-0.15-0.08-0.38-0.15-0.73-0.15c-0.73,0-1.17,0.53-1.16,1.23
					c0,0.78,0.51,1.22,1.17,1.22c0.33,0,0.57-0.07,0.75-0.15L-343.94,106.93z"/>
				<path class="st86" d="M-339.69,105.11c0,1.39-0.98,2.02-1.95,2.02c-1.07,0-1.9-0.74-1.9-1.95c0-1.24,0.82-2.01,1.96-2.01
					C-340.44,103.17-339.69,103.96-339.69,105.11z M-342.55,105.15c0,0.73,0.36,1.28,0.94,1.28c0.55,0,0.93-0.53,0.93-1.29
					c0-0.6-0.26-1.28-0.93-1.28C-342.27,103.87-342.55,104.52-342.55,105.15z"/>
				<path class="st86" d="M-338.9,104.38c0-0.44-0.01-0.8-0.03-1.13h0.84l0.05,0.57c0.19-0.29,0.6-0.66,1.23-0.66
					c0.66,0,1.35,0.43,1.35,1.63v2.25h-0.96v-2.14c0-0.54-0.2-0.96-0.72-0.96c-0.38,0-0.65,0.27-0.75,0.56
					c-0.03,0.08-0.04,0.2-0.04,0.3v2.23h-0.96V104.38z"/>
				<path class="st86" d="M-334.48,106.17c0.21,0.13,0.62,0.28,0.97,0.28c0.42,0,0.61-0.18,0.61-0.43c0-0.26-0.16-0.39-0.62-0.55
					c-0.74-0.25-1.05-0.66-1.05-1.11c0-0.67,0.55-1.19,1.44-1.19c0.42,0,0.78,0.1,1.01,0.23l-0.19,0.67
					c-0.16-0.09-0.47-0.22-0.8-0.22c-0.34,0-0.53,0.17-0.53,0.4c0,0.24,0.18,0.36,0.66,0.53c0.69,0.24,1.01,0.6,1.01,1.16
					c0,0.69-0.54,1.19-1.54,1.19c-0.46,0-0.88-0.11-1.16-0.27L-334.48,106.17z"/>
				<path class="st86" d="M-330.51,105.42c0.03,0.69,0.56,0.99,1.17,0.99c0.44,0,0.76-0.07,1.05-0.18l0.14,0.66
					c-0.33,0.14-0.78,0.24-1.33,0.24c-1.23,0-1.95-0.76-1.95-1.92c0-1.05,0.64-2.04,1.86-2.04c1.23,0,1.63,1.01,1.63,1.85
					c0,0.18-0.02,0.32-0.03,0.4H-330.51z M-328.84,104.75c0-0.35-0.15-0.92-0.79-0.92c-0.59,0-0.84,0.54-0.88,0.92H-328.84z"/>
				<path class="st86" d="M-324.38,106.93c-0.2,0.09-0.6,0.2-1.07,0.2c-1.19,0-1.96-0.76-1.96-1.94c0-1.14,0.78-2.02,2.11-2.02
					c0.35,0,0.71,0.08,0.93,0.17l-0.17,0.72c-0.15-0.08-0.38-0.15-0.73-0.15c-0.73,0-1.17,0.53-1.16,1.23
					c0,0.78,0.51,1.22,1.17,1.22c0.33,0,0.57-0.07,0.75-0.15L-324.38,106.93z"/>
				<path class="st86" d="M-322.44,102.17v1.09h0.91v0.71h-0.91v1.67c0,0.46,0.12,0.7,0.49,0.7c0.16,0,0.29-0.02,0.37-0.04
					l0.02,0.73c-0.14,0.05-0.4,0.1-0.7,0.1c-0.35,0-0.65-0.12-0.82-0.31c-0.21-0.22-0.3-0.57-0.3-1.06v-1.78h-0.54v-0.71h0.54v-0.86
					L-322.44,102.17z"/>
				<path class="st86" d="M-320.17,105.42c0.03,0.69,0.56,0.99,1.17,0.99c0.44,0,0.76-0.07,1.05-0.18l0.14,0.66
					c-0.33,0.14-0.78,0.24-1.33,0.24c-1.23,0-1.95-0.76-1.95-1.92c0-1.05,0.64-2.04,1.86-2.04c1.23,0,1.63,1.01,1.63,1.85
					c0,0.18-0.02,0.32-0.03,0.4H-320.17z M-318.51,104.75c0-0.35-0.15-0.92-0.79-0.92c-0.59,0-0.84,0.54-0.88,0.92H-318.51z"/>
				<path class="st86" d="M-315.73,102.17v1.09h0.91v0.71h-0.91v1.67c0,0.46,0.12,0.7,0.49,0.7c0.16,0,0.29-0.02,0.37-0.04
					l0.02,0.73c-0.14,0.05-0.4,0.1-0.7,0.1c-0.35,0-0.65-0.12-0.82-0.31c-0.21-0.22-0.3-0.57-0.3-1.06v-1.78h-0.54v-0.71h0.54v-0.86
					L-315.73,102.17z"/>
				<path class="st86" d="M-310.69,105.91c0,0.45,0.01,0.83,0.03,1.14h-0.84l-0.05-0.57c-0.18,0.27-0.56,0.66-1.24,0.66
					c-0.69,0-1.32-0.42-1.32-1.66v-2.23h0.96v2.06c0,0.63,0.2,1.03,0.71,1.03c0.38,0,0.63-0.27,0.73-0.51
					c0.03-0.08,0.05-0.19,0.05-0.3v-2.29h0.96V105.91z"/>
				<path class="st86" d="M-309.65,104.47c0-0.51-0.01-0.88-0.03-1.22h0.83l0.04,0.72c0.21-0.53,0.66-0.81,1.07-0.81
					c0.09,0,0.15,0,0.23,0.02v0.9c-0.08-0.02-0.17-0.03-0.28-0.03c-0.46,0-0.77,0.29-0.86,0.73c-0.02,0.08-0.02,0.19-0.02,0.29v1.97
					h-0.96V104.47z"/>
				<path class="st86" d="M-303.13,107.05l-0.07-0.42c-0.25,0.3-0.65,0.51-1.14,0.51c-0.77,0-1.2-0.55-1.2-1.13
					c0-0.96,0.85-1.44,2.25-1.44v-0.06c0-0.25-0.1-0.66-0.77-0.66c-0.37,0-0.76,0.12-1.02,0.28l-0.19-0.62
					c0.29-0.17,0.78-0.34,1.38-0.34c1.22,0,1.56,0.77,1.56,1.6v1.37c0,0.34,0.02,0.68,0.06,0.91H-303.13z M-303.25,105.19
					c-0.68-0.01-1.32,0.13-1.32,0.71c0,0.37,0.24,0.55,0.55,0.55c0.38,0,0.66-0.25,0.75-0.52c0.02-0.07,0.03-0.14,0.03-0.21V105.19z
					"/>
				<path class="st86" d="M-297.8,101.51v4.47c0,0.39,0.01,0.81,0.03,1.06h-0.85l-0.04-0.6c-0.24,0.43-0.7,0.69-1.25,0.69
					c-0.91,0-1.62-0.77-1.62-1.94c-0.01-1.27,0.79-2.03,1.7-2.03c0.52,0,0.89,0.21,1.06,0.49c0.02,0,0.02-2.15,0.02-2.15H-297.8z
					 M-298.76,104.83c0-0.08-0.01-0.17-0.02-0.25c-0.08-0.37-0.39-0.67-0.82-0.67c-0.62,0-0.96,0.54-0.96,1.25
					c0,0.7,0.35,1.21,0.95,1.21c0.39,0,0.73-0.27,0.83-0.68c0.02-0.09,0.03-0.18,0.03-0.28V104.83z"/>
				<path class="st86" d="M-295.75,102.19c0,0.29-0.21,0.52-0.55,0.52c-0.32,0-0.53-0.23-0.53-0.52c0-0.29,0.21-0.52,0.54-0.52
					C-295.96,101.67-295.76,101.9-295.75,102.19z M-296.77,107.05v-3.79h0.96v3.79H-296.77z"/>
				<path class="st86" d="M-294.77,104.51c0-0.49-0.01-0.9-0.03-1.26h0.84l0.05,0.58c0.29-0.43,0.74-0.67,1.32-0.67
					c0.87,0,1.59,0.74,1.59,1.93c0,1.38-0.86,2.04-1.73,2.04c-0.48,0-0.87-0.2-1.07-0.51c-0.02,0-0.02,1.96-0.02,1.96h-0.96V104.51z
					 M-293.81,105.46c0,0.09,0.01,0.18,0.03,0.26c0.1,0.39,0.44,0.67,0.84,0.67c0.61,0,0.97-0.51,0.97-1.25
					c0-0.67-0.33-1.22-0.94-1.22c-0.39,0-0.76,0.29-0.86,0.71c-0.02,0.08-0.03,0.16-0.03,0.24V105.46z"/>
				<path class="st86" d="M-289.19,102.19c0,0.29-0.21,0.52-0.55,0.52c-0.32,0-0.53-0.23-0.53-0.52c0-0.29,0.21-0.52,0.54-0.52
					C-289.4,101.67-289.2,101.9-289.19,102.19z M-290.21,107.05v-3.79h0.96v3.79H-290.21z"/>
				<path class="st86" d="M-288.26,106.17c0.21,0.13,0.62,0.28,0.97,0.28c0.42,0,0.61-0.18,0.61-0.43c0-0.26-0.16-0.39-0.62-0.55
					c-0.74-0.25-1.05-0.66-1.05-1.11c0-0.67,0.55-1.19,1.44-1.19c0.42,0,0.78,0.1,1.01,0.23l-0.19,0.67
					c-0.16-0.09-0.47-0.22-0.8-0.22c-0.34,0-0.53,0.17-0.53,0.4c0,0.24,0.18,0.36,0.66,0.53c0.69,0.24,1.01,0.6,1.01,1.16
					c0,0.69-0.54,1.19-1.54,1.19c-0.46,0-0.88-0.11-1.16-0.27L-288.26,106.17z"/>
				<path class="st86" d="M-282.18,106.93c-0.2,0.09-0.6,0.2-1.07,0.2c-1.19,0-1.96-0.76-1.96-1.94c0-1.14,0.78-2.02,2.11-2.02
					c0.35,0,0.71,0.08,0.93,0.17l-0.17,0.72c-0.15-0.08-0.38-0.15-0.73-0.15c-0.73,0-1.17,0.53-1.16,1.23
					c0,0.78,0.51,1.22,1.17,1.22c0.33,0,0.57-0.07,0.75-0.15L-282.18,106.93z"/>
				<path class="st86" d="M-280.44,102.19c0,0.29-0.21,0.52-0.55,0.52c-0.32,0-0.53-0.23-0.53-0.52c0-0.29,0.21-0.52,0.54-0.52
					C-280.65,101.67-280.45,101.9-280.44,102.19z M-281.46,107.05v-3.79h0.96v3.79H-281.46z"/>
				<path class="st86" d="M-279.46,104.38c0-0.44-0.01-0.8-0.03-1.13h0.84l0.05,0.57c0.19-0.29,0.6-0.66,1.23-0.66
					c0.66,0,1.35,0.43,1.35,1.63v2.25h-0.96v-2.14c0-0.54-0.2-0.96-0.72-0.96c-0.38,0-0.65,0.27-0.75,0.56
					c-0.03,0.08-0.04,0.2-0.04,0.3v2.23h-0.96V104.38z"/>
				<path class="st86" d="M-271.54,103.25c-0.02,0.26-0.03,0.57-0.03,1.09v2.15c0,0.8-0.16,1.36-0.56,1.72
					c-0.4,0.35-0.95,0.46-1.47,0.46c-0.48,0-0.99-0.1-1.32-0.3l0.21-0.73c0.24,0.15,0.65,0.29,1.11,0.29c0.62,0,1.09-0.33,1.09-1.15
					v-0.32c-0.23,0.33-0.62,0.56-1.12,0.56c-0.94,0-1.61-0.78-1.61-1.85c0-1.25,0.81-2,1.72-2c0.58,0,0.92,0.28,1.1,0.59
					c0.02,0,0.05-0.5,0.05-0.5H-271.54z M-272.53,104.78c0-0.09-0.01-0.18-0.03-0.26c-0.1-0.35-0.38-0.62-0.78-0.62
					c-0.53,0-0.93,0.47-0.93,1.24c0,0.64,0.33,1.17,0.93,1.17c0.36,0,0.67-0.23,0.78-0.58c0.03-0.1,0.04-0.23,0.04-0.34V104.78z"/>
				<path class="st86" d="M-268.25,105.42c0.03,0.69,0.56,0.99,1.17,0.99c0.44,0,0.76-0.07,1.05-0.18l0.14,0.66
					c-0.33,0.14-0.78,0.24-1.33,0.24c-1.23,0-1.95-0.76-1.95-1.92c0-1.05,0.64-2.04,1.86-2.04c1.23,0,1.63,1.01,1.63,1.85
					c0,0.18-0.02,0.32-0.03,0.4H-268.25z M-266.58,104.75c0-0.35-0.15-0.92-0.79-0.92c-0.59,0-0.84,0.54-0.88,0.92H-266.58z"/>
				<path class="st86" d="M-264.9,101.51h0.96v5.53h-0.96V101.51z"/>
				<path class="st86" d="M-261.88,102.19c0,0.29-0.21,0.52-0.55,0.52c-0.32,0-0.53-0.23-0.53-0.52c0-0.29,0.21-0.52,0.54-0.52
					C-262.09,101.67-261.88,101.9-261.88,102.19z M-262.89,107.05v-3.79h0.96v3.79H-262.89z"/>
				<path class="st86" d="M-259.8,102.17v1.09h0.91v0.71h-0.91v1.67c0,0.46,0.12,0.7,0.49,0.7c0.16,0,0.29-0.02,0.37-0.04l0.02,0.73
					c-0.14,0.05-0.4,0.1-0.7,0.1c-0.35,0-0.65-0.12-0.82-0.31c-0.21-0.22-0.3-0.57-0.3-1.06v-1.78h-0.54v-0.71h0.54v-0.86
					L-259.8,102.17z"/>
				<path class="st86" d="M-258.33,106.52c0-0.36,0.25-0.62,0.59-0.62c0.35,0,0.59,0.25,0.59,0.62c0,0.35-0.24,0.61-0.59,0.61
					C-258.09,107.13-258.33,106.87-258.33,106.52z"/>
			</g>
		</g>
	</g>
	<g>
		<path class="st74" d="M31.52,51.97v10.74h-1.96V51.97H31.52z"/>
		<path class="st74" d="M33.79,57.26c0-0.9-0.03-1.63-0.06-2.31h1.67l0.09,1.14c0.42-0.6,1.13-1.31,2.43-1.31
			c1.03,0,1.82,0.57,2.15,1.43c0.3-0.42,0.63-0.75,0.98-0.97c0.44-0.3,0.93-0.46,1.58-0.46c1.28,0,2.59,0.88,2.59,3.37v4.57h-1.91
			v-4.29c0-1.29-0.45-2.05-1.38-2.05c-0.67,0-1.16,0.47-1.36,1.03c-0.06,0.19-0.1,0.44-0.1,0.66v4.65h-1.91v-4.49
			c0-1.09-0.44-1.86-1.34-1.86c-0.74,0-1.23,0.58-1.41,1.11c-0.07,0.2-0.1,0.43-0.1,0.65v4.58h-1.91V57.26z"/>
		<path class="st74" d="M47.3,57.26c0-0.9-0.03-1.63-0.06-2.31h1.67L49,56.1c0.42-0.6,1.13-1.31,2.43-1.31
			c1.03,0,1.82,0.57,2.15,1.43c0.3-0.42,0.63-0.75,0.98-0.97c0.44-0.3,0.93-0.46,1.58-0.46c1.28,0,2.59,0.88,2.59,3.37v4.57h-1.91
			v-4.29c0-1.29-0.45-2.05-1.38-2.05c-0.67,0-1.16,0.47-1.36,1.03c-0.06,0.19-0.1,0.44-0.1,0.66v4.65h-1.91v-4.49
			c0-1.09-0.44-1.86-1.34-1.86c-0.74,0-1.23,0.58-1.41,1.11c-0.07,0.2-0.1,0.43-0.1,0.65v4.58H47.3V57.26z"/>
		<path class="st74" d="M62.2,59.38c0.05,1.4,1.14,2.02,2.4,2.02c0.9,0,1.55-0.14,2.14-0.36l0.29,1.35
			c-0.66,0.28-1.58,0.49-2.71,0.49c-2.52,0-3.99-1.56-3.99-3.93c0-2.14,1.3-4.17,3.79-4.17c2.52,0,3.34,2.07,3.34,3.77
			c0,0.36-0.03,0.66-0.07,0.82H62.2z M65.61,58.01c0.01-0.72-0.3-1.89-1.62-1.89c-1.21,0-1.71,1.1-1.8,1.89H65.61z"/>
		<path class="st74" d="M76.18,51.4v9.14c0,0.8,0.03,1.65,0.06,2.18H74.5l-0.09-1.23c-0.5,0.87-1.44,1.4-2.55,1.4
			c-1.85,0-3.32-1.58-3.32-3.96c-0.01-2.6,1.61-4.14,3.48-4.14c1.06,0,1.83,0.44,2.17,1.01c0.03,0,0.03-4.39,0.03-4.39H76.18z
			 M74.22,58.19c0-0.16-0.01-0.35-0.04-0.51c-0.17-0.76-0.81-1.38-1.69-1.38c-1.26,0-1.96,1.11-1.96,2.55
			c0,1.43,0.71,2.47,1.94,2.47c0.8,0,1.5-0.55,1.69-1.4c0.04-0.17,0.06-0.37,0.06-0.57V58.19z"/>
		<path class="st74" d="M80.37,52.79c0,0.59-0.42,1.06-1.12,1.06c-0.65,0-1.08-0.47-1.07-1.06c0-0.6,0.44-1.06,1.1-1.06
			C79.94,51.73,80.37,52.18,80.37,52.79z M78.29,62.71v-7.76h1.96v7.76H78.29z"/>
		<path class="st74" d="M86.74,62.71l-0.13-0.86c-0.52,0.61-1.33,1.04-2.33,1.04c-1.57,0-2.44-1.12-2.44-2.31
			c0-1.96,1.74-2.95,4.6-2.94v-0.13c0-0.51-0.2-1.36-1.57-1.35c-0.76,0-1.56,0.24-2.09,0.58l-0.39-1.27
			c0.59-0.36,1.59-0.69,2.81-0.69c2.49,0,3.2,1.57,3.2,3.27v2.79c0,0.71,0.03,1.39,0.12,1.87H86.74z M86.48,58.91
			c-1.38-0.02-2.71,0.27-2.71,1.45c0,0.76,0.5,1.12,1.12,1.12c0.78,0,1.35-0.51,1.53-1.07c0.04-0.14,0.06-0.29,0.06-0.43V58.91z"/>
		<path class="st74" d="M92.62,52.74v2.22h1.87v1.46h-1.87v3.42c0,0.95,0.25,1.43,1,1.43c0.33,0,0.59-0.04,0.76-0.09l0.04,1.49
			c-0.29,0.11-0.81,0.2-1.43,0.2c-0.72,0-1.32-0.25-1.68-0.64c-0.42-0.44-0.61-1.16-0.61-2.18v-3.65h-1.11v-1.46h1.11V53.2
			L92.62,52.74z"/>
		<path class="st74" d="M97.25,59.38c0.05,1.4,1.14,2.02,2.4,2.02c0.9,0,1.55-0.14,2.14-0.36l0.29,1.35
			c-0.66,0.28-1.59,0.49-2.71,0.49c-2.52,0-3.99-1.56-3.99-3.93c0-2.14,1.3-4.17,3.79-4.17c2.52,0,3.34,2.07,3.34,3.77
			c0,0.36-0.03,0.66-0.07,0.82H97.25z M100.66,58.01c0.01-0.72-0.3-1.89-1.62-1.89c-1.21,0-1.71,1.1-1.8,1.89H100.66z"/>
		<path class="st74" d="M29.56,67.63h1.96v4.61c0.28-0.37,0.6-0.67,1.01-0.89c0.38-0.22,0.85-0.35,1.34-0.35
			c1.32,0,2.71,0.88,2.71,3.36v4.57h-1.96v-4.35c0-1.12-0.41-1.98-1.49-1.98c-0.77,0-1.3,0.52-1.52,1.1
			c-0.07,0.17-0.09,0.38-0.09,0.59v4.64h-1.96V67.63z"/>
		<path class="st74" d="M40.05,75.61c0.05,1.4,1.14,2.02,2.4,2.02c0.9,0,1.55-0.14,2.14-0.36l0.29,1.35
			c-0.66,0.28-1.58,0.49-2.71,0.49c-2.52,0-3.99-1.56-3.99-3.93c0-2.14,1.3-4.17,3.79-4.17c2.52,0,3.34,2.07,3.34,3.77
			c0,0.36-0.03,0.66-0.07,0.82H40.05z M43.46,74.24c0.01-0.72-0.3-1.89-1.62-1.89c-1.21,0-1.71,1.1-1.8,1.89H43.46z"/>
		<path class="st74" d="M46.89,67.63h1.96v11.31h-1.96V67.63z"/>
		<path class="st74" d="M50.99,73.76c0-1.01-0.03-1.84-0.06-2.57h1.72l0.1,1.19c0.6-0.88,1.51-1.37,2.69-1.37
			c1.78,0,3.25,1.52,3.25,3.94c0,2.81-1.76,4.16-3.53,4.16c-0.98,0-1.78-0.41-2.18-1.04c-0.03,0-0.03,4.01-0.03,4.01h-1.96V73.76z
			 M52.95,75.7c0,0.19,0.02,0.37,0.05,0.53c0.2,0.8,0.89,1.37,1.72,1.37c1.24,0,1.97-1.03,1.97-2.56c0-1.37-0.67-2.49-1.93-2.49
			c-0.81,0-1.55,0.59-1.75,1.45c-0.04,0.16-0.07,0.33-0.07,0.49V75.7z"/>
	</g>
</g>
</svg>
